<svg height="20" width="28" version="1.0" xmlns="http://www.w3.org/2000/svg" xmlns:xlink="http://www.w3.org/1999/xlink" x="0px" y="0px" viewBox="0 0 28 20" style="enable-background:new 0 0 28 20;" xml:space="preserve"><style type="text/css">.st0{fill-rule:evenodd;clip-rule:evenodd;fill:#FF4B55}.st1{fill:#FFE15A}</style><g> <path id="a_1_" class="st0" d="M3,0h22c1.7,0,3,1.3,3,3v14c0,1.7-1.3,3-3,3H3c-1.7,0-3-1.3-3-3V3C0,1.3,1.3,0,3,0z"/> </g> <g id="icons"> <path id="favorite" class="st1" d="M14.4,6.1l0.9,2c0,0.1,0.2,0.2,0.3,0.2l2.1,0.3c0.4,0,0.5,0.4,0.2,0.7L16.4,11 c-0.1,0.1-0.1,0.2-0.1,0.4l0.4,2.2c0,0.3-0.3,0.6-0.6,0.5L14.2,13c-0.1-0.1-0.2-0.1-0.4,0l-1.9,1.1c-0.3,0.2-0.7-0.1-0.6-0.5 l0.4-2.2c0-0.1,0-0.3-0.1-0.4L10,9.4c-0.2-0.2-0.1-0.7,0.2-0.7l2.1-0.3c0.1,0,0.2-0.1,0.3-0.2l0.9-2C13.8,5.8,14.2,5.8,14.4,6.1z" /> </g> </svg>