<svg xmlns="http://www.w3.org/2000/svg" xmlns:xlink="http://www.w3.org/1999/xlink" enable-background="new 0 0 3600 3000" viewBox="0 0 3600 3000"><path fill="#c8d9fb" d="M1999.01,778.4c-231.61-142.76-380.51-402.61-628.07-515.44c-170.69-96.22-890.15-202.38-645.77,169
		c329.46,500.68,10.95,1004.52,758.87,1343.19c463.44,191.82,1527.93,467.31,1603.73-271.74
		C2990.3,1024.27,2354.26,993.43,1999.01,778.4z"/><path fill="#c8d9fb" d="M161.41,2245.79c-68.18,50.77,101.24,69.6,94.91,265.76c-6.33,196.16,199.32-15.82,382.82,186.66
		c183.5,202.48,642.25-91.75,1097.84,85.42c455.59,177.17,272.09-227.79,613.77-189.83c341.69,37.97,569.48-82.26,613.78-215.14
		c44.29-132.88,179.94-100.13,146.92-192.44C3078.43,2093.93,458.81,2024.33,161.41,2245.79z"/><path fill="#4094f2" d="M224.03,2264.23c-62.87,39.83,93.35,54.61,87.52,208.5c-5.83,153.89,183.79-12.41,352.99,146.44
		c169.2,158.85,592.21-71.98,1012.29,67.02c420.09,139,250.89-178.71,565.95-148.93c315.06,29.79,525.11-64.53,565.95-168.78
		c40.84-104.25,165.92-78.55,135.47-150.97C2913.76,2145.09,498.26,2090.48,224.03,2264.23z" opacity=".25"/><path fill="#7ac094" d="M462.75,2078.13c0,0,34.51-250.51-34.2-225.78C359.83,1877.08,391.37,1977.47,462.75,2078.13z"/><path fill="#b8debf" d="M467.29,2075.71c0,0-140.51-247.1-237.45-162.13C132.9,1998.54,467.29,2075.71,467.29,2075.71z"/><path fill="#5ca88d" d="M269.57,2211.84h1213.05l-17.39-60.64l-40.92-143.63c-28.99-101.39-129.71-164.84-233.75-147.11
					l-52.52,9.11c-3.98,0.66-7.79,1-11.6,1c-23.19,0-45.22-11.6-58.31-31.31c-90.12-135.18-293.89-118.45-360.82,29.66l-8.95,19.88
					c-15.78,35.08-56.98,50.75-92.09,35.04l-52.37-23.44c-30.65-13.75-64.78-3.48-83.66,20.71c-6.96,8.78-11.93,19.38-13.92,31.31
					l-7.79,45.39c-1.99,11.26-6.3,21.2-12.43,29.49c-1.16,1.49-2.32,2.98-3.48,4.31c-10.6,12.26-25.01,20.38-40.75,23.2
					c-3.97,0.83-8.28,1.16-12.42,1.16c-13.14,0-26.46-3.6-38.55-11.67c-27.27-18.21-63.84-13.67-87.02,9.52l-35.19,35.19
					C173.34,2134.32,205.45,2211.84,269.57,2211.84z"/><path fill="#fff" d="M376.62,2211.84h1105.99l-17.39-60.64c-54.67-49.04-130.21-73.06-207.08-59.81l-40.92,6.96l-22.03,3.65
					c-4.8,0.83-9.6,1.16-14.25,1.16c-10.27,0-20.38-1.82-29.82-5.46c-15.9-6.13-29.82-16.9-39.76-31.81
					c-13.91-21.04-30.32-38.93-48.21-53.67c-6.96-5.96-14.08-11.26-21.54-16.07c-40.26-26.67-86.48-39.92-132.87-40.42
					c-27.16-0.5-54.17,3.48-80.01,11.93c-62.79,19.89-118.45,65.11-149.43,133.86l-10.77,23.53
					c-19.05,42.25-68.58,60.96-110.66,42.08l-31.81-14.25l-30.65-13.75c-13.92-6.3-28.5-8.28-42.41-6.96
					c-36.12,3.48-67.92,30.32-74.55,69.25L376.62,2211.84z" opacity=".1"/><path fill="#7ac094" d="M1226.65,1998.18c0,10.5,8.44,19.02,18.86,19.02c10.42,0,18.86-8.51,18.86-19.02
					c0-10.5-8.45-19.01-18.86-19.01C1235.09,1979.16,1226.65,1987.68,1226.65,1998.18z"/><path fill="#b8debf" d="M575.89 2088.87c0 9.69 7.86 17.55 17.55 17.55s17.55-7.86 17.55-17.55c0-9.69-7.86-17.55-17.55-17.55S575.89 2079.17 575.89 2088.87zM817.78 1887.38c0 21.98 17.81 39.79 39.79 39.79 21.98 0 39.79-17.81 39.79-39.79 0-21.98-17.82-39.79-39.79-39.79C835.6 1847.59 817.78 1865.41 817.78 1887.38z"/><path fill="#7ac094" d="M960.05,2208.48c0,0,157.13-198.12,85.4-211.78C973.72,1983.03,949.8,2085.51,960.05,2208.48z"/><path fill="#b8debf" d="M960.05 2208.48c0 0-99.06-266.44-208.37-198.12C642.37 2078.68 960.05 2208.48 960.05 2208.48zM960.05 2208.48c0 0 365.5-44.41 273.27-102.48C1141.09 2047.93 960.05 2208.48 960.05 2208.48z"/><path fill="#383b4b" d="M448.22,2262.79c0,0,0.46,2.14-1.76,3.42c-2.23,1.29-88.53-72.13-86.77-75.55
						c1.77-3.43,5.28-2.49,5.28-2.49S445.48,2253.44,448.22,2262.79z"/><polygon fill="#d7a28e" points="427.88 2137.71 378.17 2178.99 397.53 2203.09 439.3 2154.85"/><path fill="#202234" d="M382.11,2161.78c-13.67,11.29-22.36,20.95-19.9,27.36c2.27,6.55,85.44,75.85,85.44,75.85
						s19.29-3.53,1.6-23.71c-13.54-15.74-24.77-40.52-29.09-51.12l0.18-0.15c2.57-6.85,9.23-10.1,5.11-10.39
						c-2.47-0.1-5.86,2.02-9.13,4.64c-8.41,1.07-23.73-10.56-24.29-17.58C392.03,2166.68,395.93,2150.68,382.11,2161.78z"/><path fill="#383b4b" d="M427.14,2226.41c7.61,18.42,22.11,14.86,22.11,14.86c-13.54-15.74-24.77-40.52-29.09-51.12l0.18-0.15
						C412.66,2191.99,420.12,2208.73,427.14,2226.41z"/><path fill="#021c41" d="M723.1,1274.25c0,0-11.63,277.68-47.03,349.94c-35.4,72.26-108.47,213.34-280.34,529.24
					c-5.71,10.49,27.49,24.66,27.49,24.66s424.46-305.74,505.14-455.42c34.11-63.29,38.61-252.76,59.13-281.46
					C1007.99,1412.52,723.1,1274.25,723.1,1274.25z"/><g><path fill="#383b4b" d="M1060.83,2363.09c0,0,1.25,1.24,0.32,3.09c-0.94,1.85-91.48-9.68-91.8-12.77c-0.32-3.09,2.47-4,2.47-4
					S1054.88,2357.99,1060.83,2363.09z"/><polygon fill="#d7a28e" points="978.27 2295.37 981.87 2343.43 1005.54 2351.17 1005.06 2304.13"/><path fill="#202234" d="M971.77,2324.05c-4.25,13.63-5.86,23.97-1.38,27.22c4.41,3.42,91.03,13.55,91.03,13.55
					s11.46-10.88-9.36-16.7c-16.07-4.66-34.55-16.43-42.13-21.67l0.06-0.18c-1.28-5.76,1.78-10.88-1.12-9.26
					c-1.72,1.02-3.06,3.94-4.11,7.15c-5.2,4.43-20.66,3.33-24.13-1.16C980.62,2323,976.21,2310.48,971.77,2324.05z"/><path fill="#383b4b" d="M1030.6,2347.83c13.25,9.07,21.45,0.29,21.45,0.29c-16.07-4.66-34.55-16.43-42.13-21.67l0.06-0.18
					C1005.67,2330.99,1018.08,2338.99,1030.6,2347.83z"/></g><path fill="#062449" d="M616.11,1316.34l212.65,478.45c0,0,107.31,209.59,144.14,510.37c3.45,28.21,38.37,4.87,38.37,4.87
				s83.86-355.54,78.19-475.99c-5.27-111.82-105.29-400.67-102.71-435.85C989.3,1363.02,616.11,1316.34,616.11,1316.34z"/><g><path fill="#d7a28e" d="M955.58,919.73c0,0,51.8,145.9,83.39,185.84c119.32,150.82,300.7,176.24,300.7,176.24l11.2-23.91
					l-224.48-197.61l-74.27-173.18L955.58,919.73z"/><path fill="#f5b297" d="M1027.08,1295.15c0,0,22.24,40.17,18.47,56.89c-3.77,16.71-18.29,57.98-36.74,55.54
						c-18.45-2.44-42.86-17.1-44.21-30.45c-1.42-14.03,24.49-40.68,20.73-52.44c-3.77-11.76,7.81-44.97,7.81-44.97L1027.08,1295.15z
						"/><path fill="#5681f1" d="M941.45,763.28c0,0,96.26,50.32,131.04,161.76l-78.63,44.61L941.45,763.28z"/><path fill="#394ca4" d="M874.44,741.56c53.34,12.35,153.89,40.68,153.13,158.2c-0.76,117.53-0.79,405.82-94.5,502.68
					c-65.68,67.88-313.83,73.54-343.74-105.12c-22.49-134.35,51.96-411.28,106.67-495.85C750.73,716.89,828.77,730.97,874.44,741.56
					z"/><polygon fill="#eddaab" points="1349.51 1164.4 1386.8 1155.63 1163.44 1087.86 924.27 1071.27 958.44 1124.66 1181.35 1238.54"/><polygon fill="#fcc61a" points="924.27 1071.27 1146.19 1153.83 1088.81 1468.4 869.04 1374.08"/><path fill="#202234" d="M1075.56,1256.43c-8.27,11.29-24.92,19.72-28.39,34.97c-3.93,17.23,1.58,34.35-5.93,51.29
						c-14.84,33.51-53.3,17.36-74.37,10.14c-6.6-2.26-13.44-3.72-20.43-1.12c-8.1,3.02-14.24,10.32-21.31,15.77
						c-11.69,9.02-25.02,14.43-38.28,14.23l201.96,86.67l43.69-239.52C1130.06,1221.29,1086.35,1241.69,1075.56,1256.43z" opacity=".1"/><path fill="#f2faff" d="M925.47,1135.53c4.12,2.74,9.15,5.96,12.23-0.71c1.85-4,2.52-8.77,3.7-13.03
						c2.08-7.46,5.5-13.16,10.66-18.25c10.45-10.32,23.84-11.32,35.95-8.55l-63.74-23.72l-10.51,57.63
						C917.9,1130.33,921.7,1133.03,925.47,1135.53z" opacity=".67"/><polygon fill="#eab213" points="1293.45 1127.49 1227.43 1106.75 1008.08 1100.01 997.54 1161.88 1024.04 1175.31 1030.5 1165.73 1031.38 1180.38 1051.46 1191.58 1060.86 1125.1" opacity=".35"/><polygon fill="#eab213" points="996.12 1427.49 1002.55 1379.29 989.32 1374.6 985.53 1380.19 985.04 1371.78 950.87 1355.6 940.32 1404.05" opacity=".35"/><polygon fill="#eab213" points="1386.8 1155.63 1332.18 1455.04 1088.81 1468.4 1146.19 1153.83"/><path fill="#202234" d="M1255.12,1154.65c10.48,14.39,24.03,20.01,40.42,20.59c15.44,0.55,30.52-2.75,43.74,7.82
						c10.5,8.4,16.72,22.51,19.44,37.4c6.04,33.07-0.7,72.08-24.23,95.36c-11.59,11.47-26.49,19.93-34.42,35.97
						c-7.93,16.04-5.62,35.11-10.46,52.12c-5.57,19.57-20.12,27.98-35.75,31.68c-19.03,4.51-36.3-1.53-53.18-9.77
						c-7.79-3.8-17.72-11.47-26.66-10.42c-5.05,0.59-9.02,6.5-13.28,9.58c-11.34,8.19-25.46,8.8-34.77-1.75
						c-19.24-21.8-12.24-63,1.33-88.42c4.6-8.63,10.19-17.03,13.17-26.66c1.93-6.22,2.35-12.67,2.19-19.1
						c-0.85-3.18-1.53-6.44-2.08-9.57c-2.12-12.18-3.23-24.65-5.04-36.93c-0.41-2.76-0.83-5.65-1.32-8.56
						c-0.51-1.75-1.18-3.4-1.73-5.13l-43.69,239.52l243.37-13.35l54.61-299.41L1255.12,1154.65z" opacity=".15"/><g><path fill="#383b4b" d="M1142.1,1443.46l-27.5,0.67l5.3-29.03l27.5-0.67L1142.1,1443.46z M1116.98,1441.4l23.72-0.58l4.32-23.66
							l-23.72,0.58L1116.98,1441.4z"/><path fill="#383b4b" d="M1131.97 1438.77l-6.45.16 1.68-9.18 6.45-.16L1131.97 1438.77zM1127.9 1436.19l2.68-.06.69-3.81-2.68.07L1127.9 1436.19zM1138.75 1438.6l-6.45.16 1.67-9.18 6.45-.16L1138.75 1438.6zM1134.68 1436.03l2.68-.07.69-3.81-2.68.07L1134.68 1436.03z"/><g><path fill="#383b4b" d="M1173.63,1442.69l-27.49,0.67l5.3-29.04l27.5-0.67L1173.63,1442.69z M1148.52,1440.63l23.72-0.58
							l4.32-23.66l-23.72,0.58L1148.52,1440.63z"/><path fill="#383b4b" d="M1163.51 1438l-6.45.16 1.68-9.18 6.45-.16L1163.51 1438zM1159.44 1435.42l2.68-.07.69-3.81-2.68.06L1159.44 1435.42zM1170.29 1437.83l-6.45.16 1.68-9.18 6.45-.16L1170.29 1437.83zM1166.22 1435.26l2.68-.07.69-3.81-2.68.07L1166.22 1435.26z"/></g></g><g><path fill="#383b4b" d="M1179.22 1284.18c1.36.95 2.3 2.34 2.8 4.16.5 1.82.53 3.97.08 6.45-.45 2.48-1.27 4.65-2.44 6.49-1.17 1.85-2.62 3.28-4.35 4.31-1.73 1.03-3.64 1.57-5.74 1.62l-4.05.1-1.57 8.63-6.56.16 6.02-33.02 10.61-.26C1176.12 1282.78 1177.85 1283.23 1179.22 1284.18zM1173.79 1298.54c.83-.85 1.39-2.04 1.68-3.59.28-1.54.16-2.73-.37-3.56-.53-.83-1.47-1.23-2.81-1.2l-3.65.09-1.76 9.67 3.65-.09C1171.86 1299.84 1172.96 1299.39 1173.79 1298.54zM1197.04 1308.75l-9.81.24-2.99 6.46-6.69.16 16.26-33.26 6.46-.16 4.25 32.77-6.82.17L1197.04 1308.75zM1196.37 1301.91l-1.05-10.49-4.91 10.64L1196.37 1301.91zM1211.34 1313.26c-1.67-1.42-2.82-3.41-3.44-6-.63-2.58-.64-5.52-.04-8.83.6-3.3 1.69-6.27 3.27-8.91 1.58-2.64 3.47-4.71 5.67-6.22 2.2-1.51 4.51-2.3 6.94-2.35 2.12-.05 3.93.44 5.44 1.46 1.51 1.03 2.64 2.53 3.4 4.52l-5.16 5.48c-1.03-2.54-2.62-3.79-4.76-3.74-1.26.03-2.45.45-3.58 1.26-1.13.81-2.09 1.94-2.89 3.38-.8 1.44-1.37 3.09-1.71 4.95-.34 1.86-.37 3.49-.09 4.91.28 1.42.84 2.51 1.68 3.27.84.76 1.89 1.13 3.15 1.1 2.14-.05 4.2-1.39 6.17-4l3.19 5.28c-1.49 2.04-3.19 3.62-5.08 4.72-1.9 1.11-3.9 1.69-6.02 1.74C1215.05 1315.35 1213 1314.68 1211.34 1313.26zM1241.62 1302.12l-3.13 3.79-1.51 8.25-6.49.16 6.02-33.01 6.5-.16-2.5 13.72 11.48-13.94 7.22-.18-12.14 14.85 6.62 18.15-7.62.19L1241.62 1302.12z"/><path fill="#383b4b" d="M1271.02 1306.94l-9.81.24-2.99 6.46-6.69.16 16.26-33.27 6.46-.16 4.25 32.76-6.83.17L1271.02 1306.94zM1270.36 1300.1l-1.05-10.49-4.91 10.64L1270.36 1300.1zM1298.71 1295.52l5.8-.14-2.5 13.68c-1.57 1.38-3.28 2.46-5.14 3.22-1.85.77-3.64 1.17-5.37 1.21-2.43.06-4.48-.62-6.16-2.03-1.68-1.42-2.83-3.41-3.46-6-.63-2.58-.64-5.52-.04-8.83.6-3.3 1.69-6.27 3.27-8.91 1.58-2.64 3.48-4.71 5.72-6.22 2.23-1.51 4.59-2.3 7.06-2.36 2.16-.05 4.01.42 5.55 1.42 1.53 1 2.7 2.45 3.49 4.38l-5.16 5.48c-1.12-2.41-2.78-3.59-4.96-3.54-1.99.05-3.74.95-5.27 2.69-1.53 1.74-2.55 4.05-3.08 6.91-.33 1.82-.35 3.44-.06 4.86.29 1.42.86 2.52 1.71 3.3.85.78 1.91 1.15 3.19 1.12 1.26-.03 2.51-.42 3.75-1.17L1298.71 1295.52zM1325.47 1304.82l-1.32 7.22-18.62.45 6.02-33.01 18.19-.45-1.32 7.22-11.7.29-1.01 5.56 10.31-.25-1.28 6.98-10.3.25-1.1 6.04L1325.47 1304.82z"/></g><g><path fill="#d7a28e" d="M663.07,942.33c0,0,2.69,154.8,19.94,202.71c65.14,180.95,229.01,262.75,229.01,262.75l18.22-19.1
					l-149.96-258.76l-15.32-187.81L663.07,942.33z"/></g><path fill="#5681f1" d="M660.43,1003.35c0,0,108.26,7.25,124.59-3.23c16.33-10.48,26.85-220.99-10.69-247.07
				C736.79,726.99,638.38,797.47,660.43,1003.35z"/><g><path fill="#f5b297" d="M898.86,775.67c-13.97,6.38-46.74-17.44-52.69-31.61c-1.73-4.11,1.77-7.37,4.21-17.33
								c5.04-20.81,12.84-53,13-53.86l47.25,35.75l-6.1,34.69C904.53,743.31,906.33,772.25,898.86,775.67z"/><path fill="#ec9480" d="M904.53,743.31l-0.34,0.59c0,0-4.98-6.05-15.99-12.25c-11.04-6.23-37.86-2.72-37.86-2.72l0.05-2.22
								c5.04-20.81,12.84-53,13-53.86l47.25,35.75L904.53,743.31z"/><path fill="#603d52" d="M951.98,593.83c0,0,15.62,38.19-4.94,62c-20.56,23.81-85.79,47.21-85.79,47.21
								s-51.71-31.09-35.21-100.26c3.59-15.07,15.97-62.05,65.49-55.31C933.12,553.12,951.98,593.83,951.98,593.83z"/><path fill="#f5b297" d="M917.31,731.18c-41.92-1.76-70.79-31.09-78.77-57.68c-5.56-18.52,13.76-81.08,13.76-81.08
								c7.6-22.82,104.84-5.08,103.89,18.95c0,0,0.24,26.1-3.16,55.47c-0.71,6.21-1.59,12.57-2.68,18.83
								C945.65,713.1,945.25,732.35,917.31,731.18z"/><path fill="#f5b297" d="M846.42,631.25c0,0-13.39-14.87-23.07-2.24c-9.68,12.62,2.99,36.5,16.69,37.6L846.42,631.25z"/><path fill="#ec9480" d="M838.02,657.7c-7.35-2.68-13.25-15.27-7.92-22.24c4.08-5.32,9.26-2.55,12.01-0.39L838.02,657.7z"/><path fill="#603d52" d="M841.67,627.02c0,0-2.13,20.46,3.38,16.66c5.51-3.81,19.59-37.06,14.66-48.12
							c0,0,57.1,32.87,93.76,16.57c1.7-0.76,1.3,39.81,1.58,38.25c0.28-1.55,10.38-45.16-3.36-57.82
							c-13.73-12.66-82.6-22.02-95.64-17.98C843.02,578.61,841.67,627.02,841.67,627.02z"/><radialGradient id="a" cx="701.856" cy="-83.292" r="370.829" gradientTransform="rotate(10.327 -2120.778 392.022)" gradientUnits="userSpaceOnUse"><stop offset=".005" stop-color="#372fc1"/><stop offset=".343" stop-color="#4754cf"/><stop offset="1" stop-color="#6ba6ed"/></radialGradient><path fill="url(#a)" d="M817.34,617.33l148.2-5.05c0,0-11.26-76.37-82.59-72.27C811.63,544.11,817.34,617.33,817.34,617.33z"/><path fill="#231f20" d="M818.68,614.69c0,0,29.34-1.59,45.37-7.94c16.03-6.35,73.37-33.6,93.88-19.06
						c20.51,14.54-2.1,19.46-2.1,19.46l-87.33,9.11L818.68,614.69z" opacity=".55"/><path fill="#fff" d="M865.12,549.76c0,0,40.15,0.17,49.92,14.3c9.77,14.13,26.48,11.39,20.91,3.82
						C930.39,560.3,915.03,538.23,865.12,549.76z" opacity=".31"/><path fill="#ffc532" d="M865.45,615.69l66.69,3.48l67.1-3.41c0,0,14.68-23.4-36.61-27.74
						C911.35,583.68,889.23,604.37,865.45,615.69z"/><path fill="#ffc532" d="M818.68,614.69c0,0-4.2,2.52-2.56,3.76c1.65,1.24,85.43,1.3,92.32-2.73
						C915.34,611.68,818.68,614.69,818.68,614.69z"/><path fill="#5681f1" d="M889.76,779.57l-21.77,24.78c0,0-34.69-42.47-30.2-58.08c4.49-15.61,10.13-13.49,10.13-13.49
					s21.01,39.42,42.35,39.49c0,0,11.57-6.38,14.27-15.19c0,0,14.58,40.17-1.09,44.98L889.76,779.57z"/></g><g><path fill="#33133f" d="M867.42 675.51c-.65 3.4 2.99 6.96 8.13 7.95 5.14.99 9.84-.96 10.49-4.36.66-3.4-2.98-6.96-8.12-7.95C872.77 670.15 868.07 672.11 867.42 675.51zM925.89 677.18c-.65 3.4 2.99 6.96 8.13 7.95 5.14.99 9.84-.96 10.49-4.36.66-3.4-2.98-6.96-8.12-7.94C931.24 671.83 926.54 673.78 925.89 677.18z" opacity=".05"/><path fill="#33143f" d="M925.54 648.07c.62.01 1.2-.37 1.4-.98.15-.45 3.91-11.08 18.39-9.35.79.1 1.51-.47 1.6-1.26.1-.79-.47-1.51-1.26-1.6-16.89-2.04-21.43 11.17-21.47 11.31-.25.76.16 1.57.92 1.82C925.26 648.05 925.4 648.07 925.54 648.07zM894.3 647.36c.24.01.39.01.44 0 .8-.01 1.43-.67 1.42-1.47-.01-.8-.68-1.43-1.47-1.42-.1 0-10.16.06-19.1-7.07-.62-.5-1.53-.39-2.03.23-.5.62-.39 1.53.23 2.03C882.59 646.68 892.14 647.31 894.3 647.36zM917.85 681.19c3.83-1.37 5.19-4.19 5.26-4.35.28-.6.11-1.32-.41-1.73-3.27-2.61-4.59-12.35-4.83-15.89-.05-.8-.74-1.4-1.54-1.35-.8.05-1.4.74-1.35 1.54.09 1.33.93 12.36 4.95 17.02-.88 1.04-2.92 2.7-6.9 2.62-.79-.01-1.46.62-1.47 1.41-.01.8.62 1.46 1.42 1.47C914.92 681.97 916.53 681.66 917.85 681.19z"/><path fill="#33133f" d="M928.25 657.11c-.1 4.49 2.31 8.2 5.38 8.27 3.07.07 5.65-3.52 5.76-8.01.1-4.5-2.3-8.2-5.38-8.27C930.93 649.03 928.36 652.62 928.25 657.11zM878.13 655.96c-.1 4.49 2.31 8.2 5.38 8.27 3.07.07 5.65-3.52 5.76-8.01.1-4.5-2.31-8.2-5.38-8.27C880.81 647.87 878.23 651.46 878.13 655.96z"/><path fill="#fff" d="M914.33,697.87c-0.07,3.05,2.35,5.59,5.4,5.66c3.05,0.07,5.59-2.35,5.66-5.4c0.07-3.05-2.35-5.58-5.4-5.66
					C916.94,692.4,914.4,694.81,914.33,697.87z"/></g><g><path fill="#d7a28e" d="M936.68,1389.02c-16.9-0.69-46.96-31.74-50.6-32.26c-3.63-0.52-18.22-3.22-18.41,2.57
					c0,0,18.01,55.83,79.6,67.99c24.46,4.83,33.33,6.99,48.14,11.98c14.81,5.01,58.66,18.78,61.27,14.45
					c1.77-2.97-9.24-9.28-23.76-16.52l-0.02-0.01c-21.66-10.77-51.04-23.56-57.33-30.24c-3.53-3.75-7.19-6.95-11.13-9.55
					C956.7,1392.32,947.88,1389.48,936.68,1389.02z"/><path fill="#c68e7d" d="M964.44,1397.43c0.8,1.49,1.66,2.95,2.53,4.39c4.12,6.72,8.97,13.11,14.86,18.38
					c6.04,5.44,13.18,9.46,20.88,11.96c7.91,2.55,16.11,3.49,24.32,4.41c1.96,0.22,3.9,0.43,5.88,0.66
					c-21.66-10.77-51.04-23.56-57.33-30.24C972.05,1403.23,968.38,1400.04,964.44,1397.43z"/><path fill="#d7a28e" d="M957.41,1409.71c0,0,11.59,10.6,23.67,11.46c12.08,0.86,24.81,8.07,29.08,6.51
					c3.73-1.37,6.53-6.83-2.5-12.05c-12.1-6.99-18.71-3.69-24.84-11.15c-6.13-7.46-14.66-13.01-28.84-14.59
					C940.2,1388.36,948.65,1400.34,957.41,1409.71z"/><path fill="#c68e7d" d="M983.17,1421.38c-2.79-0.78-5.56-1.57-8.3-2.41c-1.36-0.44-2.72-0.87-4.03-1.39
					c-1.33-0.52-2.56-1.07-3.65-1.91c-2.24-1.63-4.21-3.76-6.41-5.66c-2.17-1.92-4.6-3.67-7.32-4.7c2.47,1.53,4.53,3.49,6.55,5.52
					c2.01,2.03,3.93,4.21,6.34,6.01c2.53,1.81,5.43,2.51,8.23,3.22C977.41,1420.72,980.28,1421.15,983.17,1421.38z"/><path fill="#fff" d="M1055.35 1453.85c0 0-7.91-4.2-8.49-3.36-.57.84-.89 1.65.28 2.32C1048.32 1453.49 1055.17 1455.1 1055.35 1453.85zM1000.28 1425.03c0 0-.25-2.67 1.57-3.5 1.83-.84 9.4 3.95 8.85 5.05C1010.16 1427.68 1000.28 1425.03 1000.28 1425.03z" opacity=".2"/></g></g><g><rect width="328.63" height="328.63" x="143.14" y="2076.97" fill="#fcc61a"/><path fill="#f2faff" d="M155.01,2200.16c13.58-11.62,9.78-30.97,10.94-46.75c1.05-14.21,4.99-27.95,16.1-37.6
				c29.4-25.54,71.07-13.39,105.16-7.42c16.95,2.97,37.3,6.17,53.31-2.14c9.76-5.06,18.4-18.92,15.12-29.29H143.14v127.43
				C146.92,2204.81,150.89,2203.69,155.01,2200.16z" opacity=".67"/><path fill="#202234" d="M459.89,2129.57c-4.97,5.11-6,14.45-6.71,21.17c-3.32,31.32-7.44-57.24-61.95-30.39
				c-15.56,7.67-62.17,1.61-70.79,17.09c-9.43,16.92-4.88,55.33-8.14,100.08c-0.53,7.36,26.59,156.09,8.14,152.98
				c-19.8-3.34-17.88-15.73-33.73-27.44c-5.67-4.19-11.86-8.36-18.51-10.82c-7.91-2.93-11.38-1.56-11.89,7.32
				c-0.25,4.21-4.21,8.07-8.67,6.6c-16.61-5.46-31.53-14.76-47.83-20.94c-17.69-6.72-33.72-7-51.31,0.01
				c-1.78,0.71-3.56,1.3-5.35,1.81v58.55h328.63v-275.05C468.8,2126.22,463.91,2125.43,459.89,2129.57z" opacity=".1"/><path fill="#eab213" d="M361.29,2405.22v-87.45l-9.67,7.4l-5.69-7.4l-9.68-3.41l-10.1,11.95l-5.83-15.93l-17.07,52.92l-6.83-48.37
				l-6.26,9.67l-7.97-14.22c0,0-2.7,67.52-4.61,94.84C305.49,2406.59,333.39,2403.66,361.29,2405.22z" opacity=".35"/><polygon fill="#eddaab" points="143.14 2076.97 224.52 2052.49 518.16 2052.49 471.78 2076.97"/><polygon fill="#eab213" points="518.16 2052.49 518.16 2360.93 471.78 2405.6 471.78 2076.97"/><path fill="#202234" d="M515.12,2130.93c-6.35,12.33-4.49,28.42-6.41,41.85c-2.29,16.05-4.81,31.6-1.87,47.74
				c2.17,11.92,6.32,24.31,5.21,36.56c-0.6,6.57-1.99,16.17-8.5,19.69c-8.39,4.52-15.26-4.49-18.57-11.08
				c-11.03-21.88-9.05-48.46-8.87-72.14c0.11-15.22,1.36-30.56,0.5-45.77c-0.41-7.43-2.19-13.62-4.84-19.38v277.18l46.38-44.68
				v-234.27C517.1,2128.05,515.95,2129.33,515.12,2130.93z" opacity=".15"/><path fill="#383b4b" d="M200.48,2385.11h-36.56v-27.12h36.56V2385.11z M166.42,2382.6h31.55v-22.1h-31.55V2382.6z"/><path fill="#383b4b" d="M185.81 2380.48h-8.58v-8.58h8.58V2380.48zM179.74 2377.97h3.56v-3.56h-3.56V2377.97zM194.83 2380.48h-8.58v-8.58h8.58V2380.48zM188.76 2377.97h3.56v-3.56h-3.56V2377.97zM242.42 2385.11h-36.56v-27.12h36.56V2385.11zM208.36 2382.6h31.54v-22.1h-31.54V2382.6z"/><path fill="#383b4b" d="M227.75 2380.48h-8.58v-8.58h8.58V2380.48zM221.68 2377.97h3.56v-3.56h-3.56V2377.97zM236.77 2380.48h-8.58v-8.58h8.58V2380.48zM230.7 2377.97h3.56v-3.56h-3.56V2377.97z"/><path fill="#eab213" d="M272.32,2076.97v98.45l9.67-7.4l5.69,7.4l9.67,3.41l10.1-11.95l5.83,15.93l17.07-52.92l6.83,48.37
				l6.26-9.67l7.97,14.23c0,0,3.98-99.59,5.69-105.84l22.19-11.95l-22.76,2.84l-0.57-2.84h-48.51L272.32,2076.97z" opacity=".35"/><polygon fill="#eab213" points="328.37 2058.19 336.62 2052.49 396.66 2052.49 385.28 2060.18 383.57 2057.62 371.34 2058.47 369.63 2054.49 342.32 2060.18 340.04 2054.77" opacity=".35"/><polygon fill="#eab213" points="466.37 2067.86 489.62 2067.55 490.81 2116.42 494.67 2110.16 496.15 2112.15 499.66 2107.96 502.95 2110.45 507.63 2106.03 507.63 2058.6 484.3 2060.18 486.25 2061.6 482.59 2062.45 488.57 2064.22" opacity=".35"/><polygon fill="#eab213" points="507.63 2371.07 506.21 2334.37 501.37 2343.76 500.61 2352.07 496.82 2348.88 494.67 2360.25 490.81 2353.99 489.81 2388.62" opacity=".35"/><path fill="#eab213" d="M206.7,2057.85h27.49l-6.4,2.32l2.13,1.19c0,0-7.47,2.14-6.83,2.14c0.64,0,5.12,1.4,4.48,1.23
				c-0.64-0.17-10.56,0.29-10.56,0.29v1.26l-32.43-1.77L206.7,2057.85z" opacity=".35"/><g><path fill="#383b4b" d="M222.04 2226.63c2.05.92 3.64 2.25 4.76 3.97 1.11 1.72 1.67 3.74 1.67 6.06 0 2.32-.56 4.33-1.67 6.03-1.12 1.71-2.71 3.02-4.76 3.95-2.06.92-4.48 1.39-7.27 1.39h-5.38v8.06h-8.73v-30.84h14.1C217.56 2225.25 219.99 2225.71 222.04 2226.63zM218.3 2239.98c.91-.78 1.37-1.89 1.37-3.33 0-1.44-.46-2.56-1.37-3.35-.91-.79-2.26-1.19-4.05-1.19h-4.85v9.03h4.85C216.03 2241.15 217.38 2240.76 218.3 2239.98zM251.83 2250.1h-13.04l-2.42 5.99h-8.9l13.61-30.84h8.59l13.66 30.84h-9.07L251.83 2250.1zM249.27 2243.66l-3.97-9.87-3.97 9.87H249.27zM272.03 2254.66c-2.57-1.37-4.59-3.27-6.06-5.71-1.47-2.44-2.21-5.2-2.21-8.28 0-3.08.73-5.85 2.21-8.28 1.47-2.44 3.49-4.34 6.06-5.7 2.57-1.36 5.47-2.05 8.7-2.05 2.82 0 5.36.5 7.62 1.5 2.26 1 4.14 2.44 5.64 4.32l-5.55 5.02c-2-2.41-4.42-3.61-7.27-3.61-1.68 0-3.17.37-4.48 1.1-1.31.73-2.32 1.77-3.04 3.1-.72 1.34-1.08 2.87-1.08 4.6 0 1.73.36 3.27 1.08 4.6.72 1.34 1.73 2.38 3.04 3.11 1.31.74 2.8 1.1 4.48 1.1 2.85 0 5.27-1.2 7.27-3.61l5.55 5.02c-1.5 1.88-3.38 3.32-5.64 4.32-2.26 1-4.8 1.5-7.62 1.5C277.5 2256.7 274.6 2256.02 272.03 2254.66zM309.77 2244.89l-3.26 3.48v7.71h-8.64v-30.84h8.64v12.82l11.94-12.82h9.6l-12.6 13.66 13.26 17.19h-10.14L309.77 2244.89z"/><path fill="#383b4b" d="M350.22 2250.1h-13.04l-2.43 5.99h-8.9l13.61-30.84h8.59l13.66 30.84h-9.07L350.22 2250.1zM347.66 2243.66l-3.97-9.87-3.97 9.87H347.66zM384.41 2240.01h7.71v12.78c-1.76 1.26-3.79 2.23-6.08 2.91-2.29.67-4.58 1.01-6.87 1.01-3.23 0-6.14-.68-8.72-2.05-2.59-1.37-4.61-3.27-6.08-5.71-1.47-2.44-2.2-5.2-2.2-8.28 0-3.08.73-5.85 2.2-8.28 1.47-2.44 3.51-4.34 6.12-5.7 2.61-1.36 5.57-2.05 8.86-2.05 2.88 0 5.46.49 7.76 1.45 2.29.97 4.2 2.36 5.73 4.19l-5.55 5.02c-2.08-2.29-4.58-3.44-7.49-3.44-2.64 0-4.77.8-6.39 2.4-1.62 1.6-2.42 3.74-2.42 6.41 0 1.71.37 3.22 1.1 4.56.73 1.34 1.76 2.38 3.08 3.13 1.32.75 2.84 1.12 4.54 1.12 1.68 0 3.25-.34 4.72-1.01V2240.01zM422.43 2249.35v6.74h-24.76v-30.84h24.19v6.74h-15.55v5.2h13.7v6.52h-13.7v5.64H422.43z"/></g><g><polygon fill="#eddaab" points="836.83 2146.74 876.38 2132.67 615.12 2108.22 346.66 2132.67 395.33 2175.3 665.42 2241.5"/><polygon fill="#fcc61a" points="346.66 2132.67 609.33 2170.71 609.33 2464.57 346.66 2415.54"/><path fill="#202234" d="M551.78,2275.12c-6.89,11.57-23.64,21.94-24.4,36.3c-0.87,16.22,8.69,30.8,3.8,47.35
					c-9.67,32.74-55.57,24.49-80.39,21.44c-7.78-0.96-15.65-1.15-22.87,2.36c-8.37,4.07-13.7,11.67-20.43,17.77
					c-11.13,10.08-24.81,17.17-39.55,19.18l241.37,45.05v-223.75C605.09,2234.36,560.76,2260.01,551.78,2275.12z" opacity=".1"/><path fill="#202234" d="M502.79,2155.28l-52.35-7.58c6.79,1.49,13.54,3.14,20.31,4.62
					C481.38,2154.65,492.08,2155.6,502.79,2155.28z" opacity=".15"/><path fill="#f2faff" d="M360.98,2190.57c5.12,1.8,11.34,3.88,13.42-2.66c1.24-3.92,1.02-8.34,1.47-12.39
					c0.8-7.09,3.44-12.8,8.13-18.26c9.49-11.06,24.14-14.17,38.11-13.66l-75.45-10.93v53.83
					C351.54,2187.11,356.3,2188.92,360.98,2190.57z" opacity=".67"/><polygon fill="#eab213" points="767.22 2122.62 689.85 2114.75 445.36 2144.83 446.2 2202.5 478.28 2210.28 483.51 2200.55 487.44 2213.65 511.97 2220.46 508.94 2158.81" opacity=".35"/><polygon fill="#eab213" points="498.32 2442.87 495.71 2398.23 480.09 2396.17 477.02 2401.86 474.77 2394.33 433.63 2385.34 431.73 2430.89" opacity=".35"/><polygon fill="#eab213" points="876.38 2132.67 876.38 2412.36 609.33 2464.57 609.33 2170.71"/><path fill="#202234" d="M730.23,2153.49c14.53,11.28,30.68,14.13,48.97,11.95c17.22-2.05,33.27-7.52,50.07-0.14
					c13.34,5.86,23.09,17.59,29.11,30.6c13.38,28.9,13.8,65.28-7.58,90.21c-10.53,12.28-25.33,22.39-30.88,38.2
					c-5.55,15.82,0.87,32.67-1.06,48.85c-2.22,18.61-16.64,28.61-33.21,34.54c-20.18,7.22-40.54,4.6-60.92-0.06
					c-9.4-2.15-21.96-7.45-31.66-5.03c-5.48,1.37-8.68,7.36-12.79,10.85c-10.92,9.28-26.45,12.15-38.9,4.15
					c-25.74-16.54-26.3-54.94-16.4-80.16c3.36-8.56,7.85-17.07,9.2-26.27c0.88-5.94,0.04-11.84-1.44-17.63
					c-1.59-2.73-3-5.56-4.23-8.31c-4.81-10.67-8.56-21.76-13.05-32.56c-1.01-2.43-2.06-4.97-3.19-7.52
					c-0.91-1.5-1.99-2.88-2.96-4.35v223.75l267.06-52.21v-279.7L730.23,2153.49z" opacity=".15"/><g><path fill="#383b4b" d="M663.35,2433.24l-30.34,5.14v-27.12l30.34-5.14V2433.24z M635.09,2435.52l26.18-4.44v-22.1l-26.18,4.44
						V2435.52z"/><path fill="#383b4b" d="M651.18 2430.66l-7.12 1.21v-8.58l7.12-1.21V2430.66zM646.14 2429.01l2.95-.5v-3.56l-2.95.5V2429.01zM658.66 2429.4l-7.12 1.21v-8.58l7.12-1.21V2429.4zM653.62 2427.74l2.95-.5v-3.56l-2.95.5V2427.74z"/><g><path fill="#383b4b" d="M698.15,2427.34l-30.34,5.14v-27.12l30.34-5.14V2427.34z M669.89,2429.62l26.18-4.44v-22.1l-26.18,4.44
						V2429.62z"/><path fill="#383b4b" d="M685.98 2424.77l-7.12 1.21v-8.58l7.12-1.21V2424.77zM680.94 2423.11l2.95-.5v-3.56l-2.95.5V2423.11zM693.46 2423.5l-7.12 1.21v-8.58l7.12-1.21V2423.5zM688.43 2421.84l2.95-.5v-3.56l-2.95.5V2421.84z"/></g></g><g><path fill="#383b4b" d="M672.29 2283.12c1.7.63 3.02 1.73 3.95 3.3.93 1.56 1.39 3.5 1.39 5.82 0 2.32-.46 4.41-1.39 6.27-.93 1.86-2.25 3.4-3.95 4.62-1.71 1.21-3.72 2.02-6.03 2.41l-4.46.76v8.06l-7.24 1.23v-30.84l11.7-1.98C668.57 2282.36 670.58 2282.48 672.29 2283.12zM669.18 2296.99c.75-.9 1.13-2.08 1.13-3.52 0-1.44-.38-2.49-1.13-3.16-.76-.66-1.88-.87-3.36-.62l-4.02.68v9.03l4.02-.68C667.3 2298.48 668.43 2297.9 669.18 2296.99zM697.01 2302.39l-10.82 1.84-2.01 6.33-7.38 1.25 11.3-32.76 7.13-1.21 11.33 28.92-7.53 1.28L697.01 2302.39zM694.89 2296.32l-3.29-9.31-3.29 10.43L694.89 2296.32zM713.77 2304.11c-2.13-1.01-3.81-2.62-5.03-4.86-1.22-2.23-1.83-4.89-1.83-7.97 0-3.08.61-5.95 1.83-8.59 1.22-2.64 2.89-4.83 5.03-6.56 2.13-1.73 4.54-2.82 7.22-3.27 2.34-.4 4.45-.25 6.32.43 1.88.68 3.44 1.85 4.68 3.53l-4.61 5.8c-1.66-2.13-3.67-2.99-6.03-2.59-1.39.24-2.63.81-3.71 1.73-1.09.92-1.92 2.1-2.52 3.53-.6 1.44-.9 3.03-.9 4.76 0 1.74.3 3.22.9 4.45.6 1.24 1.44 2.13 2.52 2.68 1.09.55 2.32.71 3.71.48 2.36-.4 4.37-1.95 6.03-4.64l4.61 4.24c-1.24 2.09-2.8 3.8-4.68 5.11-1.88 1.32-3.99 2.17-6.32 2.57C718.31 2305.39 715.9 2305.11 713.77 2304.11zM745.09 2289.04l-2.71 3.94v7.71l-7.17 1.21v-30.84l7.17-1.21v12.82l9.91-14.5 7.97-1.35-10.46 15.43 11 15.32-8.41 1.43L745.09 2289.04z"/><path fill="#383b4b" d="M778.65 2288.55l-10.82 1.83-2.01 6.33-7.38 1.25 11.3-32.76 7.13-1.21 11.34 28.92-7.53 1.28L778.65 2288.55zM776.53 2282.48l-3.29-9.31-3.29 10.43L776.53 2282.48zM807.02 2273.66l6.4-1.08v12.78c-1.46 1.51-3.14 2.76-5.05 3.76-1.9 1-3.8 1.66-5.7 1.98-2.68.45-5.09.18-7.24-.82-2.15-1-3.83-2.62-5.05-4.85-1.22-2.23-1.83-4.89-1.83-7.97 0-3.08.61-5.95 1.83-8.59 1.22-2.64 2.91-4.83 5.08-6.57 2.17-1.73 4.62-2.83 7.35-3.3 2.39-.4 4.53-.28 6.44.37 1.9.65 3.48 1.77 4.75 3.38l-4.61 5.81c-1.73-2-3.8-2.79-6.21-2.38-2.19.37-3.96 1.47-5.3 3.3-1.34 1.83-2.01 4.08-2.01 6.75 0 1.71.31 3.17.92 4.41.61 1.23 1.46 2.13 2.56 2.7 1.1.56 2.35.73 3.77.49 1.39-.24 2.69-.8 3.91-1.68V2273.66zM838.57 2277.65v6.74l-20.55 3.48v-30.84l20.07-3.4v6.74l-12.91 2.19v5.2l11.37-1.93v6.52l-11.37 1.93v5.64L838.57 2277.65z"/></g></g></g><g><path fill="#7ac094" d="M2035.54,2060.27c0,0-26.99-195.93,26.75-176.59C2116.03,1903.02,2091.36,1981.54,2035.54,2060.27z"/><path fill="#b8debf" d="M2031.99,2058.38c0,0,109.9-193.27,185.72-126.81C2293.52,1998.02,2031.99,2058.38,2031.99,2058.38z"/><g><path fill="#5ca88d" d="M2186.63,2164.84h-948.77l13.6-47.43l32-112.34c22.67-79.3,101.45-128.93,182.83-115.06l41.07,7.12
					c3.11,0.52,6.09,0.78,9.07,0.78c18.14,0,35.37-9.07,45.61-24.49c70.49-105.73,229.86-92.64,282.21,23.2l7,15.55
					c12.34,27.44,44.57,39.7,72.02,27.41l40.96-18.34c23.97-10.75,50.67-2.72,65.43,16.2c5.45,6.87,9.33,15.16,10.89,24.49
					l6.09,35.5c1.56,8.81,4.92,16.58,9.72,23.06c0.91,1.17,1.81,2.33,2.72,3.37c8.29,9.59,19.56,15.94,31.88,18.14
					c3.11,0.65,6.48,0.91,9.72,0.91c10.28,0,20.69-2.82,30.15-9.13c21.33-14.24,49.93-10.69,68.07,7.45l27.52,27.52
					C2261.89,2104.21,2236.78,2164.84,2186.63,2164.84z"/><path fill="#fff" d="M2102.9,2164.84h-865.03l13.6-47.43c42.76-38.35,101.85-57.14,161.97-46.78l32.01,5.44l17.23,2.85
					c3.75,0.65,7.51,0.91,11.14,0.91c8.03,0,15.94-1.42,23.32-4.27c12.44-4.79,23.32-13.22,31.1-24.88
					c10.88-16.45,23.71-30.45,37.71-41.98c5.44-4.66,11.01-8.81,16.84-12.57c31.49-20.86,67.64-31.23,103.92-31.61
					c21.25-0.39,42.37,2.72,62.58,9.33c49.11,15.55,92.64,50.92,116.87,104.7l8.43,18.4c14.9,33.04,53.64,47.68,86.55,32.91
					l24.88-11.14l23.97-10.75c10.89-4.93,22.29-6.48,33.17-5.44c28.25,2.72,53.13,23.71,58.31,54.16L2102.9,2164.84z" opacity=".1"/><path fill="#7ac094" d="M1438.06,1997.73c0,8.22-6.6,14.87-14.75,14.87c-8.15,0-14.75-6.66-14.75-14.87
					c0-8.21,6.61-14.87,14.75-14.87C1431.46,1982.86,1438.06,1989.52,1438.06,1997.73z"/><path fill="#b8debf" d="M1947.04 2068.67c0 7.58-6.15 13.72-13.72 13.72-7.58 0-13.73-6.15-13.73-13.72 0-7.58 6.15-13.73 13.73-13.73C1940.9 2054.94 1947.04 2061.08 1947.04 2068.67zM1757.85 1911.08c0 17.19-13.93 31.12-31.12 31.12s-31.12-13.93-31.12-31.12c0-17.19 13.93-31.12 31.12-31.12S1757.85 1893.89 1757.85 1911.08z"/><g><path fill="#7ac094" d="M1646.58,2162.22c0,0-122.9-154.96-66.8-165.65C1635.89,1985.88,1654.6,2066.04,1646.58,2162.22z"/><path fill="#b8debf" d="M1646.58 2162.22c0 0 77.48-208.39 162.97-154.96C1895.05 2060.69 1646.58 2162.22 1646.58 2162.22zM1646.58 2162.22c0 0-285.87-34.74-213.74-80.15C1504.98 2036.65 1646.58 2162.22 1646.58 2162.22z"/></g></g></g><g><path fill="#100959" d="M1653.33,2194.13l-0.06-0.01l-7.3-119.82l-0.06-0.01l-32.86-537.97l-58.98-964.24l0.06,0.04
					c-2.85-46.76-23.94-88.68-47.47-93.5l-453.8-139.96c-64.12,10.42-86.88,70.88-83.59,125.66l0.1-0.09l114.97,1895.45l-0.17-0.02
					c3.39,54.98,30.68,91.61,60.6,82.14l472.77-149.67C1640.31,2284.94,1656.19,2241.03,1653.33,2194.13z"/><path fill="#100959" d="M1650.95,2289.32l-472.77,152.45c-29.92,9.64-57.21-27.66-60.6-83.67l0.17,0.02L1002.78,427.51l-0.1,0.09
					c-3.3-55.79,19.35-95.5,50.19-88.94l487.2,103.51c23.53,4.91,44.61,47.61,47.47,95.24l-0.06-0.04l58.98,982.13l32.86,547.95
					l0.07,0.02l7.3,122.04l0.06,0.01C1689.6,2237.27,1673.71,2282,1650.95,2289.32z"/><path fill="#f2faff" d="M1650.95,2289.32l-472.77,152.45c-29.92,9.64-57.21-27.66-60.6-83.67l0.17,0.02L1002.78,427.51l-0.1,0.09
					c-3.3-55.79,19.35-95.5,50.19-88.94l487.2,103.51c23.53,4.91,44.61,47.61,47.47,95.24l-0.06-0.04l58.98,982.13l32.86,547.95
					l0.07,0.02l7.3,122.04l0.06,0.01C1689.6,2237.27,1673.71,2282,1650.95,2289.32z" opacity=".2"/><linearGradient id="b" x1="439.34" x2="2502.153" y1="846.765" y2="3519.048" gradientTransform="rotate(10.295 2841.734 2904.93)" gradientUnits="userSpaceOnUse"><stop offset="0" stop-color="#b0b0ff"/><stop offset="1" stop-color="#fff"/></linearGradient><path fill="url(#b)" d="M1565,577.25l94.5,1574.67c1.34,22.3-6.16,42.9-16.75,46.03l-467.34,137.89
					c-13.81,4.07-26.31-13.39-27.84-39.07L1039.66,485.16c-1.53-25.59,8.81-44.15,23-41.5l480.22,89.65
					C1553.77,535.34,1563.67,555.01,1565,577.25z"/><path fill="#fff" d="M1642.75,2197.92l-467.32,137.89c-13.83,4.11-26.33-13.37-27.84-39.05l-34.43-578.11
					c-3.52-59.16,19.8-109.9,51.61-113.3l413.91-44.24c25.03-2.67,47.56,36.87,50.65,88.3l30.17,502.48
					C1660.85,2174.22,1653.35,2194.81,1642.75,2197.92z" opacity=".3"/><defs><filter id="c" width="152.51" height="1691" x="1487.25" y="522.92" filterUnits="userSpaceOnUse"><feFlood flood-color="#fff" flood-opacity="1" result="back"/><feBlend in="SourceGraphic" in2="back"/></filter></defs><mask id="e" width="152.51" height="1691" x="1487.25" y="522.92" maskUnits="userSpaceOnUse"><g filter="url(#c)"><defs><filter id="d" width="152.51" height="1691" x="1487.25" y="522.92" filterUnits="userSpaceOnUse"><feFlood flood-color="#fff" flood-opacity="1" result="back"/><feBlend in="SourceGraphic" in2="back"/></filter></defs><linearGradient id="f" x1="501.227" x2="1723.864" y1="1854.537" y2="1957.136" gradientTransform="rotate(-3.242 -8224.308 -4450.963)" gradientUnits="userSpaceOnUse"><stop offset="0" stop-color="#262626"/><stop offset=".118" stop-color="#505050"/><stop offset=".284" stop-color="#858585"/><stop offset=".447" stop-color="#b1b1b1"/><stop offset=".604" stop-color="#d3d3d3"/><stop offset=".751" stop-color="#ebebeb"/><stop offset=".887" stop-color="#fafafa"/><stop offset="1" stop-color="#fff"/></linearGradient><polygon fill="url(#f)" points="1639.76 2198.83 1539.8 532.74 1487.25 522.92 1588.62 2213.92" mask="url(#e)"/></g></mask><linearGradient id="g" x1="501.227" x2="1723.864" y1="1854.537" y2="1957.136" gradientTransform="rotate(-3.242 -8224.308 -4450.963)" gradientUnits="userSpaceOnUse"><stop offset="0" stop-color="#302424"/><stop offset=".051" stop-color="#3f3434"/><stop offset=".23" stop-color="#716969"/><stop offset=".405" stop-color="#9a9595"/><stop offset=".573" stop-color="#bab7b7"/><stop offset=".733" stop-color="#d0cfcf"/><stop offset=".879" stop-color="#dedede"/><stop offset="1" stop-color="#e3e3e3"/></linearGradient><polygon fill="url(#g)" points="1639.76 2198.83 1539.8 532.74 1487.25 522.92 1588.62 2213.92"/><g><path fill="#fff" d="M1181.96 1673.04c-7.27-3.17-14.34 5.07-15.75 18.43-1.42 13.37 3.37 26.73 10.67 29.81 7.27 3.07 14.28-5.23 15.67-18.52C1193.94 1689.49 1189.21 1676.19 1181.96 1673.04zM1220 1669.77c-7.13-3.14-14.05 5.01-15.43 18.24-1.38 13.24 3.32 26.47 10.48 29.53 7.14 3.05 14-5.16 15.35-18.32C1231.76 1686.08 1227.11 1672.91 1220 1669.77zM1257.3 1666.58c-7-3.12-13.78 4.95-15.12 18.05-1.35 13.11 3.27 26.21 10.3 29.25 7 3.03 13.73-5.1 15.05-18.13C1268.85 1682.73 1264.28 1669.68 1257.3 1666.58z"/></g><g opacity=".5"><polygon fill="#fff" points="1590.05 1753.5 1172.51 1824.54 1174.39 1854.96 1591.72 1780.65"/><polygon fill="#fff" points="1595.67 1844.67 1178.8 1926.69 1180.68 1957.1 1597.35 1871.83"/><polygon fill="#fff" points="1601.31 1935.85 1185.1 2028.84 1186.97 2059.26 1602.98 1963"/></g></g><radialGradient id="h" cx="1325.389" cy="1242.596" r="624.739" gradientUnits="userSpaceOnUse"><stop offset=".088" stop-color="#edb24c"/><stop offset=".202" stop-color="#b48128"/><stop offset=".328" stop-color="#916612"/><stop offset=".453" stop-color="#7a5002"/><stop offset=".964"/></radialGradient><path fill="url(#h)" d="M1558.85,1137.1c18.23,268.22-70.44,492.69-198.04,501.36c-127.6,8.67-245.81-201.74-264.04-469.96
		c-18.23-268.22,70.44-492.69,198.04-501.36C1422.41,658.47,1540.63,868.88,1558.85,1137.1z"/><path fill="#fff" d="M1483.63,1142.21c14.43,212.35-43.64,389.24-129.7,395.08c-86.06,5.85-167.52-161.56-181.95-373.91
		c-14.43-212.36,43.64-389.24,129.69-395.09C1387.75,762.46,1469.2,929.86,1483.63,1142.21z"/><g><path fill="#4094f2" d="M3394.22,2034.48c-186.04,447.53-662.84,355.46-662.84,355.46s-426.53,37.69-376.39-244.58
				c50.21-282.35,91.92-430.55,460.04-629.4c78.09-42.23,73.19-258.2,246.71-306.29c11.86-3.29,24.59-5.78,38.2-7.39
				C3312.69,1177.18,3580.33,1587.02,3394.22,2034.48z"/><path fill="#0d275b" d="M2986.5,1628.81c-133.86,87.82-309.5,129.68-372.23,267.71c-62.72,137.96-146.37,434.87-259.3,248.83
				c50.21-282.35,91.92-430.55,460.04-629.4c78.09-42.23,73.19-258.2,246.71-306.29C3061.74,1209.67,3120.36,1540.98,2986.5,1628.81
				z" opacity=".25"/><path fill="#f89734" d="M3210.99,1714.41c-1.01,0.57-3.89-0.23-4.46-1.23c-6.64-11.74,2.95-14.34-3.32-27.23
				c-1.85-3.81-4.17-8.55-6.95-14.79c-12.62-28.29-0.29-60.82,0.24-62.2l4.31,1.67c-0.12,0.32-12.15,32.14-0.33,58.64
				c2.76,6.19,5.05,10.89,6.88,14.65C3213.89,1697.31,3224.25,1706.91,3210.99,1714.41z"/><path fill="#c68e7d" d="M3234.08,1579.98c1.53,38.1,2.18,76.2,3.29,114.3l1.86,114.3c0.75,38.1,0.75,76.2,1.17,114.3l0.18,57.15
				l0.08,28.58l0.04,14.29l0.01,7.14c-0.26,2.38-1.57,4.76-6.63,7.14h-6.64c-5.06-2.38-6.37-4.76-6.63-7.14l0.01-7.14l0.04-14.29
				l0.08-28.58l0.18-57.15c0.41-38.1,0.42-76.2,1.17-114.3l1.86-114.3c1.12-38.1,1.77-76.2,3.29-114.3H3234.08z"/><path fill="#fcc61a" d="M3364.97,1617.01c0,1.68-1.54,3.37-4.39,4.9c-5.63,3.07-16.61,5.93-31.4,8.27
					c-26.2,4.1-64.62,6.73-107.43,6.73c-27.37,0-52.99-1.02-74.72-2.93c-30.44-2.63-53.35-6.73-63.16-11.64
					c-3.44-1.68-5.27-3.51-5.27-5.34l0.36-1.32c0.88-2.12,4.17-4.1,9.37-5.93c12.37-4.46,35.79-8.12,65.58-10.32
					c20.2-1.54,43.33-2.42,67.84-2.42c38.86,0,74.06,2.2,99.83,5.64c15.95,2.2,28.25,4.83,35.64,7.83c4.02,1.61,6.59,3.37,7.39,5.2
					L3364.97,1617.01z"/><polygon fill="#fcc61a" points="3137.38 1405.97 3078.57 1616.97 3364.98 1616.97 3306.17 1405.97"/><path fill="#fff" d="M3360.58 1621.91c-5.63 3.07-16.61 5.93-31.4 8.27l-3.66-13.17-3.95-14.34-54.6-196.14h30.3l59.94 203.97 1.9 6.51L3360.58 1621.91zM3193.49 1406.52c-1.24 2.12-24.59 118.05-39.59 192.92-1.25 6.15-2.42 12.08-3.51 17.56-1.25 6.15-2.34 11.86-3.37 16.98-30.44-2.63-53.35-6.73-63.16-11.64l1.9-5.34 2.56-7.25 64.79-203.52L3193.49 1406.52z" opacity=".3"/><path fill="#eab213" d="M3306.17,1405.97c0,6.48-37.79,11.74-84.39,11.74c-46.61,0-84.39-5.26-84.39-11.74
				c0-6.48,37.78-11.74,84.39-11.74C3268.38,1394.23,3306.17,1399.48,3306.17,1405.97z"/><g><path fill="#27897a" d="M3115.77,1909.06c-0.02,0.68-0.04,1.38-0.04,2.08c1.36-0.86,2.78-1.71,4.23-2.5
					c1.78-4.51,3.28-8.99,4.25-13.33c2.41-10.82,4.47-19.44,11.2-28.49c13.33-17.97,29.56-30,49.61-39.2
					c2.1-0.95,4.07,0.22,4.87,1.82c0.75,1.47,0.53,3.27-1.4,4.17c-21.25,9.73-50.18,28.77-55.44,53.62
					c-1.09,5.09-2.52,10.12-4.14,15.06c-0.24,0.74-0.5,1.47-0.74,2.19c3.04-1.49,5.98-2.94,8.52-4.51
					c18.21-11.19,24.85-27.59,48.38-22.44c1.25,0.28,1.99,1.01,2.3,1.93c0.77,2.24-1.05,5.42-4.14,4.74
					c-18.91-4.12-29.06,12.12-43.04,21.76c-3.97,2.74-9.92,4.95-15.43,7.71c-4.07,10.12-8.89,19.98-13.87,29.6
					c-0.86,1.67-2.43,2.02-3.77,1.56c-1.86-0.61-3.35-2.72-2.24-4.98c-1.12-0.06-2.26-0.52-2.89-1.42
					c-0.22-0.02-0.42-0.11-0.63-0.16c-0.35,0.24-0.76,0.44-1.18,0.55c-0.81,0.24-1.73,0.22-2.56-0.11
					c-0.86-0.31-1.62-0.99-2.04-2.04c-0.06-0.18-0.11-0.37-0.18-0.55c-0.28-0.13-0.59-0.22-0.9-0.35c-0.97,0-1.99-0.33-2.74-1.1
					c-15.62-6.09-33.96-9.16-43.06-24.63c-10.76-18.26-16.28-40.19-37.54-48.38c-0.77-0.29-1.57-0.59-2.39-0.85
					c-0.68-0.22-1.2-0.57-1.56-1.01c-2.02-2.28-0.18-6.8,3.4-5.67c1.82,0.59,3.55,1.25,5.21,1.99c14.7,6.47,22.86,18.69,30.08,33.5
					c7.01,14.4,13.06,27.26,30.32,31.71c1.36,0.35,2.68,0.76,4.01,1.18c1.16,0.39,2.3,0.79,3.44,1.21c-3.22-3.27-6.7-6.4-9.11-9.49
					c-5.32-6.81-10.23-13.89-17.22-19.11c-2.74-2.04-1.29-6.11,1.16-6.6c0.73-0.15,1.53,0.02,2.33,0.63
					c8.3,6.18,13.74,14.33,20.23,22.2c1.44,1.73,3.02,3.41,4.66,5.06c1.51,1.57,3.07,3.11,4.58,4.71c-1.03-2.47-2.24-4.86-3.9-7.03
					c-4.1-5.37-7.89-10.71-11.15-16.65c-3.9-7.08-7.8-15.36-13.98-20.77c-5.74-4.98-12.49-9.09-18.07-14.27
					c-11.75-10.96-4.99-18.71-10.06-32.34c-4.34-11.66-17.26-22.04-24.41-32.65c-1.76-2.6,0.63-5.06,3.09-5.06
					c1.07,0,2.14,0.46,2.89,1.56c6.82,10.1,19.4,18.95,23.69,30.48c2.45,6.6,2.41,11.81,2.65,18.74
					c0.46,13.39,12.58,17.73,20.77,24.85c16.41,14.29,27.39,35.48,35.94,55.77c0.7,1.67,1.4,3.33,2.06,4.99
					c1.01-12.69,0.98-28.33-3.05-39.16c-3.88-10.38-15.73-22.39-16.13-33.79c-0.55-15.58,11.15-35.23-2.24-48.3
					c-0.18-0.2-0.38-0.39-0.59-0.57c-10.34-9.44-24.17-16.04-38.35-15.88c-2.45,0.02-3.55-2.02-3.33-3.9
					c0.17-1.56,1.29-3.02,3.33-3.04c15.18-0.16,32.87,6.38,43.23,18.21c0.03,0.02,0.03,0.04,0.05,0.05
					c4.95,5.68,8.21,12.58,8.67,20.55c0.75,13.06-7.47,28.02-0.46,40.32c2.26,3.96,4.89,8.04,7.16,12.21
					c1.03,1.88,1.97,3.75,2.78,5.67c-0.61-5.06-1.27-10.85,0.41-15.54c2.04-5.79,6.79-12.68,7.61-18.45
					c1.73-12.2-0.99-24.11,3.48-35.87c4.21-10.96,15.71-16.11,21.43-26.01c1.18-2.04,3.38-2.04,4.89-1.01
					c1.36,0.92,2.15,2.67,1.09,4.51c-7.38,12.8-22.99,19.06-23.38,35.72c-0.22,9.68,1.64,20.46-2.61,29.56
					c-4.08,8.72-5.35,17.09-5.34,25.53c0,4.25,0.33,8.52,0.81,12.86c1.18-16.17,4.8-32.32,15.53-43.63
					c18.72-19.76,45.73-24.73,63-46.34c1.71-2.15,4.23-1.1,5.26,0.85c0,0.02,0,0.02,0,0.02c0.63,1.2,0.68,2.72-0.37,4.05
					c-6.09,7.62-13.3,15.14-21.8,20.18c-8.15,4.84-17.6,7.25-25.44,12.64C3120.77,1857.17,3116.3,1881.82,3115.77,1909.06z"/><path fill="#7ac094" d="M3193.04,1803.29c0,0.02,0,0.02,0,0.02c-0.13,0.18-0.24,0.37-0.39,0.55c-6.25,7.82-13.65,15.53-22.35,20.69
					c-8.35,4.98-18.28,7.12-26.08,12.97c-35.72,26.77-28.49,72.92-28.49,73.62c1.36-0.86,2.78-1.71,4.23-2.5
					c1.78-4.51,3.28-8.99,4.25-13.33c2.41-10.82,4.47-19.44,11.2-28.49c13.33-17.97,29.56-30,49.61-39.2
					c2.1-0.95,4.07,0.22,4.87,1.82c-0.28,0.55-0.77,1.01-1.51,1.36c-21.8,9.99-51.47,29.49-56.88,54.96
					c-1.25,6.02-3,11.9-4.99,17.71c0.81-0.39,1.6-0.79,2.39-1.18c-0.24,0.74-0.5,1.47-0.74,2.19c3.04-1.49,5.98-2.94,8.52-4.51
					c18.21-11.19,24.85-27.59,48.38-22.44c1.25,0.28,1.99,1.01,2.3,1.93c-0.28,1.91-1.95,3.75-4.4,3.2
					c-19.39-4.23-29.8,12.44-44.13,22.31c-4.08,2.82-10.17,5.08-15.84,7.89c-4.16,10.39-9.09,20.51-14.2,30.37
					c-0.44,0.83-1.03,1.34-1.69,1.6c-2.56,0.97-6.05-1.91-4.47-5.12c-0.9-0.03-1.81-0.33-2.47-0.9c-0.2-0.15-0.37-0.35-0.52-0.55
					c-0.22-0.02-0.42-0.11-0.64-0.17c-0.41,0.3-0.88,0.52-1.4,0.61c-0.86-0.31-1.62-0.99-2.04-2.04c-0.06-0.18-0.11-0.37-0.18-0.55
					c-0.28-0.13-0.59-0.22-0.9-0.35c-0.97,0-1.99-0.33-2.74-1.1c-15.62-6.09-33.96-9.16-43.06-24.63
					c-10.76-18.26-16.28-40.19-37.54-48.38c-1.25-0.68-2.56-1.29-3.96-1.86c-2.02-2.28-0.18-6.8,3.4-5.67
					c1.82,0.59,3.55,1.25,5.21,1.99c12.31,7.03,19.74,18.49,26.34,32.1c7.19,14.77,13.39,27.96,31.07,32.5
					c2.67,0.68,6.99,1.79,6.99,1.79c1.16,0.39,2.3,0.79,3.44,1.21c-3.22-3.27-6.7-6.4-9.11-9.49c-5.32-6.81-10.23-13.89-17.22-19.11
					c-2.74-2.04-1.29-6.11,1.16-6.6c7.94,6.24,13.33,14.24,19.72,21.98c2.83,3.42,8.24,7.23,7.51,5.9c1.51,1.57,3.07,3.11,4.58,4.71
					c-1.03-2.47-2.24-4.86-3.9-7.03c-4.1-5.37-7.89-10.71-11.15-16.65c-3.9-7.08-7.8-15.36-13.98-20.77
					c-5.74-4.98-12.49-9.09-18.07-14.27c-11.75-10.96-4.99-18.71-10.06-32.34c-4.34-11.66-17.26-22.04-24.41-32.65
					c-1.76-2.6,0.63-5.06,3.09-5.06c7.21,9.44,18.6,18.05,22.66,29.01c2.52,6.75,2.47,12.09,2.72,19.2
					c0.48,13.72,12.89,18.18,21.28,25.5c18.19,15.84,39.18,59.27,39.27,57.7c0.7,1.67,1.4,3.33,2.06,4.99
					c1.01-12.69,0.98-28.33-3.05-39.16c-3.88-10.38-15.73-22.39-16.13-33.79c-0.55-15.58,11.15-35.23-2.24-48.3
					c-0.94-1.4-2.1-2.76-3.51-4.05c-10.47-9.56-24.41-16.26-38.76-16.3c0.17-1.56,1.29-3.02,3.33-3.04
					c15.18-0.16,32.87,6.38,43.23,18.21c0.03,0.02,0.03,0.04,0.05,0.05c3.49,5.06,5.72,10.91,6.09,17.46
					c0.76,13.39-7.67,28.73-0.48,41.35c3.35,5.87,11.72,18.02,12.53,19.94c-0.61-5.06-1.27-10.85,0.41-15.54
					c2.04-5.79,6.79-12.68,7.61-18.45c1.73-12.2-0.99-24.11,3.48-35.87c4.21-10.96,15.71-16.11,21.43-26.01
					c1.18-2.04,3.38-2.04,4.89-1.01c-0.07,0.18-0.15,0.37-0.26,0.55c-7.58,13.12-23.58,19.54-23.99,36.62
					c-0.24,9.93,1.67,20.99-2.69,30.32c-6.27,13.43-2.98,36.35-2.5,40.69c1.18-16.17,4.8-32.32,15.53-43.63
					c18.72-19.76,45.73-24.73,63-46.34C3189.5,1800.29,3192.02,1801.34,3193.04,1803.29z"/><path fill="#fcc61a" d="M3135.56,1949.26c-1.07-3.32-2.53-6.5-4.16-9.59c-0.92-1.75-1.9-3.48-2.88-5.19
					c-0.37-0.63-2.61-5.38-3.17-5.38h-25.42h-25.43c-0.55,0-2.79,4.74-3.16,5.38c-0.99,1.72-1.97,3.44-2.88,5.19
					c-1.63,3.09-3.09,6.27-4.17,9.59c-2.69,8.28-4.02,17.87-1.22,26.26c2.49,7.48,6.61,14.11,12.31,19.65
					c6.49,6.3,16.04,6.47,24.55,5.28c8.5,1.19,18.06,1.02,24.55-5.28c5.7-5.54,9.82-12.17,12.31-19.65
					C3139.59,1967.13,3138.25,1957.54,3135.56,1949.26z"/><path fill="#ef4136" d="M3135.56,1949.26c-1.07-3.32-2.53-6.5-4.16-9.59c-0.92-1.75-1.9-3.48-2.88-5.19
					c-0.37-0.63-2.61-5.38-3.17-5.38h-3.37c0.83,1.63,1.66,3.26,2.44,4.93c1.77,3.77,3.37,7.66,4.55,11.72
					c2.94,10.12,4.39,21.84,1.32,32.1c-2.29,7.73-5.93,14.66-10.72,20.72c1.76-0.86,3.43-1.94,4.91-3.39
					c5.7-5.54,9.82-12.17,12.31-19.65C3139.59,1967.13,3138.25,1957.54,3135.56,1949.26z" opacity=".35"/></g><g><rect width="443.29" height="374.27" x="2936.3" y="2015.67" fill="#d7a28e"/><path fill="#c68e7d" d="M2921.66,2001.03v403.55h472.56v-403.55H2921.66z M3379.58,2389.94H2936.3v-374.27h443.29V2389.94z"/><rect width="443.3" height="129.64" x="2936.32" y="2145.32" fill="#c68e7d" opacity=".55"/><rect width="443.3" height="115.01" x="2936.32" y="2274.96" fill="#c68e7d" opacity=".55"/><path fill="#c68e7d" d="M2921.68 2075.11h-12.21c-6.74 0-12.21-5.47-12.21-12.21l0 0c0-6.74 5.46-12.2 12.2-12.2h12.21V2075.11zM2921.68 2170.47h-12.21c-6.74 0-12.21-5.47-12.21-12.21l0 0c0-6.74 5.46-12.2 12.21-12.2h12.21V2170.47zM2921.68 2265.82h-12.21c-6.74 0-12.21-5.47-12.21-12.21l0 0c0-6.74 5.46-12.21 12.2-12.21h12.21V2265.82z"/><rect width="443.29" height="21.41" x="2936.3" y="2134.62" fill="#c68e7d"/><rect width="443.29" height="21.42" x="2936.3" y="2251.98" fill="#c68e7d"/><rect width="443.3" height="129.64" x="2936.32" y="2015.68" fill="#c68e7d" opacity=".55"/></g><path d="M2936.32,2015.68c0,0,388.13-12.71,347.35,42.18c-40.78,54.89-125.7,76.76-125.7,76.76l14.36,21.41h-52.75
			c0,0,197.03,36.7,140.58,69.63c-56.46,32.93-121.8,26.32-121.8,26.32v21.42c0,0,182.96,12.19,154.73,59.07
			c-28.23,46.88-356.76,57.5-356.76,57.5h443.3v-374.29H2936.32z" opacity=".05"/></g><radialGradient id="i" cx="1104.288" cy="3059.804" r="88.56" gradientTransform="matrix(1.3687 .7921 -.2323 2.6797 510.552 -7592.619)" gradientUnits="userSpaceOnUse"><stop offset=".088" stop-color="#edb24c"/><stop offset=".202" stop-color="#b48128"/><stop offset=".328" stop-color="#916612"/><stop offset=".453" stop-color="#7a5002"/><stop offset=".964"/></radialGradient><path fill="url(#i)" d="M1443.45,1509.57c-0.85-108.23-48.88-218.45-116.15-248.33c-79.7-35.4-152.33,53.03-147.94,200.58
		c4.31,144,79.82,252.82,155.65,247.12C1399.44,1704.1,1444.27,1615.88,1443.45,1509.57z" opacity=".81"/><radialGradient id="j" cx="635.51" cy="2978.546" r="69.716" gradientTransform="matrix(1.1409 1.0951 -.8634 2.5474 3077.383 -7314.33)" gradientUnits="userSpaceOnUse"><stop offset=".088" stop-color="#edb24c"/><stop offset=".202" stop-color="#b48128"/><stop offset=".328" stop-color="#916612"/><stop offset=".453" stop-color="#7a5002"/><stop offset=".964"/></radialGradient><path fill="url(#j)" d="M1326.61,1015.45c19.63-82.92,3.57-176.19-42.27-211.64c-54.31-42.01-126.41,12-150.7,125.64
		c-23.69,110.91,13.66,208.27,72.71,218.12C1256.51,1155.95,1307.32,1096.89,1326.61,1015.45z" opacity=".81"/><g><defs><path id="k" d="M1474.24,870.51c-34.81-51.32-76.79-80.7-120.16-77.75c-100.03,6.8-169.54,182.77-155.26,393.05
				c14.29,210.28,106.96,375.23,207,368.43c25.73-1.75,49.43-14.76,70.22-36.61h25.04l141.18-48.79V870.51H1474.24z"/></defs><clipPath id="l"><use overflow="visible" xlink:href="#k"/></clipPath><g clip-path="url(#l)"><polygon fill="#eddaab" points="1349.51 1164.4 1386.8 1155.63 1163.44 1087.86 924.27 1071.27 958.44 1124.66 1181.35 1238.54"/><polygon fill="#fcc61a" points="924.27 1071.27 1146.19 1153.83 1088.81 1468.4 869.04 1374.08"/><path fill="#202234" d="M1075.56,1256.43c-8.27,11.29-24.92,19.72-28.39,34.97c-3.93,17.23,1.58,34.35-5.93,51.29
					c-14.84,33.51-53.3,17.36-74.37,10.14c-6.6-2.26-13.44-3.72-20.43-1.12c-8.1,3.02-14.24,10.32-21.31,15.77
					c-11.69,9.02-25.02,14.43-38.28,14.23l201.96,86.67l43.69-239.52C1130.06,1221.29,1086.35,1241.69,1075.56,1256.43z" opacity=".1"/><path fill="#f2faff" d="M925.47,1135.53c4.12,2.74,9.15,5.96,12.23-0.71c1.85-4,2.52-8.77,3.7-13.03
					c2.08-7.46,5.5-13.16,10.66-18.25c10.45-10.32,23.84-11.32,35.95-8.55l-63.74-23.72l-10.51,57.63
					C917.9,1130.33,921.7,1133.03,925.47,1135.53z" opacity=".67"/><polygon fill="#eab213" points="1293.45 1127.49 1227.43 1106.75 1008.08 1100.01 997.54 1161.88 1024.04 1175.31 1030.5 1165.73 1031.38 1180.38 1051.46 1191.58 1060.86 1125.1" opacity=".35"/><polygon fill="#eab213" points="996.12 1427.49 1002.55 1379.29 989.32 1374.6 985.53 1380.19 985.04 1371.78 950.87 1355.6 940.32 1404.05" opacity=".35"/><polygon fill="#eab213" points="1386.8 1155.63 1332.18 1455.04 1088.81 1468.4 1146.19 1153.83"/><path fill="#202234" d="M1255.12,1154.65c10.48,14.39,24.03,20.01,40.42,20.59c15.44,0.55,30.52-2.75,43.74,7.82
					c10.5,8.4,16.72,22.51,19.44,37.4c6.04,33.07-0.7,72.08-24.23,95.36c-11.59,11.47-26.49,19.93-34.42,35.97
					c-7.93,16.04-5.62,35.11-10.46,52.12c-5.57,19.57-20.12,27.98-35.75,31.68c-19.03,4.51-36.3-1.53-53.18-9.77
					c-7.79-3.8-17.72-11.47-26.66-10.42c-5.05,0.59-9.02,6.5-13.28,9.58c-11.34,8.19-25.46,8.8-34.77-1.75
					c-19.24-21.8-12.24-63,1.33-88.42c4.6-8.63,10.19-17.03,13.17-26.66c1.93-6.22,2.35-12.67,2.19-19.1
					c-0.85-3.18-1.53-6.44-2.08-9.57c-2.12-12.18-3.23-24.65-5.04-36.93c-0.41-2.76-0.83-5.65-1.32-8.56
					c-0.51-1.75-1.18-3.4-1.73-5.13l-43.69,239.52l243.37-13.35l54.61-299.41L1255.12,1154.65z" opacity=".15"/><g><path fill="#383b4b" d="M1142.1,1443.46l-27.5,0.67l5.3-29.03l27.5-0.67L1142.1,1443.46z M1116.98,1441.4l23.72-0.58l4.32-23.66
						l-23.72,0.58L1116.98,1441.4z"/><path fill="#383b4b" d="M1131.97 1438.77l-6.45.16 1.68-9.18 6.45-.16L1131.97 1438.77zM1127.9 1436.19l2.68-.06.69-3.81-2.68.07L1127.9 1436.19zM1138.75 1438.6l-6.45.16 1.67-9.18 6.45-.16L1138.75 1438.6zM1134.68 1436.03l2.68-.07.69-3.81-2.68.07L1134.68 1436.03z"/><g><path fill="#383b4b" d="M1173.63,1442.69l-27.49,0.67l5.3-29.04l27.5-0.67L1173.63,1442.69z M1148.52,1440.63l23.72-0.58
						l4.32-23.66l-23.72,0.58L1148.52,1440.63z"/><path fill="#383b4b" d="M1163.51 1438l-6.45.16 1.68-9.18 6.45-.16L1163.51 1438zM1159.44 1435.42l2.68-.07.69-3.81-2.68.06L1159.44 1435.42zM1170.29 1437.83l-6.45.16 1.68-9.18 6.45-.16L1170.29 1437.83zM1166.22 1435.26l2.68-.07.69-3.81-2.68.07L1166.22 1435.26z"/></g></g><g><path fill="#383b4b" d="M1179.22 1284.18c1.36.95 2.3 2.34 2.8 4.16.5 1.82.53 3.97.08 6.45-.45 2.48-1.27 4.65-2.44 6.49-1.17 1.85-2.62 3.28-4.35 4.31-1.73 1.03-3.64 1.57-5.74 1.62l-4.05.1-1.57 8.63-6.56.16 6.02-33.02 10.61-.26C1176.12 1282.78 1177.85 1283.23 1179.22 1284.18zM1173.79 1298.54c.83-.85 1.39-2.04 1.68-3.59.28-1.54.16-2.73-.37-3.56-.53-.83-1.47-1.23-2.81-1.2l-3.65.09-1.76 9.67 3.65-.09C1171.86 1299.84 1172.96 1299.39 1173.79 1298.54zM1197.04 1308.75l-9.81.24-2.99 6.46-6.69.16 16.26-33.26 6.46-.16 4.25 32.77-6.82.17L1197.04 1308.75zM1196.37 1301.91l-1.05-10.49-4.91 10.64L1196.37 1301.91zM1211.34 1313.26c-1.67-1.42-2.82-3.41-3.44-6-.63-2.58-.64-5.52-.04-8.83.6-3.3 1.69-6.27 3.27-8.91 1.58-2.64 3.47-4.71 5.67-6.22 2.2-1.51 4.51-2.3 6.94-2.35 2.12-.05 3.93.44 5.44 1.46 1.51 1.03 2.64 2.53 3.4 4.52l-5.16 5.48c-1.03-2.54-2.62-3.79-4.76-3.74-1.26.03-2.45.45-3.58 1.26-1.13.81-2.09 1.94-2.89 3.38-.8 1.44-1.37 3.09-1.71 4.95-.34 1.86-.37 3.49-.09 4.91.28 1.42.84 2.51 1.68 3.27.84.76 1.89 1.13 3.15 1.1 2.14-.05 4.2-1.39 6.17-4l3.19 5.28c-1.49 2.04-3.19 3.62-5.08 4.72-1.9 1.11-3.9 1.69-6.02 1.74C1215.05 1315.35 1213 1314.68 1211.34 1313.26zM1241.62 1302.12l-3.13 3.79-1.51 8.25-6.49.16 6.02-33.01 6.5-.16-2.5 13.72 11.48-13.94 7.22-.18-12.14 14.85 6.62 18.15-7.62.19L1241.62 1302.12z"/><path fill="#383b4b" d="M1271.02 1306.94l-9.81.24-2.99 6.46-6.69.16 16.26-33.27 6.46-.16 4.25 32.76-6.83.17L1271.02 1306.94zM1270.36 1300.1l-1.05-10.49-4.91 10.64L1270.36 1300.1zM1298.71 1295.52l5.8-.14-2.5 13.68c-1.57 1.38-3.28 2.46-5.14 3.22-1.85.77-3.64 1.17-5.37 1.21-2.43.06-4.48-.62-6.16-2.03-1.68-1.42-2.83-3.41-3.46-6-.63-2.58-.64-5.52-.04-8.83.6-3.3 1.69-6.27 3.27-8.91 1.58-2.64 3.48-4.71 5.72-6.22 2.23-1.51 4.59-2.3 7.06-2.36 2.16-.05 4.01.42 5.55 1.42 1.53 1 2.7 2.45 3.49 4.38l-5.16 5.48c-1.12-2.41-2.78-3.59-4.96-3.54-1.99.05-3.74.95-5.27 2.69-1.53 1.74-2.55 4.05-3.08 6.91-.33 1.82-.35 3.44-.06 4.86.29 1.42.86 2.52 1.71 3.3.85.78 1.91 1.15 3.19 1.12 1.26-.03 2.51-.42 3.75-1.17L1298.71 1295.52zM1325.47 1304.82l-1.32 7.22-18.62.45 6.02-33.01 18.19-.45-1.32 7.22-11.7.29-1.01 5.56 10.31-.25-1.28 6.98-10.3.25-1.1 6.04L1325.47 1304.82z"/></g></g></g><g><path fill="#d7a28e" d="M1973.55,2257.13c0,0-15.33-53.87-7.83-57.91c7.5-4.04,34.28-16.18,38.57-12.7
							c4.3,3.48-3.65,71.36-10.34,79.15C1987.27,2273.46,1978.14,2271.33,1973.55,2257.13z"/><path fill="#fff" d="M1988.57,2244.5c-5.29-7.39-10.17-15.08-14.91-22.84c-2.3-3.76-4.54-7.52-7.07-11.12
							c-0.98-1.39-1.96-2.78-2.93-4.18c-0.1,15.65,9.89,50.77,9.89,50.77c4.59,14.21,13.71,16.33,20.4,8.54
							c1.21-1.41,2.17-4.47,2.91-8.54C1994.21,2252.85,1991.51,2248.6,1988.57,2244.5z" opacity=".2"/><path fill="#f2faff" d="M1974.58,2223.32c-3.34-0.52-6.61-1.4-9.93-2c0.47,24.54,8.51,36.33,8.51,36.33
							c4.8,14.85,14.34,17.08,21.34,8.93c4.09-4.76,11.46-31.98,11.02-50.72C1998.55,2220.21,1981.82,2224.45,1974.58,2223.32z"/><path fill="#0f1019" d="M1876.73,2295.64l-5.61,1.11c0,0-1.83,7.01,0.77,10.1c2.6,3.09,26.36,10.05,72.17,7.42
						c45.81-2.63,66.62-10.95,65.39-19.07C2008.21,2287.08,1896.99,2314.09,1876.73,2295.64z"/><path fill="#202234" d="M2009.43,2295.2c-60.09,21.86-151.65,9.52-136.91-0.69c3.25-2.24,8.95-4.26,15.89-6.23
						c24.69-6.96,65.03-13.17,65.74-25.73c0.92-16.09,9.32-18.68,11.29-18.15c0.5,0.14,1.87,0.64,3.75,1.21
						c5.52,1.66,15.5,3.93,21.48-0.44c8.04-5.86,9.22-6.54,12.94-2.97C2014.51,2252.69,2014.5,2261.84,2009.43,2295.2z"/><path fill="#0f1019" d="M1969.2,2245.61c-0.71,3.78-2.23,8.09-4.06,11.64c-4.61,8.89,2.06,13.6-12,29.66
						c-14.04,16.06-50.18,9.13-60.68,6.02c-6.18-1.84-5.59-3.54-4.05-4.64c24.69-6.96,65.03-13.17,65.74-25.73
						c0.92-16.09,9.32-18.68,11.29-18.15C1965.95,2244.54,1967.32,2245.04,1969.2,2245.61z"/><path fill="#100959" d="M2170.07,1372.31h-243.86c0,0-57.58,142.25-54.19,430.15c3.39,287.9,89.75,404.75,89.75,404.75h47.42
					l38.95-452.16L2170.07,1372.31z"/><path fill="#202234" d="M1994.26,2203.43c6.63-13.52,7-29.83,6.81-44.58c-0.22-17.09-1.52-34.29-3.61-51.25
					c-2.71-21.99-6.68-43.81-9.13-65.84c-2.41-21.57-2.05-43.08,0.28-64.65c2.31-21.36,6.26-42.49,9.68-63.69
					c3.31-20.46,6.8-41.39,6.54-62.17c-0.47-38.8-14.61-75.26-24.54-112.25c-5-18.62-8.88-37.61-9.39-56.94
					c-0.61-22.94,0.39-45.99,0.97-68.92c0.57-22.63,1.21-45.25,1.41-67.88c0.13-14.04,1.04-27.83,1.83-41.83
					c0.74-13.18,1.25-27.29-2.68-40.06c-1.63-5.28-4.17-10.25-8.28-14.01c-5.22-4.77-11.59-6.73-18.42-8.07
					c-7.61-1.49-15.79-2.12-22.91-5.41c-4.69-2.16-9.14-5.29-13.3-8.67c9.31-36.58,16.7-54.9,16.7-54.9h243.86l-121.93,382.73
					l-38.95,452.16h-17.04C1992.9,2205.99,1993.62,2204.74,1994.26,2203.43z" opacity=".35"/><path fill="#f2faff" d="M1894.69,1870.2c1.77,15.92,2.62,31.92,3.89,47.89c1.24,15.5,3.02,30.88,6.01,46.15
					c2.93,14.96,6.52,29.87,7.68,45.1c1.23,16.13-1.1,35.36-9.76,50.06c-15.95-62.97-29.22-147.58-30.5-256.93
					c-0.88-74.64,2.37-139.34,7.62-194.45c4.27-0.91,8.77,0.83,13.39,6.57c5.27,6.55,6.19,15.72,6.15,23.82
					c-0.05,10.59-1.9,21.11-4.07,31.44c-2.13,10.14-4.73,20.17-6.97,30.29c-2.09,9.43-3.01,18.46-3.36,28.11
					c-1.13,31.15-2.4,62.51,1.84,93.49C1888.84,1837.98,1892.88,1853.85,1894.69,1870.2z" opacity=".2"/><g><path fill="#d7a28e" d="M2289.52,2253.03c0,0-30.22-47.16-24.2-53.19c6.02-6.03,28.16-25.37,33.28-23.28
							c5.12,2.09,17.08,69.38,12.92,78.77C2307.37,2264.72,2298.02,2265.31,2289.52,2253.03z"/><path fill="#fff" d="M2300.26,2236.61c-7.2-5.55-14.08-11.51-20.86-17.57c-3.28-2.94-6.52-5.89-9.98-8.61
							c-1.34-1.05-2.68-2.1-4.01-3.16c4.42,15.02,24.11,45.76,24.11,45.76c8.49,12.28,17.84,11.68,22,2.29
							c0.75-1.7,0.79-4.91,0.32-9.02C2308.07,2242.98,2304.26,2239.69,2300.26,2236.61z" opacity=".2"/><path fill="#f2faff" d="M2280.76,2220.36c-3.35,0.46-6.73,0.57-10.09,0.94c7.52,23.37,18.62,32.34,18.62,32.34
							c8.88,12.84,18.66,12.22,23,2.4c2.54-5.74,1.76-33.92-4.08-51.74C2302.82,2210.48,2288.01,2219.36,2280.76,2220.36z"/><path fill="#0f1019" d="M2207.92,2317.83l-5.05,2.68c0,0,0.27,7.24,3.65,9.45c3.38,2.21,28.14,2.02,71.24-13.71
						c43.11-15.73,60.63-29.69,57.11-37.11C2331.35,2271.72,2232.64,2329.66,2207.92,2317.83z"/><path fill="#202234" d="M2334.86,2279.14c-51.23,38.26-142.46,52.85-131.29,38.82c2.46-3.08,7.34-6.66,13.42-10.55
						c21.63-13.79,58.47-31.36,55.53-43.59c-3.76-15.67,3.54-20.58,5.58-20.64c0.52-0.01,1.97,0.07,3.94,0.07
						c5.76,0,15.98-0.7,20.44-6.61c6.01-7.93,6.94-8.93,11.53-6.57C2327.47,2236.98,2330.09,2245.74,2334.86,2279.14z"/><path fill="#0f1019" d="M2282.04,2243.26c0.41,3.82,0.19,8.39-0.53,12.31c-1.85,9.84,5.89,12.43-2.93,31.86
						c-8.81,19.43-45.42,23.22-56.37,23.26c-6.44,0.02-6.37-1.78-5.22-3.27c21.63-13.79,58.47-31.36,55.53-43.59
						c-3.76-15.67,3.54-20.58,5.58-20.64C2278.62,2243.17,2280.07,2243.26,2282.04,2243.26z"/></g><path fill="#100959" d="M2222.55,1349.14l-233.5,70.32c0,0-14.11,152.82,72.15,427.5c86.26,274.69,202.66,361.67,202.66,361.67
					l45.4-13.68l-93.09-444.19L2222.55,1349.14z"/><path fill="#202234" d="M2293.87,2195.65c2.45-14.85-1.9-30.58-6.33-44.65c-5.14-16.3-11.34-32.39-18.23-48.03
					c-8.93-20.28-19.03-40.03-27.73-60.41c-8.52-19.96-14.39-40.66-18.38-61.98c-3.95-21.12-6.26-42.49-9.1-63.78
					c-2.73-20.54-5.43-41.59-11.66-61.41c-11.64-37.01-35.69-67.85-55.86-100.41c-10.16-16.39-19.35-33.45-25.42-51.81
					c-7.2-21.79-12.89-44.15-18.95-66.27c-5.98-21.83-11.9-43.68-18.23-65.4c-3.93-13.48-7.02-26.95-10.31-40.58
					c-3.09-12.83-6.67-26.5-14.12-37.58c-3.08-4.59-6.95-8.61-11.97-11.03c-6.38-3.06-13.04-3.1-19.97-2.41
					c-7.72,0.77-15.73,2.52-23.5,1.42c-5.11-0.72-10.28-2.43-15.24-4.47c-1.63-37.71,0.16-57.38,0.16-57.38l233.5-70.32
					l-6.38,401.63l93.09,444.19l-16.32,4.92C2293.31,2198.49,2293.64,2197.09,2293.87,2195.65z" opacity=".35"/><path fill="#f2faff" d="M2124.31,1905.29c6.28,14.74,11.71,29.81,17.54,44.73c5.66,14.48,11.8,28.7,19.07,42.45
					c7.12,13.48,14.86,26.72,20.36,40.97c5.83,15.09,9.14,34.17,5.09,50.75c-33.43-55.69-70.53-132.89-103.3-237.23
					c-22.36-71.21-37.91-134.11-48.78-188.39c3.82-2.11,8.63-1.74,14.72,2.43c6.94,4.75,10.46,13.27,12.75,21.03
					c3.01,10.16,4.26,20.76,5.17,31.28c0.89,10.32,1.29,20.68,2.06,31.01c0.71,9.63,2.44,18.55,4.89,27.88
					c7.9,30.15,15.73,60.54,28.72,88.98C2109.42,1876.13,2117.86,1890.16,2124.31,1905.29z" opacity=".2"/><path fill="#202234" d="M2017.01,948.96c0,0-148.04-54.67-103.23-140.53c0,0-51.18-73.31,14.29-113.18
			c65.47-39.87,86.27,8.53,86.27,8.53s139.33-124.92,171.05,77.56c0,0,1.95,59.01,77.83-1.33
			c75.87-60.34,113.79,232.44-41.03,251.87C2067.37,1051.32,2017.01,948.96,2017.01,948.96z"/><g><path fill="#d7a28e" d="M1486.92,1230.74c8-0.09,15.23-0.47,19.51-1.2c0.49-0.07,0.93-0.16,1.28-0.23c3.11-0.65,6-1.64,8.63-2.78
					c2.25-0.96,4.27-2.01,6.04-3.04c4.61-2.65,7.39-5.14,7.39-5.14l65.69,2.53c2.9-12.4,0.5-29.77-0.07-32.71
					c0,0-60.55,3.13-69.26-4.11c-0.08-0.04-0.18-0.13-0.24-0.2c-0.1-0.13-0.18-0.28-0.27-0.44c-1.44-2.16-4.84-4.32-8.95-6.02
					c-3.01-1.23-6.41-2.24-9.67-2.83c-0.39-0.07-0.83-0.14-1.34-0.21c-9.32-1.29-34.43-1.38-36.4,2.95
					c-2.27,4.96,7.55,6.13,12.65,6.36l-0.44,0c-13.07,0.03-52.07,0.35-53.04,6.71c-0.65,4.17,15.76,5.7,28.5,6.27
					c-15.6-0.12-37.97,0.52-36.37,5.16c1.23,3.56,23.87,5.69,36.52,6.76c-8.74,0.06-26.02,0.82-26.07,3.81
					c-0.13,6.46,17.8,7.32,29.88,7.17c-7.19,0.58-15.36,2.02-15.86,5.47C1444.46,1229.25,1467.93,1230.94,1486.92,1230.74z"/><path fill="#231f20" d="M1525.35,1219.68c1.09-0.68,2.14-1.42,3.07-2.39c3.12-3.24,4.85-7.72,5.48-12.14
					c0.62-4.46,0.22-9.31-2.34-13.12c-1.05-1.59-2.45-2.81-3.9-4.03c2.02,7.25-0.76,15.1-0.76,15.1c1,6.25,0.42,11.71-1.65,16.04
					C1525.37,1219.44,1525.39,1219.64,1525.35,1219.68z" opacity=".1"/><path fill="#fff" d="M1506.43,1229.54c0.49-0.07,0.93-0.16,1.28-0.23c3.11-0.65,6-1.64,8.63-2.78
					c2.25-0.96,4.27-2.01,6.04-3.04c1.18-1.27,2.13-2.75,2.88-4.35c2.07-4.34,2.64-9.8,1.65-16.04c0,0,2.77-7.86,0.74-15.1
					c-0.37-1.42-0.94-2.83-1.77-4.13c-0.1-0.13-0.18-0.28-0.27-0.44c-1.44-2.16-4.84-4.32-8.95-6.02c-3.01-1.23-6.41-2.24-9.67-2.83
					c-0.39-0.07-0.83-0.14-1.34-0.21c-9.32-1.29-34.43-1.38-36.4,2.95c-2.27,4.96,7.55,6.13,12.65,6.36l-0.44,0
					c3.46,0.24,5.6,0.68,3.65,2.02c-4.58,3.13-7.01,10.72-6.23,21.61c0.81,11.55,6.43,18.36,8.32,21.22
					C1489.7,1230.49,1501.35,1230.25,1506.43,1229.54z" opacity=".2"/><path fill="#e8ad80" d="M1481.3,1219.6c-0.07,0.03-0.13,0.09-0.21,0.09l-19.75-0.09l19.58-1c-0.19-0.5-0.4-0.99-0.58-1.5
					c-0.77-2.33-1.4-4.72-1.76-7.19c-0.01,0-0.03,0.01-0.04,0.01l-19.7-1.29l19.6,0.2c-0.02-0.2-0.06-0.4-0.08-0.6
					c-0.17-3.04-0.2-6.05,0.04-9.07c0.04-0.57,0.1-1.14,0.17-1.71c-0.02,0-0.03,0.02-0.06,0.02l-19.7-1.3l19.74,0.2
					c0.01,0,0.02,0,0.03,0c0.04,0,0.07,0.04,0.1,0.05c0.26-2.09,0.65-4.17,1.3-6.16c-0.5,2.96-0.68,5.95-0.76,8.93
					c-0.05,2.98-0.04,5.98,0.22,8.93c0.2,2.93,0.92,5.83,1.7,8.69c0.8,2.86,1.75,5.69,2.75,8.5
					C1482.9,1223.5,1482.07,1221.56,1481.3,1219.6z"/><path fill="#e56a8d" d="M1944.44,879.33c-62.48,29.68-93.34,228.17-93.34,228.17l-303.45,71.36l-3.8,43.43
				c0,0,256.96,41.86,393.99-51.66C2074.88,1077.1,2030.14,838.61,1944.44,879.33z"/></g><path fill="#e05778" d="M1936.95,890.84c17.52-26.17,112.38-25.05,153.55,42.29c41.18,67.34,92.65,272.84,115.18,336.71
			c22.53,63.87,61.7,105.67-1.77,131.62c-63.47,25.95-304.41,78.93-309.18-22.67c-4.77-101.6,65.79-169.34,17.3-240.06
			c-48.48-70.72-38.92-123.27-14.2-168.71C1922.57,924.57,1922.38,912.59,1936.95,890.84z"/><g><path fill="#202234" d="M1939.97,691.82c-10.47,4.32-51.1,9.42-63.87,34.82c-13.97,26.74,12.12,67.38-12.95,75.42
				c-27.76,4.03-11.38,37.18,14.06,49.4c12.37,6.17,39.36,7.95,52.05,13.02c20.68,10.15,48.57-11.08,74.56-18.97
				c26.31-7.07,50.71-0.8,38.83-9.79c-25-22.72,6.6-36.05-18.61-60.41c-20.58-21.71-12.9-29.62-19.35-40.03
				C1984.45,700.82,1967.17,685.26,1939.97,691.82z"/><path fill="#d7a28e" d="M1982.06,819.31l16.99,73.96c0,0-18.93,37.56-45.48,14.68l-5.71-50.44L1982.06,819.31z"/><path fill="#33133f" d="M1973.65,906.4c-6.08-7.89-9.63-20.6-2.83-29.16c2.75-3.46,6.6-5.9,9.22-9.47
				c3.26-4.45,3.18-10.56,1.97-15.71c-1.97-8.41-6.63-16.25-7.11-24.77l-27.05,30.22l5.71,50.44c10.37,8.94,19.56,8.64,26.93,4.97
				C1977.97,911.13,1975.64,908.98,1973.65,906.4z" opacity=".15"/><path fill="#d7a28e" d="M1873.1,754.79c0,0,10.97,120.98,59.29,118.74c48.32-2.25,62.97-55.26,62.97-55.26s9.5,4.35,10.49-4.73
				c0.99-9.08,9.53-25.93-1.71-30.48c-11.23-4.56-13.38,5.52-13.38,5.52l2.44-28.02C1993.21,760.56,1869.39,715.18,1873.1,754.79z"/><path fill="#33133f" d="M1995.62 789.65c0 0 5.87-4.19 9.01.4 3.14 4.6-.04 24.07-7.76 22.73 0 0 9.05-5.36 6.47-16.68C2000.77 784.78 1997.72 793.1 1995.62 789.65zM1970.27 822.36c.99 3.27-2.23 7.13-7.18 8.62-4.95 1.49-9.76.04-10.74-3.23-.99-3.27 2.23-7.13 7.18-8.62C1964.47 817.65 1969.28 819.09 1970.27 822.36zM1913.02 829.89c.99 3.27-2.23 7.13-7.18 8.62-4.95 1.49-9.76.04-10.74-3.23-.99-3.27 2.23-7.13 7.18-8.62C1907.22 825.18 1912.03 826.62 1913.02 829.89z" opacity=".05"/><path fill="#202234" d="M1911.49 798.16c-.49.06-1-.13-1.32-.55-.28-.37-6.89-8.71-19.55-1.08-.68.41-1.55.19-1.96-.48-.41-.67-.19-1.55.49-1.96 14.93-9 23.21 1.69 23.29 1.8.47.63.35 1.52-.28 1.99C1911.96 798.04 1911.72 798.13 1911.49 798.16zM1938.94 794.96c-.18.02-.36.01-.54-.04-.76-.2-1.21-.97-1.02-1.73.04-.13 3.62-13.11 22.71-11.48.78.07 1.36.76 1.3 1.54-.07.78-.75 1.36-1.54 1.3-16.6-1.43-19.59 8.92-19.71 9.36C1939.99 794.49 1939.5 794.89 1938.94 794.96zM1927.34 832.7c-.49.06-.98.05-1.47-.03-3.11-.49-4.8-3.71-4.87-3.85-.21-.4-.21-.87-.02-1.28 4.09-8.42 1.42-18.77 1.39-18.87-.2-.76.25-1.54 1.01-1.74.78-.2 1.54.25 1.74 1.01.12.45 2.82 10.93-1.25 20.13.5.69 1.39 1.62 2.45 1.79.98.15 2.1-.37 3.31-1.56.56-.55 1.47-.54 2.02.02.55.56.55 1.46-.01 2.02C1930.23 831.72 1928.79 832.51 1927.34 832.7z"/><path fill="#fcfaf7" d="M1920.04,848.05c0,0,17.04,5.28,34.05-5.4C1959.13,849.64,1940.18,871.88,1920.04,848.05z"/><path fill="#202234" d="M1908.67 810.42c.55 4.4-1.44 8.28-4.45 8.66-3.01.38-5.91-2.88-6.46-7.29-.56-4.4 1.44-8.28 4.45-8.66C1905.23 802.76 1908.12 806.02 1908.67 810.42zM1957.78 804.24c.55 4.41-1.44 8.28-4.45 8.66-3.01.38-5.91-2.88-6.46-7.29-.56-4.41 1.44-8.28 4.45-8.66C1954.33 796.57 1957.22 799.84 1957.78 804.24z"/><path fill="#33133f" d="M1943.47,865.45c-1.49,0.19-2.49,0.09-2.6,0.08c-0.39-0.04-0.67-0.39-0.63-0.79
					c0.04-0.39,0.4-0.67,0.79-0.63c0.06,0.01,6.44,0.6,11.45-4.98c0.27-0.29,0.72-0.31,1.01-0.05c0.29,0.26,0.31,0.71,0.05,1.01
					C1950.06,863.96,1946.03,865.12,1943.47,865.45z" opacity=".05"/><path fill="#202234" d="M1892.4,732.27c-0.35-5.09-1.01-8.36-1.01-8.36c-49.18,10.67-18.76,59.28-18.76,59.28
				c16.18-10.81,19.73-29.8,19.96-43.37c15.67,16.61,60.26,33.24,107.13,28.3l4.55-11.1L1892.4,732.27z"/><path fill="#202234" d="M1887.64,731.87c3.91,13.67,15.43,24.58,27.16,31.87c15.44,9.61,33.7,14.33,51.86,13.27
				c12.14-0.71,23.94-4.1,34.84-9.42c2.05-1,0.7-4.3-1.37-3.29c-17.86,8.73-37.85,11.61-57.32,7.2
				c-15.45-3.5-30.52-11.43-41.29-23.17c-4.72-5.14-8.67-11.07-10.6-17.83C1890.3,728.3,1887.01,729.68,1887.64,731.87
				L1887.64,731.87z"/></g><g><path fill="#ddae9f" d="M1682.25,1353.53l0-0.01c3-0.56,7.16-1.82,13.09-4.29c0,0-0.05,0-0.13,0.01c3-1.12,6.06-2.5,9.03-4.02
						c5.14-2.64,8.75-4.85,11.21-6.55c0.01-0.01,0.02-0.01,0.03-0.01c3.63-2.52,4.79-3.9,4.79-3.9s23.09,2.59,29.6-0.87
						c9.37-13.6-9.86-37.17-9.86-37.17c-5.9-3.61-18.11,6.16-28.64,2.45c-12.28-4.33-32.14-27.24-35.52-17.92
						c-3.4,9.33,14.61,19.85,14.61,19.85s-0.26,0-0.74,0.02c-2.93,0.07-13.99,0.64-23.46,4.53h-0.01c-2.63,1.1-5.14,2.43-7.32,4.1
						c-0.38,0.3-0.76,0.6-1.13,0.91c-0.65,0.55-1.26,1.15-1.83,1.79c-0.09,0.1-0.19,0.21-0.28,0.32c-0.28,0.32-0.55,0.65-0.8,0.98
						l-0.03,0.04c0,0.01,0,0.01,0.01,0.02c-0.41,1.07-0.57,2.47-0.14,4.3c1.37,5.9,6.17,5.58,6.17,5.58s-3.75,2.88-1.91,7.47
						c1.94,4.88,5.53,3.27,5.53,3.27s-2.88,4.21-1.21,8c1.77,4,5.89,2.05,5.89,2.05s-2.47,2.68-0.46,7.39
						C1670.53,1356.07,1682.25,1353.53,1682.25,1353.53z"/><path fill="#f2faff" d="M1670.91 1333.73c-.1.14-.14.31-.02.52 1.31 2.27 2.46 4.48 2.21 7.18-.08.9-.16 1.92.45 2.66.28.34.66.56 1.01.8.48.34.75.77 1.03 1.28.89 1.67 1.43 3.54 1.75 5.4.15.85.24 1.73.29 2.62-3.49.28-7.86.1-8.9-2.35-2.02-4.7.45-7.39.45-7.39s-4.12 1.95-5.88-2.05c-1.67-3.79 1.21-8 1.21-8s-3.59 1.61-5.53-3.27c-1.84-4.59 1.91-7.47 1.91-7.47s-4.8.33-6.17-5.57c-.42-1.83-.26-3.23.14-4.31 0-.01 0-.01-.01-.02l.03-.04c.25-.34.52-.67.8-.99.09-.11.19-.22.28-.32.56-.64 1.18-1.22 1.83-1.79.37-.31.75-.61 1.13-.9-.11 1.45.16 3.01.51 4.38.4 1.55 1.01 3.17 2.3 4.2 1.35 1.09 3.14 1.27 4.57 2.2 1.49 1 2.08 2.94 1.94 4.66-.12 1.49-.81 2.79-.32 4.29.54 1.67 1.83 2.92 2.94 4.22C1670.89 1333.7 1670.9 1333.71 1670.91 1333.73zM1678.4 1280.48c0 0 5.72 5.3 7.1 5.04 1.38-.26 1.39-1.97 1.39-1.97S1680.66 1279.39 1678.4 1280.48z" opacity=".2"/><path fill="#e56a8d" d="M2002.96,898.1c-52.29,45.29-16.46,247.92-16.46,247.92l-273.37,149.81l7.94,42.86
				c0,0,258.8-28.29,365.88-155.02C2194.04,1056.96,2074.67,835.98,2002.96,898.1z"/></g></g></svg>