<svg xmlns="http://www.w3.org/2000/svg" viewBox="0 0 48 48"><g fill="none" fill-rule="evenodd"><g><g><g><path fill="#FFF" fill-opacity="0" d="M0 0h48v48H0V0z" transform="translate(-55.000000, -259.000000) translate(24.000000, 247.000000) translate(31.000000, 12.000000)"/><g><g><path fill="#A50064" d="M9.852 6.923L32.878.26c.374-.108.764.107.872.48.018.064.028.13.028.196V6.22c0 .389-.315.704-.704.704H9.852z" transform="translate(-55.000000, -259.000000) translate(24.000000, 247.000000) translate(31.000000, 12.000000) translate(4.000000, 6.000000) translate(21.814815, 3.461360) scale(-1, 1) translate(-21.814815, -3.461360)"/><path fill="#A50064" d="M3.905 6.923l29.08-3.684c.386-.05.738.224.787.61.004.029.006.058.006.088v4.4L3.905 6.922z" transform="translate(-55.000000, -259.000000) translate(24.000000, 247.000000) translate(31.000000, 12.000000) translate(4.000000, 6.000000) translate(18.841386, 5.737178) scale(-1, 1) translate(-18.841386, -5.737178)"/><path fill="#D82D8B" d="M33.778 6.923c2.332 0 4.222 1.86 4.222 4.153v4.89l-7.769.003c-3.108 0-5.627 2.48-5.627 5.537 0 3.058 2.52 5.536 5.627 5.536H38v4.803c0 2.294-1.89 4.153-4.222 4.153L1.408 36v-4.155-20.769c0-2.294 1.89-4.153 4.222-4.153h28.148z" transform="translate(-55.000000, -259.000000) translate(24.000000, 247.000000) translate(31.000000, 12.000000) translate(4.000000, 6.000000) translate(19.703704, 21.461360) scale(-1, 1) translate(-19.703704, -21.461360)"/><path fill="#D82D8B" d="M4.186 17.404h6.626c1.166 0 2.11.93 2.11 2.077v4.082c0 1.147-.944 2.077-2.11 2.077H4.186C1.874 25.64 0 23.796 0 21.522c0-2.275 1.874-4.118 4.186-4.118z" transform="translate(-55.000000, -259.000000) translate(24.000000, 247.000000) translate(31.000000, 12.000000) translate(4.000000, 6.000000) translate(6.461412, 21.521868) scale(-1, 1) translate(-6.461412, -21.521868)"/></g><g fill="#FFF"><path d="M8.686 15.032H6.514v-4.483c0-.267-.217-.48-.543-.48-.271 0-.542.213-.542.48v4.483H3.257v-4.483c0-.267-.217-.48-.543-.48-.271 0-.543.213-.543.48v4.483H0v-4.483c0-1.334 1.194-2.455 2.66-2.455.597 0 1.14.16 1.629.48.434-.32.977-.48 1.574-.48 1.466 0 2.66 1.12 2.66 2.455v4.483h.163zM8.686 6.938H6.514V2.455c0-.267-.217-.48-.543-.48-.271 0-.542.213-.542.48v4.483H3.257V2.455c0-.267-.217-.48-.543-.48-.271 0-.543.213-.543.48v4.483H0V2.455C0 1.12 1.194 0 2.66 0c.597 0 1.14.16 1.629.48C4.723.16 5.266 0 5.863 0c1.466 0 2.66 1.12 2.66 2.455v4.483h.163zM9.65 3.469c0 1.921 1.615 3.469 3.62 3.469 2.004 0 3.619-1.548 3.619-3.47 0-1.92-1.615-3.468-3.62-3.468-2.004 0-3.618 1.548-3.618 3.469zm5.06-.572c.078.181.119.377.119.572 0 .196-.04.391-.12.572-.077.18-.193.347-.337.485-.144.138-.317.249-.506.324-.188.075-.392.114-.596.113-.204 0-.408-.038-.597-.113-.189-.075-.362-.186-.506-.324-.144-.138-.26-.304-.338-.485-.078-.18-.118-.376-.118-.572 0-.195.04-.391.118-.572.078-.18.194-.346.338-.484.144-.139.317-.25.506-.324.189-.075.393-.114.597-.114.204 0 .408.039.596.114.189.074.362.185.506.324.144.138.26.304.338.484zM9.65 11.563c0 1.92 1.615 3.469 3.62 3.469 2.004 0 3.619-1.548 3.619-3.47 0-1.92-1.615-3.468-3.62-3.468-2.004 0-3.618 1.548-3.618 3.469zm5.06-.572c.078.18.119.376.119.572 0 .196-.04.391-.12.572-.077.18-.193.346-.337.485-.144.138-.317.249-.506.324-.188.075-.392.113-.596.113-.204 0-.408-.038-.597-.113-.189-.075-.362-.186-.506-.324-.144-.139-.26-.304-.338-.485-.078-.18-.118-.376-.118-.572 0-.196.04-.391.118-.572.078-.18.194-.346.338-.485.144-.138.317-.249.506-.323.189-.075.393-.114.597-.114.204 0 .408.039.596.114.189.074.362.185.506.323.144.139.26.304.338.485z" transform="translate(-55.000000, -259.000000) translate(24.000000, 247.000000) translate(31.000000, 12.000000) translate(4.000000, 6.000000) translate(15.200000, 11.368421)"/></g></g><g transform="translate(-55.000000, -259.000000) translate(24.000000, 247.000000) translate(31.000000, 12.000000) translate(28.000000, 28.000000)"><circle cx="10" cy="10" r="10" fill="#FFF8FA"/><g fill-rule="nonzero"><path fill="#FA6267" d="M15.557 0c.613 0 1.11.47 1.11 1.048v.019l-.153 7.904c-.01.571-.504 1.029-1.11 1.029H3.368c-.458 0-.83-.35-.83-.784 0-.432.372-.783.83-.783h2.344c.453 0 .82-.347.82-.774 0-.428-.367-.774-.82-.774l-3.077.003c-.322-.044-.58-.275-.648-.573L1.97 6.16v-.02c0-.346.26-.634.605-.7l.153-.015 2.446-.001c.403 0 .73-.309.73-.69 0-.38-.327-.688-.73-.688l-1.462-.001-.039-.003c-.325-.062-.569-.334-.569-.66 0-.37.32-.672.713-.672h1.364c.348 0 .63-.267.63-.596 0-.329-.282-.595-.63-.595H4.03c-.445 0-.805-.34-.805-.76S3.585 0 4.03 0h11.527zM1.074 8.45c.453 0 .82.347.82.775 0 .428-.367.775-.82.775H.82C.368 10 0 9.653 0 9.225c0-.428.368-.775.821-.775h.253zm.745-5.654c.367 0 .665.281.665.628 0 .33-.27.601-.613.626l-.204-.003-.002.005h-.18c-.368 0-.666-.28-.666-.628 0-.347.298-.628.665-.628h.335z" transform="translate(1.666667, 5.000000)"/><path fill="#FFF" d="M11.36 7.727v.633c0 .139-.124.251-.278.251h-.56c-.154 0-.279-.112-.279-.25v-.576c-.472-.046-.94-.188-1.245-.385-.101-.065-.142-.183-.1-.288l.213-.538c.029-.073.093-.13.174-.154.082-.023.17-.013.242.03.316.19.737.302 1.128.302.467 0 .78-.215.78-.535 0-.217-.1-.455-.832-.723-.81-.287-1.642-.704-1.642-1.62 0-.729.52-1.297 1.344-1.496V1.77c0-.138.125-.25.278-.25h.552c.154 0 .278.112.278.25v.546c.38.038.716.136 1.02.297.117.062.167.19.12.305l-.223.53c-.03.069-.09.123-.166.147-.077.025-.161.018-.233-.018-.138-.072-.464-.24-.983-.24-.49 0-.666.228-.666.44 0 .232.135.385.933.683.721.265 1.551.699 1.552 1.701 0 .752-.557 1.36-1.406 1.566z" transform="translate(1.666667, 5.000000)"/></g></g></g></g></g></g></svg>