<svg xmlns="http://www.w3.org/2000/svg" xmlns:xlink="http://www.w3.org/1999/xlink" width="4000" height="4000" viewBox="0 0 4000 4000"><defs><linearGradient id="b" x1="5611.527" x2="5630.87" y1="8407.704" y2="8407.704" gradientTransform="scale(77.8 -77.8) rotate(-59.673 -4537.524 9080.603)" gradientUnits="userSpaceOnUse"><stop offset="0" stop-color="#e3dbf9"/><stop offset=".61" stop-color="#d1c1fa"/><stop offset=".82" stop-color="#a685fb"/><stop offset="1" stop-color="#7846fd"/></linearGradient><linearGradient id="a" x1="5543.334" x2="5562.677" y1="8022.007" y2="8022.007" gradientTransform="scale(-16.83 16.83) rotate(61.024 9443.123 -702.768)" gradientUnits="userSpaceOnUse"><stop offset="0" stop-color="#aadbff"/><stop offset="1" stop-color="#0500e3"/></linearGradient><linearGradient id="e" x1="5538.454" x2="5557.797" y1="8073.809" y2="8073.809" gradientTransform="scale(-19.052 19.052) rotate(63.132 9231.823 -486.71)" xlink:href="#a"/><linearGradient id="f" x1="5375.731" x2="5395.074" y1="8464.816" y2="8464.816" gradientTransform="scale(20.303 -20.303) rotate(-56.574 -5177.72 9060.561)" gradientUnits="userSpaceOnUse"><stop offset="0" stop-color="#fb9c9a"/><stop offset=".64" stop-color="#fc8886"/><stop offset=".84" stop-color="#fd5450"/><stop offset="1" stop-color="#ff1712"/></linearGradient><linearGradient id="g" x1="5558.281" x2="5577.624" y1="8421.53" y2="8421.53" gradientTransform="scale(43.122 -43.122) rotate(-59.662 -4578.094 8987.2)" gradientUnits="userSpaceOnUse"><stop offset="0" stop-color="#fb9c9a"/><stop offset=".63" stop-color="#fc8784"/><stop offset=".83" stop-color="#fd524e"/><stop offset="1" stop-color="#ff1712"/></linearGradient><linearGradient id="i" x1="5422.764" x2="5442.106" y1="8419.123" y2="8419.123" gradientTransform="scale(22.647 -22.647) rotate(-61.268 -4414.353 8646.304)" gradientUnits="userSpaceOnUse"><stop offset="0" stop-color="#20238c"/><stop offset=".54" stop-color="#1a1d7f"/><stop offset="1" stop-color="#050751"/></linearGradient><linearGradient id="j" x1="5571.575" x2="5590.918" y1="8439.413" y2="8439.413" gradientTransform="scale(45.453 -45.453) rotate(-55.007 -5333.073 9491.075)" gradientUnits="userSpaceOnUse"><stop offset="0" stop-color="#20238c"/><stop offset=".51" stop-color="#191c7e"/><stop offset="1" stop-color="#050751"/></linearGradient><linearGradient id="k" x1="5888.592" x2="5907.934" y1="8676.652" y2="8676.652" gradientTransform="scale(21.889 -21.889) rotate(62.199 10270.79 -473.687)" gradientUnits="userSpaceOnUse"><stop offset="0"/><stop offset="1" stop-color="#4d4d4d"/></linearGradient><linearGradient id="l" x1="5633.249" x2="5652.592" y1="8288.112" y2="8288.112" gradientTransform="scale(-38.457 38.457) rotate(67.222 8967.61 -100.715)" gradientUnits="userSpaceOnUse"><stop offset="0" stop-color="#aadbff"/><stop offset=".6" stop-color="#92d1ff"/><stop offset=".81" stop-color="#5bb9ff"/><stop offset="1" stop-color="#22a1ff"/></linearGradient><linearGradient id="m" x1="5527.524" x2="5546.867" y1="8348.148" y2="8348.148" gradientTransform="scale(29.007 -29.007) rotate(-81.445 -2089.773 7279.55)" gradientUnits="userSpaceOnUse"><stop offset="0" stop-color="#fb9c9a"/><stop offset=".47" stop-color="#fc7875"/><stop offset="1" stop-color="#ff1712"/></linearGradient><linearGradient id="o" x1="5553.961" x2="5573.304" y1="8280.81" y2="8280.81" gradientTransform="scale(-29.328 29.328) rotate(72.834 8288.552 333.488)" gradientUnits="userSpaceOnUse"><stop offset="0" stop-color="#20238c"/><stop offset=".49" stop-color="#191c7d"/><stop offset="1" stop-color="#050751"/></linearGradient><clipPath id="c"><path fill="none" d="M2134.335,1392.017a133.791,133.791,0,0,0-133.7-133.747H1014.2a133.791,133.791,0,0,0-133.7,133.747v1393.45a133.8,133.8,0,0,0,133.7,133.756h986.439a133.8,133.8,0,0,0,133.7-133.756Z"/></clipPath><clipPath id="d"><circle cx="1244.259" cy="1861.407" r="227.326" fill="none"/></clipPath><clipPath id="h"><path fill="none" d="M2856.145,2019.9c76.137,176.4-434.014,741.57-604.077,727.065-170.1-14.579-416.467-814.386-416.467-814.386l-71.674-93.87L1953,1862.638l-13.162,25.667s266.651,464.2,339.121,498.956c36.029,17.3,129.967-266.846,329.355-379.826C2825.737,1884.344,2812.6,1919,2856.145,2019.9Z"/></clipPath><clipPath id="n"><path fill="none" d="M3180.113,1950.218c191.391,16.8,470.557,690.821,352.836,876.949-117.8,186.127-860.847,205.348-1059.332,239.807-150.8,131.73-212.427-32.14-190.813-32.355,96.025-.965,93.468-77.983,93.468-77.983s1.568-8.06-25.574-40.827c29.946-21.07,96.85,39.763,96.85,39.763s716.643-275.677,781.65-322.939c32.339-23.487-169.53-241.227-177.779-470.252C3048.614,2083.877,3070.641,1940.607,3180.113,1950.218Z"/></clipPath></defs><path fill="#f5f2fd" fill-rule="evenodd" d="M1987.845,922.175c720.52,607.632,1476.844,374.762,1561.65,1074.1,90.085,743.354-150.885,295.971-731.245,759.771C1971.263,3432.99,699.421,3196.8,652.317,1989.211,620.969,1184.71,1415.405,439.449,1987.845,922.175Z"/><path fill="url(#b)" d="M459.281,2551.857c6.35-14.073,10.152-28.434,17.642-40.293,8.448-11.554,22.654-20.474,37.35-15.245,65.785,21.308,131.942,20.824,167.544-33.525a7.466,7.466,0,0,0-.287,2.548c.01.8.968,1.1,1.763,1.092.815,1.581,3.851,2.816,5.451,3.592,8.316,3.716,17.7,4.079,26.757,3.015,11.428-1.888,20.719-9.476,30.672-15a117.168,117.168,0,0,1,20.241-9.63,37.83,37.83,0,0,1-1.139,10.989,1.3,1.3,0,0,0-1.111.172c-7.979,10.912-24.638,14.295-38.537,22.257-11.859,5.71-21.61,14.735-29.915,25.015a119.03,119.03,0,0,0-19.032,30.609c-11.158,24.151-14.173,50.907-15.445,77.165-.1,5.249-2.775,33.433,6.076,28.873,8.478-9.169,12.95-20.674,22.261-26.672,26.965-19.1,60.647-22.048,84.536-45.559,24.033-24.785,41.426-72.55,11.678-99.227a48.332,48.332,0,0,0-14.9-8.726c-.958-.306-1.6-.775-2.558-1.082a50.269,50.269,0,0,0,1.723-15.289,58.084,58.084,0,0,1,17.464-2.6c8.746-.107,17.827,1.214,26.391-.8,14.753-3.2,26.372-15.588,30.49-30.111,1.216-4.627,3.055-10.375,2.987-15.941,7.387,5.8,15.405,11.265,24.506,14.176,13.086,3.659,29.448,2.028,34.514-12.984,3.065-9.58.717-19.571-.194-29.1-.872-6.351,1.081-15.758,2.259-23.566a27.333,27.333,0,0,0,3.938,9.973c2.434,3.946,5.183,7.729,7.933,11.513-1.339,20.692-1.538,43.6,9.815,61.75-28.2-4.27-34.493,40.975-73.886,18.869-5.116-2.165-18.921-12.653-20.711-2.93-.441,3.028.862,5.556,1.849,8.249a71.215,71.215,0,0,0,10.722,18.478c13.556,16.217,36.922,28.18,58.007,22.516,7.452-1.84,14.378-7.809,18.947-11.363a62.182,62.182,0,0,1,17.865-8.8c12.99-4.293,26.966-5.895,38.49-13.033a38.966,38.966,0,0,0,7.241-6.131c1.879,10.633,9.161,20.883,24.862,30.393,21.288,11.035,42.353,16.981,59.426,34.587,2.893,2.51,8.718,10.71,12.589,15.116,4.839,5.508,8.306,2.921,9.34-3.612,7.326-25.378,8.578-53.226-3.169-77.576-5.4-12.817-14.17-27.5-17.649-38.911-2.195-10.47-1.975-18.584-1.315-29.725a113.414,113.414,0,0,1,14.078-45.658c2.8-5.442,7.031-10.424,10.469-15.395,7.8,13.583,9.286,31.219,6.432,45.09-4.529,19.936-15.726,40.907-7.208,61.32,3.46,9.819,10.089,18.8,20.618,21.38,5.748,1.839,12.109,1.761,17.7,4.079a44.172,44.172,0,0,1,9.121,4.5l1.437.46a2.089,2.089,0,0,0,1.4-2.721c2.509-2.894,4.31-11.822,5.4-13.584,12.776-34.986,32.24-56.216,19.016-97.408a121.228,121.228,0,0,0-5.912-15.355c3.65-.681,7.136-1.678,10.786-2.358,19.82-5.012,40.828-3.836,57.814,6.614,5.6,3.113,13.134,7.633,16.516,11.091,2.089,1.725,3.239,4.733,5.95,5.337,5.24-.7.861-7.646.507-10.663-4.648-16.007-7.064-31.564-6.3-47.16.142-27.676,15.266-52.67,22.889-79.8,5.438-23.605.675-49.153-10.4-70.65-15.464-29.235-49.876-47.107-82.177-35.265l-5.058,2.607c-11.794-15.126-29.412-25.249-47.461-31.551-11.5-4.472-23.614-6.234-35.273-10.228-20.769-7.7-45.083-19.174-64.644-5.895.307-.958.776-1.6.93-2.079,12.47-20.827,13.119-45.964,15.378-69.53a131.6,131.6,0,0,1,5.793-33.788.348.348,0,0,0,.479.153c7.462-1.045,14.513,3.323,23.116,4.491a143.11,143.11,0,0,0,23.384.352c1.8,4.272,3.6,8.545,6.352,12.329,6.467,8.668,15.29,14.923,25.206,19.415,22.226,9.75,32.33-9.458,42-25.639,3.592-5.451,9.751-9.025,15.891-14.188a59.65,59.65,0,0,0,14.885-18.472c5.91-11.045,7.968-24.907,3.053-36.776-3.594-7.75-11.9-10.671-19.563-13.122-11.812-3.515-23.758-4.96-35.264-9.433-8.305-2.921-15.835-7.442-24.611-9.721-6.7-2.145-14.015-1.58-20.845-.861a114.852,114.852,0,0,1-22.234,2.656c4.232-18.183,7.651-37.945,18.474-50.323,9.56-11.726,23.814-16.671,38.279-17.324a14.084,14.084,0,0,1,6.371.718c6.179,11.217,13.95,22.415,26.72,26.236,9.11,3.707,20.538,1.818,27.455-4.945a20.2,20.2,0,0,0,2.806-4.647c5.471,18.383,17.044,28.421,37.066,26.906,5.566-.068,10.959-1.246,16.515-2.109,2.223-.345,4.761-.853,6.5-2.147,3.784-2.749,4.185-8.956.181-11.294-5.758-2.633-12.722.154-18.594,1.18-6.5,1.352-10.614,3.469-15.567,1.621-7.673-3.247-14.457-11.754-21.211-17.874,10.308-2.511,19.465-8.029,25.4-16.69,6.59-7.4,14.023-10.826,24.015-13.174,9.359-2.023,19.5-4.849,25.931-12.562,9.07-12.675,9.145-32.715-2.917-43.7-18.01-16.321-39.363-6.519-38.747,17.966-.067,7.635,1.007,17.482-.678,22.752-2.462,6.868-8.439,12.348-16.179,16.736-6.485,2.942-13.124,6.362-17.511,11.824-.059-17.972-12.571-26.727-27.669-38.949a117.332,117.332,0,0,0-40.974-21.292c-6.064-1.676-12.933-4.137-19.265-1.674-6.8,3.1-5.268,11.515-1.55,16.4,7.789,12.789,23.155,20.872,23.952,34.063.824,2.376-.4,6.208-.047,9.226-15.433-.45-31.584,5.472-41.938,17.208-14.292,14.965-16.743,35.829-21.281,54.97-12.4.787-25.118.942-37.505,2.523-.478-.153-.794.01-1.264.651a1.884,1.884,0,0,0-1.274-.143,2.365,2.365,0,0,0-.747,3.985,86.83,86.83,0,0,1,30.37,25.556c-8.169,21.412-18.255,42.209-23.551,64.54-5.276,23.92-3.2,50.456-9.62,72.165-2.729,11.006-7.729,18.383-12.374,28.778.469-.642-.154.478-.776,1.6a13.935,13.935,0,0,0-3.123,4.809l-.479-.154c-24.429-7.814-48.855,10.772-69.6,17.863-6.811,2.31-14.274,3.354-19.829,4.217-6.035.71-23.049,1.075-11.016,9.676,12.186,8.123,25.627,14.8,37.506,23.879,6.754,6.121,13.068,15.269,17.629,24.12,12.226,24.5,21.626,52.064,39.063,73.481a2.7,2.7,0,0,0,.019,1.591c7.33,14.225.674,29.257-13.705,37.065-6.638,3.42-16.965,4.341-25.021,8.892-23.021-9.74-48.108,6.787-60.6,26.024-4.818,9.283-6.436,20.118-6.79,30.3a91.223,91.223,0,0,0,.432,9.378,5.124,5.124,0,0,0-4.637-2.011c-8.257,1.055-13.678,13.049-16.973,16.747-4.387,5.461-11.677,7.616-18.344,8.652,8.189-19.821,11.4-43.876,11.854-58.514-.058-4.77,1.149-10.192.459-14.637a2.3,2.3,0,0,0,1.254-1.447c.441-3.027,7.385-7.406,10.345-12.531,3.583-6.246,4.607-13.575,4.52-20.731.774-14.8-5.281-28.882-14.488-40.54-8.738-12.3-24.555-18.15-35.6-24.06-15.214-8.563-27.582-18.592-33.341-34.427a53.566,53.566,0,0,1-2.818-22.549c1.627-10.04.955-26.1-13.328-23.536-20.058,11.535-19.317,59.558-14.142,79.694,7.37,30.605,20.047,66.078,15.145,94.607-1.8,8.928-5.7,15.337-12.059,15.415-.479-.154-.8.009-1.275-.144-6.544-15.03-14.985-29.082-23.742-42.973-.651-1.263-1.456-2.049-2.108-3.314a65.525,65.525,0,0,0,7.768-15.2,104.553,104.553,0,0,0,5.468-21.219c1.734-1.294.737-4.781.555-6.687-.911-9.532-5.788-18.22-9.553-27.081-6.209-13.6-6.555-29.026-12.458-43.587-7.828-15.968-23.415-29.139-41.406-30.669a13.114,13.114,0,0,0-4.291.211,206.737,206.737,0,0,1-2.341-35.6c8.554-2.807,16.275-8.786,19.349-17.571A27.127,27.127,0,0,0,721.9,2043.7c9.828-2.664,20.433-6.928,24.608-16.681.92-2.874,1.839-5.748,2.443-8.459a57.306,57.306,0,0,0,9.063,12.932c13.02,11.294,26-6.995,31.918-17.246,8.419-13.94,26.735-24.976,32.241-43.016,6.148-17.57,4.135-39.335-9.077-53.329-8.862-9.435-21.028-15.967-33.789-18.993a53.3,53.3,0,0,0-28.585,3.528l-.316.163a53.176,53.176,0,0,0-24.592-8.131c-12.741-1.436-24.6,4.275-36.8,7.763a31.956,31.956,0,0,1-10.49.6l-.479-.153a1.878,1.878,0,0,0-1.274-.143c-5.222-10.912-10.444-21.822-15.033-33.059-3.929-9.177-8.021-18.67-11.795-28.325a38.931,38.931,0,0,0,16.524-1.315c8.717-2.491,15.451-11.161,14.7-20.377-.547-5.719-3.478-11.408-3.21-15.547-.2-3.5,2.787-6.237,5.43-11.2,4.033-8.478-.222-18.288-4.926-25.865-7.943-12.308-23.922-18.477-38.521-15.755-5.24.7-8.909-.209-13.536-1.426,9.119-8.7,11.8-23.682,18.686-32.831a41.919,41.919,0,0,1,5.182-5.471,2.191,2.191,0,0,0,.825,2.376,4.5,4.5,0,0,0,.661,2.06,104.921,104.921,0,0,0,19.555,38.728c6.956,9.618,16.91,17.29,29.162,17.778,6.533,1.033,12.54-2.062,17.751-5.146,5.843-3.411,11.849-6.506,17.855-9.6a42.918,42.918,0,0,1,47.468,5.945c4.331,2.97,7.742,8.813,12.407,13.209a2.393,2.393,0,0,0,4.435-1.486c-.335-1.426-1.782-2.682-2.433-3.945-8.259-12.147-14.334-27.818-23.561-41.067-11.975-17.031-25.072-34.685-42.863-45.92-11.85-6.695-25.875-9.069-39.392-8.906a43.686,43.686,0,0,0-34.456,17.754,49.285,49.285,0,0,0-6.054,12.321,3.211,3.211,0,0,0-1.418,1.13c-11.513,7.933-13.907,20.368-19.817,31.413-3.113,5.605-5.459,8.815-10.038,11.573l-1.265.652c-7.656-28.058-14.049-56.768-12-84.625a30.734,30.734,0,0,1,.584-4.3c2.222-.345,4.607-.374,6.667-1.035,8.086-2.165,12.769-9.38,15.058-17.359,3.687-10.7,4.012-23.27-2.944-32.888-1.131-1.417-2.913-4.1-4.676-5.191a4.884,4.884,0,0,0,.3-1.753c5.605,3.113,11.142.66,15.711-2.894l.162.315c2.089,1.725,5.26.891,7.655,1.657,2.232.45,8.449,1.647,10.375,3.055,6.083,3.266,8.68,7.528,12.723,13.046a32.484,32.484,0,0,0,13.642,10.173c11.841,5.9,26.153,5.726,32.477,15.669,5.02,7.415,8.345,19.3,14.965,27.492a86.924,86.924,0,0,0,11.919,12.261c2.251,2.04,4.981,4.233,8.009,4.674,7.8.383,3.409-7.357,2.087-11.476a61.676,61.676,0,0,1-3.239-17.933c-.442-10.174,5.334-19.15,5.035-30.6.527-9.072-2.281-17.626-6.669-25.366a76.211,76.211,0,0,0-22.591-26.764,58.558,58.558,0,0,0-48.149-9.594c-7.921,2.482-14.541,7.492-21.007,12.024-9.617,6.956-19.167,19.478-27.424,20.532-3.018.354-3.027-.44-5.748-1.839,2.077-12.272,3.523-24.218,5.6-36.489,1.484-8.766,5.967-19.476,11.9-28.932.479.154.8-.009,1.427-.335,6-3.89,14.312-.174,23.566,2.258,16.573,2.662,33.912,2.929,33.652-18.54-.077-6.36-.653-14.465.563-19.092,1.973-7.816,4.568-16.755.5-24.657q9.928-7.516,20.346-14.084a198.456,198.456,0,0,1,37.321-17.63c4.8,2.327,9.609,5.449,14.868,6.34,10.2,1.944,23.547.668,32.15,1.837,10.365,2.26,17.272,7.9,27.188,12.393,10.384,3.85,21.966,1.483,32.781,1.511,3.5-.2,11.142.66,7.893-4.868-19.2-22.51-40.468-45.155-68.279-56.427-19.974-7.71-53.023-5.082-59.085,19.643.087,7.157,3.009,12.051,4.034,17.923a107.939,107.939,0,0,0-10.125,4.418A221.651,221.651,0,0,0,696.94,1468.1c-4.053-6.312-10.319-11.485-16.412-15.546-6.735-4.531-13.307-8.746-21.133-11.513-15.338-5.7-32.4,3.892-44.42,9.287a34.725,34.725,0,0,1-15.385,3.526c-4.292.212-9.072-.526-12.539,2.061-5.987,4.686-4.607,13.575-1.512,19.581,2.117,4.11,6.6,6.6,10.758,8.458,6.553,2.624,17.675,1.694,22.455,2.431,6.055.881,10.059,3.218,12.972,7.318a10.572,10.572,0,0,1,1.667,6.341c-.268,4.139-1.493,7.971-1.446,11.946-.573,5.1,1.554,10,4.466,14.1a3.865,3.865,0,0,0,1.131,1.418c-6.715,10.26-11.829,21.3-13.907,33.568-2.375,14.024-3.8,27.561-6.5,40.954a6.234,6.234,0,0,0-2.079-.93c-16.151-7.278-37.87-27.691-58.245-15.992-9.809,4.255-16.993,15.157-23.928,20.33-13.564,9.39-28.317,12.59-43.358,5.138-12.147-4.942-15.384,3.528-9.061,13.47,5.021,7.414,12.091,13.373,19.784,18.21,6.093,4.061,12.655,7.48,20.29,7.546,11.6-.777,24.1-6.018,33.347-4.38,8.765,1.483,16.927,5.678,25.234,8.6,7.347,2.615,15.643,4.74,23.757,4.96a30.747,30.747,0,0,0-.583,4.3c-1.1,14.169.184,28.308,2.264,42.438,2.386,13.171,5.252,26.5,8.75,39.5a25.265,25.265,0,0,0-13.7-1.742c-8.89,1.38-16.141,6.716-24.37,10.157-7.6,3.113-19.351,4.369-24.514-1.771-5.643-6.294-9.725-14.991-18.347-17.749-6.7-1.35-5.795,7.386-5.584,11.678.25,7.472,3.833,14.427,7.57,20.9a79.938,79.938,0,0,0,24.5,26.582c12.348,8.438,24.007,12.432,36.5,19.6,9.944,6.877,19.745,15.029,31.25,19.5a92.03,92.03,0,0,0,17.723,5.67c2.952,7.28,6.065,14.876,9.016,22.156,10.636,24.523,22.527,47.6,31.093,71.989-15.3-2.519-30.588-4.241-45-12.019-8-3.879-18.4-9.319-26.91-15.736-9.954-7.673-29.891-25.4-36.327-5.285-2.413,10.844,1.861,22.243,8.012,31.076,8.565,11.187,19.669,21.868,24.9,33.573,10.224,29.936,17.01,64.844,42.264,88.234,9.973,9.263,20.914,19.627,35.082,20.727a32.622,32.622,0,0,0,8.737-.9c-.143,1.274.029,2.385-.114,3.659a203.7,203.7,0,0,0,2.761,30.981c-23.508,2.511-45.6,17.094-60.492,34.769A289.05,289.05,0,0,0,596.9,2214.92c-3.065,9.579-9.147,19.514-6,29.5,2.807,8.554,12.263,14.483,21.335,15.009,6.84.076,13.162-3.182,19.657-5.328a60.316,60.316,0,0,1,7.606-2.319,45.593,45.593,0,0,1-8.5,20.778c-6.723,9.466-17.1,19.612-22.835,31.769a46.229,46.229,0,0,0-38.855-3.981c-16.63,5.768-27.9,20.378-40.49,31.664-7.7,7.568-13.209,12.407-24,13.969-9.685,1.39-25.77-.323-37.016,3.471-11.572,3.162-19.57,12.484-24.215,22.879-12.892,25.444-11.577,55.17-11.239,83,1.114,26.229.8,52.793,4.931,78.667,2.022,9.359,2.953,20.481,6.871,28.863C451.744,2572.943,457.25,2554.9,459.281,2551.857Zm612.77-644.573c4.551,8.056,7.991,16.285,11.91,24.666,3.746,7.271,7.646,14.062,10.76,21.658a43.772,43.772,0,0,1,2.625,6.649c-8.583.422-18.124.538-24.984-1.129-5.9-1.359-11.821-4.309-18.019-3.916a1.245,1.245,0,0,1-.8.01C1058.6,1939.415,1065.567,1923.426,1072.051,1907.284Zm-47.576,168.529a4.958,4.958,0,0,0,2.193-2.731c16.5-16.9,38.7-8.74,62.671.512,15.021,5.862,31.105,7.575,45.657,14.078,11.985,4.626,25.771,13.524,33.981,21.694a41.55,41.55,0,0,1,4.838,5.509c-13.1,7.952-23.3,20-27.567,35.006-9.232,25.56-8.875,54.978-14.783,79.225-5.038,17.4-12.959,33.08-25.047,46.109-9.246-14.838-23.864-13.706-39.392-8.905-7.769,2-13.641,3.028-17.512-1.378-2.9-3.3-4.7-7.577-6.984-12,1.121.623,2.557,1.083,3.678,1.7,7.981,2.289,16.717,1.388,24.649-.3,17.587-5.462,25.134-25.753,27.48-42.163a28.776,28.776,0,0,0-2.234-13.651,27.84,27.84,0,0,0,8.871-2.97c5.843-3.411,10.23-8.871,14.3-14.17,9.693-13.8,11.866-31.317,7.851-47.65-8.529-34.409-36.972-45.355-69.744-46.071-11.141-.66-23.126-5.286-34.794-10.075C1024.005,2076.454,1024.159,2075.976,1024.475,2075.813Zm-39.555,200.4c8.085-2.166,16.332-4.016,22.626-9.659a36.742,36.742,0,0,0,12.279-23.528,24.84,24.84,0,0,0-.729-7.626c.8.786,1.609,1.571,2.577,2.673-3.361,11.333-4.328,23.432-4.978,35.369-.239,6.523.155,12.722,2.933,18.89.163.316-.153.479.01.8,5.873,12.176,18.414,23.316,24.574,32.942,7.005,13.594,1.325,30.521-7.449,41.442-9.559,11.727-21.533,21.1-33.018,31.415l-.488-.948a33.315,33.315,0,0,0-7.751-9.607c-11.9-10.672-28.3-12.222-39.7-21.149-5.135-3.755-7.445-10.566-4.475-14.9.316-.163.469-.642.785-.8,1.734-1.293,3.631-2.271,5.365-3.563,13.736-8.279,28.554-19.115,31.216-35.688a86.514,86.514,0,0,0-.778-24.8A106.906,106.906,0,0,0,984.92,2276.213ZM690.144,2375.7a24.18,24.18,0,0,1,4.282-1.007c4.608-.374,7,.392,11.63,1.609,11.659,3.993,24.161,11.953,37.1,16.885-.316.163-.316.163-.469.641-3.371,10.538-11.082,17.312-22.817,20.159-9.522,1.7-16.6,8.153-21.754,16.009a53.525,53.525,0,0,0-3.745,5.93c1.073-3.353,2.461-6.869,3.534-10.222a66.851,66.851,0,0,0,1.243-28.643C697.79,2389.757,694.36,2382.324,690.144,2375.7Zm-53.511-97.641c5.162-7.061,7.452-15.04,8.619-23.643,2.855-.672,5.873-1.025,8.411-1.534,14.772-1.611,27.063,2.057,38.31,11.464,8.517,7.213,18.452,13.3,29.746,13.475,13.823-1.122,25.338-9.054,33.479-19.65,10.865,17.2,21.251,34.255,28.648,54.045,4.1,10.288,6.765,20.117,9.592,30.262a13.841,13.841,0,0,1-8.411,1.533c-5.412-.412-13.411-4.29-19.955-6.12-20.587-5.794-42.342-2.985-62.3,3.3-9.819,3.459-20.231,10.425-28.01,11.632a17.568,17.568,0,0,0-2.7.192c-16.085-1.713-32.38-7.718-41.616-21.76-4.369-6.151-7.636-13.267-13.423-18.287-1.284-.939-2.568-1.878-4.014-3.132C618.912,2298.787,628.348,2289.925,636.633,2278.055Z"/><path fill="#f5f2fd" fill-rule="evenodd" d="M755.042 2700.117c3.546 25.1 15.344 50.893 31.513 75.835 20.789 32.045 48.1 62.985 69.3 89.34 18.644 23.664 38.36 46.172 58.819 67.878 20.542 21.77 42.073 42.474 64.513 62.375a905.336 905.336 0 0094.457 73.625c77.959 52.608 167.714 94.529 273.64 121.976a20.618 20.618 0 009.157-40.207c-103.2-20.62-192.464-54.906-269.432-102.4a678.754 678.754 0 01-93.551-69.079 694.884 694.884 0 01-61.625-61.989 857.446 857.446 0 01-53.952-68.694c-18.726-26.875-43.393-58.4-61.13-90.849-11.3-20.71-19.468-41.741-20.624-61.822a20.639 20.639 0 00-41.082 4.013zM1364.34 728.037c17.077-13.455 36.3-23.9 56.592-32.239 31.761-13.068 66-21.251 98.748-27.991 75.9-15.435 154.68-18.966 230.906-7.4 76.309 11.582 149.813 38.163 215.232 81.844 54.613 37 103.038 82.372 151.958 126.738 33.246 30.252 66.739 60.058 102.873 86.275 38.856 28.3 80.681 52.534 128.116 68.975 39.186 13.694 78.7 20.071 118.382 23.115 90.251 6.922 181.408-4.43 271.412 14.949 37.206 8.068 71.194 22.174 103.12 39.969 49.167 27.388 93.468 63.6 137.273 100.686a20.626 20.626 0 1026.234-31.835c-46.775-37.437-94.128-73.735-146.183-100.934-35.473-18.5-72.926-32.9-113.844-40.654-91.9-17.555-184.3-4.067-276.2-9.124-37.535-2.062-74.988-7.35-112.277-19.543-45.372-14.973-85.548-37.387-122.918-63.893-35.721-25.327-68.885-54.225-101.553-83.9-49.663-45.084-98.17-91.876-153.36-129.915-67.565-47.171-144.121-76.242-223.729-90.382-79.444-14.115-162.022-13.233-241.879.561-35.226 5.989-72.019 13.62-106.42 26.382-24.088 8.926-46.94 20.467-67.481 35.506a20.623 20.623 0 0025 32.809z"/><g><path fill="#fff" fill-rule="evenodd" d="M2134.335,1392.017a133.791,133.791,0,0,0-133.7-133.747H1014.2a133.791,133.791,0,0,0-133.7,133.747v1393.45a133.8,133.8,0,0,0,133.7,133.756h986.439a133.8,133.8,0,0,0,133.7-133.756Z"/><g clip-path="url(#c)"><path fill="#6562f9" fill-rule="evenodd" d="M2283.025,1476.1v-191.82c0-14.356-14.411-26.009-32.12-26.009H763.953c-17.708,0-32.12,11.653-32.12,26.007V1476.1c0,14.355,14.412,26.008,32.12,26.008H2250.905C2268.614,1502.108,2283.025,1490.453,2283.025,1476.1Z"/><circle cx="1019.729" cy="1380.186" r="33.038" fill="#fff"/><circle cx="1124.403" cy="1380.186" r="33.038" fill="#fff"/><circle cx="1232.245" cy="1380.186" r="33.038" fill="#fff"/></g><circle cx="1244.259" cy="1861.407" r="227.326" fill="#e3e3fe"/><g clip-path="url(#d)"><path fill="url(#a)" fill-rule="evenodd" d="M1018.764,1974.172c111.452-177.111,162.93-186.713,225.462-116.3,62.614,70.419,81.753,91.117,153.277,58.63,71.442-32.487,104.77,2.723,126.8,51.263s-272.4,181.384-326.85,180.312S907.229,2151.282,1018.764,1974.172Z"/></g><circle cx="1372.267" cy="1737.126" r="79.877" fill="url(#e)"/><g><path fill="#e3e3fe" fill-rule="evenodd" d="M1462.538,2268.847a19.965,19.965,0,0,0-20.066-20.034H1082.166a19.968,19.968,0,0,0-19.986,20.034v.015a19.96,19.96,0,0,0,19.986,20.03h360.306a19.957,19.957,0,0,0,20.066-20.03Z"/><path fill="#efeffe" fill-rule="evenodd" d="M2074.851,1899.057a60.394,60.394,0,0,0-60.407-60.354H1597.568a60.3,60.3,0,0,0-60.3,60.354v.016a60.288,60.288,0,0,0,60.3,60.339h416.876a60.381,60.381,0,0,0,60.407-60.339Z"/><path fill="#e3e3fe" fill-rule="evenodd" d="M1437.489 2548.385a20.035 20.035 0 00-20-20.035H1071.006a20.036 20.036 0 00-20 20.035v.015a20.031 20.031 0 0020 20.03h346.488a20.031 20.031 0 0020-20.03zM1910.805 2546.124a20.035 20.035 0 00-20-20.034H1544.322a20.036 20.036 0 00-20 20.034v.015a20.031 20.031 0 0020 20.03H1890.81a20.031 20.031 0 0020-20.03zM1910.789 2343.192a19.921 19.921 0 00-5.83-14.164 20.219 20.219 0 00-14.234-5.87H1082.257a20.212 20.212 0 00-14.234 5.87 19.911 19.911 0 00-5.833 14.164v.016a19.919 19.919 0 005.833 14.164 20.208 20.208 0 0014.234 5.865h808.468a20.215 20.215 0 0014.234-5.865 19.929 19.929 0 005.83-14.164zM1437.489 2622.73a20.035 20.035 0 00-20-20.034H1071.006a20.036 20.036 0 00-20 20.034v.015a20.031 20.031 0 0020 20.03h346.488a20.031 20.031 0 0020-20.03zM1910.805 2620.47a20.035 20.035 0 00-20-20.035H1544.322a20.036 20.036 0 00-20 20.035v.015a20.031 20.031 0 0020 20.029H1890.81a20.03 20.03 0 0020-20.029zM1910.789 2422.05a19.919 19.919 0 00-5.83-14.164 20.219 20.219 0 00-14.234-5.87H1082.257a20.212 20.212 0 00-14.234 5.87 19.909 19.909 0 00-5.833 14.164v.015a19.92 19.92 0 005.833 14.165 20.208 20.208 0 0014.234 5.865h808.468a20.215 20.215 0 0014.234-5.865 19.93 19.93 0 005.83-14.165zM1437.489 2701.588a20.036 20.036 0 00-20-20.035H1071.006a20.036 20.036 0 00-20 20.035v.015a20.031 20.031 0 0020 20.03h346.488a20.031 20.031 0 0020-20.03zM1910.805 2699.328a20.035 20.035 0 00-20-20.035H1544.322a20.036 20.036 0 00-20 20.035v.015a20.031 20.031 0 0020 20.029H1890.81a20.03 20.03 0 0020-20.029z"/></g></g><g><path fill="url(#f)" fill-rule="evenodd" d="M2916.542,1493.506c79.188,0,136.918,72.914,125.654,171.888-8,70.138-93.607,143.158-178.315,178.156-73.161,30.234-73.555-80.387-73.555-180S2837.41,1493.506,2916.542,1493.506Z"/><path fill="url(#g)" fill-rule="evenodd" d="M2856.145,2019.9c76.137,176.4-434.014,741.57-604.077,727.065-170.1-14.579-416.467-814.386-416.467-814.386l-71.674-93.87L1953,1862.638l-13.162,25.667s266.651,464.2,339.121,498.956c36.029,17.3,129.967-266.846,329.355-379.826C2825.737,1884.344,2812.6,1919,2856.145,2019.9Z"/><g clip-path="url(#h)"><path fill="url(#i)" fill-rule="evenodd" d="M2380.338,2137.722c56.147-8.091,149.13,7.057,180.991,59.044,18.268,29.794,12.272,65.28,20.994,97.884,19.421,72.671,87.16,142.51,167.012,139.62,97.729-3.445,129.455-134.2,147.971-208.5,24.827-100.026,49.416-228.33-34.344-307.893-14.967-14.233-32.145-25.491-50.6-34.558a272.451,272.451,0,0,0-77.575-24.308c-33.6-5.391-68.61-5.618-102.166.4-55.165,10-106.462,38.065-149.132,73.849-55.3,46.538-95.6,103.919-127.611,168.263Z"/></g><path fill="url(#j)" fill-rule="evenodd" d="M2967.037,1893.844c267.1,23.5,357.387,29.408,343.1,523.255-14.419,503.612-676.1,485.927-676.1,485.927s97.162-315,19.135-583.6C2558.844,1995.181,2778.371,1877.238,2967.037,1893.844Z"/><path fill="#abdbff" fill-rule="evenodd" d="M2314.057,1774.567a88.067,88.067,0,0,0-88.023-88.035H1725.366a88.041,88.041,0,0,0,0,176.082h500.668A88.07,88.07,0,0,0,2314.057,1774.567Z"/><path fill="#20238c" d="M1768.074 1736.164v12.977a53.493 53.493 0 00-9.487-.965q-12.622 0-18.562 5.387c-3.959 3.6-6.269 9.652-6.765 18.19h.661q5.071-8.8 17.076-8.8 10.272 0 16.334 6.459c4.042 4.307 6.023 10.2 6.023 17.679q0 12.3-6.93 19.428c-4.62 4.76-10.972 7.136-18.974 7.136a26.312 26.312 0 01-14.849-4.174 25.634 25.634 0 01-9.57-12.037q-3.217-7.869-3.218-18.982c0-14.131 3.135-24.831 9.57-32.083s15.922-10.889 28.543-10.889A65.843 65.843 0 011768.074 1736.164zm-8.91 51.321q0-5.977-2.97-9.19c-2.062-2.145-4.949-3.217-8.744-3.217a13.582 13.582 0 00-9.322 3.3 9.755 9.755 0 00-3.795 7.589 16.119 16.119 0 003.547 10.683 12.611 12.611 0 0018.067.957Q1759.165 1794.255 1759.164 1787.485zM1844.8 1772.545v.388c12.127 1.51 18.232 7.581 18.232 18.215 0 7-2.558 12.5-7.837 16.5-5.2 4-12.705 6.006-22.439 6.006q-12.5 0-21.779-4.117V1796a48.925 48.925 0 0020.872 4.966q8.289 0 12.374-2.6a8.84 8.84 0 004.125-8c0-4.026-1.568-6.864-4.621-8.513s-7.919-2.483-14.683-2.483H1822.6v-11.9h6.105c5.939 0 10.394-.767 13.447-2.31s4.619-4.265 4.619-8.175a8.1 8.1 0 00-2.805-6.484c-1.814-1.543-4.7-2.318-8.58-2.318a27.883 27.883 0 00-8.413 1.328 38.507 38.507 0 00-8.746 4.257l-7.177-10.881a47.146 47.146 0 0125.162-7.392q11.631 0 18.314 4.884a15.576 15.576 0 016.682 13.281 17.983 17.983 0 01-4.29 12.037C1854.117 1768.981 1849.992 1771.266 1844.8 1772.545zM1938.428 1772.43c5.61 2.928 9.652 6.063 12.21 9.388a18.649 18.649 0 01-3.548 26.109c-4.949 3.82-11.384 5.726-19.221 5.726-8.415 0-15.015-1.807-19.717-5.412-4.62-3.613-7.012-8.613-7.012-15.006a19.6 19.6 0 013.63-11.673c2.31-3.341 6.022-6.22 10.971-8.629-8.167-5.074-12.291-11.426-12.291-19.057a15.827 15.827 0 016.847-13.4q6.805-4.987 17.572-4.991c7.177 0 13.034 1.65 17.489 4.942a15.993 15.993 0 016.764 13.562C1952.122 1761.886 1947.5 1768.032 1938.428 1772.43zm-10.559-6.2c3.877-1.617 6.517-3.3 8-5.049a9.1 9.1 0 002.227-6.063 6.851 6.851 0 00-2.805-5.808 12.378 12.378 0 00-7.589-2.145 12.2 12.2 0 00-7.342 2.087 6.825 6.825 0 00-2.805 5.866 8.8 8.8 0 002.309 6.038A24.153 24.153 0 001927.869 1766.226zm-.907 12.8q-11.881 5.011-11.88 13.307a8.456 8.456 0 003.3 7.1c2.145 1.732 5.28 2.6 9.239 2.6 4.125 0 7.26-.841 9.488-2.507a8.31 8.31 0 003.3-7.079 9.6 9.6 0 00-2.723-6.484q-2.847-3.057-9.157-6.154zM2045.591 1812.523h-53.045V1801.3l19.716-19.51c7.343-7.293 11.962-12.35 13.776-15.171a16.055 16.055 0 002.806-8.745 8.66 8.66 0 00-2.723-6.789 9.935 9.935 0 00-7.094-2.459 22.558 22.558 0 00-8.745 1.774 43.8 43.8 0 00-9.817 6.122l-8.167-10.205a83.564 83.564 0 019.487-6.4 34.881 34.881 0 018-3.185 35.987 35.987 0 019.652-1.245q10.767 0 17.324 5.866a19.2 19.2 0 016.6 14.947 27.025 27.025 0 01-2.145 10.577 37.791 37.791 0 01-6.517 10.089 172.052 172.052 0 01-13.364 13.5l-8.91 8.29v.619h33.164zM2087.664 1812.976V1799.95a40.366 40.366 0 009.487 1.015q12.744 0 18.808-5.552c4.043-3.7 6.188-9.866 6.518-18.471h-.66c-1.98 3.423-4.29 5.8-7.095 7.136a23.431 23.431 0 01-10.23 2c-6.929 0-12.374-2.169-16.251-6.509q-5.94-6.521-5.94-18.19c0-8.01 2.31-14.321 7.012-18.949 4.621-4.62 10.972-6.938 18.81-6.938q12.87 0 20.293 9.14c5.033 6.088 7.508 14.759 7.508 26 0 14.024-3.218 24.7-9.57 32.033s-15.839 11-28.461 11A64.377 64.377 0 012087.664 1812.976zm8.826-51.824c0 8.53 3.878 12.8 11.55 12.8a13.913 13.913 0 009.487-3.325 9.782 9.782 0 003.8-7.557 16.13 16.13 0 00-3.547-10.436 12.526 12.526 0 00-18.15-1.064C2097.563 1753.819 2096.49 1757.011 2096.49 1761.152zM2200.189 1813.653q-13.119 0-19.8-9.866t-6.682-29.047c0-13.233 2.227-23.083 6.6-29.551s11.054-9.7 19.882-9.7c17.653 0 26.563 13.051 26.563 39.144 0 13.571-2.228 23.462-6.518 29.691Q2213.676 1813.653 2200.189 1813.653zm0-12.688q6.432 0 9.156-6.179c1.9-4.117 2.805-10.831 2.805-20.154 0-9.479-.907-16.252-2.805-20.335q-2.722-6.113-9.156-6.121a9.1 9.1 0 00-7.178 2.937q-2.6 2.932-3.713 8.686a90.069 90.069 0 00-1.072 14.941c0 9.247.99 15.929 2.8 20.046Q2193.878 1800.96 2200.189 1800.965z"/><path fill="#fb9c9a" fill-rule="evenodd" d="M1912.856,1862.612c-.824-9.817,20.377-43.73,29.2-48.961,8.5-5.015,22.852,7.788,23.759,17.6.826,9.818-9.9,36.06-18.726,41.282S1913.681,1872.421,1912.856,1862.612Z"/><path fill="url(#k)" fill-rule="evenodd" d="M2924.917,1493.509s17.324,38.287,4.786,68.463c-3.3,7.961-11.056,13.777-17.325,19.544-16.087,14.618-36.3,22.4-53.7,34.821-5.2,3.647-16.253,10.717-15.592,18.306.907,8.852,18.314,4.694,23.1,3.267,18.809-5.626,33.659-12.284,43.806,3.036,10.312,15.641,2.062,54.109-8.58,80.17-1.9,4.619-10.477,24.2-.66,26.159,6.353,1.246,11.962-6.121,15.427-10.262,9.982-12.16,12.622-53.656,22.521-65.948,4.62-5.692,11.715-12.184,18.314-1.914,20.294,31.7-.165,64.331-22.769,75.195-27.223,13.15-30.688,79.427-30.688,79.427s59.067,18.505,77.381-29.021c32.422,11.285,93.881,3.547,93.468-58.944,58.243-24.146,84.971-115.552,30.359-147.173,7.919-3.852,12.786-15.113,14.931-22.909,22.357-78.8-69.791-167.178-156.577-117.763C2943.974,1458.852,2930.032,1472.893,2924.917,1493.509Z"/><g><circle cx="2108.746" cy="3081.88" r="295.534" fill="url(#l)"/><path fill="#fff" fill-rule="evenodd" d="M1935.6,3107.684l97.84,122.019a41.257,41.257,0,0,0,66.079-2.277l182.729-263.31a41.262,41.262,0,0,0-67.811-47.031l-151.216,217.9-63.274-78.908a41.241,41.241,0,0,0-64.347,51.6Z"/></g><g><path fill="url(#m)" fill-rule="evenodd" d="M3180.113,1950.218c191.391,16.8,470.557,690.821,352.836,876.949-117.8,186.127-860.847,205.348-1059.332,239.807-150.8,131.73-212.427-32.14-190.813-32.355,96.025-.965,93.468-77.983,93.468-77.983s1.568-8.06-25.574-40.827c29.946-21.07,96.85,39.763,96.85,39.763s716.643-275.677,781.65-322.939c32.339-23.487-169.53-241.227-177.779-470.252C3048.614,2083.877,3070.641,1940.607,3180.113,1950.218Z"/><g clip-path="url(#n)"><path fill="url(#o)" fill-rule="evenodd" d="M3057.771,2424.883c19.552-53.251,77.052-127.877,137.934-131.218,34.9-1.922,63.274,20.211,96.107,28.024,73.174,17.431,166.808-9,202.2-80.64,43.393-87.636-56.592-177.664-113.184-229.256-76.226-69.363-177.449-151.95-287.251-116.039-19.634,6.41-37.7,16.177-54.448,28.114a272.467,272.467,0,0,0-58.242,56.716c-20.706,27.009-37.536,57.706-48.177,90.094-17.408,53.293-17.077,111.766-5.858,166.312,14.685,70.765,46.033,133.487,87.446,192.224Z"/></g></g></g></svg>