<svg id="svg" version="1.1" xmlns="http://www.w3.org/2000/svg" xmlns:xlink="http://www.w3.org/1999/xlink" width="36" height="24" viewBox="0, 0, 400,400"><g id="svgg"><path id="path0" d="M271.326 51.053 C 267.194 52.074,266.409 52.758,254.079 66.085 C 243.475 77.549,162.886 158.428,158.459 162.051 C 156.129 163.957,156.181 163.917,154.464 165.084 C 153.587 165.679,152.797 166.166,152.707 166.166 C 152.617 166.166,152.052 166.494,151.451 166.895 C 149.750 168.030,145.812 169.824,145.022 169.824 C 144.741 169.824,144.448 169.927,144.369 170.054 C 144.291 170.180,143.961 170.345,143.635 170.420 C 143.310 170.495,141.927 170.844,140.562 171.195 C 131.177 173.611,121.756 173.220,113.521 170.074 C 110.502 168.921,109.614 168.540,108.034 167.721 C 105.878 166.603,103.786 165.369,102.209 164.284 C 101.585 163.854,101.028 163.549,100.972 163.605 C 100.559 164.018,132.440 195.150,133.769 195.631 C 142.418 198.761,151.779 196.942,160.383 190.459 C 161.517 189.604,167.310 184.112,173.256 178.254 C 179.201 172.396,185.535 166.194,187.330 164.472 C 189.126 162.750,194.063 157.924,198.302 153.747 C 202.541 149.571,213.002 139.281,221.548 130.882 C 230.095 122.483,245.555 107.265,255.905 97.065 C 266.255 86.864,276.897 76.382,279.556 73.771 C 286.029 67.414,288.503 65.951,293.748 65.380 L 295.530 65.186 289.437 59.154 C 281.204 51.003,277.761 49.463,271.326 51.053 M293.171 69.800 C 292.127 69.922,290.765 70.346,289.536 70.930 C 287.313 71.985,290.303 69.134,257.611 101.372 C 247.337 111.502,235.286 123.377,230.829 127.760 C 198.924 159.138,190.925 166.987,187.587 170.184 C 185.505 172.179,179.863 177.710,175.049 182.475 C 159.201 198.164,153.879 201.249,142.588 201.291 L 138.474 201.306 160.354 223.214 C 172.388 235.263,183.292 246.013,184.585 247.102 C 201.315 261.193,225.010 262.198,242.978 249.578 C 245.535 247.782,252.858 240.602,272.758 220.379 C 277.424 215.637,285.305 207.642,290.271 202.613 C 295.237 197.583,306.761 185.885,315.880 176.617 C 324.999 167.348,336.929 155.238,342.391 149.706 C 351.077 140.909,352.445 139.414,353.296 137.789 C 355.683 133.231,355.597 127.763,353.069 123.339 C 352.225 121.862,302.629 72.092,301.110 71.198 C 299.047 69.984,296.066 69.459,293.171 69.800 M10.055 282.422 C 11.256 284.808,11.482 285.385,18.840 304.869 C 37.484 354.241,35.920 350.270,38.019 353.548 C 42.363 360.333,52.598 366.375,60.155 366.616 L 62.440 366.688 63.062 364.860 C 63.404 363.854,65.591 357.505,67.921 350.751 C 70.251 343.997,73.490 334.592,75.118 329.850 C 76.747 325.108,80.455 314.350,83.359 305.944 C 89.078 289.390,91.705 281.524,91.705 280.953 C 91.705 280.649,90.126 280.592,82.038 280.607 C 76.721 280.617,72.371 280.673,72.371 280.732 C 72.371 280.790,73.253 282.620,74.331 284.798 C 77.030 290.253,77.482 287.852,69.608 309.864 C 60.325 335.815,58.811 340.064,58.183 341.933 C 57.508 343.939,57.398 343.949,56.744 342.064 C 56.457 341.238,54.927 336.858,53.344 332.332 C 47.436 315.432,36.762 284.839,36.070 282.822 L 35.354 280.732 22.245 280.664 L 9.135 280.596 10.055 282.422 M96.964 284.053 C 98.131 285.951,99.717 288.526,100.490 289.775 L 101.894 292.046 101.893 323.880 C 101.891 360.405,102.224 356.396,98.747 361.790 L 96.179 365.774 108.438 365.774 L 120.697 365.774 117.682 361.853 C 116.025 359.697,114.498 357.525,114.290 357.028 C 113.878 356.040,113.699 310.367,114.108 310.402 C 114.216 310.411,115.263 311.675,116.434 313.211 C 117.606 314.746,122.713 321.352,127.785 327.890 C 132.856 334.428,139.690 343.246,142.971 347.485 C 151.689 358.748,153.936 360.981,159.398 363.810 C 162.935 365.642,170.708 367.864,173.580 367.864 L 174.265 367.864 174.265 328.952 C 174.265 306.546,174.365 289.784,174.500 289.436 C 174.629 289.103,176.095 287.067,177.758 284.912 C 179.421 282.756,180.785 280.905,180.789 280.797 C 180.793 280.689,175.317 280.601,168.620 280.601 C 157.913 280.601,156.461 280.648,156.593 280.992 C 156.676 281.207,157.623 282.656,158.699 284.211 C 159.774 285.767,160.954 287.637,161.321 288.368 L 161.989 289.696 161.922 311.819 L 161.855 333.942 154.785 324.842 C 150.896 319.836,141.574 307.835,134.069 298.171 L 120.423 280.601 107.633 280.601 L 94.843 280.601 96.964 284.053 " stroke="none" fill="#eb1c24" fill-rule="evenodd"></path><path id="path1" d="M136.251 22.112 C 134.615 22.364,132.529 23.071,130.764 23.973 C 128.444 25.158,55.685 97.673,54.136 100.344 C 51.121 105.543,51.308 111.959,54.617 116.872 C 56.265 119.318,99.395 162.429,101.796 164.029 C 105.216 166.308,108.811 168.265,111.430 169.272 C 112.293 169.603,113.233 169.969,113.521 170.084 C 114.194 170.353,117.360 171.256,118.877 171.611 C 122.202 172.389,128.377 173.075,130.136 172.862 C 130.913 172.768,132.195 172.633,132.985 172.563 C 135.243 172.362,137.867 171.889,140.562 171.195 C 141.927 170.844,143.310 170.495,143.635 170.420 C 143.961 170.345,144.291 170.180,144.369 170.054 C 144.448 169.927,144.741 169.824,145.022 169.824 C 145.812 169.824,149.750 168.030,151.451 166.895 C 152.052 166.494,152.617 166.166,152.707 166.166 C 152.797 166.166,153.587 165.679,154.464 165.084 C 156.191 163.911,156.156 163.938,158.459 162.046 C 160.952 159.997,221.562 99.455,221.558 99.017 C 221.549 98.070,147.863 24.966,145.918 23.974 C 142.877 22.424,139.034 21.684,136.251 22.112 M194.776 281.058 L 185.894 281.131 188.012 283.152 C 189.176 284.264,190.410 285.702,190.754 286.349 L 191.378 287.524 191.378 322.796 L 191.378 358.067 190.415 360.026 C 189.885 361.104,188.915 362.719,188.259 363.614 C 187.604 364.510,187.067 365.304,187.067 365.378 C 187.067 365.452,194.298 365.513,203.135 365.513 C 211.973 365.513,219.203 365.445,219.203 365.362 C 219.203 365.278,218.524 364.367,217.695 363.337 C 215.528 360.646,214.908 359.774,214.277 358.534 L 213.717 357.434 213.717 325.254 L 213.717 293.073 216.402 293.193 C 221.070 293.400,223.681 295.224,225.857 299.797 C 230.903 310.402,227.340 324.492,218.460 329.048 C 217.157 329.717,217.283 329.726,224.183 329.460 C 231.676 329.172,233.616 328.798,237.622 326.874 C 256.418 317.845,254.573 288.769,234.789 282.209 C 230.594 280.818,229.194 280.777,194.776 281.058 M262.051 281.003 C 262.051 281.085,262.510 281.828,263.071 282.655 C 264.663 284.999,264.974 285.938,265.113 288.831 L 265.239 291.444 258.657 310.516 C 255.037 321.006,249.927 335.821,247.301 343.440 C 241.613 359.941,241.522 360.140,237.793 364.010 L 236.597 365.251 248.277 365.251 L 259.957 365.251 259.005 364.010 C 255.858 359.910,255.921 358.186,259.634 346.832 L 261.940 339.778 275.926 339.710 L 289.913 339.643 292.346 346.202 C 296.168 356.506,296.083 360.645,291.972 364.434 L 290.802 365.513 309.396 365.513 L 327.989 365.513 325.371 362.835 C 320.268 357.615,320.420 357.911,313.909 340.431 C 295.989 292.319,292.052 281.789,291.821 281.358 C 291.569 280.886,262.051 280.534,262.051 281.003 M309.863 281.026 C 309.863 281.116,310.563 281.850,311.419 282.659 C 312.557 283.734,316.900 289.768,327.616 305.160 L 342.257 326.192 342.259 342.664 L 342.260 359.136 339.943 362.259 L 337.626 365.382 346.083 365.451 C 350.734 365.489,358.365 365.489,363.041 365.451 L 371.542 365.382 368.789 362.128 L 366.035 358.874 366.039 342.533 L 366.042 326.192 373.788 315.219 C 393.734 286.960,397.649 281.366,397.649 281.123 C 397.649 280.953,392.978 280.862,384.193 280.862 C 376.793 280.862,370.738 280.932,370.738 281.018 C 370.738 281.104,371.204 281.704,371.774 282.351 C 374.101 284.995,374.570 289.255,372.889 292.489 C 371.565 295.036,360.168 311.746,359.296 312.419 L 358.496 313.036 358.111 312.429 C 357.899 312.095,353.818 305.474,349.043 297.714 C 344.267 289.954,339.965 282.988,339.484 282.234 L 338.609 280.862 324.236 280.862 C 316.331 280.862,309.863 280.936,309.863 281.026 M280.363 314.064 C 285.748 328.472,285.822 328.673,285.749 328.677 C 282.532 328.868,265.970 328.732,265.970 328.514 C 265.970 328.354,268.086 322.192,270.673 314.820 C 273.259 307.448,275.376 301.357,275.376 301.285 C 275.376 300.806,276.143 302.774,280.363 314.064 " stroke="none" fill="#0463b1" fill-rule="evenodd"></path><path id="path2" d="M0.000 200.000 L 0.000 400.000 200.000 400.000 L 400.000 400.000 400.000 200.000 L 400.000 0.000 200.000 0.000 L 0.000 0.000 0.000 200.000 M142.222 22.359 C 146.500 23.457,143.579 20.744,184.520 61.636 L 221.817 98.886 232.813 87.915 C 242.245 78.503,251.385 68.921,261.836 57.489 C 268.602 50.087,274.955 48.515,282.169 52.457 C 283.702 53.295,295.754 64.711,295.754 65.326 C 295.754 65.422,294.784 65.570,293.599 65.654 C 287.088 66.119,288.919 64.561,252.253 100.829 C 246.793 106.230,238.798 114.121,234.487 118.364 C 208.096 144.341,193.354 158.816,190.725 161.332 C 187.874 164.063,180.435 171.350,167.995 183.599 C 162.100 189.404,160.533 190.749,157.362 192.725 C 149.859 197.401,141.180 198.531,133.791 195.792 L 132.014 195.133 93.505 156.456 C 64.900 127.726,54.742 117.366,54.005 116.173 C 51.107 111.475,51.093 105.267,53.969 100.429 C 55.562 97.751,128.610 24.953,130.895 23.768 C 134.338 21.981,138.657 21.443,142.222 22.359 M298.405 69.975 C 301.379 70.800,301.761 71.154,327.531 96.977 C 351.814 121.310,352.676 122.207,353.596 124.102 C 355.789 128.623,355.786 133.135,353.587 137.502 C 352.555 139.551,351.506 140.691,338.737 153.625 C 329.543 162.940,316.459 176.211,303.584 189.282 C 298.775 194.164,290.607 202.452,285.434 207.699 C 273.122 220.187,261.541 231.945,253.940 239.673 C 250.570 243.100,246.871 246.665,245.722 247.597 C 228.189 261.799,204.701 262.318,186.545 248.904 C 183.222 246.449,136.201 199.642,138.461 201.038 C 139.697 201.803,147.936 200.979,151.796 199.705 C 158.995 197.330,162.301 194.896,173.873 183.450 C 178.184 179.187,183.181 174.285,184.977 172.558 C 190.528 167.220,247.625 111.068,279.295 79.801 C 286.377 72.809,288.238 71.182,289.921 70.512 C 292.690 69.410,295.683 69.221,298.405 69.975 M36.307 283.018 C 36.769 284.347,38.420 289.079,39.976 293.534 C 41.532 297.988,44.116 305.395,45.718 309.993 C 48.504 317.995,49.902 322.004,55.031 336.703 C 56.296 340.329,57.406 343.209,57.497 343.104 C 57.588 342.999,60.574 334.742,64.133 324.755 C 73.719 297.849,75.225 293.638,75.669 292.494 C 76.525 290.287,76.288 289.080,74.137 284.713 L 72.177 280.732 81.981 280.663 C 87.374 280.625,91.840 280.649,91.907 280.716 C 92.057 280.866,89.744 287.949,86.228 298.106 C 82.722 308.231,81.603 311.476,78.119 321.620 C 76.515 326.290,74.633 331.757,73.938 333.769 C 73.242 335.781,70.401 344.053,67.623 352.151 L 62.573 366.876 59.919 366.746 C 52.944 366.405,43.508 361.169,38.862 355.062 C 36.301 351.695,36.503 352.197,19.473 306.989 C 12.038 287.252,10.606 283.629,9.483 281.711 L 8.833 280.601 22.150 280.601 L 35.467 280.601 36.307 283.018 M127.253 289.157 C 130.905 293.863,140.050 305.650,147.575 315.349 C 155.101 325.049,161.425 333.160,161.629 333.375 C 161.950 333.712,161.990 330.772,161.928 311.690 L 161.855 289.615 160.971 288.047 C 160.485 287.185,159.209 285.208,158.136 283.655 C 157.062 282.101,156.236 280.777,156.300 280.713 C 156.364 280.648,161.974 280.626,168.767 280.664 L 181.117 280.732 178.472 284.185 C 177.018 286.085,175.535 288.070,175.177 288.598 L 174.526 289.557 174.526 328.866 L 174.526 368.174 173.155 367.993 C 164.005 366.783,157.177 363.736,151.811 358.466 C 150.615 357.292,144.657 349.862,137.035 340.039 C 130.011 330.986,121.993 320.657,119.219 317.086 L 114.174 310.592 114.175 333.676 C 114.176 355.657,114.199 356.798,114.658 357.544 C 114.923 357.975,116.392 359.951,117.923 361.935 C 119.453 363.918,120.705 365.652,120.705 365.788 C 120.705 365.940,115.966 366.035,108.426 366.035 C 100.688 366.035,96.146 365.942,96.146 365.782 C 96.146 365.643,97.164 363.968,98.407 362.059 C 99.650 360.151,100.882 358.119,101.144 357.544 C 101.598 356.550,101.622 354.911,101.627 324.206 L 101.633 291.912 98.236 286.389 C 96.368 283.350,94.840 280.805,94.840 280.733 C 94.840 280.660,100.639 280.601,107.726 280.601 L 120.613 280.601 127.253 289.157 M233.527 281.595 C 256.276 288.559,256.854 321.137,234.357 328.363 C 231.543 329.267,229.807 329.463,223.253 329.616 L 216.982 329.762 218.480 328.892 C 226.110 324.454,229.909 313.534,227.223 303.757 C 225.260 296.613,221.839 293.403,216.189 293.403 L 213.717 293.403 213.717 325.306 L 213.717 357.210 214.503 358.683 C 214.935 359.494,216.227 361.332,217.373 362.769 L 219.457 365.382 203.221 365.449 C 194.291 365.486,186.938 365.471,186.882 365.415 C 186.826 365.359,187.362 364.545,188.072 363.606 C 188.783 362.668,189.758 361.098,190.240 360.119 L 191.117 358.339 191.185 323.071 L 191.253 287.803 190.578 286.423 C 190.123 285.492,189.230 284.433,187.832 283.164 C 186.693 282.131,185.761 281.185,185.761 281.063 C 185.761 280.470,231.518 280.980,233.527 281.595 M305.791 318.246 C 321.577 360.569,320.262 357.587,325.413 362.720 C 326.919 364.221,328.152 365.522,328.152 365.611 C 328.152 365.701,319.669 365.774,309.301 365.774 L 290.450 365.774 291.937 364.215 C 294.327 361.709,294.841 360.317,294.834 356.368 L 294.828 353.103 292.352 346.506 L 289.876 339.909 275.927 339.974 L 261.977 340.039 259.497 347.616 C 256.168 357.787,256.116 360.536,259.186 364.024 C 259.756 364.671,260.222 365.271,260.222 365.357 C 260.222 365.443,254.873 365.513,248.334 365.513 C 241.796 365.513,236.447 365.420,236.447 365.306 C 236.447 365.192,236.985 364.575,237.643 363.934 C 239.150 362.466,241.025 359.996,241.797 358.462 C 242.561 356.943,264.551 293.172,264.946 291.327 C 265.538 288.566,264.934 285.830,263.125 283.083 C 262.463 282.077,261.881 281.165,261.833 281.056 C 261.784 280.947,268.529 280.888,276.820 280.925 L 291.895 280.993 305.791 318.246 M348.416 296.473 C 359.640 314.725,358.474 313.112,359.606 311.946 C 360.829 310.686,372.171 293.756,373.030 291.907 C 374.495 288.756,373.821 284.708,371.397 282.089 C 370.891 281.542,370.477 281.042,370.477 280.978 C 370.477 280.914,376.662 280.862,384.221 280.862 C 395.151 280.862,397.940 280.929,397.840 281.191 C 397.770 281.371,396.386 283.399,394.763 285.697 C 393.141 287.996,386.072 298.018,379.055 307.970 L 366.297 326.065 366.297 342.541 L 366.297 359.016 369.040 362.241 C 370.549 364.014,371.783 365.535,371.783 365.620 C 371.783 365.705,364.082 365.774,354.670 365.774 C 345.148 365.774,337.557 365.673,337.557 365.547 C 337.557 365.422,338.606 363.885,339.888 362.131 L 342.218 358.941 342.067 342.440 L 341.915 325.938 339.918 323.060 C 338.819 321.478,335.170 316.244,331.809 311.430 C 328.448 306.617,322.832 298.563,319.329 293.534 C 315.367 287.846,312.303 283.723,311.222 282.626 L 309.485 280.862 324.150 280.862 L 338.815 280.862 348.416 296.473 M270.792 314.876 C 268.212 322.220,266.061 328.329,266.013 328.451 C 265.966 328.574,270.345 328.674,275.746 328.674 C 281.146 328.674,285.565 328.617,285.565 328.547 C 285.565 328.413,275.618 301.673,275.533 301.578 C 275.506 301.548,273.372 307.532,270.792 314.876 " stroke="none" fill="#fbfbfb" fill-rule="evenodd"></path><path id="path3" d="M51.817 108.295 C 51.818 109.301,51.865 109.681,51.922 109.139 C 51.978 108.596,51.977 107.773,51.919 107.310 C 51.862 106.846,51.815 107.289,51.817 108.295 M185.761 281.075 C 185.761 281.191,186.143 281.632,186.610 282.054 L 187.459 282.822 186.695 281.976 L 185.931 281.131 194.794 281.058 L 203.658 280.986 194.709 280.924 C 189.788 280.890,185.761 280.958,185.761 281.075 M228.282 281.047 C 228.605 281.109,229.135 281.109,229.458 281.047 C 229.781 280.984,229.517 280.933,228.870 280.933 C 228.223 280.933,227.959 280.984,228.282 281.047 M311.681 283.018 C 312.763 284.171,312.998 284.379,312.998 284.182 C 312.998 284.140,312.440 283.582,311.757 282.941 L 310.516 281.777 311.681 283.018 M188.112 283.295 C 188.112 283.340,188.494 283.722,188.961 284.144 L 189.811 284.912 189.043 284.063 C 188.328 283.271,188.112 283.093,188.112 283.295 M243.632 287.655 C 244.485 288.517,245.242 289.223,245.313 289.223 C 245.385 289.223,244.746 288.517,243.893 287.655 C 243.040 286.793,242.283 286.088,242.211 286.088 C 242.139 286.088,242.778 286.793,243.632 287.655 M191.374 322.796 C 191.374 341.907,191.405 349.687,191.443 340.084 C 191.481 330.481,191.481 314.844,191.443 305.336 C 191.405 295.827,191.374 303.684,191.374 322.796 M214.835 293.334 C 215.522 293.388,216.580 293.387,217.186 293.333 C 217.793 293.278,217.231 293.234,215.937 293.234 C 214.644 293.235,214.148 293.280,214.835 293.334 M250.646 305.421 C 250.646 306.643,250.691 307.142,250.746 306.532 C 250.801 305.921,250.801 304.922,250.746 304.311 C 250.691 303.700,250.646 304.200,250.646 305.421 M228.165 310.385 C 228.165 311.176,228.213 311.499,228.273 311.104 C 228.333 310.709,228.333 310.062,228.273 309.667 C 228.213 309.272,228.165 309.595,228.165 310.385 M342.119 338.210 C 342.119 344.964,342.153 347.764,342.194 344.433 C 342.236 341.102,342.236 335.577,342.194 332.154 C 342.153 328.731,342.119 331.457,342.119 338.210 M366.158 342.521 C 366.158 351.646,366.191 355.379,366.231 350.816 C 366.271 346.254,366.271 338.788,366.231 334.226 C 366.191 329.664,366.158 333.396,366.158 342.521 M228.935 329.377 C 229.187 329.442,229.598 329.442,229.850 329.377 C 230.101 329.311,229.895 329.257,229.393 329.257 C 228.890 329.257,228.684 329.311,228.935 329.377 M221.750 329.650 C 222.505 329.703,223.739 329.703,224.494 329.650 C 225.248 329.598,224.631 329.555,223.122 329.555 C 221.613 329.555,220.996 329.598,221.750 329.650 M261.961 339.843 C 261.850 340.021,272.419 340.018,285.173 339.837 C 287.903 339.798,283.825 339.739,276.109 339.707 C 268.394 339.674,262.027 339.735,261.961 339.843 M295.056 356.499 C 295.057 357.505,295.105 357.884,295.161 357.342 C 295.218 356.800,295.217 355.977,295.159 355.513 C 295.101 355.050,295.055 355.493,295.056 356.499 M322.926 360.369 C 322.926 360.414,323.308 360.796,323.775 361.218 L 324.624 361.986 323.857 361.137 C 323.142 360.345,322.926 360.167,322.926 360.369 M237.678 363.889 C 237.001 364.576,236.447 365.223,236.447 365.326 C 236.447 365.429,241.796 365.513,248.334 365.513 C 254.873 365.513,260.222 365.416,260.222 365.297 C 260.222 365.178,259.899 364.796,259.504 364.448 L 258.785 363.815 259.419 364.533 L 260.052 365.251 248.324 365.251 L 236.597 365.251 237.884 363.945 C 238.591 363.227,239.112 362.639,239.040 362.639 C 238.968 362.639,238.355 363.201,237.678 363.889 M291.954 364.272 L 290.921 365.382 292.031 364.349 C 293.064 363.389,293.262 363.161,293.064 363.161 C 293.021 363.161,292.522 363.661,291.954 364.272 M326.962 364.401 L 327.993 365.509 309.196 365.578 L 290.398 365.647 309.275 365.710 C 319.657 365.745,328.152 365.680,328.152 365.566 C 328.152 365.451,327.652 364.893,327.041 364.325 L 325.931 363.292 326.962 364.401 M371.226 365.054 C 371.564 365.485,370.699 365.513,354.505 365.578 L 337.427 365.647 354.605 365.711 C 364.333 365.747,371.783 365.675,371.783 365.545 C 371.783 365.419,371.577 365.154,371.326 364.957 C 370.912 364.632,370.902 364.641,371.226 365.054 " stroke="none" fill="#95bfe5" fill-rule="evenodd"></path><path id="path4" d="M273.873 50.615 C 274.412 50.671,275.294 50.671,275.833 50.615 C 276.372 50.559,275.931 50.512,274.853 50.512 C 273.775 50.512,273.334 50.559,273.873 50.615 M263.739 55.454 L 262.443 56.826 263.815 55.529 C 265.089 54.324,265.306 54.082,265.111 54.082 C 265.070 54.082,264.452 54.700,263.739 55.454 M289.988 59.618 L 295.587 65.284 294.299 65.384 L 293.011 65.484 294.383 65.531 C 296.250 65.595,296.443 65.862,290.072 59.567 L 284.389 53.952 289.988 59.618 M260.602 58.850 L 259.569 59.961 260.679 58.928 C 261.290 58.360,261.790 57.860,261.790 57.818 C 261.790 57.620,261.562 57.818,260.602 58.850 M257.348 62.312 C 256.714 62.959,256.253 63.488,256.325 63.488 C 256.397 63.488,256.975 62.959,257.609 62.312 C 258.244 61.666,258.704 61.137,258.633 61.137 C 258.561 61.137,257.983 61.666,257.348 62.312 M254.072 65.905 L 252.776 67.276 254.148 65.980 C 255.422 64.775,255.639 64.533,255.444 64.533 C 255.403 64.533,254.786 65.150,254.072 65.905 M251.199 69.040 L 249.902 70.411 251.274 69.115 C 252.548 67.910,252.765 67.668,252.570 67.668 C 252.529 67.668,251.912 68.285,251.199 69.040 M281.511 71.914 L 278.641 74.853 281.581 71.984 C 283.197 70.405,284.520 69.083,284.520 69.044 C 284.520 68.856,284.176 69.184,281.511 71.914 M293.341 69.682 C 293.666 69.744,294.136 69.742,294.386 69.677 C 294.636 69.611,294.370 69.560,293.795 69.563 C 293.220 69.566,293.016 69.619,293.341 69.682 M295.692 69.682 C 296.017 69.744,296.487 69.742,296.737 69.677 C 296.987 69.611,296.721 69.560,296.146 69.563 C 295.572 69.566,295.367 69.619,295.692 69.682 M247.802 72.698 L 246.506 74.069 247.877 72.773 C 249.152 71.568,249.369 71.326,249.174 71.326 C 249.132 71.326,248.515 71.943,247.802 72.698 M326.715 96.408 C 340.365 110.059,351.593 121.228,351.665 121.228 C 351.736 121.228,340.626 110.059,326.976 96.408 C 313.325 82.756,302.098 71.587,302.026 71.587 C 301.954 71.587,313.064 82.756,326.715 96.408 M281.385 77.727 C 278.585 80.529,276.354 82.822,276.426 82.822 C 276.498 82.822,278.847 80.529,281.646 77.727 C 284.445 74.925,286.677 72.632,286.605 72.632 C 286.533 72.632,284.184 74.925,281.385 77.727 M233.833 86.937 L 221.685 99.151 233.899 87.003 C 245.252 75.712,246.231 74.722,246.047 74.722 C 246.011 74.722,240.514 80.219,233.833 86.937 M268.711 84.455 L 262.704 90.529 268.779 84.522 C 272.120 81.218,274.853 78.485,274.853 78.448 C 274.853 78.262,274.293 78.810,268.711 84.455 M265.968 92.946 L 260.091 98.890 266.035 93.013 C 269.304 89.781,271.979 87.107,271.979 87.069 C 271.979 86.884,271.428 87.423,265.968 92.946 M250.815 102.090 L 243.109 109.863 250.882 102.157 C 258.105 94.996,258.772 94.317,258.587 94.317 C 258.551 94.317,255.053 97.815,250.815 102.090 M244.152 114.500 L 237.884 120.836 244.219 114.568 C 250.107 108.743,250.673 108.165,250.488 108.165 C 250.451 108.165,247.600 111.016,244.152 114.500 M231.872 120.771 L 226.649 126.061 231.940 120.839 C 236.856 115.986,237.349 115.480,237.163 115.480 C 237.126 115.480,234.745 117.861,231.872 120.771 M229.390 129.001 L 223.253 135.206 229.458 129.068 C 235.224 123.365,235.781 122.796,235.596 122.796 C 235.558 122.796,232.766 125.588,229.390 129.001 M355.143 130.764 C 355.144 131.626,355.193 131.948,355.251 131.478 C 355.310 131.008,355.308 130.303,355.249 129.910 C 355.189 129.518,355.142 129.902,355.143 130.764 M215.153 137.165 C 212.138 140.183,209.730 142.652,209.802 142.652 C 209.874 142.652,212.400 140.183,215.415 137.165 C 218.430 134.148,220.838 131.679,220.766 131.679 C 220.694 131.679,218.169 134.148,215.153 137.165 M212.931 145.199 L 206.793 151.404 212.998 145.267 C 218.764 139.563,219.321 138.994,219.136 138.994 C 219.099 138.994,216.306 141.786,212.931 145.199 M351.000 140.888 L 349.967 141.999 351.078 140.966 C 352.110 140.005,352.308 139.778,352.111 139.778 C 352.068 139.778,351.568 140.278,351.000 140.888 M199.475 152.645 L 193.207 158.981 199.543 152.713 C 205.430 146.888,205.996 146.310,205.811 146.310 C 205.774 146.310,202.923 149.161,199.475 152.645 M338.992 153.168 L 332.462 159.765 339.059 153.235 C 342.688 149.644,345.656 146.675,345.656 146.638 C 345.656 146.453,345.060 147.038,338.992 153.168 M196.993 160.875 L 191.378 166.558 197.061 160.943 C 202.341 155.726,202.861 155.193,202.676 155.193 C 202.639 155.193,200.081 157.750,196.993 160.875 M189.017 162.835 L 187.720 164.206 189.092 162.910 C 190.367 161.705,190.584 161.463,190.389 161.463 C 190.347 161.463,189.730 162.080,189.017 162.835 M322.271 170.150 L 316.525 175.963 322.338 170.218 C 327.740 164.879,328.269 164.337,328.084 164.337 C 328.047 164.337,325.431 166.953,322.271 170.150 M117.701 180.797 C 125.603 188.700,132.128 195.167,132.199 195.167 C 132.271 195.167,125.864 188.700,117.962 180.797 C 110.060 172.894,103.535 166.427,103.464 166.427 C 103.392 166.427,109.798 172.894,117.701 180.797 M178.704 172.894 L 173.089 178.576 178.772 172.961 C 181.897 169.873,184.455 167.316,184.455 167.279 C 184.455 167.093,183.922 167.613,178.704 172.894 M186.806 170.738 C 186.171 171.385,185.711 171.914,185.783 171.914 C 185.855 171.914,186.433 171.385,187.067 170.738 C 187.702 170.091,188.162 169.562,188.091 169.562 C 188.019 169.562,187.441 170.091,186.806 170.738 M175.700 181.646 L 170.477 186.937 175.767 181.714 C 180.683 176.861,181.176 176.355,180.990 176.355 C 180.953 176.355,178.572 178.736,175.700 181.646 M166.950 184.324 C 165.879 185.402,165.062 186.283,165.134 186.283 C 165.206 186.283,166.140 185.402,167.211 184.324 C 168.282 183.246,169.099 182.364,169.027 182.364 C 168.955 182.364,168.020 183.246,166.950 184.324 M304.635 188.047 L 299.020 193.730 304.703 188.115 C 307.828 185.026,310.385 182.469,310.385 182.432 C 310.385 182.247,309.853 182.767,304.635 188.047 M162.622 188.700 L 161.855 189.549 162.704 188.782 C 163.171 188.360,163.553 187.978,163.553 187.933 C 163.553 187.731,163.338 187.909,162.622 188.700 M167.211 190.072 C 166.576 190.718,166.116 191.248,166.188 191.248 C 166.260 191.248,166.838 190.718,167.472 190.072 C 168.107 189.425,168.567 188.896,168.495 188.896 C 168.424 188.896,167.846 189.425,167.211 190.072 M139.451 197.180 C 139.775 197.242,140.304 197.242,140.627 197.180 C 140.950 197.118,140.686 197.067,140.039 197.067 C 139.393 197.067,139.128 197.118,139.451 197.180 M144.157 197.180 C 144.482 197.243,144.952 197.240,145.202 197.175 C 145.452 197.110,145.186 197.058,144.611 197.061 C 144.037 197.064,143.832 197.118,144.157 197.180 M287.130 205.813 L 281.515 211.496 287.198 205.881 C 290.323 202.793,292.880 200.235,292.880 200.198 C 292.880 200.013,292.348 200.533,287.130 205.813 M138.210 201.067 C 138.210 201.199,148.292 211.359,160.614 223.645 L 183.018 245.983 160.679 223.525 C 148.393 211.173,138.312 201.013,138.276 200.947 C 138.240 200.881,138.210 200.935,138.210 201.067 M140.105 201.363 C 140.500 201.423,141.146 201.423,141.541 201.363 C 141.937 201.303,141.613 201.254,140.823 201.254 C 140.033 201.254,139.709 201.303,140.105 201.363 M143.114 201.365 C 143.583 201.423,144.289 201.422,144.681 201.362 C 145.074 201.303,144.690 201.255,143.828 201.257 C 142.965 201.258,142.644 201.307,143.114 201.365 M269.625 223.579 L 264.010 229.262 269.693 223.647 C 274.973 218.430,275.493 217.897,275.308 217.897 C 275.271 217.897,272.714 220.454,269.625 223.579 M252.382 241.084 L 246.767 246.767 252.449 241.152 C 257.729 235.935,258.250 235.402,258.064 235.402 C 258.027 235.402,255.470 237.959,252.382 241.084 M236.447 253.429 C 235.369 253.990,234.578 254.454,234.690 254.461 C 234.967 254.479,238.537 252.670,238.537 252.511 C 238.537 252.335,238.623 252.297,236.447 253.429 M193.076 253.035 C 193.076 253.214,194.676 254.007,194.796 253.887 C 194.852 253.830,194.489 253.589,193.988 253.350 C 193.486 253.111,193.076 252.969,193.076 253.035 M210.124 258.312 C 210.376 258.378,210.787 258.378,211.039 258.312 C 211.290 258.246,211.084 258.193,210.581 258.193 C 210.078 258.193,209.873 258.246,210.124 258.312 M219.530 258.312 C 219.781 258.378,220.193 258.378,220.444 258.312 C 220.696 258.246,220.490 258.193,219.987 258.193 C 219.484 258.193,219.278 258.246,219.530 258.312 M213.782 258.586 C 214.608 258.638,215.960 258.638,216.786 258.586 C 217.613 258.534,216.937 258.492,215.284 258.492 C 213.632 258.492,212.956 258.534,213.782 258.586 M9.275 281.385 C 9.498 281.816,9.739 282.169,9.811 282.169 C 9.883 282.169,9.759 281.816,9.536 281.385 C 9.313 280.954,9.072 280.601,9.000 280.601 C 8.928 280.601,9.052 280.954,9.275 281.385 M10.469 283.605 C 10.469 283.749,10.637 284.161,10.843 284.520 C 11.048 284.879,11.216 285.056,11.216 284.912 C 11.216 284.768,11.048 284.357,10.843 283.997 C 10.637 283.638,10.469 283.462,10.469 283.605 M174.265 328.787 L 174.265 367.828 173.677 367.941 C 173.173 368.038,173.192 368.059,173.808 368.090 L 174.526 368.125 174.526 328.935 C 174.526 307.381,174.468 289.745,174.396 289.745 C 174.324 289.745,174.265 307.314,174.265 328.787 M101.759 323.971 C 101.759 341.718,101.791 348.978,101.829 340.105 C 101.867 331.231,101.867 316.711,101.829 307.838 C 101.791 298.965,101.759 306.225,101.759 323.971 M113.974 333.442 C 114.008 346.123,114.066 352.796,114.104 348.269 C 114.284 326.736,114.286 310.385,114.108 310.385 C 114.001 310.385,113.940 320.761,113.974 333.442 M41.019 357.544 C 41.945 358.478,42.761 359.242,42.833 359.242 C 42.905 359.242,42.206 358.478,41.280 357.544 C 40.354 356.610,39.538 355.846,39.466 355.846 C 39.395 355.846,40.093 356.610,41.019 357.544 M151.404 358.197 C 151.966 358.772,152.484 359.242,152.555 359.242 C 152.627 359.242,152.227 358.772,151.666 358.197 C 151.104 357.622,150.586 357.152,150.514 357.152 C 150.443 357.152,150.843 357.622,151.404 358.197 M50.425 364.076 C 50.784 364.281,51.195 364.449,51.339 364.449 C 51.483 364.449,51.306 364.281,50.947 364.076 C 50.588 363.870,50.176 363.702,50.033 363.702 C 49.889 363.702,50.065 363.870,50.425 364.076 M102.221 365.970 C 105.634 366.011,111.218 366.011,114.631 365.970 C 118.044 365.928,115.251 365.895,108.426 365.895 C 101.600 365.895,98.808 365.928,102.221 365.970 M59.236 366.746 C 59.700 366.804,60.523 366.805,61.065 366.748 C 61.607 366.692,61.228 366.645,60.222 366.644 C 59.216 366.642,58.773 366.689,59.236 366.746 " stroke="none" fill="#f9a1a5" fill-rule="evenodd"></path></g></svg>