<?xml version="1.0" encoding="utf-8"?>
<!-- Generator: Adobe Illustrator 21.0.2, SVG Export Plug-In . SVG Version: 6.00 Build 0)  -->
<svg version="1.1" id="Layer_1" xmlns="http://www.w3.org/2000/svg" xmlns:xlink="http://www.w3.org/1999/xlink" x="0px" y="0px"
	 viewBox="0 0 1108.9 712" style="enable-background:new 0 0 1108.9 712;" xml:space="preserve">
<style type="text/css">
	.st0{fill:#0068FF;}
	.st1{fill:#33B44A;}
	.st2{fill:#39B54A;}
	.st3{display:none;}
	.st4{display:inline;}
	.st5{fill:#0D84C7;}
	.st6{display:inline;fill:#1DA1DC;}
	.st7{display:inline;fill:#33B44A;}
	.st8{display:none;fill:#33B44A;}
	.st9{display:inline;fill:#FFFFFF;}
	.st10{display:none;fill:#12A9E1;}
	.st11{display:inline;fill:#12A9E1;}
	.st12{fill:#FFFFFF;}
	.st13{fill:#B3B3B3;}
</style>
<rect y="1471.6" class="st0" width="1108.9" height="681"/>
<g id="XMLID_115_">
	<g id="XMLID_538_">
		<path id="XMLID_273_" class="st0" d="M583.2,194.5c-3.1-3.2-7.1-4.8-11.9-4.8c-7.1,0-12.2,3.4-15.5,10.2
			c-6.9-8.1-16.4-12.2-28.4-12.2c-14.4,0-26.5,5.6-36.4,16.7c-9.8,11.1-14.7,24.7-14.7,40.7c0,16,4.9,29.6,14.7,40.7
			c9.8,11.1,22,16.7,36.4,16.7c12,0,21.5-4.1,28.4-12.2c3.2,6.8,8.4,10.2,15.5,10.2c4.8,0,8.8-1.6,11.9-4.8
			c3.1-3.2,4.7-7.1,4.7-11.7v-77.7C587.8,201.6,586.3,197.7,583.2,194.5z M548.7,264.3c-4,5.2-9.6,7.8-16.6,7.8
			c-7.1,0-12.6-2.6-16.6-7.8c-4-5.2-6-11.6-6-19.3c0-7.7,2-14.1,6-19.3c4-5.2,9.6-7.8,16.6-7.8c7.1,0,12.6,2.6,16.6,7.8
			c4,5.2,6,11.6,6,19.3C554.8,252.7,552.8,259.1,548.7,264.3z"/>
		<path id="XMLID_272_" class="st0" d="M625.3,295.6c-3.1,3.2-7.1,4.8-11.9,4.8c-4.8,0-8.8-1.6-11.9-4.8c-3.1-3.2-4.7-7.1-4.7-11.7
			V144.8c0-4.6,1.6-8.5,4.7-11.7c3.1-3.2,7.1-4.8,11.9-4.8c4.8,0,8.8,1.6,11.9,4.8c3.1,3.2,4.7,7.1,4.7,11.7v139.1
			C630,288.5,628.4,292.4,625.3,295.6L625.3,295.6z"/>
		<path id="XMLID_269_" class="st0" d="M734.9,204.4c-10.6-11.1-24.1-16.7-40.5-16.7c-16.4,0-29.8,5.5-40.2,16.5
			c-10.4,11-15.6,24.6-15.6,40.9c0,16.3,5.2,29.9,15.6,40.9c10.4,11,23.8,16.5,40.2,16.5c16.4,0,29.9-5.6,40.5-16.7
			c10.2-10.9,15.3-24.4,15.3-40.7C750.1,228.8,745,215.2,734.9,204.4z M711,264.3c-4,5.2-9.6,7.8-16.6,7.8c-7.1,0-12.6-2.6-16.6-7.8
			c-4-5.2-6-11.6-6-19.3c0-7.7,2-14.1,6-19.3c4-5.2,9.6-7.8,16.6-7.8c7.1,0,12.6,2.6,16.6,7.8c4,5.2,6,11.6,6,19.3
			C717,252.7,715,259.1,711,264.3z"/>
		<path id="XMLID_268_" class="st0" d="M458,191.5c11.7-15.1,17.5-25.2,17.5-30.5c0-12.1-7.6-18.1-22.8-18.1h-80.3
			c-6.3,0-11.2,1.5-14.6,4.5c-3.5,3-5.2,6.9-5.2,11.6c0,4.8,1.7,8.6,5.2,11.6c3.5,3,8.3,4.5,14.6,4.5h55.1L357,266.3
			c-4.6,6-6.9,11.3-6.9,15.9c0,13.3,8.8,19.9,26.3,19.9h82.8c13.2,0,19.8-5.6,19.8-16.7c0-11.1-6.6-16.7-19.8-16.7h-60.9L458,191.5
			L458,191.5z"/>
	</g>
	<g id="XMLID_288_">
		<path id="XMLID_267_" class="st1" d="M418.5,388h-20.6v42.8h20.6c6.2,0,11.2-2,15.1-6.1c3.8-4,5.8-9.2,5.8-15.4
			c0-6.2-1.9-11.3-5.8-15.4C429.7,390,424.7,388,418.5,388z"/>
		<path id="XMLID_266_" class="st1" d="M521.4,428.3c-6.5,0-11.7,2.4-15.4,7.2c-3.7,4.8-5.6,10.8-5.6,17.8c0,7.1,1.9,13,5.6,17.8
			c3.7,4.8,8.9,7.2,15.4,7.2c6.5,0,11.7-2.4,15.4-7.2c3.7-4.8,5.6-10.8,5.6-17.8c0-7.1-1.9-13-5.6-17.8
			C533,430.7,527.9,428.3,521.4,428.3z"/>
		<path id="XMLID_262_" class="st2" d="M667,326.8H368.1c-10,0-18.1,8.1-18.1,18.1v175.1c0,10,8.1,18.1,18.1,18.1h235.9
			c-2.5-2.4-3.7-5.1-3.7-8.3c0-2.6,0.6-5.3,1.7-8.1l11.1-24.7L582.4,420c-0.9-2.2-1.4-4.6-1.4-7.2c0-3.4,1.4-6.2,4.3-8.5
			c2.8-2.3,5.8-3.5,8.9-3.5c6.8,0,11.5,3.3,13.9,9.9l19.2,52.4l20.5-52.4c2.6-6.6,7.2-9.9,13.9-9.9c3.1,0,6.1,1.2,8.9,3.5
			c2.8,2.3,4.3,5.2,4.3,8.5c0,2.6-0.5,5-1.4,7.2L628,530.7c-1.2,3.1-2.8,5.5-4.5,7.3H667c10,0,18.1-8.1,18.1-18.1V344.8
			C685.1,334.8,677,326.8,667,326.8z M455.9,444.6c-9.4,8.6-21.3,12.9-35.6,12.9h-22.4v33.1c0,5-1.4,8.9-4.2,11.6
			c-2.8,2.8-6.5,4.1-10.9,4.1c-4.4,0-8.1-1.4-10.9-4.1c-2.8-2.8-4.2-6.6-4.2-11.6V377.1c0-10.5,5.3-15.8,15.8-15.8h35.8
			c15,0,27.3,4.5,37.1,13.4c9.8,9,14.7,20.6,14.7,34.9C470.9,424,465.9,435.7,455.9,444.6z M573,489.3c0,4.3-1.4,7.9-4.3,10.8
			c-2.9,3-6.5,4.4-11,4.4c-6.5,0-11.3-3.1-14.3-9.4c-6.4,7.5-15.2,11.3-26.3,11.3c-13.3,0-24.6-5.1-33.7-15.4
			c-9.1-10.3-13.6-22.9-13.6-37.7c0-14.8,4.5-27.4,13.6-37.7c9.1-10.3,20.3-15.4,33.7-15.4c11.1,0,19.9,3.8,26.3,11.3
			c3-6.3,7.8-9.4,14.3-9.4c4.4,0,8.1,1.5,11,4.4c2.9,3,4.3,6.6,4.3,10.8V489.3z"/>
	</g>
</g>
<g id="XMLID_34_" class="st3">
	<g id="XMLID_52_" class="st4">
		<path id="XMLID_59_" class="st5" d="M-566.8-379.5c-3.1-3.2-7.1-4.8-11.9-4.8c-7.1,0-12.2,3.4-15.5,10.2
			c-6.9-8.1-16.4-12.2-28.4-12.2c-14.4,0-26.5,5.6-36.4,16.7c-9.8,11.1-14.7,24.7-14.7,40.7c0,16,4.9,29.6,14.7,40.7
			c9.8,11.1,22,16.7,36.4,16.7c12,0,21.5-4.1,28.4-12.2c3.2,6.8,8.4,10.2,15.5,10.2c4.8,0,8.8-1.6,11.9-4.8
			c3.1-3.2,4.7-7.1,4.7-11.7v-77.7C-562.1-372.4-563.7-376.3-566.8-379.5z M-601.3-309.7c-4,5.2-9.6,7.8-16.6,7.8
			c-7.1,0-12.6-2.6-16.6-7.8c-4-5.2-6-11.6-6-19.3c0-7.7,2-14.1,6-19.3c4-5.2,9.6-7.8,16.6-7.8c7.1,0,12.6,2.6,16.6,7.8
			c4,5.2,6,11.6,6,19.3C-595.2-321.3-597.2-314.9-601.3-309.7z"/>
		<path id="XMLID_58_" class="st5" d="M-524.7-278.4c-3.1,3.2-7.1,4.8-11.9,4.8c-4.8,0-8.8-1.6-11.9-4.8c-3.1-3.2-4.7-7.1-4.7-11.7
			v-139.1c0-4.6,1.6-8.5,4.7-11.7c3.1-3.2,7.1-4.8,11.9-4.8c4.8,0,8.8,1.6,11.9,4.8c3.1,3.2,4.7,7.1,4.7,11.7v139.1
			C-520-285.5-521.6-281.6-524.7-278.4L-524.7-278.4z"/>
		<path id="XMLID_55_" class="st5" d="M-415.1-369.7c-10.6-11.1-24.1-16.7-40.5-16.7c-16.4,0-29.8,5.5-40.2,16.5
			c-10.4,11-15.6,24.6-15.6,40.9c0,16.3,5.2,29.9,15.6,40.9c10.4,11,23.8,16.5,40.2,16.5c16.4,0,29.9-5.6,40.5-16.7
			c10.2-10.9,15.3-24.4,15.3-40.7C-399.9-345.2-405-358.8-415.1-369.7z M-439-309.7c-4,5.2-9.6,7.8-16.6,7.8
			c-7.1,0-12.6-2.6-16.6-7.8c-4-5.2-6-11.6-6-19.3c0-7.7,2-14.1,6-19.3c4-5.2,9.6-7.8,16.6-7.8c7.1,0,12.6,2.6,16.6,7.8
			c4,5.2,6,11.6,6,19.3C-433-321.3-435-314.9-439-309.7z"/>
		<path id="XMLID_54_" class="st5" d="M-692-382.5c11.7-15.1,17.5-25.2,17.5-30.5c0-12.1-7.6-18.1-22.8-18.1h-80.3
			c-6.3,0-11.2,1.5-14.6,4.5c-3.5,3-5.2,6.9-5.2,11.6c0,4.8,1.7,8.6,5.2,11.6c3.5,3,8.3,4.5,14.6,4.5h55.1l-70.6,91.2
			c-4.6,6-6.9,11.3-6.9,15.9c0,13.3,8.8,19.9,26.3,19.9h82.8c13.2,0,19.8-5.6,19.8-16.7c0-11.1-6.6-16.7-19.8-16.7h-60.9L-692-382.5
			L-692-382.5z"/>
	</g>
	<g id="XMLID_35_" class="st4">
		<path id="XMLID_51_" class="st1" d="M-731.5-186h-20.6v42.8h20.6c6.2,0,11.2-2,15.1-6.1c3.8-4,5.8-9.2,5.8-15.4
			c0-6.2-1.9-11.3-5.8-15.4C-720.3-184-725.3-186-731.5-186z"/>
		<path id="XMLID_50_" class="st1" d="M-628.6-145.7c-6.5,0-11.7,2.4-15.4,7.2c-3.7,4.8-5.6,10.8-5.6,17.8c0,7.1,1.9,13,5.6,17.8
			c3.7,4.8,8.9,7.2,15.4,7.2c6.5,0,11.7-2.4,15.4-7.2c3.7-4.8,5.6-10.8,5.6-17.8c0-7.1-1.9-13-5.6-17.8
			C-616.9-143.3-622.1-145.7-628.6-145.7z"/>
		<path id="XMLID_36_" class="st1" d="M-483-247.3h-298.9c-10,0-18.1,8.1-18.1,18.1v175.1c0,10,8.1,18.1,18.1,18.1h235.9
			c-2.5-2.4-3.7-5.1-3.7-8.3c0-2.6,0.6-5.3,1.7-8.1l11.1-24.7l-30.8-76.8c-0.9-2.2-1.4-4.6-1.4-7.2c0-3.4,1.4-6.2,4.3-8.5
			c2.8-2.3,5.8-3.5,8.9-3.5c6.8,0,11.5,3.3,13.9,9.9l19.2,52.4l20.5-52.4c2.6-6.6,7.2-9.9,13.9-9.9c3.1,0,6.1,1.2,8.9,3.5
			c2.8,2.3,4.3,5.2,4.3,8.5c0,2.6-0.5,5-1.4,7.2L-522-43.3c-1.2,3.1-2.8,5.5-4.5,7.3h43.5c10,0,18.1-8.1,18.1-18.1v-175.1
			C-464.9-239.2-473-247.3-483-247.3z M-694.1-129.4c-9.4,8.6-21.3,12.9-35.6,12.9h-22.4v33.1c0,5-1.4,8.9-4.2,11.6
			c-2.8,2.8-6.5,4.1-10.9,4.1c-4.4,0-8.1-1.4-10.9-4.1c-2.8-2.8-4.2-6.6-4.2-11.6v-113.6c0-10.5,5.3-15.8,15.8-15.8h35.8
			c15,0,27.3,4.5,37.1,13.4c9.8,9,14.7,20.6,14.7,34.9C-679.1-150-684.1-138.3-694.1-129.4z M-577-84.7c0,4.3-1.4,7.9-4.3,10.8
			c-2.9,3-6.5,4.4-11,4.4c-6.5,0-11.3-3.1-14.3-9.4c-6.4,7.5-15.2,11.3-26.3,11.3c-13.3,0-24.6-5.1-33.7-15.4
			c-9.1-10.3-13.6-22.9-13.6-37.7c0-14.8,4.5-27.4,13.6-37.7c9.1-10.3,20.3-15.4,33.7-15.4c11.1,0,19.9,3.8,26.3,11.3
			c3-6.3,7.8-9.4,14.3-9.4c4.4,0,8.1,1.5,11,4.4c2.9,3,4.3,6.6,4.3,10.8V-84.7z"/>
	</g>
</g>
<g id="XMLID_96_" class="st3">
	<path id="XMLID_103_" class="st6" d="M-565.5,158.5c-3.1-3.2-7.1-4.8-11.9-4.8c-7.1,0-12.2,3.4-15.5,10.2
		c-6.9-8.1-16.4-12.2-28.4-12.2c-14.4,0-26.5,5.6-36.4,16.7c-9.8,11.1-14.7,24.7-14.7,40.7c0,16,4.9,29.6,14.7,40.7
		c9.8,11.1,22,16.7,36.4,16.7c12,0,21.5-4.1,28.4-12.2c3.2,6.8,8.4,10.2,15.5,10.2c4.8,0,8.8-1.6,11.9-4.8c3.1-3.2,4.7-7.1,4.7-11.7
		v-77.7C-560.8,165.6-562.4,161.7-565.5,158.5z M-600,228.3c-4,5.2-9.6,7.8-16.6,7.8c-7.1,0-12.6-2.6-16.6-7.8c-4-5.2-6-11.6-6-19.3
		c0-7.7,2-14.1,6-19.3c4-5.2,9.6-7.8,16.6-7.8c7.1,0,12.6,2.6,16.6,7.8c4,5.2,6,11.6,6,19.3C-593.9,216.7-595.9,223.1-600,228.3z"/>
	<path id="XMLID_102_" class="st6" d="M-523.4,259.6c-3.1,3.2-7.1,4.8-11.9,4.8c-4.8,0-8.8-1.6-11.9-4.8c-3.1-3.2-4.7-7.1-4.7-11.7
		V108.8c0-4.6,1.6-8.5,4.7-11.7c3.1-3.2,7.1-4.8,11.9-4.8c4.8,0,8.8,1.6,11.9,4.8c3.1,3.2,4.7,7.1,4.7,11.7v139.1
		C-518.7,252.5-520.3,256.4-523.4,259.6L-523.4,259.6z"/>
	<path id="XMLID_99_" class="st6" d="M-413.8,168.3c-10.6-11.1-24.1-16.7-40.5-16.7c-16.4,0-29.8,5.5-40.2,16.5
		c-10.4,11-15.6,24.6-15.6,40.9c0,16.3,5.2,29.9,15.6,40.9c10.4,11,23.8,16.5,40.2,16.5c16.4,0,29.9-5.6,40.5-16.7
		c10.2-10.9,15.3-24.4,15.3-40.7C-398.6,192.8-403.7,179.2-413.8,168.3z M-437.7,228.3c-4,5.2-9.6,7.8-16.6,7.8
		c-7.1,0-12.6-2.6-16.6-7.8c-4-5.2-6-11.6-6-19.3c0-7.7,2-14.1,6-19.3c4-5.2,9.6-7.8,16.6-7.8c7.1,0,12.6,2.6,16.6,7.8
		c4,5.2,6,11.6,6,19.3C-431.7,216.7-433.7,223.1-437.7,228.3z"/>
	<path id="XMLID_98_" class="st6" d="M-690.7,155.5c11.7-15.1,17.5-25.2,17.5-30.5c0-12.1-7.6-18.1-22.8-18.1h-80.3
		c-6.3,0-11.2,1.5-14.6,4.5c-3.5,3-5.2,6.9-5.2,11.6c0,4.8,1.7,8.6,5.2,11.6c3.5,3,8.3,4.5,14.6,4.5h55.1l-70.6,91.2
		c-4.6,6-6.9,11.3-6.9,15.9c0,13.3,8.8,19.9,26.3,19.9h82.8c13.2,0,19.8-5.6,19.8-16.7c0-11.1-6.6-16.7-19.8-16.7h-60.9
		L-690.7,155.5L-690.7,155.5z"/>
</g>
<g id="XMLID_89_" class="st3">
	<path id="XMLID_95_" class="st7" d="M-719.5,352h-20.6v42.8h20.6c6.2,0,11.2-2,15.1-6.1c3.8-4,5.8-9.2,5.8-15.4
		c0-6.2-1.9-11.3-5.8-15.4C-708.3,354-713.3,352-719.5,352z"/>
	<path id="XMLID_94_" class="st7" d="M-616.7,392.3c-6.5,0-11.7,2.4-15.4,7.2c-3.7,4.8-5.6,10.8-5.6,17.8c0,7.1,1.9,13,5.6,17.8
		c3.7,4.8,8.9,7.2,15.4,7.2c6.5,0,11.7-2.4,15.4-7.2c3.7-4.8,5.6-10.8,5.6-17.8c0-7.1-1.9-13-5.6-17.8
		C-605,394.7-610.1,392.3-616.7,392.3z"/>
	<path id="XMLID_90_" class="st7" d="M-471,290.7h-298.9c-10,0-18.1,8.1-18.1,18.1v175.1c0,10,8.1,18.1,18.1,18.1H-534
		c-2.5-2.4-3.7-5.1-3.7-8.3c0-2.6,0.6-5.3,1.7-8.1l11.1-24.7l-30.8-76.8c-0.9-2.2-1.4-4.6-1.4-7.2c0-3.4,1.4-6.2,4.3-8.5
		c2.8-2.3,5.8-3.5,8.9-3.5c6.8,0,11.5,3.3,13.9,9.9l19.2,52.4l20.5-52.4c2.6-6.6,7.2-9.9,13.9-9.9c3.1,0,6.1,1.2,8.9,3.5
		c2.8,2.3,4.3,5.2,4.3,8.5c0,2.6-0.5,5-1.4,7.2L-510,494.7c-1.2,3.1-2.8,5.5-4.5,7.3h43.5c10,0,18.1-8.1,18.1-18.1V308.8
		C-453,298.8-461.1,290.7-471,290.7z M-682.1,408.6c-9.4,8.6-21.3,12.9-35.6,12.9h-22.4v33.1c0,5-1.4,8.9-4.2,11.6
		c-2.8,2.8-6.5,4.1-10.9,4.1c-4.4,0-8.1-1.4-10.9-4.1c-2.8-2.8-4.2-6.6-4.2-11.6V341.1c0-10.5,5.3-15.8,15.8-15.8h35.8
		c15,0,27.3,4.5,37.1,13.4c9.8,9,14.7,20.6,14.7,34.9C-667.2,388-672.2,399.7-682.1,408.6z M-565.1,453.3c0,4.3-1.4,7.9-4.3,10.8
		c-2.9,3-6.5,4.4-11,4.4c-6.5,0-11.3-3.1-14.3-9.4c-6.4,7.5-15.2,11.3-26.3,11.3c-13.3,0-24.6-5.1-33.7-15.4
		c-9.1-10.3-13.6-22.9-13.6-37.7c0-14.8,4.5-27.4,13.6-37.7c9.1-10.3,20.3-15.4,33.7-15.4c11.1,0,19.9,3.8,26.3,11.3
		c3-6.3,7.8-9.4,14.3-9.4c4.4,0,8.1,1.5,11,4.4c2.9,3,4.3,6.6,4.3,10.8V453.3z"/>
</g>
<path id="XMLID_46_" class="st8" d="M1124.5-271.3H897.7c-7.6,0-13.7-6.1-13.7-13.7v-132.9c0-7.6,6.1-13.7,13.7-13.7h226.8
	c7.6,0,13.7,6.1,13.7,13.7V-285C1138.2-277.4,1132.1-271.3,1124.5-271.3z"/>
<g id="XMLID_37_" class="st3">
	<path id="XMLID_43_" class="st9" d="M897.3-307.2v-86.2c0-8,4-12,12-12h27.2c11.4,0,20.7,3.4,28.2,10.2
		c7.4,6.8,11.1,15.6,11.1,26.5c0,10.9-3.8,19.8-11.4,26.5c-7.2,6.5-16.2,9.8-27,9.8h-17v25.2c0,3.8-1.1,6.7-3.2,8.8
		c-2.1,2.1-4.9,3.1-8.3,3.1c-3.4,0-6.1-1-8.3-3.1C898.3-300.5,897.3-303.4,897.3-307.2z M920.3-385.1v32.5h15.6
		c4.7,0,8.5-1.5,11.4-4.6c2.9-3.1,4.4-7,4.4-11.7c0-4.7-1.5-8.6-4.4-11.7c-2.9-3.1-6.7-4.6-11.4-4.6H920.3z"/>
	<path id="XMLID_41_" class="st9" d="M1083.7-302.5l-23.4-58.3c-0.7-1.7-1-3.5-1-5.4c0-2.5,1.1-4.7,3.2-6.5c2.2-1.8,4.4-2.6,6.8-2.6
		c5.2,0,8.7,2.5,10.6,7.5l14.5,39.8l15.6-39.8c2-5,5.5-7.5,10.6-7.5c2.4,0,4.6,0.9,6.8,2.6c2.2,1.8,3.2,3.9,3.2,6.5
		c0,2-0.3,3.8-1,5.4l-34.6,84c-2.3,5.6-5.6,8.4-10,8.4c-3.4,0-6.1-0.9-8.1-2.7c-2-1.8-2.9-3.9-2.9-6.4c0-2,0.4-4,1.3-6.2
		L1083.7-302.5z"/>
	<path id="XMLID_38_" class="st9" d="M1049.9-371.1c-2.2-2.2-5-3.4-8.3-3.4c-5,0-8.6,2.4-10.9,7.1c-4.9-5.7-11.5-8.6-20-8.6
		c-10.1,0-18.6,3.9-25.5,11.7c-6.9,7.8-10.3,17.3-10.3,28.6c0,11.2,3.4,20.8,10.3,28.6c6.9,7.8,15.4,11.7,25.5,11.7
		c8.4,0,15.1-2.9,20-8.6c2.3,4.8,5.9,7.1,10.9,7.1c3.4,0,6.2-1.1,8.3-3.4c2.2-2.2,3.3-5,3.3-8.2v-54.6
		C1053.2-366.1,1052.1-368.8,1049.9-371.1z M1025.7-322c-2.8,3.6-6.7,5.5-11.7,5.5c-5,0-8.9-1.8-11.7-5.5c-2.8-3.7-4.2-8.2-4.2-13.5
		c0-5.4,1.4-9.9,4.2-13.5c2.8-3.6,6.7-5.5,11.7-5.5c5,0,8.9,1.8,11.7,5.5c2.8,3.6,4.2,8.2,4.2,13.5
		C1029.9-330.2,1028.5-325.7,1025.7-322z"/>
</g>
<path id="XMLID_489_" class="st10" d="M-106.1-603.8c0,0,18.8-2.6,25,4.9C-89.5-598.7-106.1-603.8-106.1-603.8z"/>
<path id="XMLID_486_" class="st10" d="M-298.1-749.2c-2.2-2.2-5-3.4-8.4-3.4c-5,0-8.6,2.4-10.9,7.2c-4.9-5.8-11.6-8.6-20.1-8.6
	c-10.2,0-18.7,3.9-25.7,11.8c-6.9,7.9-10.4,17.4-10.4,28.7c0,11.3,3.5,20.9,10.4,28.7c6.9,7.9,15.5,11.8,25.7,11.8
	c8.5,0,15.2-2.9,20.1-8.6c2.3,4.8,5.9,7.2,10.9,7.2c3.4,0,6.2-1.1,8.4-3.4c2.2-2.2,3.3-5,3.3-8.3V-741
	C-294.9-744.2-295.9-747-298.1-749.2z M-322.5-699.9c-2.8,3.7-6.8,5.5-11.8,5.5c-5,0-8.9-1.8-11.8-5.5c-2.8-3.7-4.3-8.2-4.3-13.6
	c0-5.4,1.4-9.9,4.3-13.6c2.8-3.7,6.8-5.5,11.8-5.5c5,0,8.9,1.8,11.8,5.5c2.8,3.7,4.3,8.2,4.3,13.6
	C-318.2-708.1-319.6-703.6-322.5-699.9z"/>
<path id="XMLID_485_" class="st10" d="M-268.4-677.8c-2.2,2.3-5,3.4-8.4,3.4c-3.4,0-6.2-1.1-8.4-3.4c-2.2-2.2-3.3-5-3.3-8.3v-88.2
	c0-3.3,1.1-6,3.3-8.3c2.2-2.3,5-3.4,8.4-3.4c3.4,0,6.2,1.1,8.4,3.4c2.2,2.3,3.3,5,3.3,8.3v88.2C-265.1-682.8-266.2-680-268.4-677.8
	L-268.4-677.8z"/>
<path id="XMLID_482_" class="st10" d="M-191-742.2c-7.5-7.9-17-11.8-28.6-11.8c-11.6,0-21,3.9-28.4,11.6c-7.3,7.8-11,17.4-11,28.9
	c0,11.5,3.7,21.1,11,28.9c7.3,7.8,16.8,11.6,28.4,11.6c11.6,0,21.1-3.9,28.6-11.8c7.2-7.7,10.8-17.2,10.8-28.7
	C-180.2-725-183.8-734.6-191-742.2z M-207.9-699.9c-2.8,3.7-6.8,5.5-11.8,5.5c-5,0-8.9-1.8-11.8-5.5c-2.8-3.7-4.3-8.2-4.3-13.6
	c0-5.4,1.4-9.9,4.3-13.6c2.8-3.7,6.8-5.5,11.8-5.5c5,0,8.9,1.8,11.8,5.5c2.8,3.7,4.3,8.2,4.3,13.6
	C-203.6-708.1-205-703.6-207.9-699.9z"/>
<path id="XMLID_481_" class="st10" d="M-386.5-751.3c8.2-10.6,12.4-17.8,12.4-21.5c0-8.5-5.4-12.8-16.1-12.8H-447
	c-4.5,0-7.9,1.1-10.3,3.2c-2.4,2.1-3.7,4.8-3.7,8.2c0,3.4,1.2,6.1,3.7,8.2c2.4,2.1,5.9,3.2,10.3,3.2h38.9l-49.9,64.4
	c-3.3,4.2-4.9,7.9-4.9,11.2c0,9.4,6.2,14,18.6,14h58.5c9.3,0,14-3.9,14-11.8c0-7.8-4.7-11.8-14-11.8h-43L-386.5-751.3L-386.5-751.3z
	"/>
<path id="XMLID_480_" class="st8" d="M-105.3-763.1H-121v32.5h15.6c4.7,0,8.5-1.5,11.4-4.6c2.9-3.1,4.4-7,4.4-11.7
	c0-4.7-1.5-8.6-4.4-11.7C-96.8-761.6-100.6-763.1-105.3-763.1z"/>
<path id="XMLID_479_" class="st8" d="M-27.3-732.5c-5,0-8.9,1.8-11.7,5.5c-2.8,3.6-4.2,8.2-4.2,13.5c0,5.4,1.4,9.9,4.2,13.5
	c2.8,3.6,6.7,5.5,11.7,5.5c5,0,8.9-1.8,11.7-5.5c2.8-3.7,4.2-8.2,4.2-13.5c0-5.4-1.4-9.9-4.2-13.5
	C-18.4-730.7-22.3-732.5-27.3-732.5z"/>
<path id="XMLID_475_" class="st8" d="M83.3-809.6h-226.8c-7.6,0-13.7,6.1-13.7,13.7V-663c0,7.6,6.1,13.7,13.7,13.7H35.5
	c-1.9-1.8-2.8-3.9-2.8-6.3c0-2,0.4-4,1.3-6.2l8.4-18.8l-23.4-58.3c-0.7-1.7-1-3.5-1-5.4c0-2.5,1.1-4.7,3.2-6.5
	c2.2-1.8,4.4-2.6,6.8-2.6c5.2,0,8.7,2.5,10.6,7.5l14.5,39.8l15.6-39.8c2-5,5.5-7.5,10.6-7.5c2.4,0,4.6,0.9,6.8,2.6
	c2.2,1.8,3.2,3.9,3.2,6.5c0,2-0.3,3.8-1,5.4l-34.6,84c-0.9,2.3-2.1,4.2-3.4,5.6h33c7.6,0,13.7-6.1,13.7-13.7v-132.9
	C97-803.5,90.8-809.6,83.3-809.6z M-77-720.2c-7.2,6.5-16.2,9.8-27,9.8h-17v25.2c0,3.8-1.1,6.7-3.2,8.8c-2.1,2.1-4.9,3.1-8.3,3.1
	c-3.4,0-6.1-1-8.3-3.1c-2.1-2.1-3.2-5-3.2-8.8v-86.2c0-8,4-12,12-12h27.2c11.4,0,20.7,3.4,28.2,10.2c7.4,6.8,11.1,15.6,11.1,26.5
	C-65.6-735.8-69.4-726.9-77-720.2z M11.9-686.2c0,3.2-1.1,6-3.3,8.2c-2.2,2.2-5,3.4-8.3,3.4c-5,0-8.6-2.4-10.9-7.1
	c-4.9,5.7-11.5,8.6-20,8.6c-10.1,0-18.6-3.9-25.5-11.7c-6.9-7.8-10.3-17.3-10.3-28.6c0-11.2,3.4-20.8,10.3-28.6
	c6.9-7.8,15.4-11.7,25.5-11.7c8.4,0,15.1,2.9,20,8.6c2.3-4.8,5.9-7.1,10.9-7.1c3.4,0,6.2,1.1,8.3,3.4c2.2,2.2,3.3,5,3.3,8.2V-686.2z
	"/>
<g id="XMLID_419_" class="st3">
	<path id="XMLID_473_" class="st11" d="M-415.9-561.4l-4.2,0l4.6-23l-8.4,0l0.7-3.6l21,0l-0.7,3.6l-8.4,0L-415.9-561.4z"/>
	<path id="XMLID_471_" class="st11" d="M-404.3-561.4l5.6-27.8l4,0L-397-578h0.1c1.7-2.4,4.2-3.6,7.3-3.6c2.2,0,3.9,0.7,5,2
		c1.1,1.4,1.4,3.2,0.9,5.4l-2.6,12.8l-4,0l2.4-12c0.3-1.5,0.1-2.7-0.6-3.5c-0.7-0.8-1.8-1.3-3.2-1.3c-1.6,0-2.9,0.5-4.1,1.5
		c-1.2,1-1.9,2.3-2.2,3.9l-2.3,11.4L-404.3-561.4z"/>
	<path id="XMLID_468_" class="st11" d="M-376.2-561.2c-2,0-3.6-0.5-4.6-1.6c-1.1-1.1-1.4-2.5-1-4.3c0.3-1.7,1.3-3.1,2.8-4.1
		c1.5-1,3.6-1.6,6.1-1.7l5.5-0.3l0.3-1.5c0.2-1.1,0-2-0.6-2.6c-0.6-0.6-1.6-0.9-3-0.9c-1.1,0-2.1,0.3-2.9,0.8
		c-0.9,0.5-1.5,1.2-1.8,2.1l-3.8,0c0.4-1.8,1.5-3.2,3.3-4.4c1.8-1.2,3.8-1.7,6.1-1.7c2.5,0,4.3,0.6,5.6,1.8c1.2,1.2,1.7,2.8,1.3,4.7
		l-2.7,13.7l-3.9,0l0.7-3.3h-0.1c-0.8,1.1-1.8,1.9-3.1,2.6C-373.5-561.5-374.8-561.2-376.2-561.2z M-374.5-564.4
		c1.5,0,2.9-0.4,4-1.3c1.2-0.9,1.9-1.9,2.2-3.2l0.3-1.6l-5,0.3c-2.8,0.2-4.4,1.2-4.8,2.9c-0.2,0.9,0,1.5,0.6,2.1
		C-376.6-564.6-375.7-564.4-374.5-564.4z"/>
	<path id="XMLID_466_" class="st11" d="M-361.7-561.4l4-20l3.9,0l-0.7,3.4h0.1c1.7-2.4,4.2-3.6,7.3-3.6c2.2,0,3.9,0.7,4.9,2
		c1,1.3,1.3,3.1,0.8,5.4l-2.6,12.8l-4.1,0l2.4-12.1c0.3-1.5,0.1-2.7-0.5-3.5c-0.6-0.8-1.7-1.2-3.2-1.2c-1.5,0-2.9,0.5-4,1.4
		c-1.1,1-1.8,2.2-2.2,3.8l-2.3,11.5L-361.7-561.4z"/>
	<path id="XMLID_464_" class="st11" d="M-339.7-561.4l5.6-27.8l4,0l-2.2,11.1l0.1,0c1.7-2.4,4.2-3.6,7.3-3.6c2.2,0,3.9,0.7,5,2
		c1.1,1.4,1.4,3.2,0.9,5.4l-2.6,12.8l-4,0l2.4-12c0.3-1.5,0.1-2.7-0.6-3.5c-0.7-0.8-1.8-1.3-3.2-1.3c-1.6,0-2.9,0.5-4.1,1.5
		c-1.2,1-1.9,2.3-2.2,3.9l-2.3,11.4L-339.7-561.4z"/>
	<path id="XMLID_462_" class="st11" d="M-302.6-585.9l4,0l-0.9,4.5l3.9,0l-0.6,3.1l-3.9,0l-2.2,11.2c-0.2,0.9-0.1,1.5,0.2,1.9
		c0.3,0.4,0.9,0.6,1.8,0.6c0.5,0,1,0,1.4-0.1l-0.6,3.1c-0.6,0.1-1.3,0.2-2.3,0.2c-2,0-3.4-0.4-4.1-1.2c-0.7-0.8-0.8-2.2-0.5-4.1
		l2.3-11.6l-2.8,0l0.6-3.1l2.8,0L-302.6-585.9z"/>
	<path id="XMLID_459_" class="st11" d="M-280.4-563.9c-2.1,1.8-4.6,2.8-7.6,2.8c-2.9,0-5.1-0.9-6.5-2.8c-1.4-1.8-1.7-4.3-1.1-7.5
		c0.6-3.1,2-5.6,4.1-7.5c2.1-1.9,4.6-2.8,7.6-2.8c2.9,0,5.1,0.9,6.4,2.8c1.4,1.8,1.7,4.3,1.1,7.5
		C-276.9-568.2-278.3-565.7-280.4-563.9z M-290.9-566.3c0.7,1.2,2,1.8,3.7,1.8c1.7,0,3.2-0.6,4.4-1.8c1.2-1.2,2-2.9,2.5-5.1
		c0.4-2.2,0.3-3.9-0.4-5.1c-0.7-1.2-1.9-1.8-3.7-1.8c-1.7,0-3.2,0.6-4.4,1.8c-1.2,1.2-2,2.9-2.5,5.1
		C-291.8-569.2-291.7-567.5-290.9-566.3z"/>
	<path id="XMLID_455_" class="st11" d="M-269.1-561.2c-2,0-3.6-0.5-4.6-1.6c-1.1-1.1-1.4-2.5-1-4.3c0.3-1.7,1.3-3.1,2.8-4.1
		c1.5-1,3.6-1.6,6.1-1.7l5.5-0.3l0.3-1.5c0.2-1.1,0-2-0.6-2.6c-0.6-0.6-1.6-0.9-3-0.9c-1.1,0-2.1,0.3-2.9,0.8
		c-0.9,0.5-1.5,1.2-1.8,2.1l-3.8,0c0.4-1.8,1.5-3.2,3.3-4.4c1.8-1.2,3.8-1.7,6.1-1.7c2.5,0,4.3,0.6,5.6,1.8c1.2,1.2,1.7,2.8,1.3,4.7
		l-2.7,13.7l-3.9,0l0.7-3.3h-0.1c-0.8,1.1-1.8,1.9-3.1,2.6C-266.4-561.5-267.7-561.2-269.1-561.2z M-267.4-564.4
		c1.5,0,2.9-0.4,4-1.3c1.2-0.9,1.9-1.9,2.2-3.2l0.3-1.6l-5,0.3c-2.8,0.2-4.4,1.2-4.8,2.9c-0.2,0.9,0,1.5,0.6,2.1
		C-269.4-564.6-268.6-564.4-267.4-564.4z M-260.7-584.5l-3.3,0l5.1-5.6l4.2,0L-260.7-584.5z"/>
	<path id="XMLID_453_" class="st11" d="M-254.6-561.4l4-20l3.9,0l-0.7,3.4h0.1c1.7-2.4,4.2-3.6,7.3-3.6c2.2,0,3.9,0.7,4.9,2
		c1,1.3,1.3,3.1,0.8,5.4l-2.6,12.8l-4.1,0l2.4-12.1c0.3-1.5,0.1-2.7-0.5-3.5c-0.6-0.8-1.7-1.2-3.2-1.2c-1.5,0-2.9,0.5-4,1.4
		c-1.1,1-1.8,2.2-2.2,3.8l-2.3,11.5L-254.6-561.4z"/>
	<path id="XMLID_451_" class="st11" d="M-217.8-585.8l4,0l-0.9,4.5l3.9,0l-0.6,3.1l-3.9,0l-2.2,11.2c-0.2,0.9-0.1,1.5,0.2,1.9
		c0.3,0.4,0.9,0.6,1.8,0.6c0.5,0,1,0,1.4-0.1l-0.6,3.1c-0.6,0.1-1.4,0.2-2.3,0.2c-2,0-3.4-0.4-4.1-1.2c-0.7-0.8-0.8-2.2-0.5-4.1
		l2.3-11.6l-2.8,0l0.6-3.1l2.8,0L-217.8-585.8z"/>
	<path id="XMLID_441_" class="st11" d="M-211.4-561.4l4-20l3.9,0l-0.7,3.4l0.1,0c0.5-1.1,1.3-2,2.3-2.6c1-0.6,2.1-0.9,3.3-0.9
		c0.6,0,1,0,1.3,0.1l-0.7,3.7c-0.4-0.2-1-0.3-1.7-0.3c-1.3,0-2.5,0.4-3.4,1.3c-1,0.8-1.6,2-1.9,3.4l-2.4,11.9L-211.4-561.4z"/>
	<path id="XMLID_438_" class="st11" d="M-183.1-563.9c-2.1,1.8-4.6,2.8-7.6,2.8c-2.9,0-5.1-0.9-6.5-2.8c-1.4-1.8-1.7-4.3-1.1-7.5
		c0.6-3.1,2-5.6,4.1-7.5c2.1-1.9,4.6-2.8,7.6-2.8c2.9,0,5.1,0.9,6.4,2.8c1.4,1.8,1.7,4.3,1.1,7.5
		C-179.7-568.2-181-565.7-183.1-563.9z M-193.7-566.3c0.7,1.2,2,1.8,3.7,1.8c1.7,0,3.2-0.6,4.4-1.8c1.2-1.2,2-2.9,2.5-5.1
		c0.4-2.2,0.3-3.9-0.4-5.1c-0.7-1.2-1.9-1.8-3.7-1.8c-1.7,0-3.2,0.6-4.4,1.8c-1.2,1.2-2,2.9-2.5,5.1
		C-194.6-569.2-194.4-567.5-193.7-566.3z"/>
	<path id="XMLID_436_" class="st11" d="M-177.8-561.3l4-20l3.9,0l-0.7,3.4h0.1c1.7-2.4,4.2-3.6,7.3-3.6c2.2,0,3.9,0.7,4.9,2
		c1,1.3,1.3,3.1,0.8,5.4l-2.6,12.8l-4.1,0l2.4-12.1c0.3-1.5,0.1-2.7-0.5-3.5c-0.6-0.8-1.7-1.2-3.2-1.2c-1.5,0-2.9,0.5-4,1.4
		c-1.1,1-1.8,2.2-2.2,3.8l-2.3,11.5L-177.8-561.3z"/>
	<path id="XMLID_433_" class="st11" d="M-148.7-554.1c-2.4,0-4.4-0.5-5.8-1.5c-1.4-1-2-2.4-1.9-4.1l4.1,0c0.1,0.8,0.5,1.4,1.3,1.8
		c0.8,0.5,1.8,0.7,3,0.7c1.6,0,3-0.4,4.1-1.2c1.1-0.8,1.8-1.8,2.1-3.1l0.7-3.3h-0.1c-0.8,1.1-1.8,1.9-3.1,2.5
		c-1.3,0.6-2.6,0.9-4,0.9c-2.5,0-4.4-0.9-5.6-2.7c-1.2-1.8-1.5-4.2-0.9-7.3c0.6-3.1,1.9-5.5,3.8-7.4c1.9-1.8,4.2-2.8,6.8-2.7
		c1.4,0,2.7,0.3,3.7,0.9c1,0.6,1.7,1.5,2.1,2.6l0.1,0l0.7-3.3l3.9,0l-3.9,19.5c-0.5,2.4-1.7,4.3-3.7,5.6
		C-143.3-554.8-145.8-554.1-148.7-554.1z M-146.6-564.7c1.6,0,3.1-0.6,4.3-1.8c1.2-1.2,2.1-2.8,2.5-4.8c0.4-2,0.2-3.7-0.5-4.9
		c-0.8-1.2-2-1.9-3.6-1.9c-1.6,0-3.1,0.6-4.3,1.8c-1.2,1.2-2,2.9-2.5,4.9c-0.4,2-0.2,3.7,0.5,4.9
		C-149.5-565.3-148.3-564.7-146.6-564.7z"/>
	<path id="XMLID_429_" class="st11" d="M-63.5-554.1c-2.4,0-4.4-0.5-5.8-1.5c-1.4-1-2-2.4-1.9-4.1l4.1,0c0.1,0.8,0.5,1.4,1.3,1.8
		c0.8,0.5,1.8,0.7,3,0.7c1.6,0,3-0.4,4.1-1.2c1.1-0.8,1.8-1.8,2.1-3.1l0.7-3.3h-0.1c-0.8,1.1-1.8,1.9-3.1,2.5
		c-1.3,0.6-2.6,0.9-4,0.9c-2.5,0-4.4-0.9-5.6-2.7c-1.2-1.8-1.5-4.2-0.9-7.3c0.6-3.1,1.9-5.5,3.8-7.4c1.9-1.8,4.2-2.8,6.8-2.7
		c1.4,0,2.7,0.3,3.7,0.9c1,0.6,1.7,1.5,2.1,2.6h0.1l0.7-3.3l3.9,0l-3.9,19.5c-0.5,2.4-1.7,4.3-3.7,5.6
		C-58.1-554.8-60.5-554.1-63.5-554.1z M-61.4-564.7c1.6,0,3.1-0.6,4.3-1.8c1.2-1.2,2.1-2.8,2.5-4.8c0.4-2,0.2-3.7-0.5-4.9
		c-0.8-1.2-2-1.9-3.6-1.9c-1.6,0-3.1,0.6-4.3,1.8c-1.2,1.2-2,2.9-2.5,4.9c-0.4,2-0.2,3.7,0.5,4.9C-64.2-565.3-63-564.7-61.4-564.7z"
		/>
	<path id="XMLID_426_" class="st11" d="M-39.8-584.8c-0.6,0.4-1.2,0.7-1.8,0.7c-0.7,0-1.2-0.2-1.5-0.7c-0.4-0.4-0.5-1-0.4-1.6
		c0.1-0.6,0.5-1.2,1-1.6c0.5-0.4,1.2-0.7,1.8-0.7c0.7,0,1.2,0.2,1.6,0.7c0.4,0.4,0.5,1,0.4,1.6C-38.9-585.8-39.2-585.3-39.8-584.8z
		 M-48.2-561.3l4-20l4.1,0l-4,20L-48.2-561.3z"/>
	<path id="XMLID_422_" class="st11" d="M-33.9-561.1c-2,0-3.6-0.5-4.6-1.6c-1.1-1.1-1.4-2.5-1-4.3c0.3-1.7,1.3-3.1,2.8-4.1
		c1.5-1,3.6-1.6,6.1-1.7l5.5-0.3l0.3-1.5c0.2-1.1,0-2-0.6-2.6c-0.6-0.6-1.6-0.9-3-0.9c-1.1,0-2.1,0.3-2.9,0.8
		c-0.9,0.5-1.5,1.2-1.8,2.1l-3.8,0c0.4-1.8,1.5-3.2,3.3-4.4c1.8-1.2,3.8-1.7,6.1-1.7c2.5,0,4.3,0.6,5.6,1.8c1.2,1.2,1.7,2.8,1.3,4.7
		l-2.7,13.7l-3.9,0l0.7-3.3h-0.1c-0.8,1.1-1.8,1.9-3.1,2.6C-31.2-561.4-32.5-561.1-33.9-561.1z M-24.5-590l4,5.7l-3.5,0l-2.4-3.6
		h-0.1l-3.8,3.6l-3.5,0l6.2-5.6L-24.5-590z M-32.2-564.3c1.5,0,2.9-0.4,4-1.3c1.2-0.9,1.9-1.9,2.2-3.2l0.3-1.6l-5,0.3
		c-2.8,0.2-4.4,1.2-4.8,2.9c-0.2,0.9,0,1.5,0.6,2.1C-34.3-564.5-33.4-564.3-32.2-564.3z"/>
	<path id="XMLID_420_" class="st11" d="M-18.8-554c-0.7,0-1.2,0-1.6-0.1l0.6-3.2c0.2,0.1,0.7,0.1,1.3,0.1c1,0,1.8-0.2,2.4-0.7
		c0.7-0.4,1.3-1.2,1.8-2.3l0.5-1l-3.4-20l4.4,0l1.9,16.3l0.1,0l8.5-16.3l4.3,0l-11.8,20.9c-1.4,2.4-2.7,4-4,5
		C-15.1-554.5-16.8-554-18.8-554z"/>
</g>
<g id="XMLID_416_" class="st3">
	<path id="XMLID_417_" class="st11" d="M-113-590c0.8-3.9,2.8-7.1,6.2-9.5c3.3-2.5,7.3-3.7,11.8-3.7c4.4,0,7.7,1.1,10,3.3
		c2.3,2.2,3.1,5.1,2.4,8.5c-0.2,1.2-0.7,2.4-1.3,3.6c-0.6,1.1-1.4,2.3-2.5,3.4c-1,1.1-2.1,2.2-3.1,3.1c-1,0.9-2.3,2-3.9,3.3
		l-12.1,9.6l0,0.2l18.8,0l-1.4,6.8l-30.3,0l1.2-5.8l18.7-14.9c2.5-2.1,4.3-3.8,5.3-5c1-1.3,1.7-2.6,2-4c0.3-1.6-0.1-2.9-1.1-3.9
		c-1-1.1-2.5-1.6-4.4-1.6c-2,0-3.8,0.6-5.4,1.9c-1.6,1.2-2.6,2.8-2.9,4.7l0,0.1l-8.1,0L-113-590z"/>
</g>
<g id="XMLID_413_" class="st3">
	<path id="XMLID_414_" class="st11" d="M-110-590c0.8-3.9,2.8-7.1,6.2-9.5c3.3-2.5,7.3-3.7,11.8-3.7c4.4,0,7.7,1.1,10,3.3
		c2.3,2.2,3.1,5.1,2.4,8.5c-0.2,1.2-0.7,2.4-1.3,3.6c-0.6,1.1-1.4,2.3-2.5,3.4c-1,1.1-2.1,2.2-3.1,3.1c-1,0.9-2.3,2-3.9,3.3
		l-12.1,9.6l0,0.2l18.8,0l-1.4,6.8l-30.3,0l1.2-5.8l18.7-14.9c2.5-2.1,4.3-3.8,5.3-5c1-1.3,1.7-2.6,2-4c0.3-1.6-0.1-2.9-1.1-3.9
		c-1-1.1-2.6-1-4.4-1.6c-9-3.1-16.4,6.7-16.4,6.7L-110-590z"/>
</g>
<g id="XMLID_410_" class="st3">
	<path id="XMLID_411_" class="st11" d="M-121-590c0.8-3.9,2.9-6.9,6.2-9.5c4.7-3.7,14.2-6.5,23.8-3.1c4.1,1.5-4.3,0.5-2,2.7
		c2.3,2.2,3.1,5.1,2.4,8.5c-0.2,1.2-0.7,2.4-1.3,3.6c-0.6,1.1-1.4,2.3-2.5,3.4c-1,1.1-2.1,2.2-3.1,3.1c-1,0.9-2.3,2-3.9,3.3
		l-12.1,9.6l0,0.2l18.8,0l-1.4,6.8l-30.3,0l1.2-5.8l18.7-14.9c2.5-2.1,4.3-3.8,5.3-5c1-1.3,1.7-2.6,2-4c0.3-1.6-0.1-2.9-1.1-3.9
		c-1-1.1-2.5-1.6-4.4-1.6c-2,0-3.8,0.6-5.4,1.9c-1.6,1.2-2.6,2.8-2.9,4.7l0,0.1l-8.1,0L-121-590z"/>
</g>
<g id="XMLID_397_" class="st3">
	<path id="XMLID_398_" class="st11" d="M-123-590c0.8-3.9,2.9-6.9,6.2-9.5c4.7-3.7,14.2-6.5,23.8-3.1c4.1,1.5-4.3,0.5-2,2.7
		c2.3,2.2,3.1,5.1,2.4,8.5c-0.2,1.2-0.7,2.4-1.3,3.6c-0.6,1.1-1.4,2.3-2.5,3.4c-1,1.1-2.1,2.2-3.1,3.1c-1,0.9-2.3,2-3.9,3.3
		l-12.1,9.6l0,0.2l18.8,0l-1.4,6.8l-30.3,0l1.2-5.8l18.7-14.9c2.5-2.1,4.3-3.8,5.3-5c1-1.3,1.7-2.6,2-4c0.3-1.6-0.1-2.9-1.1-3.9
		c-1-1.1-2.5-1.6-4.4-1.6c-2,0-3.8,0.6-5.4,1.9c-1.6,1.2-2.6,2.8-2.9,4.7l0,0.1l-8.1,0L-123-590z"/>
</g>
<g id="XMLID_377_" class="st3">
	<g id="XMLID_380_" class="st4">
		<path id="XMLID_381_" class="st12" d="M-116.6-594.2h-11l-3,3.5h11.8l3.9-1.5l7.5-0.3l-7.3-1.1L-116.6-594.2z M-109.3-600.6
			l15.2-0.7l-14.9-0.7l-1.9-0.7h-11l-3,3.5h11.8L-109.3-600.6z M-112.1-596.4l23.2-0.7l-23-0.7l-1.9-0.7h-11l-3,3.5h11.8
			L-112.1-596.4z"/>
	</g>
</g>
<g id="XMLID_161_" class="st3">
	<g id="XMLID_173_" class="st4">
		<path id="XMLID_194_" class="st12" d="M-92.9-593l10.3-0.7l-10.1-0.7l-1.9-0.7c0,0-3.2-1-6.8,0c-0.3,0.1-0.6,0.3-1,0.7
			c-0.4,0.4-0.7,2.9-0.7,2.9h6.2L-92.9-593z M-94.5-590.9h-8.2l-3,3.5h9l3.9-1.5l10.3-0.7l-10.1-0.7L-94.5-590.9z M-98-586.7h-11
			l-3,3.5h11.8l3.9-1.5l10.3-0.7l-10.1-0.7L-98-586.7z M-101.3-580.4l13.1-0.7l-12.9-0.7l-1.9-0.7h-11l-3,3.5h11.8L-101.3-580.4z
			 M-105.5-576.2l11.7-0.7l-11.5-0.7l-1.9-0.7h-11l-3,3.5h11.8L-105.5-576.2z M-111.1-572l11-0.7l-10.8-0.7l-1.9-0.7h-11l-3,3.5
			h11.8L-111.1-572z M-117-569.8h-11l-3,3.5h11.8l3.9-1.5l29.3-0.7l-29.1-0.7L-117-569.8z M-119.8-565.6h-11l-3,3.5h11.8l3.9-1.5
			l31.4-0.7l-31.2-0.7L-119.8-565.6z"/>
	</g>
</g>
<g>
	<path class="st0" d="M418,945.7l266.7-39c-14.9-12.9-34.3-20.7-55.5-20.7H435c-46.9,0-84.8,38-84.8,84.8V1165
		c0,42.1,30.7,77.1,70.9,83.7L385.9,989C382.9,968.2,397.5,948.7,418,945.7z"/>
	<path class="st12" d="M684.7,906.7l-266.7,39c-20.5,3-35.1,22.5-32.1,43.3l35.2,259.7c4.5,0.7,9.2,1.2,13.9,1.2h194.2
		c46.9,0,84.8-38,84.8-84.8V970.8C714,945.2,702.7,922.3,684.7,906.7z"/>
	<path class="st13" d="M684.7,906.7l-0.9,0.2c18.3,16,29.3,39.6,29.3,63.9v193.9c0,46.4-37.8,84.2-84.2,84.2H434.9
		c-4.4,0-9.5-0.5-14-1.2l0.1,1c4.7,0.8,9.2,1.2,13.8,1.2h193.9c47,0,85.2-38.2,85.2-85.2V970.8C714,946,703.4,922.9,684.7,906.7z"/>
	<g id="XMLID_85_">
		<g id="XMLID_107_">
			<path id="XMLID_111_" class="st0" d="M576.8,1006.8c-1.7-1.7-3.6-2.6-6.3-2.6c-3.6,0-6.3,1.7-7.9,5.3c-3.6-4.3-8.6-6.3-14.9-6.3
				c-7.6,0-13.9,3-19.2,8.6c-5.3,6-7.6,12.9-7.6,21.2s2.6,15.5,7.6,21.2c5.3,6,11.6,8.6,19.2,8.6c6.3,0,11.2-2,14.9-6.3
				c1.7,3.6,4.3,5.3,7.9,5.3c2.6,0,4.6-1,6.3-2.6s2.3-3.6,2.3-6.3v-40.7C579.4,1010.8,578.4,1008.5,576.8,1006.8z M558.9,1043.5
				c-2,2.6-5,4-8.6,4c-3.6,0-6.6-1.3-8.6-4c-2-2.6-3.3-6-3.3-10.3c0-4,1-7.3,3.3-9.9c2-2.6,5-4,8.6-4c3.6,0,6.6,1.3,8.6,4
				c2,2.6,3.3,6,3.3,9.9C561.9,1037.2,560.9,1040.9,558.9,1043.5z"/>
			<path id="XMLID_110_" class="st0" d="M598.9,1059.7c-1.7,1.7-3.6,2.6-6.3,2.6c-2.6,0-4.6-1-6.3-2.6c-1.7-1.7-2.3-3.6-2.3-6.3
				v-72.8c0-2.3,0.7-4.3,2.3-6.3c1.7-1.7,3.6-2.6,6.3-2.6c2.6,0,4.6,1,6.3,2.6c1.7,1.7,2.3,3.6,2.3,6.3v72.8
				C601.2,1056.1,600.6,1058.1,598.9,1059.7L598.9,1059.7z"/>
			<path id="XMLID_109_" class="st0" d="M656.1,1012.1c-5.6-6-12.6-8.6-21.2-8.6c-8.6,0-15.5,3-21.2,8.6c-5.3,5.6-8.3,12.9-8.3,21.5
				c0,8.6,2.6,15.5,8.3,21.5c5.3,5.6,12.6,8.6,21.2,8.6c8.6,0,15.5-3,21.2-8.6c5.3-5.6,7.9-12.9,7.9-21.2
				C664.4,1025,661.8,1017.7,656.1,1012.1z M643.9,1043.5c-2,2.6-5,4-8.6,4c-3.6,0-6.6-1.3-8.6-4c-2-2.6-3.3-6-3.3-10.3
				c0-4,1-7.3,3.3-9.9c2-2.6,5-4,8.6-4c3.6,0,6.6,1.3,8.6,4c2,2.6,3.3,6,3.3,9.9C646.9,1037.2,645.9,1040.9,643.9,1043.5z"/>
			<path id="XMLID_108_" class="st0" d="M511.3,1005.5c6-7.9,9.3-13.2,9.3-15.9c0-6.3-4-9.6-11.9-9.6h-42c-3.3,0-6,0.7-7.6,2.3
				c-1.7,1.7-2.6,3.6-2.6,6c0,2.6,1,4.6,2.6,6c1.7,1.7,4.3,2.3,7.6,2.3h28.8l-37,47.6c-2.3,3-3.6,6-3.6,8.3
				c0,6.9,4.6,10.3,13.9,10.3h43.3c6.9,0,10.3-3,10.3-8.6c0-6-3.3-8.6-10.3-8.6h-31.8L511.3,1005.5L511.3,1005.5z"/>
		</g>
		<g id="XMLID_86_">
			<path id="XMLID_106_" class="st2" d="M490.7,1108.4h-10.9v22.5h10.9c3.3,0,6-1,7.9-3.3c2-2,3-5,3-7.9c0-3.3-1-6-3-7.9
				C496.7,1109.4,494.1,1108.4,490.7,1108.4z"/>
			<path id="XMLID_88_" class="st2" d="M544.7,1129.2c-3.3,0-6,1.3-7.9,3.6c-2,2.6-3,5.6-3,9.3s1,6.9,3,9.3c2,2.6,4.6,3.6,7.9,3.6
				c3.3,0,6-1.3,7.9-3.6c2-2.6,3-5.6,3-9.3c0-3.6-1-6.9-3-9.3C550.6,1130.5,548,1129.2,544.7,1129.2z"/>
			<path id="XMLID_87_" class="st2" d="M620.8,1076.3H464.3c-5.3,0-9.6,4.3-9.6,9.6v91.6c0,5.3,4.3,9.6,9.6,9.6h123.4
				c-1.3-1.3-2-2.6-2-4.3c0-1.3,0.3-2.6,1-4.3l6-12.9l-16.2-40.4c-0.3-1-0.7-2.3-0.7-3.6c0-1.7,0.7-3.3,2.3-4.3c1.3-1.3,3-2,4.6-2
				c3.6,0,6,1.7,7.3,5.3l9.9,27.5l10.6-27.5c1.3-3.3,3.6-5.3,7.3-5.3c1.7,0,3.3,0.7,4.6,2c1.3,1.3,2.3,2.6,2.3,4.3
				c0,1.3-0.3,2.6-0.7,3.6l-23.8,57.9c-0.7,1.7-1.3,3-2.3,4h22.8c5.3,0,9.6-4.3,9.6-9.6v-91.6C630.3,1080.3,626,1076.3,620.8,1076.3
				z M510.3,1137.8c-5,4.6-11.2,6.6-18.5,6.6h-11.9v17.2c0,2.6-0.7,4.6-2.3,6c-1.3,1.3-3.3,2.3-5.6,2.3c-2.3,0-4.3-0.7-5.6-2.3
				c-1.3-1.3-2.3-3.6-2.3-6v-59.5c0-5.6,2.6-8.3,8.3-8.3h18.9c7.9,0,14.2,2.3,19.5,6.9c5,4.6,7.6,10.9,7.6,18.2
				C518.2,1127.2,515.6,1133.2,510.3,1137.8z M571.5,1161.3c0,2.3-0.7,4-2.3,5.6c-1.7,1.7-3.3,2.3-5.6,2.3c-3.3,0-6-1.7-7.6-5
				c-3.3,4-7.9,6-13.9,6c-6.9,0-12.9-2.6-17.5-7.9c-4.6-5.3-7.3-11.9-7.3-19.8c0-7.9,2.3-14.2,7.3-19.8c4.6-5.3,10.6-7.9,17.5-7.9
				c6,0,10.3,2,13.9,6c1.7-3.3,4-5,7.6-5c2.3,0,4.3,0.7,5.6,2.3c1.7,1.7,2.3,3.3,2.3,5.6V1161.3z"/>
		</g>
	</g>
</g>
<g>
	<path class="st0" d="M418,1667.3l266.7-39c-14.9-12.9-34.3-20.7-55.5-20.7H435c-46.9,0-84.8,38-84.8,84.8v194.2
		c0,42.1,30.7,77.1,70.9,83.7l-35.2-259.7C382.9,1689.7,397.5,1670.2,418,1667.3z"/>
	<path class="st12" d="M684.7,1628.3l-266.7,39c-20.5,3-35.1,22.5-32.1,43.3l35.2,259.7c4.5,0.7,9.2,1.2,13.9,1.2h194.2
		c46.9,0,84.8-38,84.8-84.8v-194.2C714,1666.8,702.7,1643.8,684.7,1628.3z"/>
	<g id="XMLID_112_">
		<g id="XMLID_118_">
			<path id="XMLID_122_" class="st0" d="M576.8,1728.4c-1.7-1.7-3.6-2.6-6.3-2.6c-3.6,0-6.3,1.7-7.9,5.3c-3.6-4.3-8.6-6.3-14.9-6.3
				c-7.6,0-13.9,3-19.2,8.6c-5.3,6-7.6,12.9-7.6,21.2s2.6,15.5,7.6,21.2c5.3,6,11.6,8.6,19.2,8.6c6.3,0,11.2-2,14.9-6.3
				c1.7,3.6,4.3,5.3,7.9,5.3c2.6,0,4.6-1,6.3-2.6c1.7-1.7,2.3-3.6,2.3-6.3v-40.7C579.4,1732.3,578.4,1730,576.8,1728.4z
				 M558.9,1765.1c-2,2.6-5,4-8.6,4c-3.6,0-6.6-1.3-8.6-4c-2-2.6-3.3-6-3.3-10.3c0-4,1-7.3,3.3-9.9c2-2.6,5-4,8.6-4
				c3.6,0,6.6,1.3,8.6,4c2,2.6,3.3,6,3.3,9.9C561.9,1758.8,560.9,1762.4,558.9,1765.1z"/>
			<path id="XMLID_121_" class="st0" d="M598.9,1781.3c-1.7,1.7-3.6,2.6-6.3,2.6c-2.6,0-4.6-1-6.3-2.6c-1.7-1.7-2.3-3.6-2.3-6.3
				v-72.8c0-2.3,0.7-4.3,2.3-6.3c1.7-1.7,3.6-2.6,6.3-2.6c2.6,0,4.6,1,6.3,2.6c1.7,1.7,2.3,3.6,2.3,6.3v72.8
				C601.2,1777.6,600.6,1779.6,598.9,1781.3L598.9,1781.3z"/>
			<path id="XMLID_120_" class="st0" d="M656.1,1733.7c-5.6-6-12.6-8.6-21.2-8.6c-8.6,0-15.5,3-21.2,8.6c-5.3,5.6-8.3,12.9-8.3,21.5
				c0,8.6,2.6,15.5,8.3,21.5c5.3,5.6,12.6,8.6,21.2,8.6c8.6,0,15.5-3,21.2-8.6c5.3-5.6,7.9-12.9,7.9-21.2
				C664.4,1746.6,661.8,1739.3,656.1,1733.7z M643.9,1765.1c-2,2.6-5,4-8.6,4c-3.6,0-6.6-1.3-8.6-4c-2-2.6-3.3-6-3.3-10.3
				c0-4,1-7.3,3.3-9.9c2-2.6,5-4,8.6-4c3.6,0,6.6,1.3,8.6,4c2,2.6,3.3,6,3.3,9.9C646.9,1758.8,645.9,1762.4,643.9,1765.1z"/>
			<path id="XMLID_119_" class="st0" d="M511.3,1727c6-7.9,9.3-13.2,9.3-15.9c0-6.3-4-9.6-11.9-9.6h-42c-3.3,0-6,0.7-7.6,2.3
				c-1.7,1.7-2.6,3.6-2.6,6c0,2.6,1,4.6,2.6,6c1.7,1.7,4.3,2.3,7.6,2.3h28.8l-37,47.6c-2.3,3-3.6,6-3.6,8.3
				c0,6.9,4.6,10.3,13.9,10.3h43.3c6.9,0,10.3-3,10.3-8.6c0-6-3.3-8.6-10.3-8.6h-31.8L511.3,1727L511.3,1727z"/>
		</g>
		<g id="XMLID_113_">
			<path id="XMLID_117_" class="st2" d="M490.7,1829.9h-10.9v22.5h10.9c3.3,0,6-1,7.9-3.3c2-2,3-5,3-7.9c0-3.3-1-6-3-7.9
				C496.7,1830.9,494.1,1829.9,490.7,1829.9z"/>
			<path id="XMLID_116_" class="st2" d="M544.7,1850.8c-3.3,0-6,1.3-7.9,3.6c-2,2.6-3,5.6-3,9.3s1,6.9,3,9.3c2,2.6,4.6,3.6,7.9,3.6
				c3.3,0,6-1.3,7.9-3.6c2-2.6,3-5.6,3-9.3c0-3.6-1-6.9-3-9.3C550.6,1852.1,548,1850.8,544.7,1850.8z"/>
			<path id="XMLID_114_" class="st2" d="M620.8,1797.8H464.3c-5.3,0-9.6,4.3-9.6,9.6v91.6c0,5.3,4.3,9.6,9.6,9.6h123.4
				c-1.3-1.3-2-2.6-2-4.3c0-1.3,0.3-2.6,1-4.3l6-12.9l-16.2-40.4c-0.3-1-0.7-2.3-0.7-3.6c0-1.7,0.7-3.3,2.3-4.3c1.3-1.3,3-2,4.6-2
				c3.6,0,6,1.7,7.3,5.3l9.9,27.5l10.6-27.5c1.3-3.3,3.6-5.3,7.3-5.3c1.7,0,3.3,0.7,4.6,2c1.3,1.3,2.3,2.6,2.3,4.3
				c0,1.3-0.3,2.6-0.7,3.6l-23.8,57.9c-0.7,1.7-1.3,3-2.3,4h22.8c5.3,0,9.6-4.3,9.6-9.6v-91.6C630.3,1801.8,626,1797.8,620.8,1797.8
				z M510.3,1859.4c-5,4.6-11.2,6.6-18.5,6.6h-11.9v17.2c0,2.6-0.7,4.6-2.3,6c-1.3,1.3-3.3,2.3-5.6,2.3c-2.3,0-4.3-0.7-5.6-2.3
				c-1.3-1.3-2.3-3.6-2.3-6v-59.5c0-5.6,2.6-8.3,8.3-8.3h18.9c7.9,0,14.2,2.3,19.5,6.9c5,4.6,7.6,10.9,7.6,18.2
				C518.2,1848.8,515.6,1854.7,510.3,1859.4z M571.5,1882.8c0,2.3-0.7,4-2.3,5.6c-1.7,1.7-3.3,2.3-5.6,2.3c-3.3,0-6-1.7-7.6-5
				c-3.3,4-7.9,6-13.9,6c-6.9,0-12.9-2.6-17.5-7.9c-4.6-5.3-7.3-11.9-7.3-19.8s2.3-14.2,7.3-19.8c4.6-5.3,10.6-7.9,17.5-7.9
				c6,0,10.3,2,13.9,6c1.7-3.3,4-5,7.6-5c2.3,0,4.3,0.7,5.6,2.3c1.7,1.7,2.3,3.3,2.3,5.6V1882.8z"/>
		</g>
	</g>
	<path class="st12" d="M420.9,1969.3c-19.2-3.3-36.7-13.3-49.5-28.2c-13-15.2-20.2-34.6-20.2-54.7v-193.7
		c0-46.4,37.7-84.1,84.1-84.1h193.7c19.9,0,39.1,7,54.2,19.8l-0.6,0.1l2.6,0.6l0.3,0l-0.8-0.7c-15.5-13.4-35.3-20.8-55.7-20.8H435.3
		c-46.9,0-85.1,38.2-85.1,85.1v193.7c0,20.3,7.3,40,20.5,55.3c13,15.2,31.1,25.4,50.7,28.6l0.7,0.1l-0.2-1.5l-1.1-0.7L420.9,1969.3z
		"/>
</g>
<g id="XMLID_1772_">
	<g id="XMLID_5594_">
		<g id="XMLID_5602_">
			<path id="XMLID_5609_" class="st0" d="M382.5-452.9c-3.2-3.2-7.2-4.8-12.1-4.8c-7.2,0-12.4,3.4-15.7,10.3
				c-7-8.3-16.6-12.4-28.8-12.4c-14.6,0-26.9,5.6-36.9,16.9c-10,11.3-14.9,25.1-14.9,41.3s5,30,14.9,41.3
				c10,11.3,22.3,16.9,36.9,16.9c12.2,0,21.8-4.1,28.8-12.4c3.3,6.9,8.5,10.3,15.7,10.3c4.9,0,8.9-1.6,12.1-4.9
				c3.2-3.2,4.7-7.2,4.7-11.9v-78.9C387.3-445.7,385.7-449.7,382.5-452.9z M347.6-382.1c-4.1,5.3-9.7,7.9-16.9,7.9
				c-7.2,0-12.8-2.6-16.9-7.9c-4.1-5.3-6.1-11.8-6.1-19.6c0-7.8,2-14.3,6.1-19.6c4.1-5.3,9.7-7.9,16.9-7.9c7.2,0,12.8,2.6,16.9,7.9
				c4.1,5.3,6.1,11.8,6.1,19.6C353.7-393.8,351.6-387.3,347.6-382.1z"/>
			<path id="XMLID_5608_" class="st0" d="M425.3-347.9c-3.2,3.2-7.2,4.9-12,4.9c-4.9,0-8.9-1.6-12.1-4.9c-3.2-3.2-4.7-7.2-4.7-11.9
				V-505c0-4.7,1.6-8.6,4.7-11.9c3.2-3.2,7.2-4.8,12.1-4.8c4.9,0,8.9,1.6,12,4.8c3.2,3.2,4.7,7.2,4.7,11.9v145.2
				C430-355.1,428.4-351.2,425.3-347.9L425.3-347.9z"/>
			<path id="XMLID_5605_" class="st0" d="M536.4-442.9c-10.8-11.3-24.5-16.9-41.1-16.9c-16.6,0-30.2,5.6-40.8,16.7
				c-10.5,11.1-15.8,25-15.8,41.5c0,16.5,5.3,30.4,15.8,41.5c10.5,11.2,24.1,16.7,40.8,16.7c16.6,0,30.3-5.6,41.1-16.9
				c10.3-11,15.5-24.8,15.5-41.3C551.9-418.1,546.8-431.9,536.4-442.9z M512.2-382.1c-4.1,5.3-9.7,7.9-16.9,7.9
				c-7.2,0-12.8-2.6-16.9-7.9c-4.1-5.3-6.1-11.8-6.1-19.6c0-7.8,2-14.3,6.1-19.6c4.1-5.3,9.7-7.9,16.9-7.9c7.2,0,12.8,2.6,16.9,7.9
				c4.1,5.3,6.1,11.8,6.1,19.6C518.4-393.8,516.3-387.3,512.2-382.1z"/>
			<path id="XMLID_5603_" class="st0" d="M255.5-455.9c11.9-15.3,17.8-25.6,17.8-30.9c0-12.3-7.7-18.4-23.2-18.4h-81.5
				c-6.4,0-11.4,1.5-14.9,4.5c-3.5,3-5.3,7-5.3,11.8c0,4.8,1.8,8.8,5.3,11.8c3.5,3,8.5,4.5,14.9,4.5h56L153-380
				c-4.7,6.1-7,11.4-7,16.1c0,13.5,8.9,20.2,26.7,20.2h84c13.4,0,20.1-5.6,20.1-16.9c0-11.3-6.7-16.9-20.1-16.9h-61.8L255.5-455.9
				L255.5-455.9z"/>
		</g>
		<g id="XMLID_5595_">
			<path id="XMLID_5601_" class="st1" d="M639.3-472.1h-22.1v45.9h22.1c6.6,0,12-2.2,16.1-6.5c4.1-4.3,6.2-9.8,6.2-16.5
				c0-6.6-2.1-12.1-6.2-16.5C651.3-469.9,646-472.1,639.3-472.1z"/>
			<path id="XMLID_5600_" class="st1" d="M749.5-427.1c-7,0-12.5,2.6-16.5,7.7c-4,5.2-6,11.5-6,19.1c0,7.6,2,14,6,19.1
				c4,5.1,9.5,7.7,16.5,7.7c7,0,12.5-2.6,16.5-7.7c4-5.2,6-11.5,6-19.1c0-7.6-2-14-6-19.1C762.1-424.6,756.5-427.1,749.5-427.1z"/>
			<path id="XMLID_5596_" class="st1" d="M906.4-537.7H587.7c-10.7,0-19.3,8.7-19.3,19.3v187.7c0,10.7,8.7,19.3,19.3,19.3h250.5
				c-2.7-2.5-4-5.5-4-8.9c0-2.8,0.6-5.7,1.9-8.7l11.9-26.5l-33-82.3c-1-2.3-1.5-4.9-1.5-7.7c0-3.6,1.5-6.6,4.6-9.1
				c3-2.5,6.2-3.7,9.5-3.7c7.3,0,12.3,3.5,14.9,10.6l20.5,56.2l22-56.2c2.8-7.1,8.6-10.6,15.8-10.6c3.3,0,6.5,1.2,9.5,3.7
				c3,2.5,4.6,5.5,4.6,9.1c0,2.8-0.5,5.3-1.5,7.7l-49.7,118.6c-1.3,3.3-2.9,5.9-4.8,7.8h47.4c10.7,0,19.3-8.7,19.3-19.3v-187.7
				C925.8-529.1,917.1-537.7,906.4-537.7z M679.4-411.5c-10.1,9.2-22.8,13.9-38.1,13.9h-24v37.3c0,5.3-1.5,9.5-4.5,12.5
				c-3,3-6.9,4.4-11.7,4.4c-4.8,0-8.7-1.5-11.7-4.4c-3-3-4.5-7.1-4.5-12.5v-123.5c0-11.3,5.6-16.9,16.9-16.9H640
				c16,0,29.3,4.8,39.7,14.4c10.5,9.6,15.7,22.1,15.7,37.4C695.4-433.5,690.1-421,679.4-411.5z M804.8-361.8c0,4.6-1.5,8.4-4.6,11.6
				c-3.1,3.2-7,4.7-11.8,4.7c-7,0-12.1-3.4-15.3-10.1c-6.9,8.1-16.3,12.1-28.2,12.1c-14.3,0-26.3-5.5-36.1-16.5
				c-9.7-11-14.6-26.3-14.6-42.1c0-15.9,4.9-29.3,14.6-40.4c9.7-11,21.8-16.5,36.1-16.5c11.9,0,21.3,4,28.2,12.1
				c3.2-6.7,8.3-10.1,15.3-10.1c4.8,0,8.7,1.6,11.8,4.7c3.1,3.2,4.6,7,4.6,11.6V-361.8z"/>
		</g>
	</g>
	<g id="XMLID_5545_">
		<path id="XMLID_5592_" class="st0" d="M245.5-213.6h-5.2v-37.3h-13.5v-4.7h32.3v4.7h-13.5V-213.6z"/>
		<path id="XMLID_5590_" class="st0" d="M264.3-213.6v-43.9h5.1v17.6h0.1c2-3.6,5.4-5.4,10.3-5.4c3.4,0,6.2,1.1,8.3,3.2
			c2.1,2.1,3.2,5,3.2,8.4v20h-5.1v-19.1c0-2.5-0.7-4.5-2.1-5.9c-1.4-1.4-3.4-2.1-5.8-2.1c-2.7,0-4.8,0.8-6.4,2.5
			c-1.6,1.7-2.4,3.9-2.4,6.6v18.1H264.3z"/>
		<path id="XMLID_5587_" class="st0" d="M307.1-213.3c-3.2,0-5.7-0.8-7.7-2.5c-1.9-1.7-2.9-3.9-2.9-6.7c0-2.7,1-4.8,3-6.4
			c2-1.5,4.9-2.4,8.7-2.7l8.8-0.5v-2.6c0-1.9-0.6-3.4-1.9-4.5c-1.2-1-3-1.6-5.3-1.6c-1.8,0-3.4,0.4-4.6,1.3c-1.3,0.9-2,2-2.3,3.5
			h-4.9c0.1-2.6,1.3-4.9,3.5-6.7c2.3-1.8,5.1-2.7,8.4-2.7c3.7,0,6.7,0.9,8.9,2.8c2.2,1.8,3.3,4.3,3.3,7.4v21.6h-4.8v-5.4h-0.1
			c-0.9,1.7-2.3,3.1-4.1,4.2C311.3-213.8,309.3-213.3,307.1-213.3z M308.2-217.7c2.6,0,4.7-0.7,6.4-2.2c1.7-1.5,2.5-3.4,2.5-5.6
			v-2.5l-8.2,0.5c-4.8,0.3-7.2,2-7.2,5c0,1.5,0.6,2.6,1.8,3.5C304.6-218.1,306.2-217.7,308.2-217.7z"/>
		<path id="XMLID_5585_" class="st0" d="M328.9-213.6V-245h4.8v5.1h0.1c2-3.6,5.4-5.4,10.3-5.4c3.5,0,6.2,1,8.2,3.1
			c2,2.1,3,4.9,3,8.5v20.1h-5.1v-19.2c0-2.6-0.7-4.5-2-5.9c-1.3-1.4-3.2-2-5.7-2c-2.6,0-4.7,0.8-6.2,2.4c-1.6,1.6-2.3,3.8-2.3,6.5
			v18.2H328.9z"/>
		<path id="XMLID_5583_" class="st0" d="M362.2-213.6v-43.9h5.1v17.6h0.1c2-3.6,5.4-5.4,10.3-5.4c3.4,0,6.2,1.1,8.3,3.2
			c2.1,2.1,3.2,5,3.2,8.4v20h-5.1v-19.1c0-2.5-0.7-4.5-2.1-5.9c-1.4-1.4-3.4-2.1-5.8-2.1c-2.7,0-4.8,0.8-6.4,2.5
			c-1.6,1.7-2.4,3.9-2.4,6.6v18.1H362.2z"/>
		<path id="XMLID_5581_" class="st0" d="M411.8-252h5.1v7.1h6.1v4.2h-6.1v18.8c0,1.4,0.3,2.5,0.9,3.2c0.6,0.7,1.6,1,3,1
			c0.9,0,1.6,0,2.2-0.1v4.3c-0.7,0.2-1.8,0.3-3.3,0.3c-2.8,0-4.9-0.6-6.1-1.9c-1.2-1.3-1.8-3.4-1.8-6.5v-19h-4.4v-4.2h4.4V-252z"/>
		<path id="XMLID_5578_" class="st0" d="M451.2-217.6c-2.6,2.9-6.1,4.3-10.5,4.3c-4.4,0-7.9-1.4-10.5-4.3c-2.6-2.9-3.9-6.8-3.9-11.6
			c0-4.9,1.3-8.8,3.9-11.7c2.6-2.9,6.1-4.3,10.5-4.3c4.4,0,7.9,1.4,10.5,4.3c2.6,2.9,3.9,6.8,3.9,11.7
			C455.2-224.4,453.8-220.5,451.2-217.6z M440.7-217.8c2.9,0,5.2-1,6.9-3c1.6-2,2.5-4.8,2.5-8.4c0-3.6-0.8-6.4-2.5-8.4
			c-1.6-2-3.9-3-6.9-3c-2.9,0-5.2,1-6.9,3c-1.6,2-2.5,4.8-2.5,8.4c0,3.6,0.8,6.4,2.5,8.4C435.5-218.8,437.8-217.8,440.7-217.8z"/>
		<path id="XMLID_5574_" class="st0" d="M469.7-213.3c-3.2,0-5.7-0.8-7.7-2.5c-1.9-1.7-2.9-3.9-2.9-6.7c0-2.7,1-4.8,3-6.4
			c2-1.5,4.9-2.4,8.7-2.7l8.8-0.5v-2.6c0-1.9-0.6-3.4-1.9-4.5c-1.2-1-3-1.6-5.3-1.6c-1.8,0-3.4,0.4-4.6,1.3c-1.3,0.9-2,2-2.3,3.5
			h-4.9c0.1-2.6,1.3-4.9,3.5-6.7c2.3-1.8,5.1-2.7,8.4-2.7c3.7,0,6.7,0.9,8.9,2.8c2.2,1.8,3.3,4.3,3.3,7.4v21.6h-4.8v-5.4h-0.1
			c-0.9,1.7-2.3,3.1-4.1,4.2C473.9-213.8,471.8-213.3,469.7-213.3z M470.7-217.7c2.6,0,4.7-0.7,6.4-2.2c1.7-1.5,2.5-3.4,2.5-5.6
			v-2.5l-8.2,0.5c-4.8,0.3-7.2,2-7.2,5c0,1.5,0.6,2.6,1.8,3.5C467.2-218.1,468.8-217.7,470.7-217.7z M474.5-250h-4.3l6.1-8.7h5.8
			L474.5-250z"/>
		<path id="XMLID_5572_" class="st0" d="M491.4-213.6V-245h4.8v5.1h0.1c2-3.6,5.4-5.4,10.3-5.4c3.5,0,6.2,1,8.2,3.1
			c2,2.1,3,4.9,3,8.5v20.1h-5.1v-19.2c0-2.6-0.7-4.5-2-5.9c-1.3-1.4-3.2-2-5.7-2c-2.6,0-4.7,0.8-6.2,2.4c-1.6,1.6-2.3,3.8-2.3,6.5
			v18.2H491.4z"/>
		<path id="XMLID_5570_" class="st0" d="M540.4-252h5.1v7.1h6.1v4.2h-6.1v18.8c0,1.4,0.3,2.5,0.9,3.2c0.6,0.7,1.6,1,3,1
			c0.9,0,1.6,0,2.2-0.1v4.3c-0.7,0.2-1.8,0.3-3.3,0.3c-2.8,0-4.9-0.6-6.1-1.9c-1.2-1.3-1.8-3.4-1.8-6.5v-19H536v-4.2h4.4V-252z"/>
		<path id="XMLID_5568_" class="st0" d="M557.2-213.6V-245h4.8v5.1h0.1c0.5-1.7,1.4-3,2.8-3.9c1.4-1,3-1.5,4.8-1.5
			c0.8,0,1.4,0.1,2,0.2v5c-0.5-0.2-1.4-0.4-2.6-0.4c-2,0-3.7,0.7-4.9,2c-1.2,1.4-1.9,3.1-1.9,5.4v19.4H557.2z"/>
		<path id="XMLID_5565_" class="st0" d="M598.1-217.6c-2.6,2.9-6.1,4.3-10.5,4.3c-4.4,0-7.9-1.4-10.5-4.3c-2.6-2.9-3.9-6.8-3.9-11.6
			c0-4.9,1.3-8.8,3.9-11.7c2.6-2.9,6.1-4.3,10.5-4.3c4.4,0,7.9,1.4,10.5,4.3c2.6,2.9,3.9,6.8,3.9,11.7
			C602.1-224.4,600.7-220.5,598.1-217.6z M587.6-217.8c2.9,0,5.2-1,6.9-3c1.6-2,2.5-4.8,2.5-8.4c0-3.6-0.8-6.4-2.5-8.4
			c-1.6-2-3.9-3-6.9-3c-2.9,0-5.2,1-6.9,3c-1.6,2-2.5,4.8-2.5,8.4c0,3.6,0.8,6.4,2.5,8.4C582.4-218.8,584.7-217.8,587.6-217.8z"/>
		<path id="XMLID_5563_" class="st0" d="M607.4-213.6V-245h4.8v5.1h0.1c2-3.6,5.4-5.4,10.3-5.4c3.5,0,6.2,1,8.2,3.1
			c2,2.1,3,4.9,3,8.5v20.1h-5.1v-19.2c0-2.6-0.7-4.5-2-5.9c-1.3-1.4-3.2-2-5.7-2c-2.6,0-4.7,0.8-6.2,2.4c-1.6,1.6-2.3,3.8-2.3,6.5
			v18.2H607.4z"/>
		<path id="XMLID_5560_" class="st0" d="M653.2-202.3c-3.6,0-6.5-0.8-8.9-2.4c-2.4-1.6-3.7-3.7-4.1-6.3h5.3c0.4,1.3,1.3,2.3,2.7,3.1
			c1.4,0.8,3.2,1.1,5.3,1.1c2.7,0,4.9-0.7,6.5-2c1.6-1.3,2.4-3.1,2.4-5.3v-4.9h-0.1c-1,1.7-2.4,3-4.1,4c-1.8,0.9-3.7,1.4-5.9,1.4
			c-4,0-7.2-1.4-9.6-4.4c-2.4-2.9-3.7-6.7-3.7-11.5c0-4.8,1.2-8.6,3.7-11.5c2.4-2.9,5.7-4.3,9.7-4.3c2.2,0,4.2,0.5,6,1.4
			c1.8,0.9,3.2,2.3,4.2,4h0.1v-5.1h4.8v30.5c0,3.7-1.3,6.7-3.8,8.9C661.1-203.4,657.6-202.3,653.2-202.3z M653.1-218.1
			c2.8,0,5-1,6.7-3.1c1.7-2.1,2.5-4.8,2.5-8.2c0-3.4-0.9-6.1-2.5-8.2c-1.7-2.1-3.9-3.1-6.7-3.1c-2.7,0-4.9,1-6.6,3.1
			c-1.7,2.1-2.5,4.8-2.5,8.3c0,3.4,0.8,6.2,2.5,8.2C648.2-219.1,650.4-218.1,653.1-218.1z"/>
		<path id="XMLID_5558_" class="st0" d="M688.7-247.1c0-4.1,1.5-7.5,4.4-10.3c3-2.7,6.7-4.1,11.1-4.1c4.2,0,7.8,1.2,10.7,3.8
			c2.9,2.5,4.4,5.6,4.4,9.2c0,2.6-0.7,5.1-2.2,7.5c-1.4,2.4-4.1,5.7-8.1,9.8l-11.9,12.3v0.1H720v5.2H689v-4l16.6-17.5
			c3.2-3.3,5.2-5.9,6.3-7.6c1-1.7,1.5-3.6,1.5-5.5c0-2.3-0.9-4.2-2.7-5.8c-1.8-1.6-4-2.4-6.6-2.4c-2.8,0-5.1,0.9-6.9,2.6
			c-1.9,1.8-2.8,4-2.8,6.6v0L688.7-247.1L688.7-247.1z"/>
		<path id="XMLID_5555_" class="st0" d="M753.4-202.3c-3.6,0-6.5-0.8-8.9-2.4c-2.4-1.6-3.7-3.7-4.1-6.3h5.3c0.4,1.3,1.3,2.3,2.7,3.1
			c1.4,0.8,3.2,1.1,5.3,1.1c2.7,0,4.9-0.7,6.5-2c1.6-1.3,2.4-3.1,2.4-5.3v-4.9h-0.1c-1,1.7-2.4,3-4.1,4c-1.8,0.9-3.7,1.4-5.9,1.4
			c-4,0-7.2-1.4-9.6-4.4c-2.4-2.9-3.7-6.7-3.7-11.5c0-4.8,1.2-8.6,3.7-11.5c2.4-2.9,5.7-4.3,9.7-4.3c2.2,0,4.2,0.5,6,1.4
			c1.8,0.9,3.2,2.3,4.2,4h0.1v-5.1h4.8v30.5c0,3.7-1.3,6.7-3.8,8.9C761.3-203.4,757.8-202.3,753.4-202.3z M753.4-218.1
			c2.8,0,5-1,6.7-3.1c1.7-2.1,2.5-4.8,2.5-8.2c0-3.4-0.8-6.1-2.5-8.2c-1.7-2.1-3.9-3.1-6.7-3.1c-2.7,0-4.9,1-6.6,3.1
			c-1.6,2.1-2.5,4.8-2.5,8.3c0,3.4,0.8,6.2,2.5,8.2C748.4-219.1,750.6-218.1,753.4-218.1z"/>
		<path id="XMLID_5552_" class="st0" d="M777.3-250c-0.9,0-1.6-0.3-2.3-0.9c-0.6-0.6-0.9-1.4-0.9-2.3c0-0.9,0.3-1.7,0.9-2.3
			c0.6-0.6,1.4-0.9,2.3-0.9c0.9,0,1.7,0.3,2.3,0.9c0.6,0.6,0.9,1.4,0.9,2.3c0,0.9-0.3,1.6-0.9,2.3C779-250.3,778.2-250,777.3-250z
			 M774.8-213.6V-245h5.1v31.4H774.8z"/>
		<path id="XMLID_5548_" class="st0" d="M796.2-213.3c-3.2,0-5.7-0.8-7.7-2.5c-1.9-1.7-2.9-3.9-2.9-6.7c0-2.7,1-4.8,3-6.4
			c2-1.5,4.9-2.4,8.7-2.7l8.8-0.5v-2.6c0-1.9-0.6-3.4-1.9-4.5c-1.2-1-3-1.6-5.3-1.6c-1.8,0-3.4,0.4-4.6,1.3c-1.3,0.9-2,2-2.3,3.5
			h-4.9c0.1-2.6,1.3-4.9,3.5-6.7c2.3-1.8,5.1-2.7,8.4-2.7c3.7,0,6.7,0.9,8.9,2.8c2.2,1.8,3.3,4.3,3.3,7.4v21.6h-4.8v-5.4h-0.1
			c-0.9,1.7-2.3,3.1-4.1,4.2C800.4-213.8,798.4-213.3,796.2-213.3z M800.7-258.7l8.1,8.7h-4.7l-5-5.7h-0.2l-5,5.7h-4.7l8.1-8.7
			H800.7z M797.3-217.7c2.6,0,4.7-0.7,6.4-2.2c1.7-1.5,2.5-3.4,2.5-5.6v-2.5l-8.2,0.5c-4.8,0.3-7.2,2-7.2,5c0,1.5,0.6,2.6,1.8,3.5
			C793.7-218.1,795.3-217.7,797.3-217.7z"/>
		<path id="XMLID_5546_" class="st0" d="M820.7-202.2c-0.8,0-1.5-0.1-2.2-0.2v-4.3c0.6,0.1,1.3,0.2,2.1,0.2c1.5,0,2.6-0.4,3.5-1.2
			c0.9-0.8,1.6-2.1,2.3-4l0.6-1.9L815.3-245h5.4l8.8,26.2h0.1l8.8-26.2h5.3l-12.3,33.3c-1.3,3.6-2.8,6.1-4.3,7.5
			C825.6-202.8,823.4-202.2,820.7-202.2z"/>
	</g>
</g>
</svg>
