<svg xmlns="http://www.w3.org/2000/svg" xmlns:xlink="http://www.w3.org/1999/xlink" aria-hidden="true" role="img" width="1em" height="1em" preserveAspectRatio="xMidYMid meet" viewBox="0 0 24 24"><path fill="none" stroke="currentColor" stroke-width="2" d="M16 15c4.009-.065 7-3.033 7-7c0-3.012-.997-2.015-2-1c-.991.98-3 3-3 3l-4-4s2.02-2.009 3-3c1.015-1.003 1.015-2-1-2c-3.967 0-6.947 2.991-7 7c.042.976 0 3 0 3c-1.885 1.897-4.34 4.353-6 6c-2.932 2.944 1.056 6.932 4 4c1.65-1.662 4.113-4.125 6-6c0 0 2.024-.042 3 0z"/></svg>