<?xml version="1.0" encoding="utf-8"?>
<!-- Generator: Adobe Illustrator 22.0.1, SVG Export Plug-In . SVG Version: 6.00 Build 0)  -->
<svg version="1.1" id="Layer_1" xmlns="http://www.w3.org/2000/svg" xmlns:xlink="http://www.w3.org/1999/xlink" x="0px" y="0px"
	 viewBox="0 0 21.6 21.6" style="enable-background:new 0 0 21.6 21.6;" xml:space="preserve">
<style type="text/css">
	.st0{fill:none;stroke:#231F20;stroke-linecap:round;stroke-linejoin:round;}
	.st1{fill:#231F20;}
	.st2{fill:none;stroke:#231F20;stroke-width:0.8;stroke-linecap:round;stroke-linejoin:round;}
</style>
<g id="Layer_2_1_">
	<g id="Layer_1-2">
		<path class="st0" d="M6.5,6.2V15c0,1,0.8,1.9,1.9,1.9c0,0,0,0,0,0h4.8c1,0,1.9-0.8,1.9-1.9v0V6.2c0-0.2-0.2-0.4-0.4-0.4l0,0H6.9
			C6.7,5.8,6.5,6,6.5,6.2L6.5,6.2z"/>
		<path class="st1" d="M9.6,21.6H12v-4.8H9.6V21.6z"/>
		<path class="st2" d="M8.2,1.2v4.6h5.3V1.2c0-0.4-0.3-0.8-0.8-0.8H9C8.5,0.4,8.2,0.7,8.2,1.2z"/>
		<path class="st1" d="M9.5,3.2C9.4,3.2,9.4,3.1,9.4,3V1.5c0-0.1,0.1-0.2,0.2-0.2c0.1,0,0.2,0.1,0.2,0.2V3C9.7,3.1,9.6,3.2,9.5,3.2z
			"/>
		<path class="st1" d="M10.4,3.2c-0.1,0-0.2-0.1-0.2-0.2c0,0,0,0,0,0V1.5c0-0.1,0.1-0.2,0.2-0.2l0,0c0.1,0,0.2,0.1,0.2,0.2V3
			C10.6,3.1,10.5,3.2,10.4,3.2z"/>
		<path class="st1" d="M11.2,3.2C11.1,3.2,11,3.1,11,3c0,0,0,0,0,0V1.5c0-0.1,0.1-0.2,0.2-0.2c0.1,0,0.2,0.1,0.2,0.2l0,0V3
			C11.4,3.1,11.3,3.2,11.2,3.2z"/>
		<path class="st1" d="M12.1,3.2c-0.1,0-0.2-0.1-0.2-0.2V1.5c0-0.1,0.1-0.2,0.2-0.2s0.2,0.1,0.2,0.2V3C12.3,3.1,12.2,3.2,12.1,3.2z"
			/>
	</g>
</g>
</svg>
