<svg xmlns="http://www.w3.org/2000/svg" width="24" height="24" fill-rule="evenodd" stroke-linejoin="round" stroke-miterlimit="2" clip-rule="evenodd"><path d="M332,125C332,125 332,125.552 332,125C332,127.209 333.791,129 336,129L344,129C346.209,129 348,127.209 348,125L348,115C348,112.791 346.209,111 344,111L336,111C333.801,111 332.014,112.798 332,114.994L332,125ZM346,125C346,125 346,125.012 346,125.012C346,126.105 345.105,127 344,127C344,127 336,127 336,127C334.895,127 334,126.105 334,125C334,125.552 334,125 334,125C334,123.895 334.895,123 336,123C336,123 344,123 344,123C345.105,123 346,123.895 346,125ZM342,126L344,126L344,124L342,124L342,126ZM339,126L341,126L341,124L339,124L339,126ZM346,121.535L346,115C346,113.895 345.105,113 344,113C344,113 336,113 336,113C334.898,113 334.008,113.905 334,115.005L334,121.535C334.588,121.195 335.271,121 336,121L344,121C344.729,121 345.412,121.195 346,121.535Z" transform="translate(-328 -108)"/></svg>