<?xml version="1.0" encoding="utf-8"?>
<!-- Generator: Adobe Illustrator 22.0.1, SVG Export Plug-In . SVG Version: 6.00 Build 0)  -->
<svg version="1.1" id="Layer_1" xmlns="http://www.w3.org/2000/svg" xmlns:xlink="http://www.w3.org/1999/xlink" x="0px" y="0px"
	 viewBox="0 0 29.7 29.7" style="enable-background:new 0 0 29.7 29.7;" xml:space="preserve">
<style type="text/css">
	.st0{fill:#231F20;}
	.st1{fill:#FFFFFF;}
</style>
<g id="Layer_2_1_">
	<g id="Layer_1-2">
		<path class="st0" d="M29.7,23.1C29.7,23.1,29.6,23.1,29.7,23.1c-0.1,0.1-0.1,0.1-0.1,0.1c-0.9,0.2-1.7,0.3-2.6,0.4
			c-4.8,0.1-19.5,0.1-24.2,0c-0.9,0-1.8-0.2-2.6-0.4c0,0-0.1,0-0.1-0.1v-0.8c0,0,0-0.1,0.1-0.1c0,0,0,0,0,0h29.5
			c0.1,0,0.1,0,0.1,0.1V23.1z"/>
		<path class="st0" d="M26.6,7.1c0.1,0,0.3,0.1,0.3,0.3c0,0,0,0,0,0v14.3H3.2V7.4c0-0.1,0.1-0.3,0.3-0.3H26.6 M26.6,6.1H3.5
			c-0.7,0-1.3,0.6-1.3,1.3v15.4H28V7.4C28,6.7,27.4,6.1,26.6,6.1C26.7,6.1,26.6,6.1,26.6,6.1z"/>
		<path class="st1" d="M10,22.4h9.7l0,0v0.3c0,0.1-0.1,0.2-0.2,0.2h0h-9.3c-0.1,0-0.2-0.1-0.2-0.2l0,0L10,22.4L10,22.4z"/>
	</g>
</g>
</svg>
