<svg xmlns="http://www.w3.org/2000/svg" enable-background="new 0 0 32 32" viewBox="0 0 32 32"><path d="M25.73999,1.57001c-0.58997-0.58002-1.53998-0.58002-2.12,0c-0.58997,0.58997-0.58997,1.53998,0,2.12L27.91998,8c0.77002,0.76996,0.77002,2.02997,0,2.79999c-0.76996,0.77002-2.01996,0.77002-2.78998,0c-1.69-1.69-4.34998-1.81-6.20001-0.40002c-3.34998-2.38-8.03998-2.07996-11.04999,0.92004l-4.87,4.88C1.39001,17.81,0.5,19.96997,0.5,22.26996c0,2.31,0.89001,4.47003,2.51001,6.08002C4.69,30.02997,6.89001,30.87,9.09003,30.87c2.19995,0,4.39996-0.84003,6.07996-2.52002l4.87-4.87c2.96002-2.96002,3.30005-7.56,1.03003-10.90002c0.64001-0.26996,1.42999-0.16998,1.94,0.34003C23.97998,13.89001,25.25,14.37,26.52002,14.37c1.27997,0,2.54999-0.47998,3.51996-1.45001c1.95001-1.94,1.95001-5.09998,0-7.03998L25.73999,1.57001z M16.09003,17.39001l-1.63,1.63995c-0.30005,0.29004-0.67999,0.44-1.06,0.44c-0.39001,0-0.77002-0.14996-1.06-0.44c-0.59003-0.58997-0.59003-1.53998,0-2.12l1.62994-1.64001c0.59003-0.58997,1.54004-0.58997,2.12006,0C16.67999,15.85999,16.67999,16.81,16.09003,17.39001z"/></svg>