<?xml version="1.0" encoding="utf-8"?>
<!-- Generator: Adobe Illustrator 22.0.1, SVG Export Plug-In . SVG Version: 6.00 Build 0)  -->
<svg version="1.1" id="Layer_1" xmlns="http://www.w3.org/2000/svg" xmlns:xlink="http://www.w3.org/1999/xlink" x="0px" y="0px"
	 viewBox="0 0 20.5 20.5" style="enable-background:new 0 0 20.5 20.5;" xml:space="preserve">
<style type="text/css">
	.st0{fill:none;stroke:#231F20;stroke-width:1.07;stroke-miterlimit:10;}
	.st1{fill:#231F20;}
</style>
<g id="Layer_2_1_">
	<g id="Layer_1-2">
		<path class="st0" d="M6.4,0.5h7.7c0.9,0,1.7,0.8,1.7,1.7v16c0,0.9-0.8,1.7-1.7,1.7H6.4c-0.9,0-1.7-0.8-1.7-1.7v-16
			C4.7,1.3,5.5,0.5,6.4,0.5z"/>
		<path class="st1" d="M7.8,0.3h5.4l0,0v1.2c0,0.3-0.3,0.5-0.5,0.5c0,0,0,0,0,0H8.3C8,2,7.8,1.8,7.8,1.5l0,0
			C7.8,1.5,7.8,0.3,7.8,0.3z"/>
	</g>
</g>
</svg>
