<svg xmlns="http://www.w3.org/2000/svg" width="64" height="64" enable-background="new 0 0 64 64" viewBox="0 0 64 64"><path fill="#08102d" d="M41.6,9.191V2.676H0v58.649h41.6v-6.517C53.972,54.809,64,44.598,64,32C64,19.404,53.972,9.191,41.6,9.191z M41.6,35.259v-6.517c1.765,0,3.2,1.461,3.2,3.258S43.364,35.259,41.6,35.259z"/><rect width="35.2" height="52.133" x="3.201" y="5.934" fill="#fc0"/><path fill="#e6ffff" d="M55.608 18.646l-9.338 8.902c-.209-.229-.435-.441-.674-.636l7.991-10.172C54.306 17.326 54.98 17.963 55.608 18.646zM41.6 12.45c2.121 0 4.162.353 6.072 1.003l-4.049 12.364c-.637-.216-1.316-.333-2.023-.333V12.45zM41.6 51.551V38.518c3.535 0 6.4-2.919 6.4-6.518 0-1.358-.408-2.619-1.107-3.662l10.585-7.318C59.573 24.15 60.8 27.933 60.8 32 60.8 42.781 52.188 51.551 41.6 51.551z"/><polygon fill="#08102d" points="16 41.775 22.4 22.226 25.6 22.226 19.2 41.775"/><polygon fill="#08102d" points="13.931 39.669 6.4 32 13.931 24.332 16.193 26.636 10.925 32 16.193 37.365"/><polygon fill="#08102d" points="25.407 26.636 27.668 24.332 35.2 32 27.668 39.669 25.407 37.365 30.675 32"/></svg>