<?xml version="1.0" encoding="utf-8"?>
<!-- Generator: Adobe Illustrator 22.0.1, SVG Export Plug-In . SVG Version: 6.00 Build 0)  -->
<svg version="1.1" id="Layer_1" xmlns="http://www.w3.org/2000/svg" xmlns:xlink="http://www.w3.org/1999/xlink" x="0px" y="0px"
	 viewBox="0 0 22.6 22.6" style="enable-background:new 0 0 22.6 22.6;" xml:space="preserve">
<style type="text/css">
	.st0{fill:none;stroke:#231F20;stroke-linecap:round;stroke-linejoin:round;}
	.st1{fill:#231F20;}
</style>
<g id="Layer_2_1_">
	<g id="Layer_1-2">
		<path class="st0" d="M9.9,22.1H8.9c-0.6,0-1.1-0.5-1.1-1.1l0,0v-9.4c-0.5,0.2-1,0.4-1.5,0.3c-1.6,0-3.1-1.5-3.4-1.8
			C2.8,10.1,2.8,10,2.8,9.9V6.7c0-0.1,0-0.2,0.1-0.3c0.8-1,2.1-1.7,3.4-1.8c1-0.1,1.9,0.3,2.6,0.9c1.5,1.3,2,4.9,2,5.5
			s0,6.4,0.1,9.2V21C11,21.6,10.5,22.1,9.9,22.1L9.9,22.1z"/>
		<path class="st0" d="M14.7,17.9h-1c-0.6,0-1.1-0.5-1.1-1.1c0-2.9,0-9.8,0.2-10.6c1.5-5.7,4.3-5.8,4.4-5.8c0.3,0,2.8,0.1,2.8,3.5
			c0,2.8-1.4,3.8-2.6,3.8c-0.6-0.1-1.1-0.3-1.5-0.7v9.7C15.8,17.4,15.3,17.9,14.7,17.9C14.7,17.9,14.7,17.9,14.7,17.9z"/>
		<path class="st1" d="M17.1,2.7h0.3C17.7,2.7,18,3,18,3.3v1.5c0,0.4-0.3,0.7-0.7,0.7h-0.3c-0.4,0-0.7-0.3-0.7-0.7V3.3
			C16.4,3,16.7,2.7,17.1,2.7z"/>
	</g>
</g>
</svg>
