<svg height="40" viewBox="0 0 40 40" width="40" xmlns="http://www.w3.org/2000/svg" xmlns:xlink="http://www.w3.org/1999/xlink"><defs><linearGradient id="a" x1="50%" x2="50%" y1="0%" y2="100%"><stop offset="0" stop-color="#fff" stop-opacity=".5"/><stop offset="1" stop-opacity=".5"/></linearGradient><rect id="b" height="40" rx="12" width="40"/><filter id="c" height="168.4%" width="165%" x="-32.5%" y="-34.2%"><feOffset dx="0" dy="1" in="SourceAlpha" result="shadowOffsetOuter1"/><feGaussianBlur in="shadowOffsetOuter1" result="shadowBlurOuter1" stdDeviation="1"/><feColorMatrix in="shadowBlurOuter1" result="shadowMatrixOuter1" type="matrix" values="0 0 0 0 0   0 0 0 0 0   0 0 0 0 0  0 0 0 0.48 0"/><feMerge><feMergeNode in="shadowMatrixOuter1"/><feMergeNode in="SourceGraphic"/></feMerge></filter><mask id="d" fill="#fff"><use fill="#fff" fill-rule="evenodd" xlink:href="#b"/></mask></defs><g fill="none" fill-rule="evenodd"><use fill="#ffae00" fill-opacity=".2" xlink:href="#b"/><use fill="url(#a)" fill-opacity=".16" xlink:href="#b"/><g filter="url(#c)" mask="url(#d)"><path d="m9.91735537 0 9.91735533 11.6737848-4.2961822 5.8979053-5.62117313.6101281-5.62117308-.6101281-4.29618229-5.8979053z" fill="#ffae00" transform="matrix(-1 0 0 -1 29.83471 29.181818)"/><path d="m9.91735537 0 9.91735533 11.6737848h-19.8347107z" fill="#ec6c00" transform="matrix(-1 0 0 -1 29.83471 29.181817)"/><path d="m5.90223174 0 5.90223176 11.6737848h-11.8044635z" fill="#ffae00" transform="matrix(-1 0 0 -1 25.819588 29.181817)"/><path d="m5.90223174 6.50803335 5.90223176-6.50803335h-11.8044635z" fill="#ffefb4" transform="matrix(-1 0 0 -1 25.819588 17.508034)"/><path d="m0 5.89790523 2.208318-2.96929022 2.08786429-2.92861501h-4.05527487z" fill="#ffae00" transform="matrix(-1 0 0 -1 14.296182 17.508034)"/><path d="m0 5.89790523 2.208318-2.96929022 2.08786429-2.92861501h-4.05527487z" fill="#ffae00" transform="matrix(1 0 0 -1 25.538529 17.508034)"/><g fill="#fed305"><path d="m5.62117309 5.89790523.28105865-5.89790523-5.90223174 6.50803335z" transform="matrix(-1 0 0 -1 19.917356 17.508034)"/><path d="m5.62117309 5.89790523.28105865-5.89790523-5.90223174 6.50803335z" transform="matrix(1 0 0 -1 19.917355 17.508034)"/></g></g></g></svg>