<svg height="24" viewBox="0 0 24 24" width="24" xmlns="http://www.w3.org/2000/svg"><g fill="none" fill-rule="evenodd" transform="translate(0 1)"><path d="m12 0 12 13.943-5.198 7.045-6.802.729-6.802-.729-5.198-7.045z" fill="#ffae00" transform="matrix(-1 0 0 -1 24 21.716)"/><path d="m12 0 12 13.943h-24z" fill="#ec6c00" transform="matrix(-1 0 0 -1 24 21.716)"/><path d="m7.142 0 7.141 13.943h-14.283z" fill="#ffae00" transform="matrix(-1 0 0 -1 19.14 21.716)"/><path d="m7.142 7.773 7.141-7.773h-14.283z" fill="#ffefb4" transform="matrix(-1 0 0 -1 19.14 7.774)"/><path d="m0 7.045 2.672-3.547 2.526-3.498h-4.907z" fill="#ffae00" transform="matrix(-1 0 0 -1 5.2 7.774)"/><path d="m0 7.045 2.672-3.547 2.526-3.498h-4.907z" fill="#ffae00" transform="matrix(1 0 0 -1 18.802 7.773)"/><g fill="#fed305"><path d="m6.802 7.045.34-7.045-7.142 7.773z" transform="matrix(-1 0 0 -1 12 7.774)"/><path d="m6.802 7.045.34-7.045-7.142 7.773z" transform="matrix(1 0 0 -1 12 7.773)"/></g></g></svg>