<svg height="40" viewBox="0 0 40 40" width="40" xmlns="http://www.w3.org/2000/svg" xmlns:xlink="http://www.w3.org/1999/xlink"><defs><linearGradient id="a" x1="50%" x2="50%" y1="0%" y2="100%"><stop offset="0" stop-color="#fff" stop-opacity=".5"/><stop offset="1" stop-opacity=".5"/></linearGradient><rect id="b" height="40" rx="12" width="40"/><filter id="c" height="200%" width="172.2%" x="-36.1%" y="-50%"><feOffset dx="0" dy="1" in="SourceAlpha" result="shadowOffsetOuter1"/><feGaussianBlur in="shadowOffsetOuter1" result="shadowBlurOuter1" stdDeviation="1"/><feColorMatrix in="shadowBlurOuter1" result="shadowMatrixOuter1" type="matrix" values="0 0 0 0 0   0 0 0 0 0   0 0 0 0 0  0 0 0 0.48 0"/><feMerge><feMergeNode in="shadowMatrixOuter1"/><feMergeNode in="SourceGraphic"/></feMerge></filter><mask id="d" fill="#fff"><use fill="#fff" fill-rule="evenodd" xlink:href="#b"/></mask></defs><g fill="none" fill-rule="evenodd"><use fill="#007acc" fill-opacity=".48" xlink:href="#b"/><use fill="url(#a)" fill-opacity=".16" xlink:href="#b"/><g fill="#fff" fill-rule="nonzero" filter="url(#c)" mask="url(#d)"><path d="m5.5208362 12.8262032v-10.52339571h3.06240529v-2.1290107h-8.58324149v2.1290107h3.0113652v10.52339571zm8.2855076.1737968c1.1795932 0 2.1124926-.3099376 2.7986982-.9298128.6862056-.6198753 1.0293085-1.4801694 1.0293085-2.58088239 0-1.00222816-.2736316-1.82776292-.8208948-2.47660428-.5472632-.64884135-1.4248691-1.19630124-2.6328179-1.64237967-.6918767-.30124778-1.173922-.5923574-1.4461358-.87332888s-.4083207-.59525401-.4083207-.94284759c0-.44607844.1219291-.80091355.3657873-1.06450535s.5841254-.3953877 1.0208018-.3953877c.4650319 0 .8208947.1549688 1.0675885.46490641.2466937.30993762.3700406.76036097.3700406 1.35127006h2.4924576c0-.75891266-.1602091-1.43672015-.4806275-2.03342246-.3204183-.59670232-.7783613-1.05871212-1.373829-1.38602941s-1.2731666-.49097594-2.0330968-.49097594c-1.1398953 0-2.0798836.32297237-2.8199649.96891711s-1.11012193 1.50189394-1.11012193 2.5678476c0 .88057041.27221383 1.64382798.81664143 2.28977272s1.4376291 1.20933601 2.6796046 1.6901738c.6805345.28386809 1.1498198.55759804 1.4078558.82118984s.387054.65318627.387054 1.16878342c0 .94429591-.4366763 1.41644381-1.310029 1.41644381-.6294944 0-1.083184-.1651069-1.361069-.4953208-.2778849-.3302139-.4168274-.86029413-.4168274-1.59024066h-2.50947096c0 .85160428.18572921 1.59024066.55718766 2.21590906.3714584.6256685.8861126 1.1065063 1.5439626 1.4425134.6578501.3360071 1.3865891.5040107 2.1862171.5040107z" transform="translate(15 20)"/></g></g></svg>