<svg height="40" viewBox="0 0 40 40" width="40" xmlns="http://www.w3.org/2000/svg" xmlns:xlink="http://www.w3.org/1999/xlink"><defs><linearGradient id="a" x1="50%" x2="50%" y1="0%" y2="100%"><stop offset="0" stop-color="#fff" stop-opacity=".5"/><stop offset="1" stop-opacity=".5"/></linearGradient><rect id="b" height="40" rx="12" width="40"/><filter id="c" height="200%" width="172.2%" x="-36.1%" y="-50%"><feOffset dx="0" dy="1" in="SourceAlpha" result="shadowOffsetOuter1"/><feGaussianBlur in="shadowOffsetOuter1" result="shadowBlurOuter1" stdDeviation="1"/><feColorMatrix in="shadowBlurOuter1" result="shadowMatrixOuter1" type="matrix" values="0 0 0 0 0   0 0 0 0 0   0 0 0 0 0  0 0 0 0.48 0"/><feMerge><feMergeNode in="shadowMatrixOuter1"/><feMergeNode in="SourceGraphic"/></feMerge></filter><mask id="d" fill="#fff"><use fill="#fff" fill-rule="evenodd" xlink:href="#b"/></mask></defs><g fill="none" fill-rule="evenodd"><use fill="#ffca28" fill-opacity=".48" xlink:href="#b"/><use fill="url(#a)" fill-opacity=".16" xlink:href="#b"/><g fill="#fff" fill-rule="nonzero" filter="url(#c)" mask="url(#d)"><path d="m3.6671123 13c1.07754011 0 1.95811052-.3707665 2.64171123-1.1122995.68360071-.7415329 1.02540107-1.7263814 1.02540107-2.95454542v-8.75935829h-2.55481284v8.63770054c0 1.37878787-.37076648 2.06818177-1.11229946 2.06818177-.73573975 0-1.10360963-.5967023-1.10360963-1.79010691h-2.56350267c0 1.22816401.32152406 2.18694301.96457219 2.87633691s1.54389483 1.0340909 2.70254011 1.0340909zm9.6804813 0c1.2049911 0 2.1579768-.3099376 2.8589572-.9298128.7009804-.6198753 1.0514706-1.4801694 1.0514706-2.58088239 0-1.00222816-.2795232-1.82776292-.8385695-2.47660428-.5590464-.64884135-1.4555482-1.19630124-2.6895054-1.64237967-.7067736-.30124778-1.1991978-.5923574-1.4772727-.87332888s-.4171123-.59525401-.4171123-.94284759c0-.44607844.1245544-.80091355.3736631-1.06450535s.5967023-.3953877 1.0427807-.3953877c.4750446 0 .8385696.1549688 1.0905749.46490641.2520054.30993762.378008.76036097.378008 1.35127006h2.546123c0-.75891266-.1636586-1.43672015-.4909759-2.03342246-.3273173-.59670232-.7951203-1.05871212-1.4034091-1.38602941s-1.3005793-.49097594-2.0768717-.49097594c-1.1644385 0-2.1246657.32297237-2.8806818.96891711-.75601602.64594474-1.13402404 1.50189394-1.13402404 2.5678476 0 .88057041.27807487 1.64382798.83422464 2.28977272.5561497.64594474 1.4685828 1.20933601 2.7372994 1.6901738.6951872.28386809 1.1745767.55759804 1.4381685.82118984s.3953877.65318627.3953877 1.16878342c0 .94429591-.4460785 1.41644381-1.3382353 1.41644381-.6430481 0-1.1065063-.1651069-1.3903743-.4953208-.2838681-.3302139-.4258022-.86029413-.4258022-1.59024066h-2.56350266c0 .85160428.18972816 1.59024066.56918449 2.21590906.37945633.6256685.90519167 1.1065063 1.57720587 1.4425134.6720143.3360071 1.4164439.5040107 2.2332888.5040107z" transform="translate(15 20)"/></g></g></svg>