<svg height="40" viewBox="0 0 40 40" width="40" xmlns="http://www.w3.org/2000/svg" xmlns:xlink="http://www.w3.org/1999/xlink"><defs><linearGradient id="a" x1="50%" x2="50%" y1="0%" y2="100%"><stop offset="0" stop-color="#fff" stop-opacity=".5"/><stop offset="1" stop-opacity=".5"/></linearGradient><rect id="b" height="40" rx="12" width="40"/><mask id="c" fill="#fff"><use fill="#fff" fill-rule="evenodd" xlink:href="#b"/></mask></defs><g fill="none" fill-rule="evenodd"><use fill="#141414" fill-opacity=".8" xlink:href="#b"/><use fill="url(#a)" fill-opacity=".16" xlink:href="#b"/><g mask="url(#c)"><g fill-rule="nonzero" transform="translate(13 10)"><path d="m3.22512 0h3.43888c.00896.09584.00784.192.00656.28816.00032 2.12368-.00016 4.24736.00032 6.3712.46432-.00704.9288-.0016 1.39312-.0032.29824.00352.59712-.0096.89488.0104.09664.00384.1928-.0072.28912-.0104.18608-.00016.37232-.00048.5584.0016.10416-.00304.20848-.00352.31232.0064l-.02272.00112c-.09632-.00064-.19264-.00064-.28896.00352-.66592.00112-1.332.00272-1.99808-.0016-.38032.0048-.7608.00305204-1.14128.0008-1.13168 0-2.26336.0008-3.39504-.00048-.39392-.01072-.78704-.08512-1.15392-.23024-.5664-.22144-1.0688-.60224-1.4368-1.08624-.3456-.45232-.57232-.99472-.64912-1.55888-.08304-.59984-.00112-1.2224.24032-1.77824.27424-.63856.75504-1.1856 1.35152-1.54192.48208-.29056 1.03872-.45072 1.60048-.472z" fill="#f24e1e"/><path d="m.008 0h3.42416c.56016.016 1.11616.172 1.59872.45744.4928.28896.90896.70688 1.19616 1.20064.2272.38896.3736.8248.4272 1.27216.02176.2064.04512.41472.0176.62176-.03344.50752-.18368 1.00704-.4392 1.44688-.29392.50928-.72496.9384-1.23568 1.22992-.46576.2672-.99744.4184-1.53424.43536-.10384-.00992-.20816-.00944-.31232-.0064-.18608-.00208-.37232-.00176-.5584-.0016-.09632.0032-.19248.01424-.28912.0104-.29776-.02-.59664-.00688-.89488-.0104-.46432.0016-.9288-.00384-1.39312.0032-.00048-2.12384 0-4.24752-.00032-6.3712.00128-.09616.0024-.19232-.00656-.28816z" fill="#ff7262" transform="translate(6.656)"/><path d="m1.692.44352c.47968-.27312 1.02864-.4232 1.58064-.432 1.13168.00128 2.26336.00048 3.39504.00048.00176 1.05696-.00176 2.11392.00192 3.17088-.00016.00528-.00048.01584-.00064.02112-.00272 1.1576.00016 2.31552-.00112 3.47328-1.13632.00048-2.27264.00048-3.40896-.00016-.45216-.01168-.9024-.11312-1.31344-.30288-.52304-.23968-.98128-.61792-1.31712-1.08496-.33328-.46144-.54512-1.00976-.60656-1.57568-.06768-.6056.03296-1.22944.29264-1.78096.29056-.62304.77936-1.15072 1.3776-1.48912z" fill="#a259ff" transform="translate(0 6.656)"/><path d="m3.15104.0128c.09632-.00416.19264-.00416.28896-.00352.57056.02096 1.13696.1816 1.62544.47936.54032.3256.98512.80752 1.2656 1.37264.23392.4632.34448.98176.35376 1.49872-.01408.42128-.08784.84336-.24912 1.2344-.3088.76768-.91504 1.4096-1.66336 1.7624-.50704.24192-1.07632.34944-1.63664.31376-.54752-.03328-1.08592-.20544-1.55088-.49648-.5024-.31248-.91888-.76096-1.19328-1.28512-.2728-.51536-.39904-1.10304-.37856-1.68496l.00064-.02112c.01104-.12768.0208-.25568.04256-.38192.09488-.58464.35168-1.14144.73248-1.59488.3936-.4712.9192-.8312 1.50208-1.0248.27776-.09472.56864-.14384.86032-.16848z" fill="#1abcfe" transform="translate(6.656 6.656)"/><path d="m3.25888.00512c1.13632.00064 2.27264.00064 3.40896.00016.00032 1.11312.00032 2.22624 0 3.33936-.00032.52064-.12448 1.04096-.36176 1.50464-.27904.54912-.7136 1.0176-1.23984 1.3376-.49008.30096-1.05936.46608-1.63344.48512h-.1928c-.25616-.0104-.51168-.04448-.75952-.11104-.59536-.15648-1.14384-.48416-1.56624-.93152-.54752-.57424-.87824-1.34944-.90944-2.1424-.02672-.5816.10176-1.16976.372-1.68576.29456-.56736.75648-1.04608 1.31264-1.3616.47632-.27264 1.02112-.42048 1.56944-.43456z" fill="#0acf83" transform="translate(0 13.328)"/></g></g></g></svg>