<svg xmlns="http://www.w3.org/2000/svg" width="24" height="24" viewBox="0 0 24 24"><path d="M21.5 13h-19a.5.5 0 00-.5.5v6C2 21.981 4.019 24 6.5 24h11c2.481 0 4.5-2.019 4.5-4.5v-6a.5.5 0 00-.5-.5zm-10 9v-3.5h-3l4-4.5v3.5H16L11.5 22zM22.885 2.007C21.831.731 20.232 0 18.5 0 15.467 0 13 2.243 13 5v7h3V9.44c.776.369 1.626.56 2.5.56 1.732 0 3.331-.731 4.385-2.006A.499.499 0 0023 7.676V2.325a.5.5 0 00-.115-.318zM19.75 5.5a.75.75 0 010-1.5.75.75 0 010 1.5zM8 9.44V12h3V5c0-2.757-2.467-5-5.5-5-1.732 0-3.331.731-4.385 2.007A.5.5 0 001 2.325v5.351c0 .116.041.23.115.318C2.169 9.269 3.768 10 5.5 10c.874 0 1.724-.191 2.5-.56zM4.25 5.5a.75.75 0 010-1.5.75.75 0 010 1.5z"/><path fill="none" d="M0 0h24v24H0z"/></svg>