<svg xmlns="http://www.w3.org/2000/svg" width="24" height="24" viewBox="0 0 24 24"><path d="M9 8h3v3.5a.5.5 0 0 0 .884.32l5-6A.498.498 0 0 0 17.5 5H14V1.5a.502.502 0 0 0-.342-.475.507.507 0 0 0-.558.175l-4.5 6A.5.5 0 0 0 9 8z"/><path d="M23.5 6h-4a.5.5 0 00-.5.5v5a.5.5 0 00.5.5H21v2.5c0 3.059-1.631 5.739-4.063 7.236A5.463 5.463 0 0018 18.5c0-3.032-2.467-5.5-5.5-5.5S7 15.468 7 18.5c0 1.21.398 2.327 1.063 3.236C5.63 20.239 4 17.559 4 14.5V12h2.5a.5.5 0 00.5-.5v-7a.5.5 0 00-.5-.5h-6a.5.5 0 00-.5.5v7a.5.5 0 00.5.5H3v2.5c0 5.283 4.33 9.5 9.5 9.5 5.169 0 9.5-4.215 9.5-9.5V12h1.5a.5.5 0 00.5-.5v-5a.5.5 0 00-.5-.5zM8 18.5c0-2.481 2.019-4.5 4.5-4.5s4.5 2.019 4.5 4.5-2.019 4.5-4.5 4.5S8 20.981 8 18.5zM6 .5a.5.5 0 00-.5-.5h-4a.5.5 0 00-.5.5V3h5V.5zM23 3.5a.5.5 0 00-.5-.5h-2a.5.5 0 00-.5.5V5h3V3.5z"/><path fill="none" d="M0 0h24v24H0z"/></svg>