<svg xmlns="http://www.w3.org/2000/svg" enable-background="new 0 0 50 50" viewBox="0 0 50 50"><path d="M44 3H6C3.2 3 1 5.2 1 8v26.6c0 2.8 2.2 5 5 5h38c2.8 0 5-2.2 5-5V8C49 5.2 46.8 3 44 3zM44 31.6H6V8h38V31.6zM37.5 45h-6l-.9-3.4h-11L18.6 45h-6c-.6 0-1 .4-1 1 0 .6.4 1 1 1h24.9c.6 0 1-.4 1-1C38.5 45.4 38 45 37.5 45z"/><path d="M15.8,23l1.4,0.3c0.1,0.3,0.2,0.6,0.4,0.9l-0.7,1.2c-0.2,0.4-0.2,0.9,0.1,1.2l2,2c0.2,0.2,0.5,0.3,0.7,0.3
		c0.2,0,0.4,0,0.5-0.1l1.2-0.7c0.3,0.1,0.6,0.3,0.9,0.4l0.3,1.3c0.1,0.5,0.5,0.8,1,0.8h2.9c0.5,0,0.9-0.3,1-0.8l0.3-1.3
		c0.3-0.1,0.6-0.2,0.9-0.4l1.2,0.7c0.2,0.1,0.3,0.2,0.5,0.2c0.3,0,0.5-0.1,0.7-0.3l2-2c0.3-0.3,0.4-0.8,0.1-1.2l-0.7-1.2
		c0.2-0.3,0.3-0.6,0.4-1l1.3-0.3c0.4-0.1,0.8-0.5,0.8-1v-2.9c0-0.5-0.3-0.9-0.8-1l-1.3-0.3c-0.1-0.3-0.3-0.6-0.4-0.9l0.7-1.2
		c0.3-0.4,0.2-0.9-0.1-1.2l-2-2c-0.3-0.3-0.8-0.4-1.2-0.1L28.6,13c-0.3-0.1-0.6-0.3-0.9-0.4l-0.3-1.3c-0.1-0.4-0.5-0.8-1-0.8h-2.9
		c-0.5,0-0.9,0.3-1,0.8l-0.3,1.4c-0.3,0.1-0.6,0.2-0.9,0.4l-1.2-0.7c-0.4-0.3-0.9-0.2-1.2,0.1l-2,2c-0.3,0.3-0.4,0.8-0.1,1.2
		l0.7,1.2c-0.1,0.3-0.3,0.6-0.4,0.9l-1.3,0.3c-0.4,0.1-0.8,0.5-0.8,1V22C15,22.5,15.3,22.9,15.8,23z M25,16.8c2.1,0,3.8,1.7,3.8,3.8
		c0,2.1-1.7,3.8-3.8,3.8c-2.1,0-3.8-1.7-3.8-3.8C21.2,18.5,22.9,16.8,25,16.8z"/></svg>