<svg xmlns="http://www.w3.org/2000/svg" width="32" height="32" enable-background="new 0 0 32 32" viewBox="0 0 32 32"><path d="M10,0C6.14,0,3,3.141,3,7c0,2.493,1.342,4.814,3.492,6.052C7.542,13.672,8.756,14,10,14s2.458-0.328,3.499-0.942
	C15.658,11.814,17,9.493,17,7C17,3.141,13.86,0,10,0z M10,10c-1.654,0-3-1.346-3-3s1.346-3,3-3s3,1.346,3,3S11.654,10,10,10z"/><path d="M13.496,11.322c-0.311-0.178-0.694-0.177-1.004,0.007c-1.508,0.891-3.476,0.891-4.983,0
	c-0.309-0.184-0.692-0.185-1.004-0.007C6.192,11.5,6,11.831,6,12.19V15c0,1.654,1.346,3,3,3h2c1.654,0,3-1.346,3-3v-2.81
	C14,11.831,13.808,11.5,13.496,11.322z"/><path d="M10 32c-.552 0-1-.447-1-1V17c0-.553.448-1 1-1s1 .447 1 1v14C11 31.553 10.552 32 10 32zM24 0h-2c-1.654 0-3 1.346-3 3v6c0 1.654 1.346 3 3 3h2c.552 0 1-.447 1-1V1C25 .447 24.552 0 24 0z"/><path d="M26,0h-2c-0.552,0-1,0.447-1,1v13c0,1.654,1.346,3,3,3s3-1.346,3-3V3C29,1.346,27.654,0,26,0z"/><path d="M26,32c-0.552,0-1-0.447-1-1V16c0-0.553,0.448-1,1-1s1,0.447,1,1v15C27,31.553,26.552,32,26,32z"/></svg>