<svg xmlns="http://www.w3.org/2000/svg" data-name="Layer 1" viewBox="0 0 512 512"><path d="M182.46387,314.69336l-.0752.07617a7.5,7.5,0,0,0,10.67578,10.53711l.0752-.07617a7.5,7.5,0,1,0-10.67578-10.53711Zm58.42285,66.043h-.10059a7.5,7.5,0,0,0,0,15h.10059a7.5,7.5,0,1,0,0-15Zm-30.32715,0H210.459a7.5,7.5,0,0,0,0,15h.10059a7.5,7.5,0,1,0,0-15Zm-30.32715,0h-.10156a7.5,7.5,0,0,0,0,15h.10156a7.5,7.5,0,0,0,0-15Zm58.36524-100.96289A7.50058,7.50058,0,0,0,227.99023,269.166l-.07519.07519a7.50058,7.50058,0,0,0,10.60742,10.60742ZM149.90527,380.73633h-.10156a7.5,7.5,0,1,0,0,15h.10156a7.5,7.5,0,1,0,0-15Zm-35.68066,2.19629a7.50069,7.50069,0,0,0,5.30371,12.80371h.0498a7.50766,7.50766,0,1,0-5.35351-12.80371Zm96.248-78.1416a7.481,7.481,0,0,0,5.30371-2.19629l.07519-.0752a7.50058,7.50058,0,0,0-10.60742-10.60742l-.07519.07519a7.5,7.5,0,0,0,5.30371,12.80372Zm-50.75489,32.64843-.07422.07617a7.4997,7.4997,0,1,0,10.67481,10.53711l.07519-.07617a7.5,7.5,0,0,0-10.67578-10.53711Zm136.50586-34.84472a7.50058,7.50058,0,0,0,10.60742-10.60743l-.07519-.07519a7.50058,7.50058,0,0,0-10.60742,10.60742ZM250.69629,246.46l-.03516.03516a7.52548,7.52548,0,1,0,.03516-.03516Zm-103.083,124.29883a7.50058,7.50058,0,1,0-10.60742-10.60742l-.0752.07519A7.50058,7.50058,0,0,0,147.53809,370.834Zm184.25488,9.97754h-.10058a7.5,7.5,0,0,0,0,15h.10058a7.5,7.5,0,0,0,0-15ZM53.5,113.5A7.5,7.5,0,1,0,61,121,7.50006,7.50006,0,0,0,53.5,113.5Zm289,0h-173a7.5,7.5,0,0,0,0,15h173a7.5,7.5,0,0,0,0-15ZM271.21387,380.73633h-.10059a7.5,7.5,0,0,0,0,15h.10059a7.5,7.5,0,0,0,0-15Zm103.78027-20.58594a7.50058,7.50058,0,0,0-10.60742,10.60742l.07617.07617a7.50058,7.50058,0,0,0,10.60742-10.60742ZM458.5,113.5A7.5,7.5,0,1,0,466,121,7.50006,7.50006,0,0,0,458.5,113.5Zm16-61H37.5A37.54227,37.54227,0,0,0,0,90V422a37.54227,37.54227,0,0,0,37.5,37.5h437A37.54227,37.54227,0,0,0,512,422V90A37.54227,37.54227,0,0,0,474.5,52.5ZM497,422a22.52586,22.52586,0,0,1-22.5,22.5H37.5A22.52586,22.52586,0,0,1,15,422V164.36084A67.39084,67.39084,0,0,0,67.5,189.5h377A67.39065,67.39065,0,0,0,497,164.36084Zm0-300a52.55992,52.55992,0,0,1-52.5,52.5H67.5A52.55992,52.55992,0,0,1,15,122V90A22.52586,22.52586,0,0,1,37.5,67.5h437A22.52586,22.52586,0,0,1,497,90ZM397.74023,382.89746a7.5363,7.5363,0,1,0,.03516.03516Zm-35.54492-2.16113h-.10058a7.5,7.5,0,0,0,0,15h.10058a7.5,7.5,0,0,0,0-15ZM284.00977,269.166a7.50058,7.50058,0,0,0-10.60743,10.60742l.0752.07519A7.50058,7.50058,0,1,0,284.085,269.24121ZM301.541,380.73633h-.10059a7.5,7.5,0,0,0,0,15h.10059a7.5,7.5,0,0,0,0-15Zm28.0371-55.39453a7.50137,7.50137,0,0,0,0-10.60742l-.07617-.07618a7.50058,7.50058,0,1,0-10.60742,10.60742l.07617.07618a7.502,7.502,0,0,0,10.60742,0Zm22.66993,12.0625a7.50058,7.50058,0,0,0-10.60743,10.60742l.07618.07617a7.50058,7.50058,0,0,0,10.60742-10.60742Z"/></svg>