<svg xmlns="http://www.w3.org/2000/svg" viewBox="0 0 32 32"><path d="M5.1 27A5 5 0 0 0 10 31H22a5 5 0 0 0 4.9-4zM27 7H5V25H27zm-8.29 9.71l-4 4a1 1 0 0 1-1.42 0 1 1 0 0 1 0-1.42L15.59 17H14a1 1 0 0 1-.35-.07l-.09-.05a.6.6 0 0 1-.21-.14l-.08-.06a1.27 1.27 0 0 1-.18-.27 0 0 0 0 0 0 0h0A.83.83 0 0 1 13 16s0 0 0 0 0 0 0-.06a1.31 1.31 0 0 1 .06-.27l0-.09a1.07 1.07 0 0 1 .19-.28h0l4-4a1 1 0 0 1 1.42 1.42L16.41 15H18a1 1 0 0 1 .35.07l.09 0a.6.6 0 0 1 .21.14l.08.06a1.27 1.27 0 0 1 .18.27v0h0A.83.83 0 0 1 19 16s0 0 0 0 0 0 0 .06a1.31 1.31 0 0 1-.06.27l0 .09a1.07 1.07 0 0 1-.19.28zM26.9 5A5 5 0 0 0 22 1H10A5 5 0 0 0 5.1 5z"/></svg>