<svg xmlns="http://www.w3.org/2000/svg" viewBox="0 0 16 16"><path d="M8.25 15h-.586c-.395 0-.781-.16-1.061-.439l-2.414-2.414A.5.5 0 0 0 3.836 12H2.25c-.827 0-1.5-.673-1.5-1.5v-5c0-.827.673-1.5 1.5-1.5h1.586a.504.504 0 0 0 .354-.146L6.604 1.44c.279-.28.666-.44 1.06-.44h.586c.827 0 1.5.673 1.5 1.5v11c0 .827-.673 1.5-1.5 1.5zm-6-10a.5.5 0 0 0-.5.5v5c0 .275.225.5.5.5h1.586c.395 0 .781.16 1.061.439l2.414 2.414a.5.5 0 0 0 .353.147h.586c.275 0 .5-.225.5-.5v-11a.5.5 0 0 0-.5-.5h-.586a.5.5 0 0 0-.353.146L4.896 4.561A1.51 1.51 0 0 1 3.836 5H2.25zM11.25 10.699a.501.501 0 0 1-.339-.868 2.471 2.471 0 0 0 0-3.663.5.5 0 0 1 .678-.736c.731.675 1.135 1.587 1.135 2.568s-.403 1.893-1.135 2.567a.501.501 0 0 1-.339.132z"/><path d="M11.25 13.063a.5.5 0 0 1-.203-.957c1.626-.723 2.677-2.335 2.677-4.106s-1.051-3.383-2.677-4.106a.5.5 0 0 1 .406-.914c1.986.883 3.271 2.854 3.271 5.02s-1.284 4.137-3.271 5.021a.503.503 0 0 1-.203.042z"/></svg>