<svg xmlns="http://www.w3.org/2000/svg" viewBox="0 0 1200 900"><path fill="#eff5f9" d="M300.59,725.34C276.14,706.54,168.27,619,157.13,492.28,141.5,314.52,328.93,203.5,380.34,173,498.22,103.22,781.57-2.09,961.21,155.22c143.88,126,132.58,357.74,43.62,490.32C858.23,864,494.61,874.52,300.59,725.34Z"/><rect width="64.89" height="28.93" x="894.45" y="415.23" fill="none" stroke="#c9effb" stroke-miterlimit="10" stroke-width="2" rx="2"/><rect width="64.89" height="28.93" x="894.45" y="472.99" fill="none" stroke="#c9effb" stroke-miterlimit="10" stroke-width="2" rx="2"/><rect width="64.89" height="28.93" x="926.89" y="444.16" fill="#c9effb" rx="2"/><rect width="64.89" height="28.93" x="862.01" y="444.16" fill="#c9effb" rx="2"/><rect width="64.89" height="28.93" x="182.67" y="558.22" fill="none" stroke="#c9effb" stroke-miterlimit="10" stroke-width="2" rx="2"/><rect width="64.89" height="28.93" x="215.11" y="615.98" fill="none" stroke="#c9effb" stroke-miterlimit="10" stroke-width="2" rx="2"/><rect width="64.89" height="28.93" x="228.6" y="587.15" fill="#c9effb" rx="2"/><rect width="64.89" height="28.93" x="163.71" y="587.15" fill="#c9effb" rx="2"/><rect width="64.89" height="28.93" x="560.07" y="172.79" fill="#c9effb" rx="2"/><rect width="64.89" height="28.93" x="581.99" y="230.65" fill="#c9effb" rx="2"/><rect width="64.89" height="28.93" x="605.99" y="201.72" fill="none" stroke="#c9effb" stroke-miterlimit="10" stroke-width="2" rx="2"/><rect width="64.89" height="28.93" x="541.11" y="201.72" fill="none" stroke="#c9effb" stroke-miterlimit="10" stroke-width="2" rx="2"/><g><path fill="#a04833" d="M284.53,215.93H206a4.72,4.72,0,0,1-4.76-4.76V132.66A4.73,4.73,0,0,1,206,127.9h78.51a4.73,4.73,0,0,1,4.76,4.76v78.51A4.86,4.86,0,0,1,284.53,215.93Z"/><path fill="#ffc065" d="M286.53,218.17h-82.6a5,5,0,0,1-5-5v-82.6a4.94,4.94,0,0,1,5-5h82.6a5,5,0,0,1,5,5v82.6A5,5,0,0,1,286.53,218.17Zm-82.6-87.6v82.6h82.64l0-82.59Z"/><path fill="#ffc065" d="M225.93,191.27a63.09,63.09,0,0,1,3.4-6.3c1.7-1.5,3.2-3.2,4.9-4.8l9.7-9.7-.6,1.4v-12c0-2-.1-4,.1-6,.6-2,1.2-4,1.9-6a46.21,46.21,0,0,1,1.9,6c.1,2,0,4,.1,6v12.9l-.6.6-9.7,9.7c-1.6,1.6-3.3,3.2-4.8,4.9C230.23,189.07,228.13,190.27,225.93,191.27Z"/></g><g data-name="Medicine/box"><rect width="487.94" height="265.81" x="576.41" y="113.12" fill="#cc7829"/><rect width="511.6" height="8.08" x="565.43" y="379.99" fill="#bed5e6"/><path fill="#e3eaf3" d="M899.16,198.93H863.45V167.51c0-4.36,1.68-3.82,4.69-7l4.76-5h16.81l4.75,5c3,3.15,4.7,2.61,4.7,7Z"/><rect width="29.75" height="8.71" x="866.43" y="146.86" fill="#e3eaf3" rx="4.34"/><rect width="35.7" height="11.26" x="863.45" y="174.49" fill="#ef3e3b"/><path fill="#e3eaf3" d="M939.32,198.93h-35.7V167.51c0-4.36,1.68-3.82,4.69-7l4.75-5h16.82l4.75,5c3,3.15,4.69,2.61,4.69,7Z"/><rect width="29.75" height="8.71" x="906.59" y="146.86" fill="#e3eaf3" rx="4.34"/><rect width="35.7" height="11.26" x="903.62" y="174.49" fill="#ef3e3b"/><path fill="#e3eaf3" d="M1008.36,290.59h-35.7V259.17c0-4.35,1.68-3.82,4.69-7l4.75-5h16.81l4.76,5c3,3.14,4.69,2.61,4.69,7Z"/><rect width="29.75" height="8.71" x="975.63" y="238.53" fill="#e3eaf3" rx="4.34"/><rect width="35.7" height="11.26" x="972.66" y="266.15" fill="#ef3e3b"/><path fill="#54a4cc" d="M1048.53,290.59h-35.71V259.17c0-4.35,1.68-3.82,4.69-7l4.76-5h16.81l4.75,5c3,3.14,4.7,2.61,4.7,7Z"/><rect width="29.75" height="8.71" x="1015.8" y="238.53" fill="#e3eaf3" rx="4.34"/><path fill="#e3eaf3" d="M706.58,290.59h-35.7V259.17c0-4.35,1.68-3.82,4.69-7l4.76-5h16.81l4.75,5c3,3.14,4.69,2.61,4.69,7Z"/><rect width="29.75" height="8.71" x="673.86" y="238.53" fill="#e3eaf3" rx="4.34"/><rect width="35.7" height="11.26" x="670.88" y="266.15" fill="#54a4cc"/><path fill="#e3eaf3" d="M746.75,290.59h-35.7V259.17c0-4.35,1.68-3.82,4.69-7l4.75-5H737.3l4.76,5c3,3.14,4.69,2.61,4.69,7Z"/><rect width="29.75" height="8.71" x="714.02" y="238.53" fill="#e3eaf3" rx="4.34"/><rect width="35.7" height="11.26" x="711.05" y="266.15" fill="#ef3e3b"/><path fill="#e3eaf3" d="M642.11,380.13h-35.7V348.71c0-4.35,1.68-3.82,4.69-7l4.75-5h16.81l4.76,5c3,3.14,4.69,2.61,4.69,7Z"/><rect width="29.75" height="8.71" x="609.38" y="328.06" fill="#e3eaf3" rx="4.34"/><rect width="35.7" height="11.26" x="606.41" y="355.69" fill="#54a4cc"/><path fill="#e3eaf3" d="M682.27,380.13h-35.7V348.71c0-4.35,1.68-3.82,4.69-7l4.76-5h16.81l4.75,5c3,3.14,4.69,2.61,4.69,7Z"/><rect width="29.75" height="8.71" x="649.55" y="328.06" fill="#e3eaf3" rx="4.34"/><rect width="35.7" height="11.26" x="646.57" y="355.69" fill="#ef3e3b"/><path fill="#54a4cc" d="M1052.78,198.93h-51.1V154c0-6.23,2.41-5.46,6.72-10l6.8-7.11h24.07l6.8,7.11c4.31,4.51,6.71,3.74,6.71,10Z"/><rect width="42.58" height="12.47" x="1005.94" y="124.4" fill="#e3eaf3" rx="6.22"/><rect width="51.1" height="16.12" x="1001.68" y="163.95" fill="#ef3e3b"/><path fill="#e3eaf3" d="M653.25,290.59h-51.1v-45c0-6.23,2.4-5.46,6.71-10l6.81-7.11h24.06l6.8,7.11c4.31,4.51,6.72,3.74,6.72,10Z"/><rect width="42.58" height="12.47" x="606.41" y="216.07" fill="#54a4cc" rx="6.22"/><rect width="51.1" height="16.12" x="602.15" y="255.61" fill="#ef3e3b"/><path fill="#e3eaf3" d="M960.47,290.59H909.36v-45c0-6.23,2.41-5.46,6.72-10l6.8-7.11H947l6.8,7.11c4.31,4.51,6.72,3.74,6.72,10Z"/><rect width="42.58" height="12.47" x="913.62" y="216.07" fill="#54a4cc" rx="6.22"/><rect width="51.1" height="16.12" x="909.36" y="255.61" fill="#ef3e3b"/><path fill="#e3eaf3" d="M858.59,377.78h-51.1v-45c0-6.24,2.4-5.47,6.71-10l6.81-7.11h24.06l6.81,7.11c4.31,4.5,6.71,3.73,6.71,10Z"/><rect width="42.58" height="12.47" x="811.75" y="303.26" fill="#e3eaf3" rx="6.22"/><rect width="51.1" height="16.12" x="807.49" y="342.8" fill="#ef3e3b"/><path fill="#e3eaf3" d="M1016.23,380.13h-51.1v-45c0-6.23,2.41-5.47,6.71-10l6.81-7.11h24.06l6.81,7.11c4.31,4.5,6.71,3.74,6.71,10Z"/><rect width="42.58" height="12.47" x="969.22" y="305.61" fill="#ef3e3b" rx="6.22"/><rect width="51.1" height="16.12" x="965.13" y="341.04" fill="#54a4cc"/><polygon fill="#e3eaf3" points="990.68 198.93 957.24 198.93 957.24 127.94 969.57 127.94 973.96 163.44 978.5 127.94 990.68 127.94 990.68 198.93"/><circle cx="965.89" cy="167.9" r="3.97" fill="#abbcca"/><circle cx="965.89" cy="180.07" r="3.97" fill="#abbcca"/><circle cx="965.89" cy="192.53" r="3.97" fill="#abbcca"/><circle cx="982.32" cy="167.9" r="3.97" fill="#abbcca"/><circle cx="982.32" cy="180.07" r="3.97" fill="#abbcca"/><circle cx="982.32" cy="192.53" r="3.97" fill="#abbcca"/><polygon fill="#e3eaf3" points="799.7 290.59 766.26 290.59 766.26 219.61 778.59 219.61 782.98 255.1 787.51 219.61 799.7 219.61 799.7 290.59"/><circle cx="774.9" cy="259.57" r="3.97" fill="#abbcca"/><circle cx="774.9" cy="271.73" r="3.97" fill="#abbcca"/><circle cx="774.9" cy="284.2" r="3.97" fill="#abbcca"/><circle cx="791.34" cy="259.57" r="3.97" fill="#abbcca"/><circle cx="791.34" cy="271.73" r="3.97" fill="#abbcca"/><circle cx="791.34" cy="284.2" r="3.97" fill="#abbcca"/><polygon fill="#e3eaf3" points="912.9 380.13 879.46 380.13 879.46 309.15 891.79 309.15 896.18 344.64 900.71 309.15 912.9 309.15 912.9 380.13"/><circle cx="888.1" cy="349.11" r="3.97" fill="#abbcca"/><circle cx="888.1" cy="361.27" r="3.97" fill="#abbcca"/><circle cx="888.1" cy="373.74" r="3.97" fill="#abbcca"/><circle cx="904.54" cy="349.11" r="3.97" fill="#abbcca"/><circle cx="904.54" cy="361.27" r="3.97" fill="#abbcca"/><circle cx="904.54" cy="373.74" r="3.97" fill="#abbcca"/><rect width="33.44" height="65.03" x="918.2" y="315.1" fill="#bed5e6"/><circle cx="926.84" cy="349.11" r="3.97" fill="#ef3e3b"/><circle cx="926.84" cy="361.27" r="3.97" fill="#ef3e3b"/><circle cx="926.84" cy="373.74" r="3.97" fill="#ef3e3b"/><circle cx="943.27" cy="349.11" r="3.97" fill="#ef3e3b"/><circle cx="943.27" cy="361.27" r="3.97" fill="#ef3e3b"/><circle cx="943.27" cy="373.74" r="3.97" fill="#ef3e3b"/><circle cx="926.7" cy="324.08" r="3.97" fill="#ef3e3b"/><circle cx="926.7" cy="336.55" r="3.97" fill="#ef3e3b"/><circle cx="943.13" cy="324.08" r="3.97" fill="#ef3e3b"/><circle cx="943.13" cy="336.55" r="3.97" fill="#ef3e3b"/><polygon fill="#e3eaf3" points="711.37 198.93 677.94 198.93 677.94 127.94 690.26 127.94 694.65 163.44 699.19 127.94 711.37 127.94 711.37 198.93"/><circle cx="686.58" cy="167.9" r="3.97" fill="#54a4cc"/><circle cx="686.58" cy="180.07" r="3.97" fill="#54a4cc"/><circle cx="686.58" cy="192.53" r="3.97" fill="#54a4cc"/><circle cx="703.01" cy="167.9" r="3.97" fill="#54a4cc"/><circle cx="703.01" cy="180.07" r="3.97" fill="#54a4cc"/><circle cx="703.01" cy="192.53" r="3.97" fill="#54a4cc"/><rect width="33.44" height="65.03" x="716.67" y="133.89" fill="#e3eaf3"/><circle cx="725.31" cy="167.9" r="3.97" fill="#abbcca"/><circle cx="725.31" cy="180.07" r="3.97" fill="#abbcca"/><circle cx="725.31" cy="192.53" r="3.97" fill="#abbcca"/><circle cx="741.75" cy="167.9" r="3.97" fill="#abbcca"/><circle cx="741.75" cy="180.07" r="3.97" fill="#abbcca"/><circle cx="741.75" cy="192.53" r="3.97" fill="#abbcca"/><circle cx="725.17" cy="142.88" r="3.97" fill="#abbcca"/><circle cx="725.17" cy="155.34" r="3.97" fill="#abbcca"/><circle cx="741.61" cy="142.88" r="3.97" fill="#abbcca"/><circle cx="741.61" cy="155.34" r="3.97" fill="#abbcca"/><polygon fill="#54a4cc" points="885.84 290.59 855.66 287.12 825.48 290.59 825.48 244.12 855.66 247.59 885.84 244.12 885.84 290.59"/><rect width="11.33" height="46.47" x="814.15" y="244.12" fill="#ef3e3b"/><rect width="11.33" height="46.47" x="885.84" y="244.12" fill="#ef3e3b"/><rect width="32.3" height="18.76" x="839.51" y="257.94" fill="#e3eaf3"/><polygon fill="#ef3e3b" points="837.67 198.93 807.49 195.46 777.31 198.93 777.31 152.46 807.49 155.93 837.67 152.46 837.67 198.93"/><rect width="11.33" height="46.47" x="765.98" y="152.46" fill="#54a4cc"/><rect width="11.33" height="46.47" x="837.67" y="152.46" fill="#54a4cc"/><rect width="32.3" height="18.76" x="791.34" y="166.27" fill="#e3eaf3"/><polygon fill="#e3eaf3" points="657.88 198.93 627.7 195.46 597.52 198.93 597.52 152.46 627.7 155.93 657.88 152.46 657.88 198.93"/><rect width="11.33" height="46.47" x="586.19" y="152.46" fill="#ef3e3b"/><rect width="11.33" height="46.47" x="657.88" y="152.46" fill="#ef3e3b"/><rect width="32.3" height="18.76" x="611.55" y="166.27" fill="#54a4cc"/><polygon fill="#ef3e3b" points="776.93 380.13 746.75 376.66 716.57 380.13 716.57 333.66 746.75 337.13 776.93 333.66 776.93 380.13"/><rect width="11.33" height="46.47" x="705.24" y="333.66" fill="#e3eaf3"/><rect width="11.33" height="46.47" x="776.93" y="333.66" fill="#e3eaf3"/><rect width="32.3" height="18.76" x="730.6" y="347.47" fill="#54a4cc"/><rect width="542.35" height="16.15" x="550.06" y="100.32" fill="#a04833"/><rect width="511.6" height="8.08" x="565.43" y="289.46" fill="#e3eaf3"/><rect width="511.6" height="8.08" x="565.43" y="198.93" fill="#e3eaf3"/><path fill="#a04833" d="M562.81,108.39V392.18H1078V108.39Zm501.54,270.54H576.41V113.12h487.94Z"/></g><g data-name="Doctor/Head/Male"><path d="M759.5,306.77S757,337.06,745,350.2s-.22-44.44-.22-44.44Z"/><path fill="#ea9d7d" d="M721,364.92c.63-2.22-2-7.61-3.6-10.72,10.86,1.66,23.78-6,30.51-19.56a4.74,4.74,0,0,0,1.29.47s1.06,28.21,7.17,28.56c7.15,6.13,30.51,26.89,25.75,36.53-4,8.07-25.56,3.91-57.71-2.31a16.14,16.14,0,0,1-8.39-4c-6.75-6.43-4.9-18-3.95-20.61C713.29,369.88,720.1,368.11,721,364.92Z"/><path fill="#d18165" d="M744.45,368.13c4.27-9.24-4.69-11.2-4.69-11.2l.07-.13c-5.92,4-12.54,5.73-18.47,4.58l-.83-.19a46.46,46.46,0,0,0-3.13-7.06c10.86,1.66,23.16-6.72,29.89-20.29A2,2,0,0,0,749.2,335s.2,5.25.91,11.24h0c.93,7.93,2.77,17.19,6.26,17.39,9.69,8.22,33.09,29.16,28.39,38.45s-36.81,6-60.35-4.23c-3.59-1.56-6.52-3.08-8.66-4.26C730.46,395.24,740.62,376.42,744.45,368.13Z"/><path fill="#ea9d7d" d="M734.2,281.42c12.39,2.41,20,18.2,18.25,36.53h.1c3.38.66,5.38,5,4.46,9.77s-4.42,8-7.81,7.38a2.76,2.76,0,0,1-2-1c-6.88,13.88-19.53,22.11-30.53,20C703,351.43,698.17,334.58,702.19,314S720.54,278.75,734.2,281.42Z"/><path fill="#d18165" d="M752.66,322.17a4.71,4.71,0,0,1,1.8,2.34,5.45,5.45,0,0,1,.23,3.08,5.65,5.65,0,0,1-1.41,2.72,6.05,6.05,0,0,1-1.15.95,5.66,5.66,0,0,1-1.36.59,12.3,12.3,0,0,1,.65-1.26c.18-.42.42-.78.56-1.17a9.88,9.88,0,0,0,.76-2.24A13.71,13.71,0,0,0,752.66,322.17Z"/><path fill="#be3e5f" d="M708.35,340.54c10,.46,11.12-7.22,11.12-7.22a26.4,26.4,0,0,1-12.41.85S710,337.51,708.35,340.54Z"/><path fill="#d18165" d="M711.15,312.5a19.6,19.6,0,0,1,.12,6.26,10.5,10.5,0,0,1-.92,3.18c-.28.57-.55.92-.81,1.37s-.51.84-.73,1.26a5.49,5.49,0,0,0-.8,2.37,1.08,1.08,0,0,0,.29.81,2.87,2.87,0,0,0,.94.64,24.18,24.18,0,0,0,5.84,1,12.48,12.48,0,0,1-6.34.45,3.91,3.91,0,0,1-1.68-.88,3,3,0,0,1-.94-1.92,6.38,6.38,0,0,1,.93-3.44c.26-.48.54-.94.83-1.38s.62-.89.82-1.22a11.39,11.39,0,0,0,1-2.61C710.31,316.53,710.7,314.53,711.15,312.5Z"/><path d="M717.4 308.39a45.4 45.4 0 015.89 1.37 19.72 19.72 0 012.71 1.1c.9.41 1.71 1 2.66 1.52a6.76 6.76 0 00-2-2.52 8.84 8.84 0 00-2.88-1.55 10.3 10.3 0 00-3.2-.51A8.14 8.14 0 00717.4 308.39zM707.17 306.45a9.11 9.11 0 00-2.76-.65c-.18.5-.34 1-.51 1.5h0a19 19 0 012.91.3c1 .14 1.92.46 3 .71A7 7 0 00707.17 306.45zM704.83 320.06a1.53 1.53 0 001.79-1.21l.86-4.4a1.53 1.53 0 10-3-.59l-.85 4.4A1.53 1.53 0 00704.83 320.06zM720.24 321a1.54 1.54 0 001.8-1.21l.86-4.4a1.53 1.53 0 10-3-.58L719 319.2A1.54 1.54 0 00720.24 321z"/><path d="M759.51,302.93s-5.64-34.63-23.25-22.56c0,0-17.18-6.18-25.37,6.64s-12.08,9.54-12.08,9.54S713,307,722.61,301.73l12.08,3.58a8.52,8.52,0,0,1,6.1,7.88l.49,14.18a4,4,0,0,0,7.32-.26c.74-1.74,1.51-3.67,2.22-5.64C753.31,314.57,761.2,309.36,759.51,302.93Z"/></g><g data-name="Doctor/Torso"><path fill="#ea9d7d" d="M614.17,473.63l-10.32.42s-2.25-1.79-5.3-4.11c-5.75-4.39-14.37-10.72-16.14-10.61-2.71.16-7.42,2.13,4.3,11.16l-.09.08c-.39.29-2.2,1.48-6.83,1.76-5.33.33-23.28,1.55-26.2,2.65-1.58.59-5.13,5.35,21.48,4.41a1.43,1.43,0,0,1,1.51,1.61c-.09.49-.45.93-1.41,1-2.41.15-23.22.5-22.86,4.26.26,2.74,5.71,2.07,24,1.26,0,0,2.9.75.59,2.24-.8.51-21.42,2.44-22.43,4.07s-3.67,4.31,27.27.93c0,0,.54.31-2.15,1.88-2.86,1.67-11.32,3.92-13.48,7.07s4.11.65,20-4.69l22.28-2.82c14.73,2.07,69.85,6.77,83.54-7.45,12.83-13.32,19.73-61,19.73-61l-31.37-1-13.14,35.54a6.91,6.91,0,0,1-5.49,4.44l-49.32,7.12"/><line x1="613.62" x2="613.62" y1="473.63" y2="495.82" fill="none" stroke="#2f170b" stroke-linecap="round" stroke-linejoin="round" stroke-width="6"/><path fill="#ef3e3b" d="M674.82,429l12-37.55a39,39,0,0,1,13-19,28.61,28.61,0,0,1,5.06-3.22,1,1,0,0,1,1.44.94L704.34,429Z"/><path fill="#e3eaf3" d="M674.82,429l12-37.55a39,39,0,0,1,13-19,28.61,28.61,0,0,1,5.06-3.22,1,1,0,0,1,1.44.94L704.34,429Z"/><path fill="#abbcca" d="M705.84,382.67,704.34,429H688.57c-.36-11.25.48-23.68,7-37.51,4.48-9.42,7.07-9.89,8.16-9.84A3.29,3.29,0,0,1,705.84,382.67Z"/><path fill="#ea9d7d" d="M850.31,563.33a23.72,23.72,0,0,1-.73-5.5c-.23-15.57-1.72-75-10.68-102-2.85-8.62-29.06-52.54-29.06-52.54l-37.44,7.92,33,54.79a27.41,27.41,0,0,1,3.19,7.83l20.11,85.65a8.1,8.1,0,0,1-1.49,6.82c-4.23,5.43-12.61,16.46-12.48,18.48.19,2.71,2.19,7.42,11.14-4.37,0,0,1.53,1.58,1.88,6.91s1.13,25.85,2.81,26.19,5.49,5.22,4.23-22.66c0,0,2.48-1.38,2.64,1s1.54,25.3,4.4,22.84,2-5.73,1.12-24c0,0,1.87-1.49,2.23-.61s2.41,22.52,4.22,22.4,4.32,3.64.74-27.26c0,0,1-.52,2.14,2.58s5.5,16.71,6.92,13,.63-4.13-4.81-19.94l-4.05-17.57Z"/><path fill="#d18165" d="M772.4,411.19l8.83-1.87c6.6,8.38,14.8,14.46,25.48,30.1,8.33,12.19,13.72,24.59,16.11,29.83,6.56,14.36,5.23,21.69,9.6,57.12,2.63,21.28,3.94,31.92,5.32,37.48,0,0,9.88,39.86,5.06,49.73a2.78,2.78,0,0,1-1,1.12c-2.86,2.46-4.24-20.43-4.4-22.84s-2.64-1-2.64-1c1.26,27.88-2.54,23-4.23,22.66s-2.45-20.76-2.8-26.15h0v0c-.35-5.33-1.88-6.91-1.88-6.91-9,11.79-11,7.08-11.14,4.37-.13-2,8.25-13,12.48-18.48a8.1,8.1,0,0,0,1.49-6.82l-20.11-85.65a27.41,27.41,0,0,0-3.19-7.83Z"/><polygon fill="#25beef" points="676.85 422.66 703.36 422.66 703.36 426.66 675.57 426.66 676.85 422.66"/><path fill="#1a87c4" d="M688.52,422.66h14.84v4H688.52C688.5,425.34,688.5,424,688.52,422.66Z"/><polygon fill="#25beef" points="679.78 413.46 702.88 413.46 702.88 417.46 678.5 417.46 679.78 413.46"/><path fill="#1a87c4" d="M689.17,413.46h13.71v4H688.77C688.87,416.14,689,414.81,689.17,413.46Z"/><path fill="#e3eaf3" d="M706,497.16h77.51a8.43,8.43,0,0,0,8.34-9.69l-18.3-120.72-18.84-4.17c-6.73,14.27-27.46,14.92-34.08.6l-14.3,5.44a10.88,10.88,0,0,0-8.3,11.15l.15,4.51q1.77,54.38,3.56,108.75C701.72,493.33,701.8,494.79,706,497.16Z"/><path fill="#e3eaf3" d="M824.11,427.21a4,4,0,0,0,1-5.68l-28.2-39.16s-10-12.88-23.35-15.62l-7.62,39.74,27,41a1.34,1.34,0,0,0,1.9.36Z"/><path fill="#abbcca" d="M792.86,447.45l-26.77-40.68.06-.39a4.33,4.33,0,0,1,6.89-2.8c5.11,3.89,11.64,10.58,17.62,16.71,6.24,6.4,12.94,13.27,16.05,19.13l-12,8.39A1.34,1.34,0,0,1,792.86,447.45Z"/><rect width="41.07" height="4" x="786.22" y="429.23" fill="#25beef" transform="rotate(-35.22 806.77 431.241)"/><path fill="#1a87c4" d="M801.77,432.31c.88,1.07,1.69,2.13,2.44,3.16l-13.08,9.24L790,443.08l-1.1-1.68Z"/><rect width="40.65" height="4" x="780.67" y="420.85" fill="#25beef" transform="rotate(-33.22 800.902 422.829)"/><path fill="#1a87c4" d="M797.55,427.49l-12.46,8.16-1.05-1.6-1.14-1.74,11.87-7.77C795.71,425.52,796.65,426.51,797.55,427.49Z"/><path fill="#abbcca" d="M701.71,493c5.88-2.07,21.16-2.14,44.31-9.44,21.73-6.84,26.1-12.4,28.08-16.38,4.65-9.35,1.61-21.22.36-26.1-2.24-8.76-2.88-12.11-7.38-23.22-1.51-3.73-2-12.76,0-13.5,2.33-.86,8.92,9.2,15.66,23.17l9.08,59.91a8.43,8.43,0,0,1-8.34,9.69H706a4.27,4.27,0,0,1-4.26-4.13Z"/><path fill="none" stroke="#2f170b" stroke-miterlimit="10" stroke-width="2" d="M586.39,470.54s4.32,16.18,19.09,11.71"/></g><g data-name="Doctor/Bottom"><path fill="#7c2f13" d="M647.35,814.06c10.88-8.34,38.6-17,45.54-32.51,3.75,4.71,24.72,3.38,32.68,3h0s2.61,12.95,2,22-1.11,11.67-1.11,11.67l-14.77.56L712,815s-8.59-.38-13.62,3.93-18.76,9.34-32.87,7.35S636.46,822.4,647.35,814.06Z"/><path fill="#25beef" d="M665.54,826.26c14.1,2,27.83-3,32.86-7.34S712,815,712,815l-.37,3.89,14.77-.56s.46-2.57,1.11-11.67a76.66,76.66,0,0,0-.73-14.42c-.58-4.38-1.23-7.63-1.23-7.63-8,.34-28.25,1.55-32.67-3-2.13,2.57-6.17,5-8.58,7.52-.76.81-1.58,1.61-2.4,2.38s-1.42,1.23-2.14,1.84c-.93.76-1.88,1.53-2.88,2.27-10,7.46-22.61,13.2-29.54,18.5C636.47,822.4,651.43,824.26,665.54,826.26Z"/><path fill="#e3eaf3" d="M725.57 784.59h0s2.61 12.95 2 22c-.16 2.13-.3 3.89-.43 5.35-5.2.14-11.28-.27-8.89-3.22 4-4.89 4.07-24.06 4.07-24.06zM645.12 816.06a17.17 17.17 0 012.23-2c4.58-3.51 11.64-7.21 18.79-11.47a29 29 0 0114.54 9.49c3.29 4.14 3.56 10.9 4.45 12-3.65 3.83-40.74-.69-41.45-4.51 0 0 0-.09 0-.13A5.41 5.41 0 01645.12 816.06z"/><path fill="#7c2f13" d="M665.53 826.26c-11.33-1.61-23.19-3.12-21.8-8 34.73 12.23 50.18-.89 53.18-5s9.33-3.91 9.33-3.91c11.53 1 18-2.25 21.37-4.87 0 .71 0 1.42-.08 2.1-.66 9.1-1.11 11.67-1.11 11.67l-14.77.56L712 815s-8.59-.38-13.62 3.93S679.64 828.25 665.53 826.26zM681.92 791.45c.63.54 1.3 1.06 2 1.54a21 21 0 002.86 1.8 13 13 0 003.45 1.32 9.65 9.65 0 00-1.68-3.5 11.87 11.87 0 00-2.61-2.59 11.71 11.71 0 00-1.59-.95C683.56 789.88 682.74 790.68 681.92 791.45zM676.9 795.56c.46.35.92.7 1.39 1a26.2 26.2 0 002.86 1.8 13 13 0 003.45 1.32 9.57 9.57 0 00-1.68-3.5 11.87 11.87 0 00-2.61-2.59 4.79 4.79 0 00-.53-.34C678.85 794.05 677.9 794.82 676.9 795.56z"/><path fill="#7c2f13" d="M709.51,814c10.88-8.34,37.2-14.91,44.14-30.39,3.75,4.71,24.9.34,32.86,0h0s3.83,13.88,3.18,23-1.11,11.67-1.11,11.67l-14.77.56.37-3.89s-8.59-.38-13.62,3.94-18.76,9.33-32.87,7.34S698.62,822.29,709.51,814Z"/><path fill="#25beef" d="M727.7,826.15c14.1,2,27.83-3,32.86-7.34s13.62-3.94,13.62-3.94l-.37,3.89,14.77-.56s.46-2.57,1.11-11.67c.33-4.54-.67-9.94-1.24-14.31a57.57,57.57,0,0,0-1.94-8.65c-8,.33-27.45,1.4-32.85,0a24.44,24.44,0,0,0-7.18,5.4c-.76.82-1.58,1.61-2.4,2.39-.71.62-1.42,1.23-2.14,1.83-.93.77-1.88,1.53-2.88,2.27-10,7.46-22.61,13.2-29.54,18.5C698.63,822.3,713.59,824.15,727.7,826.15Z"/><path fill="#e3eaf3" d="M786.51 783.56h0s3.83 13.88 3.18 23c-.16 2.13-.3 3.89-.43 5.36-5.2.14-11.28-.28-8.89-3.22 4-4.9 4.07-24.07 4.07-24.07C785.7 784.56 785.6 783.6 786.51 783.56zM707.28 816a17.93 17.93 0 012.23-2c4.58-3.51 11.64-7.21 18.79-11.47A29 29 0 01742.84 812c3.29 4.14 3.56 10.9 4.45 12-3.65 3.82-40.74-.7-41.45-4.52 0 0 0-.08 0-.13A5.44 5.44 0 01707.28 816z"/><path fill="#7c2f13" d="M727.69 826.15c-11.33-1.6-23.19-3.12-21.8-8 34.73 12.23 50.18-.89 53.18-5s9.33-3.91 9.33-3.91c11.53 1 18.05-2.25 21.37-4.88 0 .72 0 1.42-.08 2.1-.66 9.1-1.11 11.67-1.11 11.67l-14.77.56.37-3.89s-8.59-.38-13.62 3.94S741.8 828.14 727.69 826.15zM744.08 791.35c.63.53 1.3 1 2 1.53a20.07 20.07 0 002.86 1.8 13.4 13.4 0 003.45 1.33 9.7 9.7 0 00-1.68-3.51 12.1 12.1 0 00-2.61-2.59 11.71 11.71 0 00-1.59-.95C745.72 789.78 744.9 790.57 744.08 791.35zM739.06 795.45c.46.35.92.7 1.39 1a24.76 24.76 0 002.86 1.8 13.4 13.4 0 003.45 1.33 9.54 9.54 0 00-1.68-3.51 12.1 12.1 0 00-2.61-2.59c-.16-.12-.35-.23-.53-.34C741 794 740.06 794.71 739.06 795.45z"/><path fill="#ef3e3b" d="M793.21,562a90.78,90.78,0,0,0,5.86-43,89.49,89.49,0,0,0-7.32-26.85s-69.82,10.36-89.34.59c0,0-15.62,138.54-16.11,150.74s6.59,139.13,6.59,139.13,19,7.64,32.63,2.44c0,0,10.74-97.31,9.11-122l.89-16.82c.54,12.2,18.24,138.08,18.24,138.08s19.53,6,32.72-.31c0,0,2.54-97.86-1.16-122.37l-.36-47Z"/><path fill="#c82833" d="M737.07,601.08c-2.6-30-8-58.77-9.76-58.58-1.35.14,0,15.07.49,49.31.36,27.92-.19,46.68-1,73.22-1.53,51.8-3.6,60.69-5.83,67.85a139.26,139.26,0,0,1-28.1,49.8c6.41,2.88,16.78,6.19,28.37,3.63a38.77,38.77,0,0,0,4.26-1.19s10.74-97.31,9.11-122l3.47-45.36C738,613.16,737.69,608.16,737.07,601.08Z"/><path fill="#c82833" d="M799.07,519.07a89.49,89.49,0,0,0-7.32-26.85s-69.82,10.36-89.34.6h0c-.76,5.69,53.65,6.82,72.12,40.89,4.59,8.47,3.48,104,4.58,130.51,2.17,51.78.73,60.79-1,68.1a139.1,139.1,0,0,1-24.43,51.6l0,.09c1.34.49,2.85,1,4.5,1.43,5.25,1.11,14.29,2.4,22.46.56.51-.13,1-.25,1.53-.4a37.77,37.77,0,0,0,3.89-1.4l.51-.26c0-.11-.12-3,.06-8.15.51-24.08,1.69-93.95-1.35-114.13l-.36-47,1-6.7v-.05l0-.08,7.18-45.8h0A90.78,90.78,0,0,0,799.07,519.07Z"/><path fill="#7c2f13" d="M743.52,507.13c15.53,0,36-1.27,51.42-6.79l-.67-1.88c-25.61,9.18-65.65,6.4-72.26,5.86l.25-7.63-2-.06-.31,9.51.93.09C721.09,506.25,730.58,507.13,743.52,507.13Z"/><path fill="#7c2f13" d="M720.89 506.23l.18-2a131.51 131.51 0 01-19.41-3.37l-.53 1.93A133.32 133.32 0 00720.89 506.23zM726.47 543.05l1.68-1.09c-7-10.75-4.3-36.2-4.27-36.46l-2-.22C721.77 506.36 719.09 531.71 726.47 543.05zM787.54 543.47l.5-1.94c-12.43-3.15-27.71-23.68-27.87-23.89l-1.61 1.19C759.21 519.7 774.43 540.14 787.54 543.47zM725.94 503.57c-3.86 0-3.87-6 0-6s3.87 6 0 6z"/><path fill="#7c2f13" d="M767.26,784.62l2-.09c0-.85-3.87-85.44-6-127.24-2.84-55.27,9.46-124.21,9.58-124.9l-2-.36c-.13.69-12.47,69.86-9.62,125.36C763.4,699.19,767.22,783.77,767.26,784.62Z"/></g><g><path fill="#7bce34" d="M1049.89,665.92c-3.89-17.45-9.86-33.86-22.3-32.45s-22.38,18.46-22.76,37.57c-.35,17.87,13.75,31,26.19,29.6S1054.79,687.88,1049.89,665.92Z"/><path fill="#3c8f2d" d="M1037.7,676.68c-12.45,1.41-26.54-11.73-26.19-29.61,0-.4,0-.81,0-1.22a52.52,52.52,0,0,0-6.73,25.19c-.35,17.87,13.75,31,26.19,29.6,11.53-1.31,22.09-11.15,19.69-30.06A22,22,0,0,1,1037.7,676.68Z"/><path fill="#7bce34" d="M1083.71,716.88c-1-17.85-11-23-23.49-21.59s-22.37,18.45-22.75,37.56c-.36,17.88,6.24,24.8,18.68,23.39S1085,741,1083.71,716.88Z"/><path fill="#3c8f2d" d="M1075.79,740.16c-12.44,1.41-19-5.52-18.68-23.39a54.19,54.19,0,0,1,4.85-21.64c-.57,0-1.15.09-1.74.16-12.44,1.41-22.37,18.45-22.75,37.56-.36,17.88,6.24,24.8,18.68,23.39,7.77-.88,17.1-6.62,22.69-16.67A22.74,22.74,0,0,1,1075.79,740.16Z"/><path fill="#7bce34" d="M1007.42,696.42c-10-8-21.37-8.91-26.39-3.69s-1.49,14.7,7.31,25.17c8.23,9.8,18.43,15.12,25.79,10C1020.05,723.68,1020,706.55,1007.42,696.42Z"/><path fill="#3c8f2d" d="M1010,698.8c.14,4.91-1.28,9-3.79,10.78-7.36,5.18-17.57-.14-25.79-9.94-.57-.68-1.12-1.35-1.64-2-.58,5.34,3,12.54,9.54,20.28,8.23,9.8,18.43,15.12,25.79,10C1019.61,724,1019.94,709,1010,698.8Z"/><path fill="#2e6821" d="M993.21 699.13a48.46 48.46 0 017.62 5.72 7.27 7.27 0 01.74.92c.24.32.49.63.73.93.49.63 1 1.22 1.46 1.87.91 1.29 1.89 2.53 2.74 3.86a86.39 86.39 0 018.81 16.72 84 84 0 015.06 18.21l.39 2.33c.06.39.14.78.18 1.17l.1 1.18c.12 1.57.28 3.14.39 4.72a39.89 39.89 0 01-.57 4.73c-.25 1.57-.52 3.12-.82 4.66-.28-1.57-.55-3.11-.79-4.65s-.39-3.06-.81-4.57c-.15-1.52-.24-3-.38-4.56l-.1-1.14c0-.38-.12-.75-.17-1.13l-.38-2.25a81.31 81.31 0 00-4.89-17.59 82.5 82.5 0 00-8.51-16.15c-.82-1.29-1.77-2.49-2.65-3.73s-1.89-2.39-2.85-3.57C996.87 704.2 995.12 701.65 993.21 699.13zM1028.47 639.48c.87 5.22 1.52 10.46 2.16 15.7l.5 15.78c.3 10.52.53 21 .63 31.57s.08 21.07-.21 31.61c-.15 5.27-.38 10.55-.79 15.83-.43 2.62-.91 5.24-1.51 7.84a35.81 35.81 0 01-2.49 7.58l.4-1.94.23-2c.13-1.3.21-2.61.27-3.91.1-2.62.15-5.23.11-7.86.4-5.2.63-10.44.78-15.68.29-10.48.31-21 .21-31.49s-.33-21-.63-31.51c-.16-5.25-.31-10.51-.53-15.76C1027.85 650 1028.09 644.76 1028.47 639.48zM1037.44 764.17c1.29-2.46 2.36-5 3.43-7.49 1.47-2.27 2.83-4.62 4.19-7 2.7-4.71 5.24-9.53 7.76-14.36s4.93-9.72 7.31-14.62l3.55-7.37c1.57-2.28 3.14-4.55 4.85-6.77-.62 2.72-1.39 5.39-2.15 8l-3.55 7.4q-3.6 7.38-7.35 14.69c-2.53 4.85-5.09 9.7-7.82 14.47l-2.07 3.56c-.73 1.17-1.41 2.37-2.15 3.53A40.68 40.68 0 011037.44 764.17z"/><path fill="#abbcca" d="M1056.18,825.4h-45.85a11.94,11.94,0,0,1-11.81-10.17l-8.08-53.81c-.56-3.73,26.87-.78,43.67-.94,15.82-.16,41.68-1.64,41.4.23L1068,815.23A11.94,11.94,0,0,1,1056.18,825.4Z"/><path fill="#91a6b5" d="M1033,760.49c-16.79.17-43.09-2.8-42.53.93l8.08,53.81a11.94,11.94,0,0,0,11.81,10.17h18.14a28.93,28.93,0,0,1-7.47-19.17c0-1.46.18-10.9,7-18.44,4.1-4.5,10.74-6.8,24-11.41,6.39-2.21,11.49-3.32,17-8a39.15,39.15,0,0,0,6.28-6.33l.18-1.34C1075.79,758.84,1048.8,760.33,1033,760.49Z"/></g><g><rect width="190.42" height="123.25" x="410.69" y="350.45" fill="#9d9f9f" rx="4.1"/><rect width="20.56" height="123.25" x="580.55" y="350.45" fill="#454851" rx="1.35"/><path fill="#e3eaf3" d="M548.76,490.33H466.05l34.29-44a1.52,1.52,0,0,1,1.53-1.53h8.06a1.52,1.52,0,0,1,1.53,1.53Z"/><path fill="#abbcca" d="M511.46,446.32a1.52,1.52,0,0,0-1.53-1.53h-8.06a1.52,1.52,0,0,0-1.53,1.53l-2.58,3.3,34.49,40.71h16.51Z"/><path fill="#9d9f9f" d="M463,490.33h85.71a4.1,4.1,0,0,1,4.1,4.1v9.27a0,0,0,0,1,0,0H458.95a0,0,0,0,1,0,0v-9.27A4.1,4.1,0,0,1,463,490.33Z"/><path fill="#454851" d="M541.09,490.33h10.22a1.54,1.54,0,0,1,1.54,1.54V503.7a0,0,0,0,1,0,0H539.55a0,0,0,0,1,0,0V491.87A1.54,1.54,0,0,1,541.09,490.33Z"/><rect width="30" height="27.21" x="488.02" y="389.29" fill="#e3eaf3" rx="7.76"/></g><g><rect width="16" height="293.04" x="500.44" y="531.87" fill="#396e8e"/><rect width="525.91" height="236.04" x="390.53" y="523.87" fill="#54a4cc"/><rect width="117.6" height="236.04" x="798.83" y="523.87" fill="#396e8e"/><rect width="236" height="71" x="474.13" y="599.9" fill="#e3eaf3"/><rect width="16" height="293.54" x="382.53" y="531.87" fill="#54a4cc"/><rect width="593.01" height="28.17" x="356.98" y="503.7" fill="#895237"/><rect width="16" height="293.04" x="908.44" y="531.87" fill="#396e8e"/><rect width="16" height="293.54" x="790.83" y="531.87" fill="#54a4cc"/><rect width="593.01" height="28.17" x="356.98" y="503.7" fill="#c9effb"/><rect width="184.15" height="28.17" x="765.83" y="503.7" fill="#87dbf6"/></g><g data-name="Patient/Head/Male"><path fill="#000001" d="M241.14 282s-10.66.53-11.26 12.75-9.79 8.81-9.79 8.81 6.15 9.36 18.47-.36 13.93-11 13.93-11-.05-9.72-10.55-10.26M236.3 307.57s2.5 30.3 14.48 43.44.22-44.44.22-44.44z"/><path fill="#ea9d7d" d="M274.79,365.73c-.63-2.22,1.95-7.61,3.6-10.72-10.85,1.66-23.78-6-30.51-19.56a4.41,4.41,0,0,1-1.29.46s-1.05,28.22-7.17,28.56c-7.15,6.14-30.51,26.9-25.75,36.53,4,8.08,25.56,3.91,57.72-2.3a16.21,16.21,0,0,0,8.39-4c6.74-6.44,4.9-18,4-20.61C282.5,370.68,275.69,368.92,274.79,365.73Z"/><path fill="#d18165" d="M251.34,368.94c-4.27-9.24,4.69-11.2,4.69-11.2l-.06-.13c5.92,4,12.53,5.73,18.46,4.57.28-.05.55-.12.83-.19a47.36,47.36,0,0,1,3.13-7.06c-10.85,1.67-23.16-6.71-29.89-20.28a2,2,0,0,1-1.91,1.19s-.2,5.25-.91,11.24h0c-.94,7.92-2.78,17.19-6.27,17.38-9.69,8.23-33.09,29.17-28.39,38.45s36.81,6,60.36-4.22c3.58-1.56,6.52-3.08,8.65-4.26C265.33,396.05,255.17,377.23,251.34,368.94Z"/><path fill="#ea9d7d" d="M261.6,282.22c-12.4,2.42-20,18.21-18.26,36.54h-.09c-3.39.66-5.39,5-4.47,9.77s4.42,8,7.81,7.37a2.7,2.7,0,0,0,2-1c6.89,13.87,19.53,22.11,30.53,20,13.66-2.66,18.49-19.51,14.46-40.14S275.25,279.56,261.6,282.22Z"/><path fill="#be3e5f" d="M275.1,340.32a84.39,84.39,0,0,1,11.29,1.54s-.37-5.36-4.85-6S275.1,340.32,275.1,340.32Z"/><path fill="#d18165" d="M284.68,313.43c.45,2,.84,4,1.39,5.93a11.78,11.78,0,0,0,1.06,2.6c.19.34.54.8.82,1.23s.57.89.83,1.37a6.41,6.41,0,0,1,.93,3.44,3,3,0,0,1-.94,1.92,3.8,3.8,0,0,1-1.68.88,12.37,12.37,0,0,1-6.34-.45,23.54,23.54,0,0,0,5.83-1,2.82,2.82,0,0,0,.95-.64,1.12,1.12,0,0,0,.29-.81,5.42,5.42,0,0,0-.8-2.36c-.22-.42-.47-.84-.74-1.26s-.53-.81-.8-1.38a10.15,10.15,0,0,1-.92-3.18A19.32,19.32,0,0,1,284.68,313.43Z"/><path fill="#000001" d="M266.56 310.74a43.59 43.59 0 006-.58 18.37 18.37 0 002.83-.73c1-.29 1.84-.74 2.85-1.15a6.85 6.85 0 01-2.34 2.23 8.82 8.82 0 01-3.06 1.16 10.67 10.67 0 01-3.24.07A8 8 0 01266.56 310.74zM291.74 307.65c.16.48.32 1 .47 1.46l-.15 0a10.37 10.37 0 01-3.24.07 8 8 0 01-3.05-1A44.78 44.78 0 00291.74 307.65zM291 321a1.52 1.52 0 01-1.79-1.21l-.86-4.4a1.53 1.53 0 013-.58l.85 4.4A1.52 1.52 0 01291 321zM275.59 321.93a1.52 1.52 0 01-1.8-1.21l-.86-4.39a1.53 1.53 0 113-.59l.86 4.4A1.53 1.53 0 01275.59 321.93z"/><path fill="#d18165" d="M243.13,323a13.74,13.74,0,0,0-.07,5,10.54,10.54,0,0,0,.75,2.24c.14.39.38.75.57,1.17s.45.78.64,1.26a6.51,6.51,0,0,1-1.36-.59,6.06,6.06,0,0,1-1.14-.95,5.57,5.57,0,0,1-1.42-2.73,5.43,5.43,0,0,1,.23-3.07A4.74,4.74,0,0,1,243.13,323Z"/><path fill="#000001" d="M243.25,318.7s5.86,20.62,10.68,27.46c4.46,6.32,12.8,12.57,25.79,11.2a12.83,12.83,0,0,0,6.75-2.74c3.8-3.07,9.24-9.53,8.2-20.93,0,0-3.31-3.75-12.23-3.56s-11.17,2.48-12.7,4.21S261.4,344.4,258,341.79s-11.61-19.39-7.74-28.43,8.33-5.3,3.6-15.6c0,0,6.77-2.48,18.6.12a10.38,10.38,0,0,0,7.2-.94c1.78-1,3.38-2.42,3.23-4.45a64.71,64.71,0,0,1,8,12.77s5.73-8.71-2.27-15.93c-6.81-6.15-8.94-9.83-11.22-10.69-4.52-1.71-6.41,1-10.86,1.78s-5.3-2.05-10.48.71-7.39,6.93-9.16,10.88c0,0-5.09-.7-9.73,8.43C235.13,304.49,234.4,325.12,243.25,318.7Zm30.43,15.84c1.21-1.17,4.71-3.07,9.79-2.17,4.85.85,5.5,4,6.25,6.4a8.11,8.11,0,0,1,.34,3.56c-.34,2.4-1.57,3.28-3.7,3.52-2.64.28-3.22-3.57-5.11-3.36s-1.62,3.46-6.3,3.66S270.56,337.54,273.68,334.54Z"/></g><g data-name="Patient/Bottom"><path fill="#ea9d7d" d="M324 823.94c-14 2-27.63-2.68-32.63-6.78s-13.13-2.48-13.13-2.48l.24 9.75L263.85 824s-.72-9.67-1.38-18.37c-.33-4.36 1.09-6.78 1.65-11s3.58-11 3.58-11c7.9.26 28.26 1.45 32-3.07a28.55 28.55 0 005.69 7.84c.75.77 1.56 1.53 2.38 2.27s1.4 1.16 2.12 1.73c.93.73 1.87 1.45 2.86 2.16 10 7.06 22.46 12.47 29.35 17.49C352.88 820 338 821.93 324 823.94zM184.46 816.61c-12.94-5.72-22-16.93-24.06-23.06s-9.51-10.28-9.51-10.28l-4.1 6.54-12.2-8.14s3.35-5.52 7.41-13.25c2-3.86 4.53-5.16 7.22-8.41s8.85-7.4 8.85-7.4c6.56 4.41 23.18 16.23 28.73 14.36a28.3 28.3 0 00.66 9.66c.23 1.06.51 2.13.82 3.19.28.88.57 1.73.87 2.6.4 1.11.82 2.22 1.29 3.34 4.69 11.28 12.41 22.49 15.58 30.4C211 828.6 197.4 822.33 184.46 816.61z"/><path fill="#7c2f13" d="M267.7 783.69h0s-5.88 13.23-5.22 21.94c.15 2 .29 3.72.42 5.12 5.17.1 11.2-.34 8.83-3.15-3.94-4.66-.77-23.82-.77-23.82zM344.29 814a17.08 17.08 0 00-2.22-1.9c-4.55-3.32-11.56-6.82-18.66-10.84a29.24 29.24 0 00-14.42 9.2c-3.27 4-3.53 10.46-4.41 11.56 3.62 3.64 40.43-1 41.13-4.64a.53.53 0 000-.12A5.14 5.14 0 00344.29 814z"/><path fill="#7c2f13" d="M324 823.94c11.24-1.62 23-3.16 21.64-7.8-34.47 12-49.82-.46-52.8-4.34s-9.26-3.68-9.26-3.68c-11.45 1-17.92-2-21.22-4.5 0 .68 0 1.36.09 2 .65 8.7 1.38 18.37 1.38 18.37l14.66.43-.24-9.75s7.66-1.22 12.38 5.2C294.16 824.65 310 826 324 823.94zM290.66 783.69a26.63 26.63 0 005.08 7.37 50.1 50.1 0 006.61 6 61.82 61.82 0 007.43 4.89c1.29.72 2.62 1.38 4 2s2.73 1.18 4.15 1.65c-1.09-1-2.24-2-3.38-2.9s-2.27-1.85-3.44-2.73c-2.27-1.82-4.61-3.54-6.89-5.32s-4.58-3.53-6.84-5.33S292.84 785.73 290.66 783.69zM158.08 752.61h0s-12 8.09-16.07 15.82c-.95 1.81-1.72 3.31-2.36 4.57 4.33 2.82 9.68 5.65 9.16 2-.87-6 12-20.6 12-20.6C159.75 753.72 158.82 753.11 158.08 752.61zM206.9 819a15.63 15.63 0 00-.87-2.78c-2.09-5.24-6.18-11.92-10.06-19.1a29.38 29.38 0 00-17.11.15c-4.88 1.65-8.54 7-9.87 7.46 1.14 5 34.79 20.62 37.33 17.9l.08-.1A5 5 0 00206.9 819z"/><path fill="#7c2f13" d="M184.47 816.61c10.39 4.6 21.19 9.53 22.47 4.87-35.57-8.13-42-26.83-42.44-31.7s-5.9-8-5.9-8c-10.24-5.21-14.12-11.21-15.6-15.08-.35.59-.69 1.18-1 1.76-4.06 7.73-7.41 13.24-7.41 13.24l12.2 8.14 4.09-6.54s7.45 4.16 9.52 10.28S171.53 810.9 184.47 816.61zM177.54 764.79a26.84 26.84 0 00.39 8.94 50.81 50.81 0 002.42 8.6 60.22 60.22 0 003.7 8.09c.71 1.3 1.49 2.56 2.28 3.82s1.69 2.45 2.64 3.6c-.36-1.46-.85-2.86-1.32-4.25s-1-2.78-1.47-4.14c-1-2.75-2-5.45-3-8.17s-2-5.41-3-8.14S178.31 767.67 177.54 764.79z"/><path fill="#ffc065" d="M290.67,491.62s15.62,138.53,16.11,150.74-6.59,139.12-6.59,139.12-19,7.65-32.63,2.44c0,0-10.74-97.3-9.11-122L254.87,615s-2.93,39.05-5.86,43.61-59.88,111.63-59.88,111.63-32.54-14.65-32.54-18.88c0,0,18.87-78.11,42.95-99.91l.33-90.63a90.83,90.83,0,0,1-5.86-43A89.79,89.79,0,0,1,201.33,491S271.15,501.39,290.67,491.62Z"/><path fill="#ffaa39" d="M256,599.89c2.61-30,8-58.77,9.76-58.58,1.35.14,0,15.07-.49,49.3-.36,27.93.19,46.68,1,73.23,1.53,51.8,3.6,60.68,5.83,67.85a139.12,139.12,0,0,0,28.1,49.79c-6.4,2.89-16.78,6.2-28.37,3.64a36.67,36.67,0,0,1-4.26-1.2s-10.74-97.3-9.11-122L255,616.53C255.12,612,255.39,607,256,599.89Z"/><path fill="#ffaa39" d="M180.8,720.71c4-21.46,16.14-25.68,26.13-50.79,6-15.12,6.7-32.47,8.09-67.17,2.13-53.22-3.48-57.29,3.53-70.23,18.47-34.07,72.88-35.2,72.12-40.9-21.08,7.24-79.61.65-88.26-.45h0l-.7-.09h-.34A89.79,89.79,0,0,0,194,517.88a90.83,90.83,0,0,0,5.86,43l-.33,90.63c-24.08,21.8-42.95,99.91-42.95,99.91.75,1,1.56,1.93,2.43,2.87,6.54,5.07,24.4,13.39,29,15.5l.09,0,.09,0,.24.1.14.07.09,0,.14.06.05,0,.26.12C183.34,758.37,177.08,740.5,180.8,720.71Z"/><path fill="none" stroke="#fff" stroke-linecap="round" stroke-miterlimit="10" stroke-width="3" d="M245.1,506s-15,22-31,24"/><path fill="none" stroke="#fff" stroke-miterlimit="10" stroke-width="3" d="M229.6,522.65s-2,105.89-9,127.89-30.32,27.28-51.66,110.14"/></g><g data-name="Patient/Torso"><path fill="#ea9d7d" d="M315.08,427.82l13.14,35.55a6.91,6.91,0,0,0,5.49,4.44L383,474.93a13,13,0,0,0,10.41-3.05c5.46-4.73,14.23-12.08,16.07-12.08,2.71,0,7.54,1.68-3.62,11.4,0,0,1.68,1.42,7,1.42s25.86-.6,26.31,1.06,5.58,5.13-22.32,5.73c0,0-1.21,2.56,1.21,2.56s25.34-.15,23.07,2.87-5.58,2.41-23.83,2.72c0,0-1.36,2-.45,2.26s22.63.9,22.63,2.71,3.92,4.08-27.16,2.57c0,0-.45,1,2.72,2s17,4.37,13.42,6-4.07.91-20.21-3.47l-14.07-2.26a24.14,24.14,0,0,0-7.25-.08c-14.72,2.07-69.85,6.77-83.54-7.45-12.83-13.32-19.73-60.95-19.73-60.95Z"/><path fill="#d18165" d="M439.53,492.53c0-1.81-21.73-2.41-22.63-2.71s.45-2.26.45-2.26c13.93-.23,19.16.06,21.86-1.13-6.63-2.05-19.08.38-40.67,2.64-39.22,4.11-50.68,1.62-55.2.48-12.43-3.13-24.29-6.49-31.68-16.8-9-12.56-5.23-27.2-4.9-44.65l-23.05.78s6.9,47.63,19.73,60.95c13.68,14.21,68.7,9.53,83.49,7.45a24.47,24.47,0,0,1,7.3.08l14.07,2.26c16.14,4.38,16.59,5.13,20.21,3.47s-10.25-5.13-13.42-6-2.72-2-2.72-2C443.45,496.61,439.53,494.34,439.53,492.53Z"/><path fill="none" stroke="#2f170b" stroke-miterlimit="10" stroke-width="2" d="M405.89,471.2s-.68,16.73-16.07,15.6"/><line x1="381.66" x2="381.66" y1="474.73" y2="496.91" fill="none" stroke="#2f170b" stroke-linecap="round" stroke-linejoin="round" stroke-width="6"/><path fill="#25beef" d="M334.73,463.65a7.48,7.48,0,0,1-4.82-4.85l-21.42-66.25a39,39,0,0,0-13-19,27.7,27.7,0,0,0-5.06-3.22,1,1,0,0,0-1.44.94l1.91,58.8,1.58,42.25a29.29,29.29,0,0,0,29.28,28.21h56.4l-1.44-28.32C377.89,472.24,346.14,467.3,334.73,463.65Z"/><path fill="#1a87c4" d="M377.71,490.8c-43.72,4.75-59.32-4.24-65.33-13.64-6.83-10.68-6.58-30.18-6.3-51.48,0,0,.24-18.05-6.42-33.09-1.19-2.69-4.48-10-8.16-9.84a3.29,3.29,0,0,0-2.06,1l1.5,46.33,1.58,42.25a29.29,29.29,0,0,0,29.28,28.21h56.4Z"/><path fill="#25beef" d="M289.31,498.26H200.53a2.7,2.7,0,0,1-2.65-3.2l23.88-127.21,18.84-4.17c6.73,14.27,27.46,14.92,34.08.6l14.3,5.44a10.88,10.88,0,0,1,8.3,11.15l-.15,4.51q-1.77,54.38-3.56,108.75C293.56,494.43,293.48,495.89,289.31,498.26Z"/><path fill="#ea9d7d" d="M145,564.43a23.8,23.8,0,0,0,.73-5.51c.23-15.56,1.72-74.95,10.68-102,2.86-8.63,29.07-52.54,29.07-52.54l37.43,7.92-33,54.79a27.41,27.41,0,0,0-3.19,7.83l-20.11,85.65a8.11,8.11,0,0,0,1.49,6.81c4.23,5.43,12.61,16.47,12.48,18.49-.19,2.71-2.19,7.41-11.14-4.37,0,0-1.53,1.58-1.88,6.91s-1.13,25.84-2.81,26.18-5.49,5.23-4.23-22.65c0,0-2.48-1.38-2.64,1s-1.54,25.3-4.4,22.84-2-5.73-1.12-24c0,0-1.87-1.49-2.23-.61s-2.41,22.52-4.22,22.4-4.32,3.64-.74-27.26c0,0-1-.53-2.14,2.57s-5.5,16.72-6.92,13-.63-4.13,4.81-19.94L145,564.43Z"/><path fill="#d18165" d="M222.88,412.29l-8.83-1.87c-6.6,8.38-14.8,14.46-25.48,30.1-8.33,12.19-13.72,24.59-16.11,29.83-6.56,14.36-5.23,21.69-9.6,57.12-2.63,21.28-3.94,31.92-5.32,37.48,0,0-9.88,39.85-5.06,49.72a2.85,2.85,0,0,0,1,1.13c2.86,2.46,4.24-20.43,4.4-22.84s2.64-1,2.64-1c-1.26,27.88,2.54,23,4.23,22.65s2.45-20.76,2.8-26.14h0v0c.35-5.33,1.88-6.91,1.88-6.91,8.95,11.78,10.95,7.08,11.14,4.37.13-2-8.25-13.06-12.48-18.49a8.11,8.11,0,0,1-1.49-6.81l20.11-85.65a27.41,27.41,0,0,1,3.19-7.83Z"/><path fill="#25beef" d="M145.82,558.16a2.45,2.45,0,0,1-2.46-2.3c-.76-12,1-67.51,7.79-95.26,5-20.27,40.77-72.78,40.77-72.78s16.46-17.23,29.84-20l7.62,39.74-38.5,63.61c-.37.57-15.72,70.09-19.39,84.41a3.4,3.4,0,0,1-3.3,2.55Z"/><path fill="#1a87c4" d="M202.42,448.55l26.77-40.68-.06-.39a4.33,4.33,0,0,0-6.89-2.8c-5.11,3.88-11.64,10.58-17.62,16.71-6.24,6.4-12.94,13.27-16.05,19.13l12,8.39A1.34,1.34,0,0,0,202.42,448.55Z"/><path fill="#1a87c4" d="M293.57,494.13c-5.88-2.07-21.16-2.15-44.31-9.44-21.72-6.84-26.1-12.4-28.08-16.38-4.65-9.36-1.61-21.22-.36-26.1,2.24-8.76,2.88-12.11,7.38-23.22,1.51-3.73,2-12.76,0-13.5-2.33-.86-11.5,9.64-18.24,23.61L198,495a2.7,2.7,0,0,0,2.64,3.28h88.67a4.27,4.27,0,0,0,4.26-4.13Z"/><path fill="#1a87c4" d="M168.19,558.16a3.4,3.4,0,0,0,3.3-2.55c3.67-14.32,19-83.84,19.39-84.41l25-41.37,2.61-12.62-30,23.31s-12.09,14.86-15.33,34.21-14.39,83.36-14.4,83.43Z"/></g></svg>