<svg id="svg" version="1.1" xmlns="http://www.w3.org/2000/svg" xmlns:xlink="http://www.w3.org/1999/xlink" width="36" height="24" viewBox="0, 0, 400,400"><g id="svgg"><path id="path0" d="M136.251 22.112 C 134.613 22.364,132.528 23.072,130.764 23.974 C 128.434 25.165,56.912 96.310,54.616 99.719 C 51.123 104.907,51.122 111.672,54.613 116.872 C 56.850 120.203,99.219 162.210,102.547 164.396 C 119.906 175.796,140.557 175.392,156.757 163.335 C 159.080 161.605,166.851 153.964,198.369 122.417 L 221.848 98.916 184.797 61.911 C 144.377 21.540,146.861 23.857,142.660 22.622 C 141.176 22.186,137.613 21.902,136.251 22.112 M194.645 281.058 L 185.894 281.131 188.012 283.152 C 189.176 284.264,190.410 285.702,190.754 286.349 L 191.378 287.524 191.378 322.809 L 191.378 358.094 190.413 360.040 C 189.882 361.110,188.912 362.719,188.257 363.614 C 187.603 364.510,187.067 365.304,187.067 365.378 C 187.067 365.452,194.298 365.513,203.135 365.513 C 211.973 365.513,219.203 365.437,219.203 365.345 C 219.203 365.253,218.695 364.577,218.074 363.843 C 216.425 361.894,214.911 359.776,214.275 358.528 L 213.717 357.434 213.717 325.254 L 213.717 293.073 216.402 293.193 C 230.794 293.833,232.567 321.851,218.666 328.943 C 217.140 329.721,217.102 329.718,224.176 329.454 C 231.670 329.175,233.594 328.807,237.622 326.878 C 256.403 317.887,254.556 288.763,234.789 282.209 C 230.597 280.819,229.006 280.773,194.645 281.058 M262.051 280.993 C 262.051 281.056,262.629 281.993,263.336 283.075 C 265.784 286.826,265.849 289.495,263.647 296.024 C 258.334 311.779,242.406 357.529,241.855 358.616 C 241.087 360.131,239.503 362.235,237.793 364.010 L 236.597 365.251 248.296 365.251 L 259.996 365.251 259.069 364.120 C 255.862 360.206,255.928 358.153,259.631 346.832 L 261.938 339.778 275.930 339.710 L 289.922 339.643 292.350 346.199 C 296.167 356.507,296.081 360.646,291.972 364.434 L 290.802 365.513 309.396 365.513 L 327.989 365.513 325.366 362.835 C 322.723 360.138,320.662 357.551,319.782 355.827 C 319.520 355.313,313.172 338.443,305.676 318.337 C 298.181 298.231,291.936 281.573,291.800 281.318 C 291.567 280.883,262.051 280.560,262.051 280.993 M309.863 281.034 C 309.863 281.119,310.563 281.850,311.418 282.659 C 312.553 283.732,316.920 289.798,327.616 305.158 L 342.260 326.188 342.260 342.660 L 342.260 359.132 339.907 362.323 L 337.554 365.513 354.560 365.513 L 371.566 365.513 370.778 364.533 C 370.345 363.994,369.103 362.495,368.019 361.202 L 366.047 358.850 366.044 342.521 L 366.041 326.192 381.617 304.115 C 390.184 291.973,397.369 281.771,397.584 281.446 L 397.975 280.854 384.357 280.867 C 376.866 280.874,370.738 280.946,370.738 281.027 C 370.738 281.108,371.204 281.704,371.774 282.351 C 374.050 284.936,374.564 289.244,372.968 292.358 C 371.712 294.809,360.057 311.895,359.248 312.471 L 358.483 313.016 358.102 312.419 C 357.893 312.091,353.815 305.474,349.040 297.714 C 344.265 289.954,339.964 282.986,339.481 282.230 L 338.604 280.854 324.233 280.867 C 316.330 280.873,309.863 280.949,309.863 281.034 M280.605 314.707 C 283.333 322.014,285.595 328.147,285.631 328.336 C 285.683 328.616,283.830 328.692,275.833 328.743 C 268.571 328.788,265.970 328.726,265.970 328.506 C 265.970 328.342,266.980 325.344,268.214 321.844 C 270.096 316.504,273.537 306.679,275.044 302.337 C 275.547 300.888,274.946 299.551,280.605 314.707 " stroke="none" fill="#0464b1" fill-rule="evenodd"></path><path id="path1" d="M271.397 51.092 C 267.248 52.098,266.331 52.889,254.597 65.578 C 242.444 78.719,160.955 160.370,157.152 163.215 C 140.970 175.324,119.673 176.032,103.204 165.008 C 102.006 164.206,100.991 163.586,100.947 163.629 C 100.904 163.673,107.947 170.773,116.600 179.408 L 132.332 195.107 134.422 195.777 C 142.588 198.391,150.863 196.932,158.931 191.454 C 161.348 189.813,162.529 188.696,180.414 171.136 C 184.443 167.181,189.027 162.711,190.602 161.202 C 195.459 156.549,227.842 124.710,252.123 100.713 C 282.989 70.208,284.709 68.564,287.002 67.365 C 289.230 66.200,291.329 65.571,293.724 65.352 L 295.531 65.186 289.568 59.296 C 281.234 51.063,277.839 49.530,271.397 51.092 M291.260 70.263 C 287.997 71.306,289.560 69.868,261.137 97.972 C 249.739 109.242,229.947 128.711,203.890 154.284 C 161.213 196.170,164.682 192.855,160.849 195.422 C 154.548 199.643,148.243 201.591,141.514 201.395 L 138.459 201.306 161.130 223.930 C 183.681 246.433,185.945 248.550,190.474 251.363 C 205.648 260.790,225.944 260.614,240.825 250.927 C 245.363 247.974,247.779 245.664,271.248 221.841 C 284.356 208.535,302.549 190.065,311.677 180.797 C 320.805 171.528,332.452 159.713,337.558 154.540 C 353.537 138.353,353.271 138.658,354.288 135.371 C 355.478 131.523,355.195 127.845,353.433 124.272 C 352.185 121.741,303.632 72.664,300.911 71.183 C 298.198 69.706,294.194 69.325,291.260 70.263 M10.573 283.540 C 11.341 285.157,14.049 292.005,16.590 298.759 C 35.592 349.264,36.397 351.291,38.816 354.699 C 41.815 358.926,47.481 362.864,54.146 365.353 C 56.357 366.179,61.908 367.705,62.076 367.533 C 62.108 367.499,62.960 365.062,63.969 362.116 C 67.357 352.221,71.505 340.160,78.122 320.967 C 86.229 297.449,91.312 282.529,91.541 281.581 L 91.715 280.862 82.049 280.862 L 72.383 280.862 74.336 284.810 C 75.960 288.091,76.290 288.974,76.290 290.032 C 76.290 291.208,58.142 342.950,57.483 343.653 C 57.370 343.773,56.866 342.656,56.361 341.171 C 55.857 339.686,52.836 331.006,49.649 321.881 C 46.462 312.756,42.049 300.118,39.842 293.795 C 37.636 287.472,35.693 281.917,35.525 281.450 L 35.220 280.601 22.198 280.601 L 9.175 280.601 10.573 283.540 M95.171 280.929 C 95.241 281.110,96.782 283.666,98.596 286.609 L 101.894 291.961 101.893 323.969 C 101.891 360.566,102.222 356.567,98.765 361.820 L 96.163 365.774 108.304 365.774 C 114.981 365.774,120.444 365.718,120.444 365.649 C 120.444 365.580,119.092 363.765,117.439 361.616 C 115.786 359.466,114.317 357.398,114.173 357.021 C 113.843 356.152,113.812 310.304,114.142 310.429 C 114.345 310.506,118.760 316.168,143.416 347.970 C 154.827 362.688,159.869 366.070,172.894 367.738 L 174.265 367.913 174.266 328.764 C 174.267 290.649,174.280 289.594,174.767 288.831 C 175.042 288.400,176.511 286.430,178.030 284.455 L 180.793 280.862 168.641 280.862 L 156.490 280.862 158.874 284.424 C 160.185 286.383,161.451 288.411,161.687 288.931 C 162.191 290.041,162.510 333.899,162.013 333.899 C 161.802 333.899,151.317 320.487,124.380 285.761 L 120.378 280.601 107.712 280.601 C 97.653 280.601,95.071 280.668,95.171 280.929 " stroke="none" fill="#ec1b23" fill-rule="evenodd"></path><path id="path2" d="M275.755 77.400 L 274.722 78.511 275.833 77.478 C 276.865 76.518,277.063 76.290,276.866 76.290 C 276.823 76.290,276.323 76.790,275.755 77.400 M274.194 84.977 L 272.110 87.133 274.265 85.049 C 276.267 83.113,276.540 82.822,276.349 82.822 C 276.310 82.822,275.340 83.792,274.194 84.977 M260.483 92.358 C 259.413 93.436,258.596 94.317,258.668 94.317 C 258.739 94.317,259.674 93.436,260.745 92.358 C 261.815 91.280,262.632 90.398,262.560 90.398 C 262.489 90.398,261.554 91.280,260.483 92.358 M257.473 101.437 L 255.389 103.592 257.544 101.508 C 258.730 100.362,259.700 99.392,259.700 99.353 C 259.700 99.162,259.408 99.435,257.473 101.437 M252.246 106.662 L 250.425 108.556 252.319 106.735 C 253.361 105.733,254.213 104.880,254.213 104.840 C 254.213 104.649,253.939 104.903,252.246 106.662 M239.184 113.455 L 237.100 115.611 239.255 113.527 C 240.441 112.380,241.411 111.411,241.411 111.371 C 241.411 111.181,241.120 111.453,239.184 113.455 M237.090 121.555 L 235.794 122.926 237.165 121.630 C 238.440 120.425,238.657 120.183,238.462 120.183 C 238.420 120.183,237.803 120.800,237.090 121.555 M234.732 123.906 L 233.965 124.755 234.814 123.988 C 235.281 123.566,235.663 123.184,235.663 123.139 C 235.663 122.937,235.447 123.114,234.732 123.906 M223.383 128.935 C 222.749 129.582,222.288 130.111,222.360 130.111 C 222.432 130.111,223.010 129.582,223.645 128.935 C 224.279 128.289,224.740 127.760,224.668 127.760 C 224.596 127.760,224.018 128.289,223.383 128.935 M221.293 137.035 C 220.223 138.112,219.406 138.994,219.477 138.994 C 219.549 138.994,220.484 138.112,221.555 137.035 C 222.625 135.957,223.442 135.075,223.370 135.075 C 223.298 135.075,222.364 135.957,221.293 137.035 M348.792 143.044 C 348.157 143.690,347.697 144.219,347.768 144.219 C 347.840 144.219,348.418 143.690,349.053 143.044 C 349.688 142.397,350.148 141.868,350.076 141.868 C 350.004 141.868,349.426 142.397,348.792 143.044 M206.924 145.134 C 206.289 145.781,205.829 146.310,205.900 146.310 C 205.972 146.310,206.550 145.781,207.185 145.134 C 207.819 144.487,208.280 143.958,208.208 143.958 C 208.136 143.958,207.558 144.487,206.924 145.134 M346.293 145.591 L 345.526 146.440 346.375 145.673 C 347.166 144.958,347.344 144.742,347.142 144.742 C 347.097 144.742,346.715 145.124,346.293 145.591 M205.087 153.037 L 203.396 154.801 205.160 153.110 C 206.130 152.180,206.924 151.387,206.924 151.347 C 206.924 151.154,206.658 151.399,205.087 153.037 M190.986 160.810 C 189.916 161.888,189.099 162.769,189.170 162.769 C 189.242 162.769,190.177 161.888,191.248 160.810 C 192.318 159.732,193.135 158.850,193.063 158.850 C 192.991 158.850,192.057 159.732,190.986 160.810 M330.366 161.790 L 328.282 163.945 330.438 161.861 C 332.440 159.926,332.712 159.634,332.522 159.634 C 332.482 159.634,331.512 160.604,330.366 161.790 M185.357 166.231 L 184.324 167.342 185.434 166.309 C 186.467 165.348,186.665 165.121,186.467 165.121 C 186.424 165.121,185.925 165.621,185.357 166.231 M189.157 168.648 C 188.523 169.295,188.062 169.824,188.134 169.824 C 188.206 169.824,188.784 169.295,189.419 168.648 C 190.053 168.001,190.514 167.472,190.442 167.472 C 190.370 167.472,189.792 168.001,189.157 168.648 M183.794 173.808 L 181.973 175.702 183.867 173.880 C 185.626 172.188,185.880 171.914,185.689 171.914 C 185.649 171.914,184.796 172.766,183.794 173.808 M127.833 172.890 C 128.520 172.944,129.578 172.943,130.184 172.888 C 130.791 172.834,130.229 172.790,128.935 172.790 C 127.642 172.791,127.146 172.836,127.833 172.890 M314.168 178.250 L 312.084 180.405 314.239 178.321 C 316.241 176.385,316.514 176.094,316.323 176.094 C 316.284 176.094,315.314 177.064,314.168 178.250 M170.861 180.470 L 169.170 182.234 170.934 180.543 C 171.904 179.613,172.698 178.820,172.698 178.780 C 172.698 178.587,172.432 178.832,170.861 180.470 M164.190 187.133 L 163.423 187.982 164.272 187.214 C 164.739 186.792,165.121 186.410,165.121 186.365 C 165.121 186.163,164.905 186.341,164.190 187.133 M169.419 187.916 L 168.387 189.027 169.497 187.994 C 170.530 187.034,170.728 186.806,170.530 186.806 C 170.487 186.806,169.987 187.306,169.419 187.916 M296.794 195.885 L 294.579 198.171 296.865 195.956 C 298.988 193.899,299.270 193.599,299.080 193.599 C 299.041 193.599,298.012 194.628,296.794 195.885 M141.541 197.184 C 142.008 197.242,142.773 197.242,143.240 197.184 C 143.707 197.126,143.325 197.079,142.391 197.079 C 141.457 197.079,141.074 197.126,141.541 197.184 M280.715 212.214 L 279.948 213.063 280.797 212.296 C 281.588 211.581,281.766 211.365,281.564 211.365 C 281.519 211.365,281.137 211.747,280.715 212.214 M278.250 214.631 C 277.615 215.278,277.154 215.807,277.226 215.807 C 277.298 215.807,277.876 215.278,278.511 214.631 C 279.145 213.984,279.606 213.455,279.534 213.455 C 279.462 213.455,278.884 213.984,278.250 214.631 M260.745 232.397 C 260.110 233.044,259.650 233.573,259.721 233.573 C 259.793 233.573,260.371 233.044,261.006 232.397 C 261.641 231.750,262.101 231.221,262.029 231.221 C 261.957 231.221,261.379 231.750,260.745 232.397 M77.139 280.797 C 79.833 280.839,84.242 280.839,86.937 280.797 C 89.631 280.754,87.427 280.719,82.038 280.719 C 76.649 280.719,74.445 280.754,77.139 280.797 M162.591 280.797 C 166.014 280.838,171.540 280.838,174.871 280.797 C 178.202 280.755,175.402 280.721,168.648 280.722 C 161.894 280.722,159.169 280.755,162.591 280.797 M162.110 312.606 C 162.110 324.389,162.142 329.171,162.182 323.233 C 162.221 317.295,162.221 307.654,162.181 301.809 C 162.142 295.964,162.110 300.823,162.110 312.606 " stroke="none" fill="#f34f56" fill-rule="evenodd"></path><path id="path3" d="M273.873 50.615 C 274.412 50.671,275.294 50.671,275.833 50.615 C 276.372 50.559,275.931 50.512,274.853 50.512 C 273.775 50.512,273.334 50.559,273.873 50.615 M263.739 55.454 L 262.443 56.826 263.815 55.529 C 265.089 54.324,265.306 54.082,265.111 54.082 C 265.070 54.082,264.452 54.700,263.739 55.454 M289.988 59.618 L 295.587 65.284 294.299 65.384 L 293.011 65.484 294.383 65.531 C 296.250 65.595,296.443 65.862,290.072 59.567 L 284.389 53.952 289.988 59.618 M260.483 58.916 C 259.849 59.562,259.388 60.091,259.460 60.091 C 259.532 60.091,260.110 59.562,260.745 58.916 C 261.379 58.269,261.840 57.740,261.768 57.740 C 261.696 57.740,261.118 58.269,260.483 58.916 M257.208 62.508 L 255.911 63.880 257.283 62.583 C 258.557 61.379,258.774 61.137,258.579 61.137 C 258.538 61.137,257.921 61.754,257.208 62.508 M254.072 65.905 L 252.776 67.276 254.148 65.980 C 255.422 64.775,255.639 64.533,255.444 64.533 C 255.403 64.533,254.786 65.150,254.072 65.905 M251.199 69.040 L 249.902 70.411 251.274 69.115 C 252.548 67.910,252.765 67.668,252.570 67.668 C 252.529 67.668,251.912 68.285,251.199 69.040 M281.250 72.175 L 278.380 75.114 281.319 72.245 C 282.936 70.667,284.259 69.344,284.259 69.306 C 284.259 69.117,283.915 69.445,281.250 72.175 M293.341 69.682 C 293.666 69.744,294.136 69.742,294.386 69.677 C 294.636 69.611,294.370 69.560,293.795 69.563 C 293.220 69.566,293.016 69.619,293.341 69.682 M295.692 69.682 C 296.017 69.744,296.487 69.742,296.737 69.677 C 296.987 69.611,296.721 69.560,296.146 69.563 C 295.572 69.566,295.367 69.619,295.692 69.682 M247.943 72.502 C 247.308 73.148,246.847 73.677,246.919 73.677 C 246.991 73.677,247.569 73.148,248.204 72.502 C 248.838 71.855,249.299 71.326,249.227 71.326 C 249.155 71.326,248.577 71.855,247.943 72.502 M195.558 72.632 C 196.120 73.207,196.638 73.677,196.710 73.677 C 196.781 73.677,196.381 73.207,195.820 72.632 C 195.258 72.057,194.740 71.587,194.669 71.587 C 194.597 71.587,194.997 72.057,195.558 72.632 M326.845 96.538 C 340.568 110.261,351.854 121.489,351.926 121.489 C 351.998 121.489,340.829 110.261,327.106 96.538 C 313.384 82.815,302.098 71.587,302.026 71.587 C 301.954 71.587,313.123 82.815,326.845 96.538 M281.385 77.727 C 278.585 80.529,276.354 82.822,276.426 82.822 C 276.498 82.822,278.847 80.529,281.646 77.727 C 284.445 74.925,286.677 72.632,286.605 72.632 C 286.533 72.632,284.184 74.925,281.385 77.727 M233.833 86.937 L 221.685 99.151 233.899 87.003 C 245.252 75.712,246.231 74.722,246.047 74.722 C 246.011 74.722,240.514 80.219,233.833 86.937 M201.176 78.250 C 201.956 79.040,202.654 79.686,202.725 79.686 C 202.797 79.686,202.217 79.040,201.437 78.250 C 200.656 77.459,199.959 76.813,199.887 76.813 C 199.815 76.813,200.395 77.459,201.176 78.250 M268.581 84.585 L 262.443 90.790 268.648 84.653 C 274.414 78.949,274.971 78.380,274.786 78.380 C 274.749 78.380,271.956 81.172,268.581 84.585 M206.129 83.148 C 206.769 83.831,207.328 84.389,207.370 84.389 C 207.566 84.389,207.359 84.155,206.205 83.072 L 204.964 81.907 206.129 83.148 M265.707 93.207 L 259.569 99.412 265.774 93.274 C 271.540 87.571,272.097 87.002,271.912 87.002 C 271.875 87.002,269.082 89.794,265.707 93.207 M250.815 102.090 L 243.109 109.863 250.882 102.157 C 258.105 94.996,258.772 94.317,258.587 94.317 C 258.551 94.317,255.053 97.815,250.815 102.090 M245.328 113.325 L 238.406 120.314 245.395 113.392 C 249.239 109.585,252.384 106.440,252.384 106.403 C 252.384 106.218,251.760 106.830,245.328 113.325 M242.048 110.843 L 241.280 111.692 242.129 110.924 C 242.596 110.502,242.978 110.120,242.978 110.075 C 242.978 109.873,242.763 110.051,242.048 110.843 M231.872 120.771 L 226.649 126.061 231.940 120.839 C 236.856 115.986,237.349 115.480,237.163 115.480 C 237.126 115.480,234.745 117.861,231.872 120.771 M229.521 128.870 L 223.253 135.206 229.589 128.937 C 233.073 125.490,235.924 122.639,235.924 122.602 C 235.924 122.417,235.346 122.983,229.521 128.870 M355.143 130.764 C 355.144 131.626,355.193 131.948,355.251 131.478 C 355.310 131.008,355.308 130.303,355.249 129.910 C 355.189 129.518,355.142 129.902,355.143 130.764 M216.066 136.316 L 209.928 142.521 216.133 136.384 C 221.899 130.680,222.456 130.111,222.271 130.111 C 222.234 130.111,219.442 132.903,216.066 136.316 M212.931 145.199 L 206.793 151.404 212.998 145.267 C 218.764 139.563,219.321 138.994,219.136 138.994 C 219.099 138.994,216.306 141.786,212.931 145.199 M351.000 140.888 L 349.967 141.999 351.078 140.966 C 352.110 140.005,352.308 139.778,352.111 139.778 C 352.068 139.778,351.568 140.278,351.000 140.888 M340.299 151.862 L 332.985 159.242 340.366 151.929 C 344.425 147.906,347.747 144.585,347.747 144.548 C 347.747 144.363,347.095 145.003,340.299 151.862 M199.475 152.645 L 193.207 158.981 199.543 152.713 C 205.430 146.888,205.996 146.310,205.811 146.310 C 205.774 146.310,202.923 149.161,199.475 152.645 M197.385 160.483 L 192.162 165.774 197.453 160.551 C 202.368 155.698,202.861 155.193,202.676 155.193 C 202.638 155.193,200.257 157.573,197.385 160.483 M323.186 169.236 L 316.264 176.225 323.253 169.303 C 329.747 162.871,330.359 162.247,330.175 162.247 C 330.138 162.247,326.993 165.392,323.186 169.236 M187.851 163.945 C 187.216 164.592,186.756 165.121,186.828 165.121 C 186.900 165.121,187.478 164.592,188.112 163.945 C 188.747 163.298,189.207 162.769,189.136 162.769 C 189.064 162.769,188.486 163.298,187.851 163.945 M117.701 180.797 C 125.603 188.700,132.128 195.167,132.199 195.167 C 132.271 195.167,125.864 188.700,117.962 180.797 C 110.060 172.894,103.535 166.427,103.464 166.427 C 103.392 166.427,109.798 172.894,117.701 180.797 M178.704 172.894 L 173.089 178.576 178.772 172.961 C 181.897 169.873,184.455 167.316,184.455 167.279 C 184.455 167.093,183.922 167.613,178.704 172.894 M186.806 170.738 C 186.171 171.385,185.711 171.914,185.783 171.914 C 185.855 171.914,186.433 171.385,187.067 170.738 C 187.702 170.091,188.162 169.562,188.091 169.562 C 188.019 169.562,187.441 170.091,186.806 170.738 M176.092 181.254 L 170.477 186.937 176.159 181.322 C 181.439 176.104,181.960 175.572,181.774 175.572 C 181.737 175.572,179.180 178.129,176.092 181.254 M167.074 184.259 L 164.990 186.414 167.146 184.330 C 168.331 183.184,169.301 182.214,169.301 182.175 C 169.301 181.984,169.010 182.257,167.074 184.259 M304.635 188.047 L 299.020 193.730 304.703 188.115 C 307.828 185.026,310.385 182.469,310.385 182.432 C 310.385 182.247,309.853 182.767,304.635 188.047 M162.622 188.700 L 161.855 189.549 162.704 188.782 C 163.171 188.360,163.553 187.978,163.553 187.933 C 163.553 187.731,163.338 187.909,162.622 188.700 M167.211 190.072 C 166.576 190.718,166.116 191.248,166.188 191.248 C 166.260 191.248,166.838 190.718,167.472 190.072 C 168.107 189.425,168.567 188.896,168.495 188.896 C 168.424 188.896,167.846 189.425,167.211 190.072 M155.650 193.487 C 154.673 194.017,154.733 194.238,155.715 193.730 C 156.146 193.507,156.499 193.269,156.499 193.200 C 156.499 193.032,156.471 193.042,155.650 193.487 M139.454 197.180 C 139.779 197.243,140.250 197.240,140.499 197.175 C 140.749 197.110,140.483 197.058,139.909 197.061 C 139.334 197.064,139.129 197.118,139.454 197.180 M144.418 197.180 C 144.743 197.243,145.214 197.240,145.464 197.175 C 145.713 197.110,145.447 197.058,144.873 197.061 C 144.298 197.064,144.093 197.118,144.418 197.180 M288.045 204.899 L 281.515 211.496 288.112 204.966 C 291.741 201.375,294.709 198.406,294.709 198.369 C 294.709 198.184,294.113 198.768,288.045 204.899 M138.210 201.111 C 138.210 201.219,148.292 211.359,160.614 223.645 L 183.018 245.983 160.734 223.634 C 148.478 211.341,138.534 201.201,138.635 201.099 C 138.737 200.998,138.683 200.914,138.515 200.914 C 138.347 200.914,138.210 201.003,138.210 201.111 M139.843 201.363 C 140.238 201.423,140.885 201.423,141.280 201.363 C 141.675 201.303,141.352 201.254,140.562 201.254 C 139.771 201.254,139.448 201.303,139.843 201.363 M143.114 201.365 C 143.583 201.423,144.289 201.422,144.681 201.362 C 145.074 201.303,144.690 201.255,143.828 201.257 C 142.965 201.258,142.644 201.307,143.114 201.365 M270.540 222.665 L 264.010 229.262 270.607 222.732 C 274.236 219.141,277.204 216.172,277.204 216.135 C 277.204 215.950,276.608 216.535,270.540 222.665 M253.166 240.300 L 246.767 246.767 253.233 240.368 C 256.790 236.848,259.700 233.938,259.700 233.901 C 259.700 233.716,259.112 234.292,253.166 240.300 M187.766 249.792 C 188.090 250.185,189.680 251.185,189.680 250.997 C 189.680 250.936,189.180 250.556,188.570 250.154 C 187.959 249.751,187.597 249.588,187.766 249.792 M236.185 253.560 C 235.251 254.049,234.579 254.455,234.691 254.462 C 234.968 254.479,238.014 252.931,238.014 252.772 C 238.014 252.597,238.076 252.570,236.185 253.560 M193.076 253.035 C 193.076 253.214,194.676 254.007,194.796 253.887 C 194.852 253.830,194.489 253.589,193.988 253.350 C 193.486 253.111,193.076 252.969,193.076 253.035 M209.997 258.317 C 210.322 258.379,210.792 258.377,211.042 258.311 C 211.291 258.246,211.025 258.195,210.451 258.198 C 209.876 258.201,209.672 258.254,209.997 258.317 M219.791 258.312 C 220.042 258.378,220.454 258.378,220.705 258.312 C 220.957 258.246,220.751 258.193,220.248 258.193 C 219.745 258.193,219.540 258.246,219.791 258.312 M213.782 258.586 C 214.608 258.638,215.960 258.638,216.786 258.586 C 217.613 258.534,216.937 258.492,215.284 258.492 C 213.632 258.492,212.956 258.534,213.782 258.586 M9.068 280.503 C 8.903 280.668,9.829 282.691,10.069 282.691 C 10.141 282.691,9.959 282.219,9.664 281.641 L 9.129 280.591 22.306 280.661 C 29.553 280.700,35.428 280.643,35.361 280.536 C 35.216 280.301,9.303 280.268,9.068 280.503 M107.494 280.536 C 119.199 280.600,120.324 280.644,120.818 281.061 C 121.358 281.514,121.358 281.514,120.861 280.927 L 120.363 280.340 107.536 280.402 L 94.709 280.465 107.494 280.536 M72.110 280.701 C 72.110 280.981,72.887 282.430,73.038 282.430 C 73.109 282.430,72.974 282.048,72.736 281.581 C 72.251 280.627,72.110 280.428,72.110 280.701 M10.469 283.605 C 10.469 283.749,10.637 284.161,10.843 284.520 C 11.048 284.879,11.216 285.056,11.216 284.912 C 11.216 284.768,11.048 284.357,10.843 283.997 C 10.637 283.638,10.469 283.462,10.469 283.605 M161.785 290.268 C 161.785 290.771,161.839 290.976,161.904 290.725 C 161.970 290.474,161.970 290.062,161.904 289.811 C 161.839 289.559,161.785 289.765,161.785 290.268 M174.265 328.787 L 174.265 367.829 173.547 367.938 C 172.878 368.040,172.887 368.050,173.677 368.086 L 174.526 368.125 174.526 328.935 C 174.526 307.381,174.468 289.745,174.396 289.745 C 174.324 289.745,174.265 307.314,174.265 328.787 M101.759 323.971 C 101.759 341.718,101.791 348.978,101.829 340.105 C 101.867 331.231,101.867 316.711,101.829 307.838 C 101.791 298.965,101.759 306.225,101.759 323.971 M250.653 305.291 C 250.654 306.871,250.697 307.484,250.749 306.653 C 250.801 305.821,250.800 304.528,250.747 303.779 C 250.695 303.030,250.652 303.710,250.653 305.291 M113.974 333.312 C 114.008 345.921,114.066 352.534,114.104 348.008 C 114.284 326.461,114.286 310.385,114.108 310.385 C 114.001 310.385,113.940 320.702,113.974 333.312 M54.232 334.944 C 54.328 335.304,54.516 335.774,54.649 335.990 C 54.817 336.262,54.838 336.182,54.716 335.728 C 54.620 335.369,54.433 334.899,54.299 334.683 C 54.131 334.411,54.111 334.491,54.232 334.944 M342.096 350.490 C 342.097 352.071,342.140 352.683,342.192 351.852 C 342.244 351.020,342.244 349.727,342.191 348.978 C 342.138 348.229,342.096 348.909,342.096 350.490 M41.019 357.544 C 41.945 358.478,42.761 359.242,42.833 359.242 C 42.905 359.242,42.206 358.478,41.280 357.544 C 40.354 356.610,39.538 355.846,39.466 355.846 C 39.395 355.846,40.093 356.610,41.019 357.544 M151.263 358.001 C 152.345 359.155,152.580 359.362,152.580 359.166 C 152.580 359.124,152.022 358.566,151.339 357.925 L 150.098 356.760 151.263 358.001 M325.408 362.900 C 326.261 363.762,327.018 364.468,327.090 364.468 C 327.162 364.468,326.523 363.762,325.669 362.900 C 324.816 362.038,324.059 361.332,323.988 361.332 C 323.916 361.332,324.555 362.038,325.408 362.900 M48.073 362.759 C 48.073 362.831,48.543 363.129,49.118 363.423 C 49.693 363.716,50.163 363.897,50.163 363.825 C 50.163 363.753,49.693 363.455,49.118 363.161 C 48.543 362.868,48.073 362.687,48.073 362.759 M102.221 365.970 C 105.634 366.011,111.218 366.011,114.631 365.970 C 118.044 365.928,115.251 365.895,108.426 365.895 C 101.600 365.895,98.808 365.928,102.221 365.970 " stroke="none" fill="#f46464" fill-rule="evenodd"></path><path id="path4" d="M218.285 102.482 L 214.892 105.944 218.354 102.551 C 221.570 99.400,221.934 99.020,221.747 99.020 C 221.709 99.020,220.151 100.578,218.285 102.482 M51.809 108.165 C 51.809 108.955,51.858 109.278,51.918 108.883 C 51.978 108.488,51.978 107.841,51.918 107.446 C 51.858 107.051,51.809 107.374,51.809 108.165 M206.529 114.239 L 202.351 118.485 206.597 114.307 C 210.541 110.427,210.961 109.993,210.774 109.993 C 210.737 109.993,208.826 111.904,206.529 114.239 M194.119 126.649 L 189.811 131.025 194.187 126.718 C 196.594 124.348,198.563 122.379,198.563 122.341 C 198.563 122.155,198.121 122.584,194.119 126.649 M181.708 139.059 L 177.531 143.305 181.777 139.128 C 185.721 135.247,186.140 134.814,185.954 134.814 C 185.916 134.814,184.006 136.724,181.708 139.059 M166.817 153.952 L 160.287 160.549 166.884 154.019 C 173.015 147.951,173.599 147.355,173.414 147.355 C 173.377 147.355,170.408 150.323,166.817 153.952 M98.748 161.528 C 99.831 162.682,100.065 162.889,100.065 162.693 C 100.065 162.651,99.507 162.093,98.824 161.452 L 97.583 160.287 98.748 161.528 M185.761 281.083 C 185.761 281.204,186.025 281.528,186.349 281.801 L 186.937 282.299 186.442 281.715 L 185.948 281.131 194.672 281.058 L 203.396 280.986 194.579 280.924 C 189.729 280.890,185.761 280.962,185.761 281.083 M228.285 281.047 C 228.610 281.109,229.080 281.107,229.330 281.042 C 229.580 280.976,229.314 280.925,228.739 280.928 C 228.165 280.931,227.960 280.984,228.285 281.047 M310.647 281.989 C 310.647 282.034,311.029 282.416,311.496 282.838 L 312.345 283.605 311.578 282.756 C 310.862 281.965,310.647 281.787,310.647 281.989 M188.112 283.295 C 188.112 283.340,188.494 283.722,188.961 284.144 L 189.811 284.912 189.043 284.063 C 188.328 283.271,188.112 283.093,188.112 283.295 M243.632 287.655 C 244.339 288.374,244.977 288.961,245.049 288.961 C 245.121 288.961,244.601 288.374,243.893 287.655 C 243.185 286.937,242.547 286.349,242.476 286.349 C 242.404 286.349,242.924 286.937,243.632 287.655 M191.374 322.796 C 191.374 341.907,191.405 349.687,191.443 340.084 C 191.481 330.481,191.481 314.844,191.443 305.336 C 191.405 295.827,191.374 303.684,191.374 322.796 M215.474 293.330 C 215.938 293.388,216.761 293.389,217.303 293.332 C 217.845 293.276,217.466 293.229,216.460 293.227 C 215.454 293.226,215.010 293.273,215.474 293.330 M228.167 310.255 C 228.169 311.117,228.217 311.438,228.276 310.969 C 228.334 310.499,228.333 309.794,228.273 309.401 C 228.213 309.008,228.166 309.393,228.167 310.255 M342.118 336.904 C 342.118 342.939,342.153 345.371,342.194 342.308 C 342.236 339.244,342.236 334.307,342.194 331.334 C 342.152 328.362,342.118 330.869,342.118 336.904 M366.147 331.940 C 366.147 335.245,366.185 336.561,366.231 334.864 C 366.276 333.168,366.276 330.464,366.230 328.855 C 366.184 327.247,366.147 328.635,366.147 331.940 M221.366 329.650 C 222.053 329.704,223.112 329.704,223.718 329.649 C 224.324 329.594,223.762 329.550,222.469 329.551 C 221.176 329.551,220.680 329.596,221.366 329.650 M366.154 348.269 C 366.154 353.945,366.189 356.267,366.231 353.429 C 366.273 350.591,366.273 345.947,366.231 343.109 C 366.189 340.271,366.154 342.593,366.154 348.269 M261.961 339.843 C 261.850 340.021,272.419 340.018,285.173 339.837 C 287.903 339.798,283.825 339.739,276.109 339.707 C 268.394 339.674,262.027 339.735,261.961 339.843 M295.056 356.499 C 295.057 357.505,295.105 357.884,295.161 357.342 C 295.218 356.800,295.217 355.977,295.159 355.513 C 295.101 355.050,295.055 355.493,295.056 356.499 M237.678 363.889 C 237.001 364.576,236.447 365.223,236.447 365.326 C 236.447 365.429,241.796 365.513,248.334 365.513 C 254.873 365.513,260.222 365.416,260.222 365.297 C 260.222 365.178,259.899 364.796,259.504 364.448 L 258.785 363.815 259.419 364.533 L 260.052 365.251 248.324 365.251 L 236.597 365.251 237.884 363.945 C 238.591 363.227,239.112 362.639,239.040 362.639 C 238.968 362.639,238.355 363.201,237.678 363.889 M327.472 364.923 L 327.968 365.509 309.314 365.578 L 290.660 365.647 309.406 365.710 C 319.716 365.745,328.152 365.675,328.152 365.553 C 328.152 365.432,327.887 365.108,327.564 364.835 L 326.976 364.337 327.472 364.923 M371.105 364.925 L 371.603 365.513 354.515 365.576 L 337.427 365.639 354.394 365.709 C 371.560 365.779,372.266 365.742,371.201 364.840 L 370.607 364.337 371.105 364.925 " stroke="none" fill="#505484" fill-rule="evenodd"></path></g></svg>